<svg width="660" height="410" viewBox="0 0 660 410" fill="none" xmlns="http://www.w3.org/2000/svg">
<g clip-path="url(#clip0_389_1786)">
<path d="M566.673 343.448C566.673 343.448 567.13 342.808 568.053 341.593C568.284 341.287 568.544 340.948 568.83 340.571C569.093 340.177 569.328 339.712 569.613 339.224C570.17 338.242 570.868 337.127 571.366 335.718C571.639 335.027 571.964 334.308 572.241 333.527C572.462 332.725 572.694 331.883 572.938 330.998C573.221 330.123 573.371 329.174 573.521 328.181C573.649 327.187 573.92 326.169 573.953 325.079C574.42 320.75 574.133 315.697 573.267 310.121C571.538 298.934 566.794 285.757 559.532 271.437C552.281 257.086 542.297 241.651 530.03 225.56C517.758 209.465 503.004 192.841 486.041 176.149C469.062 159.477 449.838 142.727 428.291 126.855C417.511 118.933 406.139 111.247 394.151 104.009C382.175 96.753 369.548 89.9902 356.233 84.126C342.915 78.3368 328.862 73.2911 314.041 70.9004C306.655 69.7614 299.035 69.2123 291.542 70.3463C287.805 70.9209 284.132 71.9406 280.673 73.4941C277.27 75.1549 274.139 77.3683 271.552 80.1648C269.066 83.0534 267.213 86.411 265.946 89.9816C264.8 93.5967 264.189 97.3601 264.048 101.14C263.763 108.717 265.178 116.226 267.148 123.438C271.206 137.896 277.819 151.287 285.088 163.863C292.429 176.428 300.587 188.208 309.16 199.282C317.717 210.371 326.649 220.794 335.748 230.604C353.973 250.209 372.802 267.403 391.3 282.376C409.817 297.329 428.011 310.096 445.399 320.457C462.78 330.812 479.253 338.973 494.333 344.544C509.387 350.13 523.015 353.343 534.325 353.786C539.963 354.012 545.015 353.72 549.261 352.765C550.341 352.61 551.321 352.224 552.293 351.984C553.262 351.723 554.188 351.466 555.025 351.084C555.876 350.741 556.686 350.415 557.458 350.103C558.203 349.738 558.88 349.334 559.535 348.985C560.877 348.33 561.905 347.51 562.818 346.845C563.269 346.505 563.704 346.219 564.066 345.914C564.407 345.586 564.715 345.291 564.992 345.025C566.09 343.975 566.673 343.448 566.673 343.448C566.673 343.448 566.136 344.016 565.05 345.095C564.777 345.366 564.472 345.668 564.136 346.002C563.778 346.314 563.344 346.608 562.896 346.955C561.987 347.636 560.962 348.471 559.62 349.143C558.966 349.501 558.287 349.916 557.54 350.289C556.768 350.608 555.954 350.944 555.102 351.295C554.261 351.686 553.333 351.952 552.36 352.221C551.384 352.47 550.397 352.864 549.314 353.028C545.048 354.017 539.971 354.337 534.307 354.138C522.943 353.745 509.261 350.57 494.156 345.017C479.022 339.478 462.502 331.341 445.072 321.004C427.636 310.662 409.394 297.907 390.833 282.957C372.29 267.989 353.416 250.791 335.144 231.171C326.023 221.352 317.067 210.914 308.485 199.809C299.888 188.716 291.704 176.913 284.333 164.31C277.036 151.693 270.389 138.254 266.293 123.683C264.307 116.412 262.871 108.828 263.158 101.117C263.302 97.268 263.923 93.421 265.101 89.7071C266.403 86.0358 268.316 82.5674 270.887 79.5833C273.561 76.6896 276.796 74.4046 280.295 72.6994C283.848 71.1034 287.603 70.0649 291.408 69.4783C299.035 68.3256 306.731 68.8883 314.177 70.0359C329.115 72.4505 343.218 77.5234 356.58 83.3365C369.937 89.2245 382.593 96.0112 394.588 103.289C406.596 110.55 417.981 118.259 428.773 126.202C450.343 142.12 469.574 158.913 486.554 175.63C503.518 192.369 518.266 209.04 530.526 225.185C542.78 241.325 552.745 256.813 559.972 271.219C567.21 285.594 571.922 298.826 573.606 310.074C574.45 315.679 574.71 320.758 574.213 325.11C574.174 326.205 573.896 327.23 573.76 328.229C573.603 329.226 573.444 330.18 573.153 331.058C572.9 331.944 572.66 332.792 572.432 333.595C572.147 334.38 571.813 335.101 571.531 335.793C571.016 337.203 570.303 338.319 569.73 339.297C569.437 339.783 569.195 340.247 568.926 340.638C568.632 341.011 568.366 341.347 568.128 341.649C567.176 342.849 566.673 343.448 566.673 343.448Z" fill="#8BC53F"/>
<path d="M621.277 211.686C621.277 211.686 621.192 210.905 621.073 209.384C621.044 209.002 621.01 208.576 620.972 208.105C620.906 207.636 620.771 207.131 620.66 206.579C620.423 205.474 620.201 204.178 619.635 202.797C619.38 202.099 619.144 201.346 618.829 200.578C618.46 199.833 618.072 199.049 617.666 198.227C617.296 197.385 616.774 196.578 616.227 195.737C615.661 194.91 615.185 193.969 614.482 193.135C611.948 189.593 608.372 186.014 604.014 182.428C595.277 175.231 582.967 168.555 568.014 162.704C553.051 156.821 535.325 151.948 515.46 148.106C495.587 144.264 473.512 141.679 449.741 140.514C425.972 139.375 400.476 139.672 373.831 142.17C360.513 143.435 346.911 145.269 333.146 147.847C319.38 150.405 305.454 153.762 291.614 158.252C277.821 162.796 263.976 168.386 251.326 176.469C245.056 180.535 239.004 185.197 234.168 191.031C231.762 193.949 229.699 197.153 228.152 200.616C226.718 204.12 225.855 207.856 225.785 211.666C225.852 215.475 226.704 219.215 228.135 222.724C229.687 226.185 231.736 229.4 234.146 232.316C238.975 238.158 245.032 242.821 251.302 246.892C263.954 254.979 277.804 260.571 291.599 265.117C305.442 269.607 319.372 272.968 333.139 275.525C346.906 278.104 360.51 279.938 373.831 281.202C400.481 283.7 425.979 283.997 449.75 282.858C473.522 281.691 495.597 279.106 515.47 275.264C535.334 271.423 553.059 266.549 568.021 260.666C582.972 254.814 595.282 248.14 604.017 240.942C608.374 237.358 611.95 233.777 614.484 230.237C615.185 229.403 615.662 228.462 616.227 227.635C616.776 226.794 617.296 225.988 617.666 225.145C618.072 224.323 618.46 223.539 618.829 222.795C619.143 222.028 619.378 221.274 619.634 220.577C620.2 219.194 620.421 217.9 620.658 216.795C620.769 216.242 620.904 215.738 620.97 215.269C621.008 214.798 621.04 214.372 621.071 213.99C621.192 212.467 621.277 211.686 621.277 211.686C621.277 211.686 621.254 212.467 621.163 213.995C621.139 214.379 621.114 214.807 621.085 215.281C621.027 215.751 620.899 216.259 620.793 216.817C620.568 217.929 620.36 219.237 619.806 220.63C619.555 221.334 619.325 222.095 619.015 222.869C618.65 223.621 618.266 224.412 617.864 225.242C617.497 226.093 616.98 226.91 616.435 227.758C615.872 228.593 615.398 229.545 614.699 230.387C612.173 233.966 608.598 237.583 604.239 241.205C595.498 248.476 583.173 255.215 568.205 261.125C553.225 267.066 535.479 271.99 515.591 275.878C495.695 279.766 473.592 282.39 449.789 283.591C425.986 284.764 400.454 284.495 373.757 282.015C360.414 280.76 346.784 278.932 332.986 276.357C319.188 273.803 305.222 270.442 291.331 265.944C277.487 261.386 263.583 255.783 250.826 247.633C244.505 243.531 238.383 238.826 233.465 232.88C231.012 229.913 228.912 226.627 227.32 223.072C225.846 219.465 224.965 215.603 224.898 211.664C224.967 207.725 225.86 203.866 227.337 200.265C228.926 196.708 231.037 193.434 233.486 190.465C238.41 184.527 244.527 179.824 250.85 175.725C263.605 167.583 277.506 161.981 291.347 157.425C305.234 152.927 319.196 149.569 332.993 147.015C346.788 144.44 360.414 142.614 373.756 141.357C400.447 138.877 425.977 138.608 449.779 139.779C473.58 140.978 495.683 143.603 515.579 147.49C535.467 151.377 553.213 156.301 568.195 162.242C583.165 168.151 595.49 174.89 604.232 182.162C608.592 185.784 612.168 189.401 614.695 192.98C615.394 193.822 615.87 194.774 616.433 195.609C616.979 196.459 617.495 197.275 617.864 198.126C618.266 198.957 618.65 199.748 619.015 200.502C619.325 201.278 619.553 202.038 619.806 202.741C620.36 204.135 620.57 205.442 620.795 206.555C620.899 207.113 621.027 207.621 621.086 208.092C621.115 208.566 621.141 208.994 621.165 209.377C621.254 210.905 621.277 211.686 621.277 211.686Z" fill="#8BC53F"/>
<path d="M548.939 47.669C548.939 47.669 548.269 47.2581 546.993 46.4208C546.673 46.2111 546.316 45.9758 545.921 45.7166C545.51 45.4829 545.029 45.2783 544.524 45.0276C543.506 44.5383 542.347 43.921 540.906 43.5203C540.198 43.2952 539.458 43.0206 538.658 42.7972C537.843 42.6318 536.987 42.4579 536.087 42.2772C535.195 42.0538 534.237 41.9702 533.237 41.8901C532.238 41.8304 531.203 41.6309 530.113 41.6735C525.762 41.5064 520.742 42.1391 515.239 43.3873C504.196 45.882 491.378 51.5228 477.593 59.7555C463.776 67.978 449.064 79.0004 433.858 92.347C418.646 105.699 403.079 121.562 387.594 139.634C372.132 157.721 356.746 178.054 342.395 200.643C335.235 211.943 328.351 223.816 321.954 236.274C315.541 248.721 309.663 261.784 304.732 275.474C299.874 289.16 295.809 303.526 294.444 318.475C293.817 325.922 293.793 333.561 295.442 340.958C296.272 344.647 297.543 348.241 299.33 351.585C301.221 354.866 303.646 357.836 306.613 360.225C309.665 362.507 313.142 364.124 316.791 365.143C320.476 366.037 324.274 366.386 328.054 366.269C335.632 366.032 343.027 364.101 350.085 361.641C364.23 356.595 377.133 349.077 389.179 340.958C401.209 332.768 412.398 323.819 422.855 314.504C433.328 305.204 443.111 295.576 452.273 285.822C470.575 266.291 486.431 246.321 500.095 226.836C513.737 207.334 525.221 188.302 534.359 170.242C543.492 152.189 550.501 135.195 555.018 119.765C559.554 104.364 561.82 90.5446 561.482 79.2306C561.319 73.5898 560.681 68.5714 559.434 64.4004C559.204 63.3347 558.754 62.3832 558.447 61.4283C558.12 60.4802 557.799 59.5747 557.361 58.7647C556.96 57.9394 556.578 57.1534 556.215 56.4048C555.801 55.6869 555.349 55.0389 554.955 54.4097C554.21 53.1154 553.321 52.1469 552.593 51.2823C552.225 50.856 551.908 50.44 551.579 50.1006C551.229 49.7835 550.912 49.4953 550.629 49.2378C549.503 48.2147 548.939 47.669 548.939 47.669C548.939 47.669 549.541 48.1669 550.694 49.1747C550.982 49.4288 551.306 49.7118 551.662 50.0239C551.998 50.3598 552.322 50.7708 552.697 51.1954C553.439 52.0548 554.343 53.0199 555.107 54.3125C555.509 54.9417 555.969 55.5897 556.392 56.3093C556.764 57.0579 557.155 57.8474 557.564 58.6727C558.011 59.4844 558.34 60.3915 558.676 61.343C558.991 62.2996 559.451 63.258 559.69 64.3254C560.971 68.5134 561.639 73.5557 561.83 79.2203C562.221 90.5838 559.997 104.452 555.495 119.903C551.012 135.383 544.033 152.425 534.92 170.524C525.804 188.629 514.335 207.707 500.7 227.256C487.044 246.785 471.189 266.799 452.871 286.38C443.704 296.156 433.909 305.809 423.421 315.137C412.947 324.478 401.736 333.456 389.67 341.676C377.585 349.825 364.637 357.381 350.382 362.471C343.266 364.954 335.797 366.91 328.085 367.154C324.236 367.275 320.353 366.922 316.568 366.001C312.816 364.956 309.223 363.286 306.069 360.926C302.998 358.459 300.496 355.388 298.554 352.015C296.716 348.581 295.422 344.906 294.576 341.151C292.9 333.623 292.932 325.905 293.565 318.397C294.944 303.328 299.033 288.909 303.913 275.179C308.867 261.447 314.767 248.356 321.201 235.886C327.617 223.405 334.524 211.517 341.704 200.203C356.098 177.588 371.526 157.245 387.035 139.153C402.566 121.076 418.182 105.216 433.444 91.8729C448.7 78.5365 463.466 67.5278 477.339 59.3275C491.18 51.1169 504.058 45.5034 515.162 43.0496C520.696 41.8219 525.746 41.2131 530.122 41.4092C531.217 41.3717 532.259 41.5798 533.265 41.6463C534.271 41.7349 535.232 41.827 536.129 42.0572C537.031 42.2482 537.893 42.4289 538.711 42.6029C539.512 42.8331 540.256 43.1178 540.965 43.3497C542.408 43.7658 543.569 44.4019 544.585 44.9049C545.09 45.1641 545.569 45.3738 545.979 45.6159C546.371 45.8837 546.726 46.1258 547.043 46.3424C548.306 47.2086 548.939 47.669 548.939 47.669Z" fill="#8BC53F"/>
<path d="M223.185 293.39C226.056 296.262 226.056 300.917 223.185 303.787C220.313 306.658 215.658 306.658 212.786 303.787C209.915 300.915 209.915 296.26 212.786 293.39C215.658 290.518 220.313 290.518 223.185 293.39Z" fill="#8BC53F"/>
<path d="M638.003 65.565C638.003 69.6251 634.712 72.9178 630.65 72.9178C626.588 72.9178 623.297 69.6268 623.297 65.565C623.297 61.5049 626.588 58.2139 630.65 58.2139C634.712 58.2139 638.003 61.5032 638.003 65.565Z" fill="#8BC53F"/>
<path d="M269.609 317.564C269.609 318.596 268.772 319.433 267.74 319.433C266.708 319.433 265.871 318.596 265.871 317.564C265.871 316.533 266.708 315.695 267.74 315.695C268.772 315.695 269.609 316.533 269.609 317.564Z" fill="#8BC53F"/>
<path d="M309.496 111.543C309.496 112.574 308.658 113.412 307.627 113.412C306.595 113.412 305.758 112.574 305.758 111.543C305.758 110.511 306.595 109.674 307.627 109.674C308.66 109.674 309.496 110.511 309.496 111.543Z" fill="#8BC53F"/>
<path d="M601.074 211.685C601.074 212.717 600.236 213.554 599.205 213.554C598.173 213.554 597.336 212.717 597.336 211.685C597.336 210.654 598.173 209.816 599.205 209.816C600.238 209.816 601.074 210.654 601.074 211.685Z" fill="#8BC53F"/>
<path d="M627.035 124.577C627.035 125.609 626.197 126.446 625.166 126.446C624.134 126.446 623.297 125.609 623.297 124.577C623.297 123.546 624.134 122.708 625.166 122.708C626.197 122.708 627.035 123.546 627.035 124.577Z" fill="#8BC53F"/>
<path d="M175.638 -9.7168H115.223V72.9562H175.638V-9.7168Z" fill="#F5F5F5"/>
<path d="M33.8658 122.054H208.371C208.371 122.054 225.821 95.8779 208.371 73.7743C190.92 51.6699 170.561 63.8856 170.561 63.8856C170.561 63.8856 170.755 21.4231 124.996 19.0961C79.2369 16.7691 75.7468 57.487 75.7468 57.487C75.7468 57.487 60.6234 44.6897 47.8261 55.7423C35.0289 66.7941 43.173 79.0098 43.173 79.0098C43.173 79.0098 21.093 79.5612 21.0003 101.696C20.9319 117.982 33.8658 122.054 33.8658 122.054Z" fill="#8BC53F"/>
<g opacity="0.8">
<path d="M33.8658 122.054H208.371C208.371 122.054 225.821 95.8779 208.371 73.7743C190.92 51.6699 170.561 63.8856 170.561 63.8856C170.561 63.8856 170.755 21.4231 124.996 19.0961C79.2369 16.7691 75.7468 57.487 75.7468 57.487C75.7468 57.487 60.6234 44.6897 47.8261 55.7423C35.0289 66.7941 43.173 79.0098 43.173 79.0098C43.173 79.0098 21.093 79.5612 21.0003 101.696C20.9319 117.982 33.8658 122.054 33.8658 122.054Z" fill="#E9FFCB"/>
</g>
<path d="M162.635 129.639C162.635 129.639 162.768 129.467 163.035 129.139C163.101 129.057 163.176 128.965 163.259 128.864C163.336 128.758 163.405 128.632 163.489 128.499C163.652 128.233 163.855 127.931 164.007 127.547C164.089 127.358 164.186 127.162 164.269 126.949C164.339 126.729 164.411 126.498 164.487 126.256C164.574 126.017 164.624 125.756 164.674 125.482C164.719 125.209 164.804 124.929 164.823 124.628C164.994 123.435 164.963 122.035 164.777 120.484C164.406 117.373 163.22 113.683 161.348 109.653C159.48 105.614 156.866 101.25 153.628 96.6817C150.387 92.1123 146.465 87.3729 141.934 82.5937C137.397 77.8202 132.241 73.0027 126.432 68.4065C123.526 66.112 120.455 63.8778 117.208 61.7606C113.965 59.6394 110.538 57.6475 106.91 55.8988C103.282 54.1696 99.4439 52.6397 95.3674 51.8369C93.3357 51.4514 91.2332 51.2261 89.1494 51.4685C88.1099 51.5921 87.0843 51.8386 86.1131 52.2347C85.1558 52.6617 84.2684 53.244 83.5267 53.9923C82.8117 54.7674 82.2668 55.6784 81.8821 56.6536C81.5307 57.6426 81.3258 58.6772 81.2501 59.7215C81.0988 61.8143 81.4185 63.9054 81.8943 65.9184C82.8784 69.9567 84.5792 73.7233 86.4694 77.2712C88.3799 80.8174 90.5231 84.1529 92.7883 87.2981C95.0486 90.4466 97.4195 93.4153 99.8424 96.2165C104.696 101.813 109.739 106.749 114.712 111.067C119.691 115.381 124.601 119.086 129.311 122.118C134.019 125.149 138.497 127.564 142.615 129.249C146.725 130.938 150.464 131.957 153.588 132.188C155.145 132.304 156.545 132.272 157.728 132.048C158.029 132.015 158.304 131.918 158.575 131.861C158.845 131.797 159.104 131.735 159.339 131.638C159.577 131.551 159.805 131.469 160.021 131.39C160.231 131.296 160.422 131.19 160.607 131.1C160.984 130.932 161.276 130.715 161.535 130.54C161.663 130.45 161.786 130.376 161.89 130.294C161.987 130.207 162.075 130.128 162.154 130.058C162.469 129.779 162.635 129.639 162.635 129.639C162.635 129.639 162.481 129.791 162.171 130.079C162.093 130.152 162.006 130.232 161.909 130.322C161.807 130.405 161.685 130.482 161.557 130.573C161.299 130.753 161.008 130.974 160.63 131.147C160.445 131.24 160.253 131.348 160.043 131.444C159.826 131.525 159.598 131.61 159.359 131.699C159.123 131.799 158.864 131.863 158.592 131.929C158.32 131.988 158.043 132.088 157.742 132.123C156.552 132.355 155.146 132.395 153.581 132.286C150.442 132.069 146.688 131.06 142.564 129.378C138.431 127.701 133.939 125.293 129.217 122.266C124.494 119.239 119.57 115.536 114.58 111.224C109.594 106.906 104.538 101.968 99.6725 96.367C97.243 93.5633 94.8664 90.5914 92.5988 87.4372C90.3271 84.2871 88.1766 80.9442 86.2587 77.3875C84.3612 73.8274 82.6515 70.047 81.6584 65.9778C81.1785 63.9477 80.854 61.8362 81.0069 59.7061C81.0834 58.643 81.2924 57.5848 81.6535 56.569C82.0488 55.5661 82.6109 54.6251 83.351 53.8239C84.118 53.0496 85.0346 52.4486 86.0188 52.0102C87.0168 51.6027 88.0652 51.3513 89.1233 51.2261C91.2437 50.9805 93.3674 51.2098 95.4154 51.5986C99.5244 52.4095 103.376 53.9476 107.016 55.6832C110.654 57.4393 114.09 59.4377 117.338 61.5662C120.589 63.6899 123.665 65.9306 126.574 68.2308C132.388 72.84 137.546 77.6689 142.083 82.4555C146.615 87.2477 150.534 92.0001 153.771 96.5833C157.005 101.165 159.614 105.544 161.474 109.598C163.338 113.643 164.515 117.348 164.873 120.475C165.053 122.034 165.076 123.442 164.897 124.641C164.875 124.943 164.788 125.224 164.741 125.499C164.688 125.773 164.635 126.035 164.546 126.275C164.468 126.519 164.393 126.75 164.322 126.97C164.236 127.184 164.137 127.381 164.052 127.569C163.897 127.955 163.689 128.256 163.52 128.522C163.435 128.654 163.363 128.78 163.285 128.885C163.2 128.985 163.123 129.076 163.054 129.157C162.78 129.478 162.635 129.639 162.635 129.639Z" fill="#8BC53F"/>
<path d="M178.994 93.7155C178.994 93.7155 178.978 93.4984 178.959 93.0771C178.955 92.9713 178.95 92.8526 178.944 92.7225C178.93 92.5923 178.898 92.4516 178.872 92.2971C178.817 91.9896 178.768 91.6285 178.625 91.2413C178.561 91.0461 178.503 90.8355 178.423 90.6199C178.329 90.4101 178.229 90.1897 178.124 89.9587C178.03 89.722 177.893 89.4934 177.75 89.2559C177.601 89.0217 177.479 88.7574 177.293 88.5199C176.626 87.5162 175.671 86.4922 174.5 85.4584C172.152 83.3836 168.811 81.4193 164.732 79.6584C160.648 77.8878 155.793 76.3701 150.335 75.1175C144.876 73.8649 138.795 72.9386 132.231 72.3887C125.668 71.8462 118.613 71.6844 111.219 72.1203C107.523 72.3424 103.743 72.7198 99.9117 73.3005C96.08 73.8755 92.1954 74.6718 88.3247 75.7804C84.4662 76.9052 80.5832 78.3189 77.0069 80.4327C75.2338 81.4974 73.5152 82.7288 72.122 84.2962C71.4282 85.0802 70.8271 85.9464 70.3659 86.8899C69.9357 87.8456 69.6616 88.8704 69.6055 89.9237C69.5876 90.9786 69.7876 92.0205 70.1496 93.0047C70.5457 93.9766 71.0817 94.8851 71.7202 95.7148C73.0004 97.3772 74.6303 98.725 76.3262 99.9108C79.7487 102.269 83.5251 103.948 87.2974 105.337C91.0836 106.712 94.9039 107.774 98.6876 108.614C102.47 109.459 106.216 110.096 109.888 110.574C117.235 111.52 124.285 111.846 130.871 111.759C137.457 111.664 143.588 111.16 149.122 110.288C154.652 109.415 159.602 108.237 163.797 106.753C167.988 105.277 171.457 103.549 173.942 101.642C175.181 100.692 176.205 99.7359 176.939 98.7811C177.141 98.5574 177.281 98.302 177.446 98.0784C177.606 97.8514 177.757 97.6326 177.868 97.4033C177.988 97.1796 178.103 96.9665 178.212 96.764C178.306 96.555 178.379 96.3484 178.456 96.158C178.626 95.7815 178.699 95.4252 178.776 95.1218C178.811 94.9697 178.854 94.8315 178.876 94.703C178.891 94.5728 178.904 94.4557 178.916 94.35C178.963 93.9311 178.994 93.7155 178.994 93.7155C178.994 93.7155 178.981 93.9311 178.941 94.3532C178.931 94.4589 178.92 94.5777 178.907 94.7078C178.885 94.8371 178.846 94.9771 178.811 95.13C178.739 95.4358 178.668 95.7945 178.501 96.1751C178.426 96.3671 178.354 96.5753 178.262 96.7867C178.153 96.9917 178.039 97.2064 177.921 97.4326C177.811 97.6644 177.66 97.8848 177.501 98.1149C177.338 98.3411 177.197 98.5989 176.995 98.8258C176.262 99.7913 175.239 100.758 173.999 101.717C171.512 103.645 168.039 105.391 163.842 106.882C159.642 108.382 154.686 109.574 149.148 110.459C143.607 111.344 137.469 111.858 130.873 111.962C124.279 112.059 117.219 111.74 109.859 110.798C106.18 110.323 102.428 109.687 98.6363 108.843C94.8437 108.004 91.0136 106.941 87.2153 105.564C83.43 104.17 79.6373 102.488 76.1871 100.111C74.4774 98.9153 72.8296 97.5562 71.5266 95.8644C70.8759 95.0201 70.3269 94.0913 69.921 93.0925C69.5485 92.0807 69.3411 91.0047 69.3606 89.914C69.4176 88.8249 69.7014 87.7667 70.1439 86.7842C70.6173 85.8155 71.233 84.9298 71.9381 84.1327C73.3566 82.5377 75.0939 81.2949 76.8817 80.2221C80.4873 78.0919 84.3865 76.6759 88.258 75.5486C92.1425 74.4375 96.0361 73.6421 99.8767 73.0679C103.717 72.488 107.503 72.113 111.206 71.8934C118.612 71.4631 125.676 71.6331 132.248 72.1846C138.82 72.7442 144.909 73.682 150.374 74.9475C155.838 76.2131 160.699 77.7446 164.786 79.5316C168.87 81.3087 172.214 83.2908 174.563 85.386C175.734 86.4296 176.689 87.4641 177.354 88.4784C177.539 88.7183 177.661 88.9859 177.809 89.2218C177.952 89.4617 178.087 89.6927 178.181 89.931C178.284 90.1645 178.383 90.3873 178.476 90.5988C178.554 90.816 178.61 91.029 178.674 91.2259C178.814 91.6171 178.859 91.9807 178.911 92.2906C178.934 92.4459 178.964 92.5874 178.976 92.7184C178.98 92.8493 178.983 92.9689 178.985 93.0746C178.995 93.4992 178.994 93.7155 178.994 93.7155Z" fill="#8BC53F"/>
<path d="M160.549 47.6569C160.549 47.6569 160.368 47.5365 160.023 47.2934C159.937 47.2324 159.84 47.164 159.733 47.0884C159.622 47.0193 159.491 46.9591 159.354 46.8842C159.076 46.7395 158.762 46.5573 158.368 46.4328C158.174 46.3637 157.972 46.2807 157.753 46.2116C157.529 46.1579 157.293 46.1018 157.047 46.0424C156.802 45.9725 156.539 45.94 156.262 45.9082C155.986 45.8822 155.702 45.8171 155.4 45.8188C154.198 45.7309 152.804 45.8578 151.269 46.1506C148.191 46.7354 144.591 48.1726 140.7 50.3174C136.799 52.4589 132.625 55.3675 128.29 58.9129C123.955 62.4599 119.497 66.6991 115.042 71.549C110.592 76.4039 106.141 81.8802 101.956 87.9909C99.867 91.0483 97.849 94.2659 95.9613 97.6502C94.0686 101.031 92.3175 104.588 90.8225 108.327C89.3479 112.066 88.0856 116 87.5651 120.123C87.3202 122.177 87.2405 124.29 87.626 126.352C87.8204 127.38 88.1377 128.386 88.5996 129.329C89.0917 130.254 89.7334 131.099 90.5313 131.788C91.3536 132.449 92.3004 132.929 93.3 133.246C94.311 133.529 95.3577 133.661 96.4045 133.664C98.5022 133.671 100.566 133.208 102.542 132.595C106.502 131.335 110.144 129.379 113.553 127.249C116.959 125.099 120.14 122.731 123.121 120.254C126.107 117.781 128.905 115.213 131.532 112.603C136.782 107.375 141.358 102.004 145.324 96.7458C149.284 91.4826 152.643 86.3284 155.343 81.4207C158.043 76.5145 160.143 71.8817 161.541 67.6564C162.943 63.44 163.702 59.64 163.717 56.507C163.726 54.9454 163.598 53.5513 163.293 52.3857C163.24 52.0889 163.124 51.8213 163.048 51.5545C162.967 51.2893 162.887 51.0356 162.773 50.8078C162.671 50.576 162.572 50.3548 162.479 50.1442C162.37 49.9416 162.252 49.7578 162.149 49.5805C161.956 49.2153 161.719 48.9388 161.526 48.6931C161.429 48.5719 161.345 48.454 161.257 48.3564C161.163 48.2653 161.079 48.1824 161.002 48.1091C160.701 47.8139 160.549 47.6569 160.549 47.6569C160.549 47.6569 160.711 47.8001 161.02 48.0904C161.097 48.1636 161.185 48.245 161.28 48.3345C161.369 48.4304 161.455 48.5475 161.555 48.6687C161.751 48.9136 161.992 49.1893 162.191 49.5545C162.296 49.7326 162.417 49.9164 162.527 50.1189C162.623 50.3296 162.723 50.5516 162.828 50.7843C162.945 51.0128 163.027 51.2674 163.111 51.5342C163.189 51.8018 163.307 52.071 163.363 52.3687C163.677 53.5399 163.813 54.9405 163.812 56.5086C163.812 59.6554 163.063 63.4701 161.671 67.7003C160.283 71.9386 158.189 76.5853 155.495 81.5044C152.8 86.4252 149.445 91.5924 145.487 96.8686C141.523 102.14 136.945 107.523 131.692 112.764C129.062 115.38 126.261 117.956 123.27 120.435C120.284 122.919 117.097 125.294 113.681 127.453C110.26 129.591 106.606 131.557 102.615 132.828C100.623 133.447 98.5388 133.916 96.4037 133.91C95.3382 133.907 94.2679 133.772 93.2292 133.481C92.2011 133.155 91.2235 132.659 90.3735 131.977C89.548 131.265 88.8851 130.392 88.38 129.44C87.9042 128.472 87.5813 127.444 87.3837 126.397C86.9925 124.299 87.0746 122.165 87.3219 120.094C87.8473 115.939 89.1169 111.99 90.598 108.239C92.0995 104.489 93.8563 100.924 95.7555 97.5372C97.6498 94.1463 99.6734 90.9238 101.769 87.864C105.966 81.7468 110.428 76.2681 114.891 71.4124C119.36 66.5616 123.831 62.324 128.18 58.7795C132.528 55.2365 136.717 52.3337 140.633 50.1978C144.54 48.0587 148.155 46.6297 151.25 46.0571C152.792 45.7708 154.195 45.6504 155.404 45.7464C155.707 45.7464 155.994 45.8139 156.271 45.8423C156.548 45.8765 156.814 45.9115 157.059 45.9839C157.307 46.0457 157.543 46.1034 157.768 46.1595C157.988 46.2311 158.191 46.3165 158.385 46.3881C158.78 46.5166 159.095 46.7037 159.372 46.8533C159.509 46.9298 159.639 46.9924 159.75 47.0632C159.856 47.1413 159.951 47.2112 160.037 47.2747C160.378 47.5244 160.549 47.6569 160.549 47.6569Z" fill="#8BC53F"/>
<path d="M79.128 108.557C79.895 109.378 79.8502 110.666 79.0288 111.433C78.2073 112.2 76.9197 112.155 76.1528 111.333C75.3858 110.512 75.4305 109.224 76.252 108.457C77.0735 107.69 78.361 107.735 79.128 108.557Z" fill="#8BC53F"/>
<path d="M135.424 36.5658C135.385 37.689 134.443 38.5674 133.32 38.5292C132.197 38.4902 131.318 37.5483 131.357 36.4251C131.396 35.3018 132.338 34.4234 133.461 34.4617C134.584 34.5007 135.463 35.4426 135.424 36.5658Z" fill="#8BC53F"/>
<path d="M80.7099 119.636C80.7001 119.921 80.4602 120.145 80.1747 120.134C79.8892 120.125 79.6656 119.885 79.6761 119.6C79.6859 119.315 79.9258 119.091 80.2113 119.101C80.496 119.111 80.7197 119.35 80.7099 119.636Z" fill="#8BC53F"/>
<path d="M93.7138 63.0331C93.7041 63.3186 93.4641 63.5423 93.1786 63.5317C92.8932 63.5219 92.6695 63.2828 92.68 62.9965C92.6898 62.711 92.9297 62.4873 93.2152 62.4979C93.4999 62.5085 93.7236 62.7476 93.7138 63.0331Z" fill="#8BC53F"/>
<path d="M173.393 93.5228C173.384 93.8083 173.145 94.0319 172.858 94.0214C172.573 94.0116 172.35 93.7725 172.36 93.487C172.369 93.2015 172.609 92.9779 172.894 92.9876C173.18 92.9982 173.403 93.2373 173.393 93.5228Z" fill="#8BC53F"/>
<path d="M176.323 69.6773C176.313 69.9628 176.074 70.1865 175.788 70.1759C175.503 70.1661 175.279 69.927 175.289 69.6415C175.299 69.356 175.539 69.1324 175.825 69.1429C176.109 69.1527 176.333 69.3918 176.323 69.6773Z" fill="#8BC53F"/>
<path d="M146.969 103.638H140.052V65.9889C140.052 57.127 132.843 49.9174 123.981 49.9174C115.119 49.9174 107.909 57.127 107.909 65.9889V103.638H100.992V65.9889C100.992 53.3137 111.306 43.0002 123.981 43.0002C136.656 43.0002 146.969 53.3127 146.969 65.9889V103.638Z" fill="#263238"/>
<path d="M149.219 126.641H98.7422C95.5712 126.641 93 124.069 93 120.898V92.6309C93 89.4599 95.5712 86.8887 98.7422 86.8887H149.219C152.39 86.8887 154.961 89.4599 154.961 92.6309V120.898C154.961 124.07 152.39 126.641 149.219 126.641Z" fill="#8BC53F"/>
<path d="M129.167 101.587C129.167 104.447 126.848 106.766 123.988 106.766C121.128 106.766 118.809 104.447 118.809 101.587C118.809 98.7259 121.127 96.4077 123.988 96.4077C126.847 96.4087 129.167 98.7269 129.167 101.587Z" fill="#263238"/>
<path d="M125.399 103.638H122.574V114.288H125.399V103.638Z" fill="#263238"/>
<path d="M96.3116 122.871C96.1693 122.871 96.0547 116.242 96.0547 108.066C96.0547 99.8874 96.1693 93.2598 96.3116 93.2598C96.4539 93.2598 96.5686 99.8874 96.5686 108.066C96.5686 116.242 96.4539 122.871 96.3116 122.871Z" fill="#FAFAFA"/>
<path d="M119.927 108.225C119.91 108.251 119.684 108.144 119.319 107.881C118.954 107.619 118.468 107.171 117.984 106.52C117.019 105.253 116.136 102.952 116.709 100.467C117.311 97.9891 119.132 96.328 120.564 95.6293C121.288 95.2637 121.922 95.0819 122.367 95.0117C122.811 94.9396 123.061 94.9455 123.065 94.9762C123.086 95.073 122.082 95.1679 120.738 95.9485C119.416 96.6956 117.764 98.2964 117.21 100.586C116.678 102.88 117.437 105.052 118.284 106.312C119.135 107.614 119.99 108.147 119.927 108.225Z" fill="#FAFAFA"/>
<path d="M387.037 248.496H252.867V395.702H387.037V248.496Z" fill="#597F27"/>
<path d="M379.95 277.939H233.277V314.328H379.95V277.939Z" fill="#8BC53F"/>
<path d="M268.668 285.434H239.789V289.877H268.668V285.434Z" fill="#597F27"/>
<path d="M268.668 293.079H239.789V297.522H268.668V293.079Z" fill="#597F27"/>
<path d="M268.668 300.985H239.789V305.427H268.668V300.985Z" fill="#597F27"/>
<path d="M280.088 288.119C280.088 289.033 279.346 289.776 278.431 289.776C277.515 289.776 276.773 289.034 276.773 288.119C276.773 287.203 277.515 286.462 278.431 286.462C279.346 286.462 280.088 287.203 280.088 288.119Z" fill="#597F27"/>
<path d="M287.396 288.119C287.396 289.033 286.655 289.776 285.739 289.776C284.824 289.776 284.082 289.034 284.082 288.119C284.082 287.203 284.824 286.462 285.739 286.462C286.655 286.462 287.396 287.203 287.396 288.119Z" fill="#597F27"/>
<path d="M294.709 288.119C294.709 289.033 293.967 289.776 293.052 289.776C292.136 289.776 291.395 289.034 291.395 288.119C291.395 287.203 292.136 286.462 293.052 286.462C293.967 286.462 294.709 287.203 294.709 288.119Z" fill="#597F27"/>
<path d="M302.021 288.119C302.021 289.033 301.28 289.776 300.364 289.776C299.449 289.776 298.707 289.034 298.707 288.119C298.707 287.203 299.449 286.462 300.364 286.462C301.28 286.462 302.021 287.203 302.021 288.119Z" fill="#597F27"/>
<path d="M358.67 288.119C358.67 289.033 357.928 289.776 357.013 289.776C356.097 289.776 355.355 289.034 355.355 288.119C355.355 287.203 356.097 286.462 357.013 286.462C357.928 286.462 358.67 287.203 358.67 288.119Z" fill="#597F27"/>
<path d="M366.127 288.119C366.127 289.033 365.385 289.776 364.47 289.776C363.554 289.776 362.812 289.034 362.812 288.119C362.812 287.203 363.554 286.462 364.47 286.462C365.385 286.462 366.127 287.203 366.127 288.119Z" fill="#597F27"/>
<path d="M309.334 288.119C309.334 289.033 308.592 289.776 307.677 289.776C306.761 289.776 306.02 289.034 306.02 288.119C306.02 287.203 306.761 286.462 307.677 286.462C308.592 286.462 309.334 287.203 309.334 288.119Z" fill="#597F27"/>
<path d="M345.236 288.119C345.236 289.033 344.494 289.776 343.579 289.776C342.663 289.776 341.922 289.034 341.922 288.119C341.922 287.203 342.663 286.462 343.579 286.462C344.494 286.462 345.236 287.203 345.236 288.119Z" fill="#597F27"/>
<path d="M316.642 288.119C316.642 289.033 315.901 289.776 314.985 289.776C314.07 289.776 313.328 289.034 313.328 288.119C313.328 287.203 314.07 286.462 314.985 286.462C315.901 286.462 316.642 287.203 316.642 288.119Z" fill="#F5F5F5"/>
<path d="M323.951 288.119C323.951 289.033 323.209 289.776 322.294 289.776C321.378 289.776 320.637 289.034 320.637 288.119C320.637 287.203 321.378 286.462 322.294 286.462C323.209 286.462 323.951 287.203 323.951 288.119Z" fill="#F5F5F5"/>
<path d="M338.787 288.119C338.787 289.033 338.045 289.776 337.13 289.776C336.214 289.776 335.473 289.034 335.473 288.119C335.473 287.203 336.214 286.462 337.13 286.462C338.045 286.462 338.787 287.203 338.787 288.119Z" fill="#F5F5F5"/>
<path d="M372.193 288.119C372.193 289.033 371.451 289.776 370.536 289.776C369.621 289.776 368.879 289.034 368.879 288.119C368.879 287.203 369.621 286.462 370.536 286.462C371.451 286.462 372.193 287.203 372.193 288.119Z" fill="#F5F5F5"/>
<path d="M331.263 288.119C331.263 289.033 330.522 289.776 329.606 289.776C328.691 289.776 327.949 289.034 327.949 288.119C327.949 287.203 328.691 286.462 329.606 286.462C330.522 286.462 331.263 287.203 331.263 288.119Z" fill="#C53F8B"/>
<path d="M352.193 288.119C352.193 289.033 351.451 289.776 350.536 289.776C349.621 289.776 348.879 289.034 348.879 288.119C348.879 287.203 349.621 286.462 350.536 286.462C351.451 286.462 352.193 287.203 352.193 288.119Z" fill="#C53F8B"/>
<path d="M368.879 296.104C368.879 295.189 369.621 294.447 370.536 294.447C371.45 294.447 372.193 295.189 372.193 296.104C372.193 297.019 371.451 297.761 370.536 297.761C369.621 297.761 368.879 297.019 368.879 296.104Z" fill="#597F27"/>
<path d="M361.57 296.104C361.57 295.189 362.312 294.447 363.227 294.447C364.143 294.447 364.884 295.189 364.884 296.104C364.884 297.019 364.143 297.761 363.227 297.761C362.312 297.761 361.57 297.019 361.57 296.104Z" fill="#597F27"/>
<path d="M354.258 296.104C354.258 295.189 354.999 294.447 355.915 294.447C356.829 294.447 357.572 295.189 357.572 296.104C357.572 297.019 356.83 297.761 355.915 297.761C354.999 297.761 354.258 297.019 354.258 296.104Z" fill="#597F27"/>
<path d="M346.945 296.104C346.945 295.189 347.687 294.447 348.602 294.447C349.517 294.447 350.26 295.189 350.26 296.104C350.26 297.019 349.518 297.761 348.602 297.761C347.687 297.761 346.945 297.019 346.945 296.104Z" fill="#597F27"/>
<path d="M290.297 296.104C290.297 295.189 291.039 294.447 291.954 294.447C292.868 294.447 293.611 295.189 293.611 296.104C293.611 297.019 292.869 297.761 291.954 297.761C291.039 297.761 290.297 297.019 290.297 296.104Z" fill="#597F27"/>
<path d="M282.836 296.104C282.836 295.189 283.578 294.447 284.493 294.447C285.408 294.447 286.15 295.189 286.15 296.104C286.15 297.019 285.408 297.761 284.493 297.761C283.578 297.761 282.836 297.019 282.836 296.104Z" fill="#597F27"/>
<path d="M339.633 296.104C339.633 295.189 340.374 294.447 341.29 294.447C342.204 294.447 342.947 295.189 342.947 296.104C342.947 297.019 342.205 297.761 341.29 297.761C340.374 297.761 339.633 297.019 339.633 296.104Z" fill="#597F27"/>
<path d="M303.73 296.104C303.73 295.189 304.472 294.447 305.388 294.447C306.303 294.447 307.045 295.189 307.045 296.104C307.045 297.019 306.303 297.761 305.388 297.761C304.472 297.761 303.73 297.019 303.73 296.104Z" fill="#597F27"/>
<path d="M332.324 296.104C332.324 295.189 333.066 294.447 333.981 294.447C334.896 294.447 335.638 295.189 335.638 296.104C335.638 297.019 334.897 297.761 333.981 297.761C333.066 297.761 332.324 297.019 332.324 296.104Z" fill="#F5F5F5"/>
<path d="M325.016 296.104C325.016 295.189 325.757 294.447 326.673 294.447C327.587 294.447 328.33 295.189 328.33 296.104C328.33 297.019 327.588 297.761 326.673 297.761C325.757 297.761 325.016 297.019 325.016 296.104Z" fill="#F5F5F5"/>
<path d="M310.18 296.104C310.18 295.189 310.921 294.447 311.837 294.447C312.752 294.447 313.494 295.189 313.494 296.104C313.494 297.019 312.752 297.761 311.837 297.761C310.923 297.761 310.18 297.019 310.18 296.104Z" fill="#F5F5F5"/>
<path d="M276.773 296.104C276.773 295.189 277.515 294.447 278.431 294.447C279.346 294.447 280.088 295.189 280.088 296.104C280.088 297.019 279.346 297.761 278.431 297.761C277.515 297.761 276.773 297.019 276.773 296.104Z" fill="#F5F5F5"/>
<path d="M317.703 296.104C317.703 295.189 318.445 294.447 319.36 294.447C320.274 294.447 321.017 295.189 321.017 296.104C321.017 297.019 320.276 297.761 319.36 297.761C318.445 297.761 317.703 297.019 317.703 296.104Z" fill="#C53F8B"/>
<path d="M296.773 296.104C296.773 295.189 297.515 294.447 298.431 294.447C299.346 294.447 300.088 295.189 300.088 296.104C300.088 297.019 299.346 297.761 298.431 297.761C297.515 297.761 296.773 297.019 296.773 296.104Z" fill="#C53F8B"/>
<path d="M278.431 304.863C279.346 304.863 280.088 304.121 280.088 303.206C280.088 302.291 279.346 301.549 278.431 301.549C277.515 301.549 276.773 302.291 276.773 303.206C276.773 304.121 277.515 304.863 278.431 304.863Z" fill="#597F27"/>
<path d="M285.739 304.863C286.654 304.863 287.396 304.121 287.396 303.206C287.396 302.291 286.654 301.549 285.739 301.549C284.824 301.549 284.082 302.291 284.082 303.206C284.082 304.121 284.824 304.863 285.739 304.863Z" fill="#597F27"/>
<path d="M293.052 304.863C293.967 304.863 294.709 304.121 294.709 303.206C294.709 302.291 293.967 301.549 293.052 301.549C292.136 301.549 291.395 302.291 291.395 303.206C291.395 304.121 292.136 304.863 293.052 304.863Z" fill="#597F27"/>
<path d="M300.36 304.863C301.275 304.863 302.017 304.121 302.017 303.206C302.017 302.291 301.275 301.549 300.36 301.549C299.445 301.549 298.703 302.291 298.703 303.206C298.703 304.121 299.445 304.863 300.36 304.863Z" fill="#597F27"/>
<path d="M357.013 304.863C357.928 304.863 358.67 304.121 358.67 303.206C358.67 302.291 357.928 301.549 357.013 301.549C356.097 301.549 355.355 302.291 355.355 303.206C355.355 304.121 356.097 304.863 357.013 304.863Z" fill="#597F27"/>
<path d="M364.47 304.863C365.385 304.863 366.127 304.121 366.127 303.206C366.127 302.291 365.385 301.549 364.47 301.549C363.554 301.549 362.812 302.291 362.812 303.206C362.812 304.121 363.554 304.863 364.47 304.863Z" fill="#597F27"/>
<path d="M307.677 304.863C308.592 304.863 309.334 304.121 309.334 303.206C309.334 302.291 308.592 301.549 307.677 301.549C306.761 301.549 306.02 302.291 306.02 303.206C306.02 304.121 306.761 304.863 307.677 304.863Z" fill="#597F27"/>
<path d="M345.232 303.206C345.232 304.122 344.49 304.863 343.575 304.863C342.66 304.863 341.918 304.122 341.918 303.206C341.918 302.291 342.66 301.549 343.575 301.549C344.49 301.549 345.232 302.291 345.232 303.206Z" fill="#597F27"/>
<path d="M314.985 304.863C315.9 304.863 316.642 304.121 316.642 303.206C316.642 302.291 315.9 301.549 314.985 301.549C314.07 301.549 313.328 302.291 313.328 303.206C313.328 304.121 314.07 304.863 314.985 304.863Z" fill="#F5F5F5"/>
<path d="M323.951 303.206C323.951 304.122 323.209 304.863 322.294 304.863C321.378 304.863 320.637 304.122 320.637 303.206C320.637 302.291 321.378 301.549 322.294 301.549C323.209 301.549 323.951 302.291 323.951 303.206Z" fill="#F5F5F5"/>
<path d="M337.13 304.863C338.045 304.863 338.787 304.121 338.787 303.206C338.787 302.291 338.045 301.549 337.13 301.549C336.215 301.549 335.473 302.291 335.473 303.206C335.473 304.121 336.215 304.863 337.13 304.863Z" fill="#F5F5F5"/>
<path d="M372.193 303.206C372.193 304.122 371.451 304.863 370.536 304.863C369.621 304.863 368.879 304.122 368.879 303.206C368.879 302.291 369.621 301.549 370.536 301.549C371.451 301.549 372.193 302.291 372.193 303.206Z" fill="#F5F5F5"/>
<path d="M329.606 304.863C330.522 304.863 331.263 304.121 331.263 303.206C331.263 302.291 330.522 301.549 329.606 301.549C328.691 301.549 327.949 302.291 327.949 303.206C327.949 304.121 328.691 304.863 329.606 304.863Z" fill="#C53F8B"/>
<path d="M350.536 304.863C351.451 304.863 352.193 304.121 352.193 303.206C352.193 302.291 351.451 301.549 350.536 301.549C349.621 301.549 348.879 302.291 348.879 303.206C348.879 304.121 349.621 304.863 350.536 304.863Z" fill="#C53F8B"/>
<path d="M379.95 322.845H233.277V359.234H379.95V322.845Z" fill="#8BC53F"/>
<path d="M279.724 332.662C279.724 333.578 278.983 334.319 278.067 334.319C277.152 334.319 276.41 333.578 276.41 332.662C276.41 331.747 277.152 331.005 278.067 331.005C278.983 331.006 279.724 331.748 279.724 332.662Z" fill="#597F27"/>
<path d="M287.033 332.662C287.033 333.578 286.291 334.319 285.376 334.319C284.46 334.319 283.719 333.578 283.719 332.662C283.719 331.747 284.46 331.005 285.376 331.005C286.292 331.006 287.033 331.748 287.033 332.662Z" fill="#597F27"/>
<path d="M294.345 332.662C294.345 333.578 293.604 334.319 292.688 334.319C291.773 334.319 291.031 333.578 291.031 332.662C291.031 331.747 291.773 331.005 292.688 331.005C293.604 331.005 294.345 331.748 294.345 332.662Z" fill="#597F27"/>
<path d="M301.658 332.662C301.658 333.578 300.916 334.319 300.001 334.319C299.085 334.319 298.344 333.578 298.344 332.662C298.344 331.747 299.085 331.005 300.001 331.005C300.916 331.006 301.658 331.748 301.658 332.662Z" fill="#597F27"/>
<path d="M358.306 332.662C358.306 333.578 357.565 334.319 356.649 334.319C355.734 334.319 354.992 333.578 354.992 332.662C354.992 331.747 355.734 331.005 356.649 331.005C357.565 331.005 358.306 331.748 358.306 332.662Z" fill="#597F27"/>
<path d="M365.763 332.662C365.763 333.578 365.022 334.319 364.106 334.319C363.191 334.319 362.449 333.578 362.449 332.662C362.449 331.747 363.191 331.005 364.106 331.005C365.022 331.006 365.763 331.748 365.763 332.662Z" fill="#597F27"/>
<path d="M308.97 332.662C308.97 333.578 308.229 334.319 307.313 334.319C306.398 334.319 305.656 333.578 305.656 332.662C305.656 331.747 306.398 331.005 307.313 331.005C308.229 331.006 308.97 331.748 308.97 332.662Z" fill="#597F27"/>
<path d="M344.869 332.662C344.869 333.578 344.127 334.319 343.212 334.319C342.296 334.319 341.555 333.578 341.555 332.662C341.555 331.747 342.296 331.005 343.212 331.005C344.127 331.006 344.869 331.748 344.869 332.662Z" fill="#597F27"/>
<path d="M316.279 332.662C316.279 333.578 315.537 334.319 314.622 334.319C313.706 334.319 312.965 333.578 312.965 332.662C312.965 331.747 313.706 331.005 314.622 331.005C315.537 331.006 316.279 331.748 316.279 332.662Z" fill="#F5F5F5"/>
<path d="M323.588 332.662C323.588 333.578 322.846 334.319 321.93 334.319C321.015 334.319 320.273 333.578 320.273 332.662C320.273 331.747 321.015 331.005 321.93 331.005C322.845 331.006 323.588 331.748 323.588 332.662Z" fill="#F5F5F5"/>
<path d="M338.424 332.662C338.424 333.578 337.682 334.319 336.767 334.319C335.851 334.319 335.109 333.578 335.109 332.662C335.109 331.747 335.851 331.005 336.767 331.005C337.682 331.006 338.424 331.748 338.424 332.662Z" fill="#F5F5F5"/>
<path d="M371.83 332.662C371.83 333.578 371.088 334.319 370.173 334.319C369.257 334.319 368.516 333.578 368.516 332.662C368.516 331.747 369.257 331.005 370.173 331.005C371.088 331.005 371.83 331.748 371.83 332.662Z" fill="#F5F5F5"/>
<path d="M330.9 332.662C330.9 333.578 330.159 334.319 329.243 334.319C328.328 334.319 327.586 333.578 327.586 332.662C327.586 331.747 328.328 331.005 329.243 331.005C330.159 331.005 330.9 331.748 330.9 332.662Z" fill="#C53F8B"/>
<path d="M351.83 332.662C351.83 333.578 351.088 334.319 350.173 334.319C349.257 334.319 348.516 333.578 348.516 332.662C348.516 331.747 349.257 331.005 350.173 331.005C351.088 331.005 351.83 331.748 351.83 332.662Z" fill="#C53F8B"/>
<path d="M368.516 340.649C368.516 339.734 369.257 338.992 370.173 338.992C371.088 338.992 371.83 339.734 371.83 340.649C371.83 341.564 371.088 342.306 370.173 342.306C369.257 342.306 368.516 341.564 368.516 340.649Z" fill="#597F27"/>
<path d="M361.207 340.649C361.207 339.734 361.949 338.992 362.864 338.992C363.78 338.992 364.521 339.734 364.521 340.649C364.521 341.564 363.78 342.306 362.864 342.306C361.949 342.305 361.207 341.564 361.207 340.649Z" fill="#597F27"/>
<path d="M353.895 340.649C353.895 339.734 354.636 338.992 355.552 338.992C356.466 338.992 357.209 339.734 357.209 340.649C357.209 341.564 356.467 342.306 355.552 342.306C354.636 342.305 353.895 341.564 353.895 340.649Z" fill="#597F27"/>
<path d="M346.582 340.649C346.582 339.734 347.324 338.992 348.239 338.992C349.153 338.992 349.896 339.734 349.896 340.649C349.896 341.564 349.155 342.306 348.239 342.306C347.324 342.305 346.582 341.564 346.582 340.649Z" fill="#597F27"/>
<path d="M289.934 340.649C289.934 339.734 290.675 338.992 291.591 338.992C292.505 338.992 293.248 339.734 293.248 340.649C293.248 341.564 292.506 342.306 291.591 342.306C290.675 342.305 289.934 341.564 289.934 340.649Z" fill="#597F27"/>
<path d="M282.473 340.649C282.473 339.734 283.214 338.992 284.13 338.992C285.045 338.992 285.787 339.734 285.787 340.649C285.787 341.564 285.045 342.306 284.13 342.306C283.214 342.305 282.473 341.564 282.473 340.649Z" fill="#597F27"/>
<path d="M339.27 340.649C339.27 339.734 340.011 338.992 340.927 338.992C341.842 338.992 342.584 339.734 342.584 340.649C342.584 341.564 341.842 342.306 340.927 342.306C340.011 342.306 339.27 341.564 339.27 340.649Z" fill="#597F27"/>
<path d="M303.367 340.649C303.367 339.734 304.109 338.992 305.024 338.992C305.939 338.992 306.681 339.734 306.681 340.649C306.681 341.564 305.94 342.306 305.024 342.306C304.109 342.305 303.367 341.564 303.367 340.649Z" fill="#597F27"/>
<path d="M331.961 340.649C331.961 339.734 332.703 338.992 333.618 338.992C334.532 338.992 335.275 339.734 335.275 340.649C335.275 341.564 334.533 342.306 333.618 342.306C332.703 342.305 331.961 341.564 331.961 340.649Z" fill="#F5F5F5"/>
<path d="M324.652 340.649C324.652 339.734 325.394 338.992 326.309 338.992C327.224 338.992 327.967 339.734 327.967 340.649C327.967 341.564 327.225 342.306 326.309 342.306C325.394 342.305 324.652 341.564 324.652 340.649Z" fill="#F5F5F5"/>
<path d="M309.816 340.649C309.816 339.734 310.558 338.992 311.473 338.992C312.389 338.992 313.131 339.734 313.131 340.649C313.131 341.564 312.389 342.306 311.473 342.306C310.558 342.305 309.816 341.564 309.816 340.649Z" fill="#F5F5F5"/>
<path d="M276.41 340.649C276.41 339.734 277.152 338.992 278.067 338.992C278.983 338.992 279.724 339.734 279.724 340.649C279.724 341.564 278.983 342.306 278.067 342.306C277.152 342.305 276.41 341.564 276.41 340.649Z" fill="#F5F5F5"/>
<path d="M317.34 340.649C317.34 339.734 318.082 338.992 318.997 338.992C319.911 338.992 320.654 339.734 320.654 340.649C320.654 341.564 319.912 342.306 318.997 342.306C318.082 342.305 317.34 341.564 317.34 340.649Z" fill="#C53F8B"/>
<path d="M296.41 340.649C296.41 339.734 297.152 338.992 298.067 338.992C298.982 338.992 299.724 339.734 299.724 340.649C299.724 341.564 298.983 342.306 298.067 342.306C297.152 342.305 296.41 341.564 296.41 340.649Z" fill="#C53F8B"/>
<path d="M278.067 349.407C278.982 349.407 279.724 348.665 279.724 347.75C279.724 346.834 278.982 346.093 278.067 346.093C277.152 346.093 276.41 346.834 276.41 347.75C276.41 348.665 277.152 349.407 278.067 349.407Z" fill="#597F27"/>
<path d="M285.376 349.407C286.291 349.407 287.033 348.665 287.033 347.75C287.033 346.834 286.291 346.093 285.376 346.093C284.461 346.093 283.719 346.834 283.719 347.75C283.719 348.665 284.461 349.407 285.376 349.407Z" fill="#597F27"/>
<path d="M292.688 349.407C293.604 349.407 294.345 348.665 294.345 347.75C294.345 346.834 293.604 346.093 292.688 346.093C291.773 346.093 291.031 346.834 291.031 347.75C291.031 348.665 291.773 349.407 292.688 349.407Z" fill="#597F27"/>
<path d="M299.997 349.407C300.912 349.407 301.654 348.665 301.654 347.75C301.654 346.834 300.912 346.093 299.997 346.093C299.082 346.093 298.34 346.834 298.34 347.75C298.34 348.665 299.082 349.407 299.997 349.407Z" fill="#597F27"/>
<path d="M356.649 349.407C357.564 349.407 358.306 348.665 358.306 347.75C358.306 346.834 357.564 346.093 356.649 346.093C355.734 346.093 354.992 346.834 354.992 347.75C354.992 348.665 355.734 349.407 356.649 349.407Z" fill="#597F27"/>
<path d="M364.106 349.407C365.022 349.407 365.763 348.665 365.763 347.75C365.763 346.834 365.022 346.093 364.106 346.093C363.191 346.093 362.449 346.834 362.449 347.75C362.449 348.665 363.191 349.407 364.106 349.407Z" fill="#597F27"/>
<path d="M307.306 349.407C308.221 349.407 308.963 348.665 308.963 347.75C308.963 346.834 308.221 346.093 307.306 346.093C306.39 346.093 305.648 346.834 305.648 347.75C305.648 348.665 306.39 349.407 307.306 349.407Z" fill="#597F27"/>
<path d="M343.212 349.407C344.127 349.407 344.869 348.665 344.869 347.75C344.869 346.834 344.127 346.093 343.212 346.093C342.297 346.093 341.555 346.834 341.555 347.75C341.555 348.665 342.297 349.407 343.212 349.407Z" fill="#597F27"/>
<path d="M314.622 349.407C315.537 349.407 316.279 348.665 316.279 347.75C316.279 346.834 315.537 346.093 314.622 346.093C313.707 346.093 312.965 346.834 312.965 347.75C312.965 348.665 313.707 349.407 314.622 349.407Z" fill="#F5F5F5"/>
<path d="M321.93 349.407C322.846 349.407 323.588 348.665 323.588 347.75C323.588 346.834 322.846 346.093 321.93 346.093C321.015 346.093 320.273 346.834 320.273 347.75C320.273 348.665 321.015 349.407 321.93 349.407Z" fill="#F5F5F5"/>
<path d="M336.766 349.407C337.682 349.407 338.424 348.665 338.424 347.75C338.424 346.834 337.682 346.093 336.766 346.093C335.851 346.093 335.109 346.834 335.109 347.75C335.109 348.665 335.851 349.407 336.766 349.407Z" fill="#F5F5F5"/>
<path d="M371.83 347.75C371.83 348.665 371.088 349.407 370.173 349.407C369.257 349.407 368.516 348.665 368.516 347.75C368.516 346.834 369.257 346.093 370.173 346.093C371.088 346.093 371.83 346.835 371.83 347.75Z" fill="#F5F5F5"/>
<path d="M329.243 349.407C330.158 349.407 330.9 348.665 330.9 347.75C330.9 346.834 330.158 346.093 329.243 346.093C328.328 346.093 327.586 346.834 327.586 347.75C327.586 348.665 328.328 349.407 329.243 349.407Z" fill="#C53F8B"/>
<path d="M350.173 349.407C351.088 349.407 351.83 348.665 351.83 347.75C351.83 346.834 351.088 346.093 350.173 346.093C349.258 346.093 348.516 346.834 348.516 347.75C348.516 348.665 349.258 349.407 350.173 349.407Z" fill="#C53F8B"/>
<path d="M268.668 330.34H239.789V334.782H268.668V330.34Z" fill="#597F27"/>
<path d="M268.668 337.985H239.789V342.427H268.668V337.985Z" fill="#597F27"/>
<path d="M268.668 345.89H239.789V350.333H268.668V345.89Z" fill="#597F27"/>
<path d="M379.95 367.751H233.277V404.14H379.95V367.751Z" fill="#8BC53F"/>
<path d="M268.668 375.247H239.789V379.69H268.668V375.247Z" fill="#597F27"/>
<path d="M268.668 382.892H239.789V387.334H268.668V382.892Z" fill="#597F27"/>
<path d="M268.668 390.796H239.789V395.239H268.668V390.796Z" fill="#597F27"/>
<path d="M279.197 377.569C279.197 378.485 278.455 379.227 277.54 379.227C276.624 379.227 275.883 378.485 275.883 377.569C275.883 376.655 276.624 375.912 277.54 375.912C278.455 375.912 279.197 376.654 279.197 377.569Z" fill="#597F27"/>
<path d="M286.506 377.569C286.506 378.485 285.764 379.227 284.848 379.227C283.933 379.227 283.191 378.485 283.191 377.569C283.191 376.655 283.933 375.912 284.848 375.912C285.764 375.912 286.506 376.654 286.506 377.569Z" fill="#597F27"/>
<path d="M293.818 377.569C293.818 378.485 293.076 379.227 292.161 379.227C291.246 379.227 290.504 378.485 290.504 377.569C290.504 376.655 291.246 375.912 292.161 375.912C293.076 375.912 293.818 376.654 293.818 377.569Z" fill="#597F27"/>
<path d="M301.131 377.569C301.131 378.485 300.389 379.227 299.473 379.227C298.558 379.227 297.816 378.485 297.816 377.569C297.816 376.655 298.558 375.912 299.473 375.912C300.389 375.912 301.131 376.654 301.131 377.569Z" fill="#597F27"/>
<path d="M357.779 377.569C357.779 378.485 357.037 379.227 356.122 379.227C355.207 379.227 354.465 378.485 354.465 377.569C354.465 376.655 355.207 375.912 356.122 375.912C357.037 375.912 357.779 376.654 357.779 377.569Z" fill="#597F27"/>
<path d="M365.236 377.569C365.236 378.485 364.494 379.227 363.579 379.227C362.663 379.227 361.922 378.485 361.922 377.569C361.922 376.655 362.663 375.912 363.579 375.912C364.494 375.912 365.236 376.654 365.236 377.569Z" fill="#597F27"/>
<path d="M308.443 377.569C308.443 378.485 307.701 379.227 306.786 379.227C305.871 379.227 305.129 378.485 305.129 377.569C305.129 376.655 305.871 375.912 306.786 375.912C307.701 375.912 308.443 376.654 308.443 377.569Z" fill="#597F27"/>
<path d="M344.342 377.569C344.342 378.485 343.6 379.227 342.684 379.227C341.769 379.227 341.027 378.485 341.027 377.569C341.027 376.655 341.769 375.912 342.684 375.912C343.6 375.912 344.342 376.654 344.342 377.569Z" fill="#597F27"/>
<path d="M315.752 377.569C315.752 378.485 315.01 379.227 314.095 379.227C313.179 379.227 312.438 378.485 312.438 377.569C312.438 376.655 313.179 375.912 314.095 375.912C315.01 375.912 315.752 376.654 315.752 377.569Z" fill="#F5F5F5"/>
<path d="M323.06 377.569C323.06 378.485 322.319 379.227 321.403 379.227C320.488 379.227 319.746 378.485 319.746 377.569C319.746 376.655 320.488 375.912 321.403 375.912C322.319 375.912 323.06 376.654 323.06 377.569Z" fill="#F5F5F5"/>
<path d="M337.896 377.569C337.896 378.485 337.155 379.226 336.239 379.226C335.324 379.226 334.582 378.485 334.582 377.569C334.582 376.655 335.324 375.912 336.239 375.912C337.155 375.912 337.896 376.654 337.896 377.569Z" fill="#F5F5F5"/>
<path d="M371.302 377.569C371.302 378.485 370.561 379.227 369.645 379.227C368.73 379.227 367.988 378.485 367.988 377.569C367.988 376.655 368.73 375.912 369.645 375.912C370.561 375.912 371.302 376.654 371.302 377.569Z" fill="#F5F5F5"/>
<path d="M330.373 377.569C330.373 378.485 329.631 379.227 328.716 379.227C327.8 379.227 327.059 378.485 327.059 377.569C327.059 376.655 327.8 375.912 328.716 375.912C329.631 375.912 330.373 376.654 330.373 377.569Z" fill="#C53F8B"/>
<path d="M351.302 377.569C351.302 378.485 350.561 379.226 349.645 379.226C348.73 379.226 347.988 378.485 347.988 377.569C347.988 376.655 348.73 375.912 349.645 375.912C350.561 375.912 351.302 376.654 351.302 377.569Z" fill="#C53F8B"/>
<path d="M367.988 385.555C367.988 384.64 368.73 383.897 369.645 383.897C370.561 383.897 371.302 384.639 371.302 385.555C371.302 386.47 370.561 387.212 369.645 387.212C368.73 387.212 367.988 386.47 367.988 385.555Z" fill="#597F27"/>
<path d="M360.68 385.555C360.68 384.64 361.421 383.897 362.337 383.897C363.252 383.897 363.994 384.639 363.994 385.555C363.994 386.47 363.252 387.212 362.337 387.212C361.421 387.212 360.68 386.47 360.68 385.555Z" fill="#597F27"/>
<path d="M353.367 385.555C353.367 384.64 354.109 383.897 355.024 383.897C355.939 383.897 356.681 384.639 356.681 385.555C356.681 386.47 355.94 387.212 355.024 387.212C354.109 387.212 353.367 386.47 353.367 385.555Z" fill="#597F27"/>
<path d="M346.055 385.555C346.055 384.64 346.796 383.897 347.712 383.897C348.626 383.897 349.369 384.639 349.369 385.555C349.369 386.47 348.627 387.212 347.712 387.212C346.796 387.212 346.055 386.47 346.055 385.555Z" fill="#597F27"/>
<path d="M289.402 385.555C289.402 384.64 290.144 383.897 291.059 383.897C291.975 383.897 292.717 384.639 292.717 385.555C292.717 386.47 291.975 387.212 291.059 387.212C290.145 387.212 289.402 386.47 289.402 385.555Z" fill="#597F27"/>
<path d="M281.945 385.555C281.945 384.64 282.687 383.897 283.602 383.897C284.518 383.897 285.259 384.639 285.259 385.555C285.259 386.47 284.518 387.212 283.602 387.212C282.687 387.212 281.945 386.47 281.945 385.555Z" fill="#597F27"/>
<path d="M338.742 385.555C338.742 384.64 339.484 383.897 340.399 383.897C341.313 383.897 342.056 384.639 342.056 385.555C342.056 386.47 341.315 387.212 340.399 387.212C339.484 387.212 338.742 386.47 338.742 385.555Z" fill="#597F27"/>
<path d="M302.84 385.555C302.84 384.64 303.581 383.897 304.497 383.897C305.412 383.897 306.154 384.639 306.154 385.555C306.154 386.47 305.412 387.212 304.497 387.212C303.581 387.212 302.84 386.47 302.84 385.555Z" fill="#597F27"/>
<path d="M331.434 385.555C331.434 384.64 332.175 383.897 333.091 383.897C334.005 383.897 334.748 384.639 334.748 385.555C334.748 386.47 334.006 387.212 333.091 387.212C332.175 387.212 331.434 386.47 331.434 385.555Z" fill="#F5F5F5"/>
<path d="M324.125 385.555C324.125 384.64 324.867 383.897 325.782 383.897C326.698 383.897 327.439 384.639 327.439 385.555C327.439 386.47 326.698 387.212 325.782 387.212C324.867 387.212 324.125 386.47 324.125 385.555Z" fill="#F5F5F5"/>
<path d="M309.289 385.555C309.289 384.64 310.031 383.897 310.946 383.897C311.862 383.897 312.603 384.639 312.603 385.555C312.603 386.47 311.862 387.212 310.946 387.212C310.031 387.212 309.289 386.47 309.289 385.555Z" fill="#F5F5F5"/>
<path d="M275.883 385.555C275.883 384.64 276.624 383.897 277.54 383.897C278.455 383.897 279.197 384.639 279.197 385.555C279.197 386.47 278.455 387.212 277.54 387.212C276.624 387.212 275.883 386.47 275.883 385.555Z" fill="#F5F5F5"/>
<path d="M316.812 385.555C316.812 384.64 317.554 383.897 318.47 383.897C319.384 383.897 320.127 384.639 320.127 385.555C320.127 386.47 319.385 387.212 318.47 387.212C317.554 387.212 316.812 386.47 316.812 385.555Z" fill="#C53F8B"/>
<path d="M295.879 385.555C295.879 384.64 296.621 383.897 297.536 383.897C298.45 383.897 299.193 384.639 299.193 385.555C299.193 386.47 298.451 387.212 297.536 387.212C296.621 387.212 295.879 386.47 295.879 385.555Z" fill="#C53F8B"/>
<path d="M279.197 392.657C279.197 393.572 278.455 394.314 277.54 394.314C276.624 394.314 275.883 393.572 275.883 392.657C275.883 391.741 276.624 391 277.54 391C278.455 391 279.197 391.741 279.197 392.657Z" fill="#597F27"/>
<path d="M286.506 392.657C286.506 393.572 285.764 394.314 284.848 394.314C283.933 394.314 283.191 393.572 283.191 392.657C283.191 391.741 283.933 391 284.848 391C285.764 391 286.506 391.741 286.506 392.657Z" fill="#597F27"/>
<path d="M293.818 392.657C293.818 393.572 293.076 394.314 292.161 394.314C291.246 394.314 290.504 393.572 290.504 392.657C290.504 391.741 291.246 391 292.161 391C293.076 391 293.818 391.741 293.818 392.657Z" fill="#597F27"/>
<path d="M301.131 392.657C301.131 393.572 300.389 394.314 299.473 394.314C298.558 394.314 297.816 393.572 297.816 392.657C297.816 391.741 298.558 391 299.473 391C300.389 391 301.131 391.741 301.131 392.657Z" fill="#597F27"/>
<path d="M357.779 392.657C357.779 393.572 357.037 394.314 356.122 394.314C355.207 394.314 354.465 393.572 354.465 392.657C354.465 391.741 355.207 391 356.122 391C357.037 391 357.779 391.741 357.779 392.657Z" fill="#597F27"/>
<path d="M365.236 392.657C365.236 393.572 364.494 394.314 363.579 394.314C362.663 394.314 361.922 393.572 361.922 392.657C361.922 391.741 362.663 391 363.579 391C364.494 391 365.236 391.741 365.236 392.657Z" fill="#597F27"/>
<path d="M308.443 392.657C308.443 393.572 307.701 394.314 306.786 394.314C305.871 394.314 305.129 393.572 305.129 392.657C305.129 391.741 305.871 391 306.786 391C307.701 391 308.443 391.741 308.443 392.657Z" fill="#597F27"/>
<path d="M344.342 392.657C344.342 393.572 343.6 394.314 342.684 394.314C341.769 394.314 341.027 393.572 341.027 392.657C341.027 391.741 341.769 391 342.684 391C343.6 391 344.342 391.741 344.342 392.657Z" fill="#597F27"/>
<path d="M315.752 392.657C315.752 393.572 315.01 394.314 314.095 394.314C313.179 394.314 312.438 393.572 312.438 392.657C312.438 391.741 313.179 391 314.095 391C315.01 391 315.752 391.741 315.752 392.657Z" fill="#F5F5F5"/>
<path d="M323.06 392.657C323.06 393.572 322.319 394.314 321.403 394.314C320.488 394.314 319.746 393.572 319.746 392.657C319.746 391.741 320.488 391 321.403 391C322.319 391 323.06 391.741 323.06 392.657Z" fill="#F5F5F5"/>
<path d="M337.896 392.657C337.896 393.572 337.155 394.314 336.239 394.314C335.324 394.314 334.582 393.572 334.582 392.657C334.582 391.741 335.324 391 336.239 391C337.155 391 337.896 391.741 337.896 392.657Z" fill="#F5F5F5"/>
<path d="M371.302 392.657C371.302 393.572 370.561 394.314 369.645 394.314C368.73 394.314 367.988 393.572 367.988 392.657C367.988 391.741 368.73 391 369.645 391C370.561 391 371.302 391.741 371.302 392.657Z" fill="#F5F5F5"/>
<path d="M330.373 392.657C330.373 393.572 329.631 394.314 328.716 394.314C327.8 394.314 327.059 393.572 327.059 392.657C327.059 391.741 327.8 391 328.716 391C329.631 391 330.373 391.741 330.373 392.657Z" fill="#C53F8B"/>
<path d="M351.302 392.657C351.302 393.572 350.561 394.314 349.645 394.314C348.73 394.314 347.988 393.572 347.988 392.657C347.988 391.741 348.73 391 349.645 391C350.561 391 351.302 391.741 351.302 392.657Z" fill="#C53F8B"/>
<path d="M402.004 314.269L379.953 314.329V277.939L402.004 277.88V314.269Z" fill="#597F27"/>
<path d="M402.004 270.024L379.953 270.082V233.693L402.004 233.634V270.024Z" fill="#597F27"/>
<path d="M402.004 358.893L379.953 358.951V322.562L402.004 322.502V358.893Z" fill="#597F27"/>
<path d="M402.004 404.081L379.953 404.141V367.75L402.004 367.692V404.081Z" fill="#597F27"/>
<path d="M381.009 233.356H234.336V269.746H381.009V233.356Z" fill="#8BC53F"/>
<path d="M269.73 240.851H240.852V245.294H269.73V240.851Z" fill="#597F27"/>
<path d="M269.73 248.496H240.852V252.939H269.73V248.496Z" fill="#597F27"/>
<path d="M269.73 256.402H240.852V260.844H269.73V256.402Z" fill="#597F27"/>
<path d="M281.154 243.536C281.154 244.451 280.412 245.193 279.497 245.193C278.583 245.193 277.84 244.451 277.84 243.536C277.84 242.62 278.581 241.878 279.497 241.878C280.412 241.878 281.154 242.621 281.154 243.536Z" fill="#597F27"/>
<path d="M288.463 243.536C288.463 244.451 287.721 245.193 286.806 245.193C285.891 245.193 285.148 244.451 285.148 243.536C285.148 242.62 285.89 241.878 286.806 241.878C287.721 241.878 288.463 242.621 288.463 243.536Z" fill="#597F27"/>
<path d="M295.775 243.536C295.775 244.451 295.033 245.193 294.118 245.193C293.204 245.193 292.461 244.451 292.461 243.536C292.461 242.62 293.203 241.878 294.118 241.878C295.033 241.878 295.775 242.621 295.775 243.536Z" fill="#597F27"/>
<path d="M303.084 243.536C303.084 244.451 302.342 245.193 301.427 245.193C300.512 245.193 299.77 244.451 299.77 243.536C299.77 242.62 300.511 241.878 301.427 241.878C302.342 241.878 303.084 242.621 303.084 243.536Z" fill="#597F27"/>
<path d="M359.736 243.536C359.736 244.451 358.994 245.193 358.079 245.193C357.165 245.193 356.422 244.451 356.422 243.536C356.422 242.62 357.164 241.878 358.079 241.878C358.994 241.878 359.736 242.621 359.736 243.536Z" fill="#597F27"/>
<path d="M367.193 243.536C367.193 244.451 366.451 245.193 365.536 245.193C364.622 245.193 363.879 244.451 363.879 243.536C363.879 242.62 364.621 241.878 365.536 241.878C366.45 241.878 367.193 242.621 367.193 243.536Z" fill="#597F27"/>
<path d="M310.392 243.536C310.392 244.451 309.651 245.193 308.735 245.193C307.82 245.193 307.078 244.451 307.078 243.536C307.078 242.62 307.82 241.878 308.735 241.878C309.651 241.878 310.392 242.621 310.392 243.536Z" fill="#597F27"/>
<path d="M346.299 243.536C346.299 244.451 345.557 245.193 344.642 245.193C343.726 245.193 342.984 244.451 342.984 243.536C342.984 242.62 343.726 241.878 344.642 241.878C345.557 241.878 346.299 242.621 346.299 243.536Z" fill="#597F27"/>
<path d="M317.709 243.536C317.709 244.451 316.967 245.193 316.052 245.193C315.136 245.193 314.395 244.451 314.395 243.536C314.395 242.62 315.136 241.878 316.052 241.878C316.966 241.878 317.709 242.621 317.709 243.536Z" fill="#F5F5F5"/>
<path d="M325.017 243.536C325.017 244.451 324.276 245.193 323.36 245.193C322.445 245.193 321.703 244.451 321.703 243.536C321.703 242.62 322.445 241.878 323.36 241.878C324.276 241.878 325.017 242.621 325.017 243.536Z" fill="#F5F5F5"/>
<path d="M339.849 243.536C339.849 244.451 339.108 245.193 338.192 245.193C337.278 245.193 336.535 244.451 336.535 243.536C336.535 242.62 337.277 241.878 338.192 241.878C339.108 241.878 339.849 242.621 339.849 243.536Z" fill="#F5F5F5"/>
<path d="M373.26 243.536C373.26 244.451 372.518 245.193 371.602 245.193C370.688 245.193 369.945 244.451 369.945 243.536C369.945 242.62 370.687 241.878 371.602 241.878C372.518 241.878 373.26 242.621 373.26 243.536Z" fill="#F5F5F5"/>
<path d="M332.33 243.536C332.33 244.451 331.588 245.193 330.673 245.193C329.757 245.193 329.016 244.451 329.016 243.536C329.016 242.62 329.757 241.878 330.673 241.878C331.588 241.878 332.33 242.621 332.33 243.536Z" fill="#C53F8B"/>
<path d="M353.259 243.536C353.259 244.451 352.518 245.193 351.602 245.193C350.688 245.193 349.945 244.451 349.945 243.536C349.945 242.62 350.687 241.878 351.602 241.878C352.518 241.878 353.259 242.621 353.259 243.536Z" fill="#C53F8B"/>
<path d="M369.945 251.521C369.945 250.606 370.687 249.864 371.602 249.864C372.518 249.864 373.259 250.606 373.259 251.521C373.259 252.435 372.518 253.178 371.602 253.178C370.687 253.178 369.945 252.437 369.945 251.521Z" fill="#597F27"/>
<path d="M362.637 251.521C362.637 250.606 363.378 249.864 364.294 249.864C365.209 249.864 365.951 250.606 365.951 251.521C365.951 252.435 365.209 253.178 364.294 253.178C363.38 253.178 362.637 252.437 362.637 251.521Z" fill="#597F27"/>
<path d="M355.324 251.521C355.324 250.606 356.066 249.864 356.981 249.864C357.897 249.864 358.638 250.606 358.638 251.521C358.638 252.435 357.897 253.178 356.981 253.178C356.066 253.178 355.324 252.437 355.324 251.521Z" fill="#597F27"/>
<path d="M348.012 251.521C348.012 250.606 348.753 249.864 349.669 249.864C350.584 249.864 351.326 250.606 351.326 251.521C351.326 252.435 350.584 253.178 349.669 253.178C348.753 253.178 348.012 252.437 348.012 251.521Z" fill="#597F27"/>
<path d="M291.363 251.521C291.363 250.606 292.105 249.864 293.02 249.864C293.936 249.864 294.677 250.606 294.677 251.521C294.677 252.435 293.936 253.178 293.02 253.178C292.105 253.178 291.363 252.437 291.363 251.521Z" fill="#597F27"/>
<path d="M283.91 251.521C283.91 250.606 284.652 249.864 285.567 249.864C286.483 249.864 287.224 250.606 287.224 251.521C287.224 252.435 286.483 253.178 285.567 253.178C284.652 253.178 283.91 252.437 283.91 251.521Z" fill="#597F27"/>
<path d="M340.699 251.521C340.699 250.606 341.441 249.864 342.356 249.864C343.272 249.864 344.013 250.606 344.013 251.521C344.013 252.435 343.272 253.178 342.356 253.178C341.441 253.178 340.699 252.437 340.699 251.521Z" fill="#597F27"/>
<path d="M304.797 251.521C304.797 250.606 305.539 249.864 306.454 249.864C307.369 249.864 308.111 250.606 308.111 251.521C308.111 252.435 307.369 253.178 306.454 253.178C305.539 253.178 304.797 252.437 304.797 251.521Z" fill="#597F27"/>
<path d="M333.391 251.521C333.391 250.606 334.132 249.864 335.048 249.864C335.963 249.864 336.705 250.606 336.705 251.521C336.705 252.435 335.963 253.178 335.048 253.178C334.132 253.178 333.391 252.437 333.391 251.521Z" fill="#F5F5F5"/>
<path d="M326.082 251.521C326.082 250.606 326.824 249.864 327.739 249.864C328.655 249.864 329.396 250.606 329.396 251.521C329.396 252.435 328.655 253.178 327.739 253.178C326.824 253.178 326.082 252.437 326.082 251.521Z" fill="#F5F5F5"/>
<path d="M311.246 251.521C311.246 250.606 311.988 249.864 312.903 249.864C313.819 249.864 314.56 250.606 314.56 251.521C314.56 252.435 313.819 253.178 312.903 253.178C311.988 253.178 311.246 252.437 311.246 251.521Z" fill="#F5F5F5"/>
<path d="M277.84 251.521C277.84 250.606 278.581 249.864 279.497 249.864C280.412 249.864 281.154 250.606 281.154 251.521C281.154 252.435 280.412 253.178 279.497 253.178C278.581 253.178 277.84 252.437 277.84 251.521Z" fill="#F5F5F5"/>
<path d="M318.77 251.521C318.77 250.606 319.511 249.864 320.427 249.864C321.342 249.864 322.084 250.606 322.084 251.521C322.084 252.435 321.342 253.178 320.427 253.178C319.511 253.178 318.77 252.437 318.77 251.521Z" fill="#C53F8B"/>
<path d="M297.84 251.521C297.84 250.606 298.581 249.864 299.497 249.864C300.412 249.864 301.154 250.606 301.154 251.521C301.154 252.435 300.412 253.178 299.497 253.178C298.581 253.178 297.84 252.437 297.84 251.521Z" fill="#C53F8B"/>
<path d="M281.154 258.623C281.154 259.538 280.412 260.28 279.497 260.28C278.583 260.28 277.84 259.538 277.84 258.623C277.84 257.707 278.581 256.966 279.497 256.966C280.412 256.966 281.154 257.707 281.154 258.623Z" fill="#597F27"/>
<path d="M288.463 258.623C288.463 259.538 287.721 260.28 286.806 260.28C285.891 260.28 285.148 259.538 285.148 258.623C285.148 257.707 285.89 256.966 286.806 256.966C287.721 256.966 288.463 257.707 288.463 258.623Z" fill="#597F27"/>
<path d="M295.775 258.623C295.775 259.538 295.033 260.28 294.118 260.28C293.204 260.28 292.461 259.538 292.461 258.623C292.461 257.707 293.203 256.966 294.118 256.966C295.033 256.966 295.775 257.707 295.775 258.623Z" fill="#597F27"/>
<path d="M303.084 258.623C303.084 259.538 302.342 260.28 301.427 260.28C300.512 260.28 299.77 259.538 299.77 258.623C299.77 257.707 300.511 256.966 301.427 256.966C302.342 256.966 303.084 257.707 303.084 258.623Z" fill="#597F27"/>
<path d="M359.736 258.623C359.736 259.538 358.994 260.28 358.079 260.28C357.165 260.28 356.422 259.538 356.422 258.623C356.422 257.707 357.164 256.966 358.079 256.966C358.994 256.966 359.736 257.707 359.736 258.623Z" fill="#597F27"/>
<path d="M367.193 258.623C367.193 259.538 366.451 260.28 365.536 260.28C364.622 260.28 363.879 259.538 363.879 258.623C363.879 257.707 364.621 256.966 365.536 256.966C366.45 256.966 367.193 257.707 367.193 258.623Z" fill="#597F27"/>
<path d="M310.392 258.623C310.392 259.538 309.651 260.28 308.735 260.28C307.82 260.28 307.078 259.538 307.078 258.623C307.078 257.707 307.82 256.966 308.735 256.966C309.651 256.966 310.392 257.707 310.392 258.623Z" fill="#597F27"/>
<path d="M346.299 258.623C346.299 259.538 345.557 260.28 344.642 260.28C343.726 260.28 342.984 259.538 342.984 258.623C342.984 257.707 343.726 256.966 344.642 256.966C345.557 256.966 346.299 257.707 346.299 258.623Z" fill="#597F27"/>
<path d="M317.709 258.623C317.709 259.538 316.967 260.28 316.052 260.28C315.136 260.28 314.395 259.538 314.395 258.623C314.395 257.707 315.136 256.966 316.052 256.966C316.966 256.966 317.709 257.707 317.709 258.623Z" fill="#F5F5F5"/>
<path d="M325.017 258.623C325.017 259.538 324.276 260.28 323.36 260.28C322.445 260.28 321.703 259.538 321.703 258.623C321.703 257.707 322.445 256.966 323.36 256.966C324.276 256.966 325.017 257.707 325.017 258.623Z" fill="#F5F5F5"/>
<path d="M339.849 258.623C339.849 259.538 339.108 260.28 338.192 260.28C337.278 260.28 336.535 259.538 336.535 258.623C336.535 257.707 337.277 256.966 338.192 256.966C339.108 256.966 339.849 257.707 339.849 258.623Z" fill="#F5F5F5"/>
<path d="M373.26 258.623C373.26 259.538 372.518 260.28 371.602 260.28C370.688 260.28 369.945 259.538 369.945 258.623C369.945 257.707 370.687 256.966 371.602 256.966C372.518 256.966 373.26 257.707 373.26 258.623Z" fill="#F5F5F5"/>
<path d="M332.33 258.623C332.33 259.538 331.588 260.28 330.673 260.28C329.757 260.28 329.016 259.538 329.016 258.623C329.016 257.707 329.757 256.966 330.673 256.966C331.588 256.966 332.33 257.707 332.33 258.623Z" fill="#C53F8B"/>
<path d="M353.259 258.623C353.259 259.538 352.518 260.28 351.602 260.28C350.688 260.28 349.945 259.538 349.945 258.623C349.945 257.707 350.687 256.966 351.602 256.966C352.518 256.966 353.259 257.707 353.259 258.623Z" fill="#C53F8B"/>
<path d="M134.495 134.507H19.4844V403.486H134.495V134.507Z" fill="#E2E2E2"/>
<path d="M225.126 403.378H134.816L134.652 134.339H225.126V403.378Z" fill="#C6C6C6"/>
<path d="M123.413 190.893H25.8516V218.36H123.413V190.893Z" fill="#CE629F"/>
<path d="M34.0344 194.345H28.5703V215.366H34.0344V194.345Z" fill="#9E326F"/>
<path d="M40.4764 198.768C40.4764 199.727 39.699 200.505 38.7395 200.505C37.78 200.505 37.0039 199.727 37.0039 198.768C37.0039 197.808 37.7812 197.031 38.7395 197.031C39.699 197.031 40.4764 197.808 40.4764 198.768Z" fill="white"/>
<path d="M40.4764 206.195C40.4764 207.155 39.699 207.932 38.7395 207.932C37.78 207.932 37.0039 207.155 37.0039 206.195C37.0039 205.237 37.7812 204.46 38.7395 204.46C39.699 204.459 40.4764 205.236 40.4764 206.195Z" fill="white"/>
<path d="M52.783 197.031H47.4141V213.178H52.783V197.031Z" fill="#9E326F"/>
<path d="M60.5408 197.031H55.1719V213.178H60.5408V197.031Z" fill="#9E326F"/>
<path d="M68.2908 197.031H62.9219V213.178H68.2908V197.031Z" fill="#9E326F"/>
<path d="M76.0447 197.031H70.6758V213.178H76.0447V197.031Z" fill="#9E326F"/>
<path d="M83.7985 197.031H78.4297V213.178H83.7985V197.031Z" fill="#9E326F"/>
<path d="M91.5564 197.031H86.1875V213.178H91.5564V197.031Z" fill="#9E326F"/>
<path d="M99.3064 197.031H93.9375V213.178H99.3064V197.031Z" fill="#9E326F"/>
<path d="M107.064 197.031H101.695V213.178H107.064V197.031Z" fill="#9E326F"/>
<path d="M114.818 197.031H109.449V213.178H114.818V197.031Z" fill="#9E326F"/>
<path d="M122.572 197.031H117.203V213.178H122.572V197.031Z" fill="#9E326F"/>
<path d="M123.413 230.35H25.8516V257.817H123.413V230.35Z" fill="#9E326F"/>
<path d="M34.0344 233.803H28.5703V254.824H34.0344V233.803Z" fill="#CE629F"/>
<path d="M40.4764 238.226C40.4764 239.184 39.699 239.963 38.7395 239.963C37.78 239.963 37.0039 239.185 37.0039 238.226C37.0039 237.266 37.7812 236.489 38.7395 236.489C39.699 236.489 40.4764 237.266 40.4764 238.226Z" fill="white"/>
<path d="M40.4764 245.653C40.4764 246.611 39.699 247.389 38.7395 247.389C37.78 247.389 37.0039 246.611 37.0039 245.653C37.0039 244.694 37.7812 243.916 38.7395 243.916C39.699 243.916 40.4764 244.694 40.4764 245.653Z" fill="white"/>
<path d="M52.783 236.489H47.4141V252.636H52.783V236.489Z" fill="#CE629F"/>
<path d="M60.5408 236.489H55.1719V252.636H60.5408V236.489Z" fill="#CE629F"/>
<path d="M68.2908 236.489H62.9219V252.636H68.2908V236.489Z" fill="#CE629F"/>
<path d="M76.0447 236.489H70.6758V252.636H76.0447V236.489Z" fill="#CE629F"/>
<path d="M83.7985 236.489H78.4297V252.636H83.7985V236.489Z" fill="#CE629F"/>
<path d="M91.5564 236.489H86.1875V252.636H91.5564V236.489Z" fill="#CE629F"/>
<path d="M99.3064 236.489H93.9375V252.636H99.3064V236.489Z" fill="#CE629F"/>
<path d="M107.064 236.489H101.695V252.636H107.064V236.489Z" fill="#CE629F"/>
<path d="M114.818 236.489H109.449V252.636H114.818V236.489Z" fill="#CE629F"/>
<path d="M122.572 236.489H117.203V252.636H122.572V236.489Z" fill="#CE629F"/>
<path d="M123.413 270.652H25.8516V298.119H123.413V270.652Z" fill="#CE629F"/>
<path d="M34.0344 274.104H28.5703V295.125H34.0344V274.104Z" fill="#9E326F"/>
<path d="M40.4764 278.527C40.4764 279.486 39.699 280.263 38.7395 280.263C37.78 280.263 37.0039 279.486 37.0039 278.527C37.0039 277.567 37.7812 276.79 38.7395 276.79C39.699 276.79 40.4764 277.567 40.4764 278.527Z" fill="white"/>
<path d="M40.4764 285.954C40.4764 286.914 39.699 287.691 38.7395 287.691C37.78 287.691 37.0039 286.914 37.0039 285.954C37.0039 284.996 37.7812 284.219 38.7395 284.219C39.699 284.217 40.4764 284.995 40.4764 285.954Z" fill="white"/>
<path d="M52.783 276.79H47.4141V292.937H52.783V276.79Z" fill="#9E326F"/>
<path d="M60.5408 276.79H55.1719V292.937H60.5408V276.79Z" fill="#9E326F"/>
<path d="M68.2908 276.79H62.9219V292.937H68.2908V276.79Z" fill="#9E326F"/>
<path d="M76.0447 276.79H70.6758V292.937H76.0447V276.79Z" fill="#9E326F"/>
<path d="M83.7985 276.79H78.4297V292.937H83.7985V276.79Z" fill="#9E326F"/>
<path d="M91.5564 276.79H86.1875V292.937H91.5564V276.79Z" fill="#9E326F"/>
<path d="M99.3064 276.79H93.9375V292.937H99.3064V276.79Z" fill="#9E326F"/>
<path d="M107.064 276.79H101.695V292.937H107.064V276.79Z" fill="#9E326F"/>
<path d="M114.818 276.79H109.449V292.937H114.818V276.79Z" fill="#9E326F"/>
<path d="M122.572 276.79H117.203V292.937H122.572V276.79Z" fill="#9E326F"/>
<path d="M123.413 313.091H25.8516V340.558H123.413V313.091Z" fill="#9E326F"/>
<path d="M34.0344 316.544H28.5703V337.564H34.0344V316.544Z" fill="#CE629F"/>
<path d="M40.4764 320.965C40.4764 321.925 39.699 322.702 38.7395 322.702C37.78 322.702 37.0039 321.925 37.0039 320.965C37.0039 320.007 37.7812 319.23 38.7395 319.23C39.699 319.23 40.4764 320.007 40.4764 320.965Z" fill="white"/>
<path d="M40.4764 328.392C40.4764 329.351 39.699 330.129 38.7395 330.129C37.78 330.129 37.0039 329.352 37.0039 328.392C37.0039 327.433 37.7812 326.656 38.7395 326.656C39.699 326.657 40.4764 327.434 40.4764 328.392Z" fill="white"/>
<path d="M52.783 319.23H47.4141V335.377H52.783V319.23Z" fill="#CE629F"/>
<path d="M60.5408 319.23H55.1719V335.377H60.5408V319.23Z" fill="#CE629F"/>
<path d="M68.2908 319.23H62.9219V335.377H68.2908V319.23Z" fill="#CE629F"/>
<path d="M76.0447 319.23H70.6758V335.377H76.0447V319.23Z" fill="#CE629F"/>
<path d="M83.7985 319.23H78.4297V335.377H83.7985V319.23Z" fill="#CE629F"/>
<path d="M91.5564 319.23H86.1875V335.377H91.5564V319.23Z" fill="#CE629F"/>
<path d="M99.3064 319.23H93.9375V335.377H99.3064V319.23Z" fill="#CE629F"/>
<path d="M107.064 319.23H101.695V335.377H107.064V319.23Z" fill="#CE629F"/>
<path d="M114.818 319.23H109.449V335.377H114.818V319.23Z" fill="#CE629F"/>
<path d="M122.572 319.23H117.203V335.377H122.572V319.23Z" fill="#CE629F"/>
<path d="M123.413 356.364H25.8516V383.831H123.413V356.364Z" fill="#CE629F"/>
<path d="M34.0344 359.816H28.5703V380.837H34.0344V359.816Z" fill="#9E326F"/>
<path d="M40.4764 364.239C40.4764 365.198 39.699 365.975 38.7395 365.975C37.78 365.975 37.0039 365.198 37.0039 364.239C37.0039 363.279 37.7812 362.502 38.7395 362.502C39.699 362.502 40.4764 363.279 40.4764 364.239Z" fill="white"/>
<path d="M40.4764 371.666C40.4764 372.626 39.699 373.403 38.7395 373.403C37.78 373.403 37.0039 372.626 37.0039 371.666C37.0039 370.708 37.7812 369.93 38.7395 369.93C39.699 369.929 40.4764 370.707 40.4764 371.666Z" fill="white"/>
<path d="M52.783 362.502H47.4141V378.649H52.783V362.502Z" fill="#9E326F"/>
<path d="M60.5408 362.502H55.1719V378.649H60.5408V362.502Z" fill="#9E326F"/>
<path d="M68.2908 362.502H62.9219V378.649H68.2908V362.502Z" fill="#9E326F"/>
<path d="M76.0447 362.502H70.6758V378.649H76.0447V362.502Z" fill="#9E326F"/>
<path d="M83.7985 362.502H78.4297V378.649H83.7985V362.502Z" fill="#9E326F"/>
<path d="M91.5564 362.502H86.1875V378.649H91.5564V362.502Z" fill="#9E326F"/>
<path d="M99.3064 362.502H93.9375V378.649H99.3064V362.502Z" fill="#9E326F"/>
<path d="M107.064 362.502H101.695V378.649H107.064V362.502Z" fill="#9E326F"/>
<path d="M114.818 362.502H109.449V378.649H114.818V362.502Z" fill="#9E326F"/>
<path d="M122.572 362.502H117.203V378.649H122.572V362.502Z" fill="#9E326F"/>
<path d="M86.1847 190.893C86.1645 190.894 86.1264 190.603 86.0871 190.046C86.0478 189.489 86.0168 188.665 85.9907 187.605C85.9633 186.546 85.9454 185.251 85.874 183.752C85.7859 182.259 85.6883 180.539 85.2074 178.739C84.6919 176.947 83.8776 175.027 82.6015 173.245C81.3396 171.459 79.5361 169.862 77.2528 168.943C74.9791 167.996 72.3685 167.644 69.6697 167.401C66.9544 167.167 64.1449 166.923 61.2676 166.674C49.7513 165.675 39.3088 165.037 31.7388 164.9C27.9544 164.819 24.8914 164.844 22.7748 164.856C21.7653 164.868 20.9558 164.877 20.3367 164.885C19.7784 164.885 19.4856 164.875 19.4844 164.854C19.4832 164.832 19.7749 164.8 20.332 164.76C20.951 164.723 21.7605 164.675 22.7688 164.614C24.8866 164.529 27.9544 164.437 31.7459 164.462C39.3302 164.487 49.7977 165.057 61.32 166.056C64.1985 166.31 67.0103 166.557 69.7257 166.796C72.4375 167.049 75.1089 167.415 77.4731 168.415C79.8516 169.387 81.7396 171.089 83.0205 172.946C84.3229 174.806 85.1276 176.776 85.63 178.623C86.1002 180.498 86.1633 182.23 86.2204 183.736C86.2585 185.246 86.2418 186.542 86.2323 187.602C86.224 188.611 86.218 189.421 86.2121 190.04C86.2109 190.598 86.2073 190.891 86.1847 190.893Z" fill="#9E326F"/>
<path d="M56.5905 190.893C56.5691 190.893 56.55 190.616 56.5334 190.091C56.5274 189.502 56.5191 188.74 56.5084 187.795C56.5012 186.8 56.5036 185.581 56.3953 184.179C56.2643 182.792 56.0465 181.168 55.1965 179.652C54.3453 178.147 52.6775 177.025 50.7871 176.26C48.8812 175.513 46.6289 175.216 44.3599 175.605C43.2302 175.801 42.0898 176.163 41.041 176.732C40.0041 177.307 39.0291 178.108 38.4625 179.173C37.8673 180.225 37.8506 181.541 38.472 182.62C39.0756 183.694 40.166 184.538 41.3969 184.819C42.6314 185.121 43.9314 184.689 44.823 183.829C45.7242 182.976 46.2706 181.771 46.3599 180.569C46.4777 179.354 46.0301 178.205 45.3373 177.233C44.6563 176.263 43.7576 175.473 42.7552 174.954C41.7648 174.399 40.641 174.307 39.5291 174.123C38.428 173.96 37.3578 173.816 36.3197 173.7C34.2436 173.467 32.302 173.334 30.5258 173.261C26.9736 173.123 24.0891 173.179 22.0963 173.18C21.1511 173.179 20.3892 173.179 19.8012 173.178C19.2762 173.171 19 173.156 19 173.135C19 173.113 19.2738 173.086 19.7988 173.053C20.3868 173.023 21.1476 172.986 22.0916 172.938C24.0832 172.863 26.9688 172.74 30.5413 172.823C32.327 172.867 34.2841 172.976 36.3757 173.188C37.4221 173.294 38.5006 173.429 39.6101 173.584C40.1672 173.672 40.7184 173.742 41.3017 173.848C41.8922 173.962 42.4707 174.167 43.0171 174.445C44.1099 175.004 45.0813 175.848 45.8218 176.893C46.5658 177.911 47.0991 179.248 46.9658 180.617C46.867 181.968 46.2694 183.304 45.248 184.277C44.2469 185.261 42.6957 185.781 41.2612 185.425C39.8398 185.095 38.628 184.152 37.9339 182.92C37.2113 181.689 37.2399 180.069 37.928 178.888C38.5827 177.678 39.6506 176.824 40.7589 176.214C41.8826 175.612 43.0778 175.243 44.2671 175.043C46.6515 174.65 48.9991 174.984 50.9788 175.784C52.9323 176.597 54.6775 177.794 55.5798 179.438C56.4596 181.071 56.6405 182.745 56.7429 184.156C56.819 185.581 56.7822 186.803 56.7524 187.8C56.7143 188.745 56.6845 189.506 56.6607 190.094C56.6345 190.616 56.6119 190.893 56.5905 190.893Z" fill="#9E326F"/>
<path d="M94.1511 190.893C94.1297 190.895 94.063 190.582 93.9535 189.983C93.8476 189.384 93.6809 188.503 93.4404 187.375C92.95 185.126 92.175 181.858 90.5679 178.069C88.9763 174.309 86.4382 169.938 82.0777 166.672C79.9527 165.01 77.2076 164.099 74.2946 163.708C71.3804 163.285 68.2972 163.305 65.1461 163.217C52.5381 162.979 41.1099 163.029 32.8435 162.708C28.7103 162.565 25.3687 162.372 23.0617 162.209C21.9557 162.117 21.0724 162.044 20.407 161.989C19.801 161.93 19.4832 161.89 19.4844 161.869C19.4856 161.847 19.8058 161.846 20.4141 161.864C21.0808 161.89 21.9652 161.924 23.0735 161.967C25.383 162.057 28.7234 162.183 32.8542 162.269C41.1146 162.478 52.5346 162.358 65.158 162.597C68.3055 162.686 71.4018 162.668 74.3803 163.107C77.3409 163.509 80.2241 164.476 82.4205 166.216C84.6002 167.918 86.4275 169.847 87.7894 171.893C89.1679 173.925 90.1822 175.98 90.9715 177.9C92.5428 181.754 93.2559 185.055 93.6761 187.328C93.8821 188.469 94.0107 189.358 94.0761 189.964C94.1464 190.57 94.1725 190.889 94.1511 190.893Z" fill="#9E326F"/>
<path d="M122.072 138.888H27.1953V152.661H122.072V138.888Z" fill="#C53F8B"/>
<path d="M99.7141 145.775H48.0586V152.662H99.7141V145.775Z" fill="#9E326F"/>
<path d="M160.779 341.204C160.788 341.271 159.732 341.376 157.91 341.904C156.1 342.448 153.51 343.463 150.742 345.416C149.368 346.395 147.955 347.616 146.719 349.157C146.086 349.916 145.544 350.782 145.066 351.709C144.633 352.648 144.297 353.687 144.031 354.767C142.947 359.117 143.275 364.1 143.49 369.292C143.707 374.474 143.366 379.641 141.316 383.794C140.341 385.866 138.969 387.622 137.445 388.971C135.912 390.314 134.268 391.29 132.693 391.986C131.114 392.684 129.598 393.091 128.249 393.316C126.893 393.505 125.711 393.544 124.751 393.464C123.794 393.386 123.056 393.261 122.572 393.12C122.084 392.992 121.831 392.916 121.836 392.895C121.851 392.82 122.872 393.142 124.764 393.222C125.71 393.265 126.868 393.19 128.191 392.973C129.507 392.721 130.982 392.292 132.513 391.586C134.04 390.88 135.631 389.905 137.103 388.586C138.565 387.26 139.866 385.566 140.802 383.546C142.759 379.515 143.088 374.469 142.871 369.312C142.659 364.144 142.335 359.086 143.477 354.628C143.759 353.522 144.107 352.464 144.577 351.466C145.084 350.498 145.659 349.605 146.32 348.829C147.614 347.255 149.076 346.029 150.491 345.054C153.342 343.112 155.996 342.148 157.846 341.669C158.778 341.443 159.509 341.301 160.012 341.257C160.512 341.203 160.775 341.183 160.779 341.204Z" fill="#9E326F"/>
<path d="M124.833 388.639H117.043V398.114H124.833V388.639Z" fill="#9E326F"/>
<path d="M204.453 317.278H160.777V365.131H204.453V317.278Z" fill="#E8D5CC"/>
<path d="M196.621 344.493C198.334 336.74 193.438 329.067 185.686 327.354C177.934 325.64 170.261 330.536 168.548 338.288C166.834 346.04 171.73 353.713 179.482 355.427C187.234 357.14 194.907 352.245 196.621 344.493Z" fill="#9E326F"/>
<path d="M189.802 341.393C189.802 345.363 186.584 348.581 182.614 348.581C178.644 348.581 175.426 345.363 175.426 341.393C175.426 337.423 178.644 334.205 182.614 334.205C186.584 334.205 189.802 337.424 189.802 341.393Z" fill="#CC64A2"/>
<path d="M166.683 326.041C167.421 326.041 168.019 325.443 168.019 324.706C168.019 323.968 167.421 323.37 166.683 323.37C165.946 323.37 165.348 323.968 165.348 324.706C165.348 325.443 165.946 326.041 166.683 326.041Z" fill="#CC64A2"/>
<path d="M197.769 326.041C198.507 326.041 199.105 325.443 199.105 324.706C199.105 323.968 198.507 323.37 197.769 323.37C197.032 323.37 196.434 323.968 196.434 324.706C196.434 325.443 197.032 326.041 197.769 326.041Z" fill="#CC64A2"/>
<path d="M199.394 360.044C199.394 360.781 198.796 361.38 198.058 361.38C197.321 361.38 196.723 360.782 196.723 360.044C196.723 359.306 197.32 358.708 198.058 358.708C198.796 358.708 199.394 359.307 199.394 360.044Z" fill="#CC64A2"/>
<path d="M166.683 361.928C167.421 361.928 168.019 361.33 168.019 360.592C168.019 359.855 167.421 359.257 166.683 359.257C165.946 359.257 165.348 359.855 165.348 360.592C165.348 361.33 165.946 361.928 166.683 361.928Z" fill="#CC64A2"/>
<path d="M207.977 317.278H204.453V365.131H207.977V317.278Z" fill="#CC64A2"/>
<path d="M539.654 143.249C539.654 143.249 524.123 267.599 498.595 295.58C467.95 329.147 445.713 324.24 433.34 341.546C433.314 341.546 433.314 341.572 433.314 341.572C420.943 324.24 398.704 329.173 368.033 295.58C342.505 267.599 327 143.249 327 143.249C394.266 110.596 433.314 74 433.314 74C433.314 74 433.314 74 433.34 74.0254C434.539 75.147 473.433 111.116 539.654 143.249Z" fill="#EBEBEB"/>
<path d="M433.34 74.0254V341.546C433.314 341.546 433.314 341.572 433.314 341.572C420.943 324.24 398.704 329.173 368.033 295.58C342.505 267.599 327 143.249 327 143.249C394.266 110.596 433.314 74 433.314 74C433.314 74 433.314 74 433.34 74.0254Z" fill="#DBDBDB"/>
<path d="M523.15 153.264C523.15 153.264 510.032 258.309 488.47 281.957C462.561 310.355 443.762 306.184 433.308 320.809C422.854 306.184 404.056 310.355 378.147 281.957C356.585 258.311 343.492 153.264 343.492 153.264C400.312 125.671 433.308 94.7617 433.308 94.7617C433.308 94.7617 466.33 125.671 523.15 153.264Z" fill="#DBDBDB"/>
<path d="M343.523 153.272C343.523 153.272 356.64 258.306 378.208 281.963C404.094 310.337 422.873 306.193 433.338 320.778V94.7925C432.33 95.7384 399.463 126.104 343.523 153.272Z" fill="#C7C7C7"/>
<path d="M462.754 237.239C479.02 220.972 479.02 194.599 462.754 178.333C446.487 162.066 420.114 162.066 403.848 178.333C387.581 194.599 387.581 220.972 403.848 237.239C420.114 253.505 446.487 253.505 462.754 237.239Z" fill="#8BC53F"/>
<path d="M428.491 227L410 211.674L416.861 206.417L427.054 214.865L449.025 188L457 192.142L428.491 227Z" fill="white"/>
</g>
<defs>
<clipPath id="clip0_389_1786">
<rect width="660" height="410" fill="white"/>
</clipPath>
</defs>
</svg>
