<svg width="660" height="410" viewBox="0 0 660 410" fill="none" xmlns="http://www.w3.org/2000/svg">
<path d="M127 121.5H221.5C232.546 121.5 241.5 130.454 241.5 141.5V205" stroke="#676767"/>
<path d="M389 114.5V193.5" stroke="#676767"/>
<path d="M112 284.5V363.5" stroke="#676767"/>
<path d="M310.402 364.678C310.402 388.384 328.743 407.798 352.025 409.52V409.645H606.703C635.899 409.645 659.555 385.988 659.555 356.793C659.555 329.269 638.519 306.636 611.644 304.165C610.122 256.329 570.87 218 522.659 218C484.28 218 451.565 242.28 439.063 276.317C431.951 272.725 423.941 270.728 415.432 270.728C387.334 270.728 364.351 292.638 362.68 320.311C360.31 319.912 357.864 319.712 355.368 319.712C330.54 319.712 310.402 339.849 310.402 364.678Z" fill="#8BC53F"/>
<g opacity="0.1">
<path d="M310.402 364.678C310.402 388.384 328.743 407.798 352.025 409.52V409.645H606.703C635.899 409.645 659.555 385.988 659.555 356.793C659.555 329.269 638.519 306.636 611.644 304.165C610.122 256.329 570.87 218 522.659 218C484.28 218 451.565 242.28 439.063 276.317C431.951 272.725 423.941 270.728 415.432 270.728C387.334 270.728 364.351 292.638 362.68 320.311C360.31 319.912 357.864 319.712 355.368 319.712C330.54 319.712 310.402 339.849 310.402 364.678Z" fill="black"/>
</g>
<path d="M295 364.678C295 388.384 313.341 407.798 336.623 409.52V409.645H591.301C620.496 409.645 644.152 385.988 644.152 356.793C644.152 329.269 623.116 306.636 596.241 304.165C594.719 256.329 555.467 218 507.256 218C468.877 218 436.162 242.28 423.661 276.317C416.549 272.725 408.539 270.728 400.03 270.728C371.932 270.728 348.949 292.638 347.278 320.311C344.907 319.912 342.462 319.712 339.966 319.712C315.138 319.712 295 339.849 295 364.678Z" fill="#8BC53F"/>
<path d="M461.915 314.031L453.684 307.692C465.124 292.841 484.819 286.679 502.69 292.358C517.674 297.119 529.188 309.602 532.742 324.935L522.621 327.281C519.891 315.503 511.049 305.916 499.544 302.26C485.82 297.898 470.697 302.629 461.915 314.031Z" fill="white"/>
<path d="M512.27 321.891L526.831 346.976L541.279 321.825L512.27 321.891Z" fill="white"/>
<g opacity="0.2">
<path d="M461.915 314.031L453.684 307.692C465.124 292.841 484.819 286.679 502.69 292.358C517.674 297.119 529.188 309.602 532.742 324.935L522.621 327.281C519.891 315.503 511.049 305.916 499.544 302.26C485.82 297.898 470.697 302.629 461.915 314.031Z" fill="white"/>
<path d="M512.27 321.891L526.831 346.976L541.279 321.825L512.27 321.891Z" fill="white"/>
</g>
<path d="M476.463 375.211C461.479 370.45 449.963 357.968 446.41 342.635L456.53 340.289C459.26 352.066 468.103 361.653 479.609 365.309C494.049 369.898 510.042 364.338 518.499 351.787L527.115 357.593C516.098 373.942 495.269 381.187 476.463 375.211Z" fill="white"/>
<path d="M466.883 345.678L452.323 320.593L437.875 345.743L466.883 345.678Z" fill="white"/>
<path fill-rule="evenodd" clip-rule="evenodd" d="M195.431 166.742H465.525C470.182 166.742 473.956 170.509 473.957 175.156V365.539C473.957 370.185 470.182 373.952 465.526 373.952H365.03H299.093H195.431C190.774 373.952 187 370.185 187 365.538V175.156C187 170.509 190.775 166.742 195.431 166.742Z" fill="#676767"/>
<path d="M299.093 373.952C299.093 373.952 305.687 399.408 285.246 409.937H382.175C382.175 409.937 359.096 396.934 365.03 373.952H299.093Z" fill="#404040"/>
<path d="M190.141 175.704C190.141 172.39 192.827 169.704 196.141 169.704H464.847C468.161 169.704 470.847 172.39 470.847 175.704V331.657C470.847 334.971 468.161 337.657 464.847 337.657H196.141C192.827 337.657 190.141 334.971 190.141 331.657V175.704Z" fill="white"/>
<g opacity="0.2">
<path d="M220.543 203.564H212.777V242.945H220.543V203.564Z" fill="#A6A6A6"/>
<path d="M233.891 210.109H226.125V242.945H233.891V210.109Z" fill="#A6A6A6"/>
<path d="M247.238 222.046H239.473V242.945H247.238V222.046Z" fill="#A6A6A6"/>
<path d="M260.586 209.535H252.82V242.945H260.586V209.535Z" fill="#A6A6A6"/>
<path d="M273.93 215.021H266.164V242.944H273.93V215.021Z" fill="#A6A6A6"/>
<path d="M287.277 198.075H279.512V242.945H287.277V198.075Z" fill="#A6A6A6"/>
<path d="M208.271 195.341L208.362 207.242L208.406 219.143L208.468 242.945L208.271 242.749C227.134 242.693 245.997 242.773 264.859 242.787L280.593 242.829L294.547 242.945L280.593 243.06L264.859 243.103C245.997 243.117 227.134 243.197 208.271 243.142L208.074 243.141L208.075 242.945L208.137 219.143L208.181 207.242L208.271 195.341Z" fill="white"/>
<path d="M206.559 198.074C207.129 197.903 207.701 197.863 208.272 197.854C208.843 197.862 209.414 197.902 209.985 198.074C209.414 198.247 208.843 198.287 208.272 198.294C207.7 198.286 207.129 198.246 206.559 198.074Z" fill="white"/>
<path d="M206.559 202.799C207.129 202.628 207.701 202.588 208.272 202.579C208.843 202.587 209.414 202.627 209.985 202.799C209.414 202.971 208.843 203.011 208.272 203.019C207.7 203.01 207.129 202.97 206.559 202.799Z" fill="white"/>
<path d="M206.559 207.522C207.129 207.351 207.701 207.311 208.272 207.302C208.843 207.31 209.414 207.35 209.985 207.522C209.414 207.695 208.843 207.735 208.272 207.742C207.7 207.733 207.129 207.693 206.559 207.522Z" fill="white"/>
<path d="M206.559 212.247C207.129 212.076 207.701 212.036 208.272 212.027C208.843 212.035 209.414 212.074 209.985 212.247C209.414 212.419 208.843 212.459 208.272 212.467C207.7 212.458 207.129 212.418 206.559 212.247Z" fill="white"/>
<path d="M206.559 216.971C207.129 216.8 207.701 216.76 208.272 216.751C208.843 216.758 209.414 216.799 209.985 216.971C209.414 217.143 208.843 217.183 208.272 217.191C207.7 217.182 207.129 217.142 206.559 216.971Z" fill="white"/>
<path d="M206.559 221.695C207.129 221.524 207.701 221.484 208.272 221.475C208.843 221.483 209.414 221.523 209.985 221.695C209.414 221.867 208.843 221.907 208.272 221.915C207.7 221.906 207.129 221.866 206.559 221.695Z" fill="white"/>
<path d="M206.559 226.42C207.129 226.249 207.701 226.208 208.272 226.2C208.843 226.207 209.414 226.247 209.985 226.42C209.414 226.592 208.843 226.632 208.272 226.64C207.7 226.631 207.129 226.591 206.559 226.42Z" fill="white"/>
<path d="M206.559 231.143C207.129 230.972 207.701 230.932 208.272 230.923C208.843 230.93 209.414 230.97 209.985 231.143C209.414 231.315 208.843 231.355 208.272 231.363C207.7 231.354 207.129 231.314 206.559 231.143Z" fill="white"/>
<path d="M206.559 235.867C207.129 235.696 207.701 235.656 208.272 235.647C208.843 235.654 209.414 235.695 209.985 235.867C209.414 236.039 208.843 236.079 208.272 236.087C207.7 236.078 207.129 236.039 206.559 235.867Z" fill="white"/>
<path d="M339.433 195.732H307.27V243.16H339.433V195.732Z" fill="white"/>
<path d="M333.027 210.215C333.027 215.547 328.696 219.869 323.354 219.869C318.011 219.869 313.68 215.547 313.68 210.215C313.68 204.883 318.011 200.561 323.354 200.561C326.945 200.561 330.079 202.514 331.749 205.415C332.562 206.829 333.027 208.468 333.027 210.215Z" fill="#EFEFEF"/>
<path d="M331.751 205.415L323.355 210.215V200.561C326.947 200.561 330.081 202.514 331.751 205.415Z" fill="#A6A6A6"/>
<path d="M318.873 224.199L318.252 224.562C318.233 224.574 318.202 224.587 318.177 224.587C318.12 224.587 318.07 224.555 318.045 224.511C318.001 224.43 318.026 224.342 318.102 224.305L318.949 223.791C319.018 223.754 319.118 223.779 319.156 223.848C319.175 223.885 319.181 223.923 319.175 223.961V227.988C319.175 228.07 319.112 228.139 319.024 228.139C318.942 228.139 318.873 228.07 318.873 227.988V224.199Z" fill="#A6A6A6"/>
<path d="M320.36 227.707C320.297 227.644 320.297 227.544 320.36 227.487C320.422 227.425 320.523 227.425 320.586 227.487C320.818 227.713 321.113 227.826 321.414 227.826C321.715 227.826 322.01 227.713 322.242 227.481C322.475 227.249 322.588 226.955 322.588 226.655C322.588 226.348 322.475 226.047 322.249 225.822C322.023 225.596 321.722 225.483 321.421 225.483C321.113 225.483 320.819 225.596 320.586 225.828C320.524 225.891 320.423 225.891 320.367 225.828C320.348 225.815 320.335 225.797 320.329 225.778V225.772C320.323 225.765 320.323 225.759 320.323 225.753C320.316 225.74 320.316 225.721 320.316 225.703C320.316 225.696 320.323 225.684 320.323 225.671L320.536 223.905C320.536 223.855 320.561 223.818 320.599 223.792C320.624 223.767 320.662 223.755 320.699 223.755H322.745C322.833 223.755 322.902 223.824 322.902 223.912C322.902 224.006 322.833 224.068 322.745 224.068H320.831L320.674 225.371C320.9 225.24 321.158 225.171 321.421 225.171C321.804 225.171 322.181 225.308 322.469 225.602C322.764 225.891 322.902 226.267 322.902 226.655C322.902 227.031 322.764 227.419 322.469 227.707C322.181 227.989 321.791 228.139 321.415 228.139C321.031 228.139 320.648 227.995 320.36 227.707Z" fill="#A6A6A6"/>
<path d="M324.062 224.838V224.825C324.062 224.237 324.452 223.704 325.035 223.704C325.613 223.704 325.995 224.237 325.995 224.813V224.825C325.995 225.414 325.606 225.946 325.023 225.946C324.445 225.946 324.062 225.421 324.062 224.838ZM325.669 224.838V224.825C325.669 224.336 325.374 223.974 325.022 223.974C324.652 223.974 324.388 224.356 324.388 224.813V224.825C324.388 225.32 324.684 225.677 325.035 225.677C325.405 225.678 325.669 225.308 325.669 224.838ZM324.658 227.951L327.715 223.799C327.747 223.755 327.785 223.73 327.834 223.73C327.909 223.73 327.972 223.786 327.972 223.861C327.972 223.893 327.966 223.918 327.947 223.943L324.891 228.095C324.859 228.139 324.822 228.164 324.771 228.164C324.696 228.164 324.633 228.108 324.633 228.033C324.633 228.001 324.64 227.976 324.658 227.951ZM326.61 227.08V227.068C326.61 226.479 327 225.946 327.583 225.946C328.16 225.946 328.543 226.479 328.543 227.055V227.068C328.543 227.656 328.154 228.189 327.57 228.189C326.993 228.189 326.61 227.663 326.61 227.08ZM328.217 227.08V227.068C328.217 226.579 327.922 226.216 327.571 226.216C327.2 226.216 326.937 226.598 326.937 227.055V227.068C326.937 227.562 327.232 227.919 327.584 227.919C327.953 227.92 328.217 227.55 328.217 227.08Z" fill="#A6A6A6"/>
<path d="M331.314 231.056H315.391V232.075H331.314V231.056Z" fill="#A6A6A6"/>
<path d="M333.978 233.204H312.723V234.223H333.978V233.204Z" fill="#EBEBEB"/>
<path d="M333.978 235.137H312.723V236.156H333.978V235.137Z" fill="#EBEBEB"/>
<path d="M333.978 237.071H312.723V238.09H333.978V237.071Z" fill="#EBEBEB"/>
<path d="M376.527 195.732H344.363V243.16H376.527V195.732Z" fill="white"/>
<path d="M370.118 210.213C370.118 210.694 370.082 211.167 370.011 211.628C369.329 216.289 365.305 219.868 360.444 219.868C355.101 219.868 350.77 215.545 350.77 210.214C350.77 204.883 355.101 200.561 360.444 200.561C364.033 200.561 367.167 202.513 368.839 205.415C369.653 206.828 370.118 208.468 370.118 210.213Z" fill="#EFEFEF"/>
<path d="M370.119 210.214C370.119 210.694 370.084 211.167 370.013 211.628L360.445 210.214V200.56C364.035 200.56 367.168 202.512 368.841 205.414C369.655 206.828 370.119 208.468 370.119 210.214Z" fill="#A6A6A6"/>
<path d="M354.446 227.871L356.499 226.024C356.744 225.798 356.876 225.497 356.876 225.184C356.876 224.915 356.775 224.645 356.581 224.432C356.36 224.188 356.053 224.063 355.745 224.063C355.469 224.063 355.2 224.157 354.98 224.352L354.766 224.546C354.704 224.609 354.603 224.602 354.553 224.54C354.49 224.477 354.496 224.377 354.559 224.327L354.773 224.127C355.048 223.882 355.401 223.757 355.745 223.757C356.129 223.757 356.517 223.907 356.8 224.227C357.057 224.503 357.177 224.847 357.177 225.185C357.177 225.574 357.02 225.962 356.706 226.25L354.949 227.835H357.027C357.108 227.835 357.177 227.904 357.177 227.991C357.177 228.073 357.108 228.142 357.027 228.142H354.579H354.554C354.51 228.142 354.466 228.129 354.441 228.098C354.383 228.028 354.383 227.934 354.446 227.871Z" fill="#A6A6A6"/>
<path d="M358.25 227.708C358.187 227.646 358.187 227.545 358.25 227.489C358.314 227.426 358.413 227.426 358.476 227.489C358.708 227.715 359.003 227.827 359.305 227.827C359.605 227.827 359.901 227.715 360.132 227.483C360.365 227.251 360.478 226.956 360.478 226.656C360.478 226.349 360.365 226.048 360.139 225.823C359.913 225.598 359.612 225.485 359.311 225.485C359.003 225.485 358.708 225.598 358.476 225.829C358.413 225.892 358.313 225.892 358.256 225.829C358.238 225.817 358.224 225.798 358.218 225.779V225.773C358.212 225.767 358.212 225.76 358.212 225.754C358.206 225.742 358.206 225.723 358.206 225.704C358.206 225.698 358.212 225.685 358.212 225.673L358.425 223.907C358.425 223.857 358.451 223.819 358.488 223.794C358.513 223.769 358.551 223.756 358.589 223.756H360.635C360.723 223.756 360.792 223.825 360.792 223.913C360.792 224.007 360.723 224.07 360.635 224.07H358.721L358.564 225.373C358.789 225.241 359.047 225.172 359.311 225.172C359.693 225.172 360.07 225.31 360.359 225.604C360.654 225.892 360.792 226.268 360.792 226.656C360.792 227.032 360.654 227.42 360.359 227.708C360.07 227.99 359.681 228.14 359.305 228.14C358.922 228.141 358.539 227.997 358.25 227.708Z" fill="#A6A6A6"/>
<path fill-rule="evenodd" clip-rule="evenodd" d="M365.605 223.8L362.549 227.953C362.53 227.978 362.524 228.003 362.524 228.034C362.524 228.109 362.587 228.166 362.662 228.166C362.712 228.166 362.749 228.141 362.781 228.097L365.838 223.944C365.856 223.919 365.863 223.894 365.863 223.863C365.863 223.788 365.799 223.731 365.725 223.731C365.675 223.731 365.637 223.756 365.605 223.8ZM364.501 227.069V227.082C364.501 227.664 364.884 228.191 365.461 228.19C366.044 228.19 366.434 227.657 366.434 227.069V227.056C366.434 226.481 366.051 225.948 365.474 225.948C364.89 225.948 364.501 226.481 364.501 227.069ZM366.108 227.069V227.082C366.108 227.552 365.844 227.921 365.474 227.921C365.123 227.921 364.827 227.563 364.827 227.069V227.056C364.827 226.6 365.091 226.217 365.462 226.217C365.813 226.217 366.108 226.58 366.108 227.069Z" fill="#A6A6A6"/>
<path fill-rule="evenodd" clip-rule="evenodd" d="M361.953 224.839V224.827C361.953 224.238 362.342 223.706 362.926 223.706C363.504 223.706 363.886 224.238 363.886 224.814V224.827C363.886 225.415 363.497 225.948 362.913 225.948C362.336 225.948 361.953 225.422 361.953 224.839ZM363.559 224.827V224.839C363.559 225.309 363.296 225.679 362.925 225.678C362.574 225.678 362.279 225.322 362.279 224.827V224.814C362.279 224.357 362.543 223.975 362.913 223.975C363.264 223.975 363.559 224.338 363.559 224.827Z" fill="#A6A6A6"/>
<path d="M368.407 231.056H352.484V232.075H368.407V231.056Z" fill="#A6A6A6"/>
<path d="M371.072 233.204H349.816V234.223H371.072V233.204Z" fill="#EBEBEB"/>
<path d="M371.072 235.137H349.816V236.156H371.072V235.137Z" fill="#EBEBEB"/>
<path d="M371.072 237.071H349.816V238.09H371.072V237.071Z" fill="#EBEBEB"/>
<path d="M413.625 195.732H381.461V243.16H413.625V195.732Z" fill="white"/>
<path d="M407.218 210.216C407.218 214.326 404.642 217.84 401.011 219.229C399.933 219.644 398.765 219.87 397.544 219.87C392.202 219.87 387.871 215.547 387.871 210.216C387.871 204.884 392.203 200.562 397.544 200.562C401.137 200.562 404.271 202.514 405.94 205.416C406.753 206.83 407.218 208.47 407.218 210.216Z" fill="#EFEFEF"/>
<path d="M407.216 210.216C407.216 214.326 404.64 217.84 401.009 219.229L397.543 210.216V200.562C401.136 200.562 404.27 202.514 405.938 205.416C406.751 206.83 407.216 208.47 407.216 210.216Z" fill="#A6A6A6"/>
<path d="M393.833 227.239H391.455H391.448H391.436C391.404 227.239 391.367 227.233 391.342 227.208C391.273 227.158 391.267 227.057 391.323 226.995L393.865 223.838L393.872 223.832C393.928 223.763 394.015 223.757 394.085 223.813C394.11 223.832 394.123 223.863 394.135 223.888C394.135 223.901 394.142 223.907 394.142 223.913V223.932V226.938H394.437C394.525 226.938 394.594 227.007 394.594 227.089C394.594 227.17 394.525 227.239 394.437 227.239H394.142V227.991C394.142 228.073 394.073 228.142 393.985 228.142C393.903 228.142 393.835 228.073 393.835 227.991V227.239H393.833ZM393.833 226.938V224.37L391.755 226.938H393.833Z" fill="#A6A6A6"/>
<path d="M395.578 227.708C395.516 227.646 395.516 227.545 395.578 227.489C395.641 227.426 395.742 227.426 395.804 227.489C396.036 227.715 396.331 227.827 396.633 227.827C396.934 227.827 397.229 227.715 397.46 227.483C397.693 227.251 397.806 226.956 397.806 226.656C397.806 226.349 397.693 226.048 397.467 225.823C397.241 225.598 396.94 225.485 396.639 225.485C396.331 225.485 396.036 225.598 395.804 225.829C395.741 225.892 395.641 225.892 395.584 225.829C395.566 225.817 395.553 225.798 395.546 225.779V225.773C395.54 225.767 395.54 225.76 395.54 225.754C395.534 225.742 395.534 225.723 395.534 225.704C395.534 225.698 395.54 225.685 395.54 225.673L395.754 223.907C395.754 223.857 395.779 223.819 395.816 223.794C395.841 223.769 395.879 223.756 395.917 223.756H397.963C398.051 223.756 398.12 223.825 398.12 223.913C398.12 224.007 398.051 224.07 397.963 224.07H396.049L395.892 225.373C396.117 225.241 396.375 225.172 396.639 225.172C397.021 225.172 397.398 225.31 397.687 225.604C397.982 225.892 398.12 226.268 398.12 226.656C398.12 227.032 397.982 227.42 397.687 227.708C397.398 227.99 397.01 228.14 396.633 228.14C396.25 228.141 395.867 227.997 395.578 227.708Z" fill="#A6A6A6"/>
<path d="M399.281 224.839V224.827C399.281 224.238 399.671 223.706 400.254 223.706C400.832 223.706 401.214 224.238 401.214 224.814V224.827C401.214 225.415 400.825 225.948 400.241 225.948C399.664 225.948 399.281 225.422 399.281 224.839ZM400.888 224.839V224.827C400.888 224.338 400.593 223.975 400.242 223.975C399.872 223.975 399.608 224.357 399.608 224.814V224.827C399.608 225.322 399.903 225.678 400.254 225.678C400.624 225.679 400.888 225.309 400.888 224.839ZM399.877 227.953L402.934 223.8C402.966 223.756 403.003 223.731 403.053 223.731C403.128 223.731 403.191 223.788 403.191 223.863C403.191 223.894 403.185 223.919 403.166 223.944L400.11 228.097C400.078 228.141 400.04 228.166 399.991 228.166C399.916 228.166 399.852 228.109 399.852 228.034C399.852 228.003 399.859 227.978 399.877 227.953ZM401.83 227.082V227.069C401.83 226.481 402.219 225.948 402.803 225.948C403.38 225.948 403.763 226.481 403.763 227.056V227.069C403.763 227.657 403.374 228.19 402.79 228.19C402.213 228.191 401.83 227.664 401.83 227.082ZM403.436 227.082V227.069C403.436 226.58 403.141 226.217 402.79 226.217C402.419 226.217 402.156 226.6 402.156 227.056V227.069C402.156 227.563 402.451 227.921 402.802 227.921C403.172 227.921 403.436 227.552 403.436 227.082Z" fill="#A6A6A6"/>
<path d="M405.501 231.056H389.578V232.075H405.501V231.056Z" fill="#A6A6A6"/>
<path d="M408.166 233.204H386.91V234.223H408.166V233.204Z" fill="#EBEBEB"/>
<path d="M408.166 235.137H386.91V236.156H408.166V235.137Z" fill="#EBEBEB"/>
<path d="M408.166 237.069H386.91V238.088H408.166V237.069Z" fill="#EBEBEB"/>
<path d="M450.726 195.732H418.562V243.16H450.726V195.732Z" fill="white"/>
<path d="M444.355 210.215C444.355 212.274 443.711 214.183 442.613 215.751C440.861 218.258 437.947 219.9 434.65 219.9C432.247 219.9 430.046 219.027 428.352 217.58C426.267 215.806 424.945 213.165 424.945 210.216C424.945 204.867 429.291 200.531 434.65 200.531C438.251 200.531 441.395 202.489 443.073 205.401C443.888 206.819 444.355 208.463 444.355 210.215Z" fill="#EFEFEF"/>
<path d="M444.354 210.215C444.354 212.274 443.71 214.183 442.612 215.751C440.86 218.258 437.946 219.9 434.65 219.9C432.247 219.9 430.045 219.027 428.352 217.58L434.65 210.216V200.531C438.25 200.531 441.395 202.489 443.072 205.401C443.888 206.819 444.354 208.463 444.354 210.215Z" fill="#A6A6A6"/>
<path d="M428.699 227.708C428.637 227.646 428.637 227.545 428.699 227.489C428.762 227.426 428.863 227.426 428.926 227.489C429.157 227.715 429.452 227.827 429.754 227.827C430.055 227.827 430.35 227.715 430.582 227.483C430.814 227.251 430.927 226.956 430.927 226.656C430.927 226.349 430.814 226.048 430.588 225.823C430.362 225.598 430.061 225.485 429.76 225.485C429.452 225.485 429.157 225.598 428.926 225.829C428.862 225.892 428.762 225.892 428.705 225.829C428.687 225.817 428.674 225.798 428.667 225.779V225.773C428.661 225.767 428.661 225.76 428.661 225.754C428.655 225.742 428.655 225.723 428.655 225.704C428.655 225.698 428.661 225.685 428.661 225.673L428.875 223.907C428.875 223.857 428.9 223.819 428.937 223.794C428.963 223.769 429 223.756 429.038 223.756H431.084C431.172 223.756 431.241 223.825 431.241 223.913C431.241 224.007 431.172 224.07 431.084 224.07H429.17L429.013 225.373C429.238 225.241 429.496 225.172 429.76 225.172C430.143 225.172 430.519 225.31 430.808 225.604C431.103 225.892 431.242 226.268 431.242 226.656C431.242 227.032 431.103 227.42 430.808 227.708C430.519 227.99 430.131 228.14 429.754 228.14C429.371 228.141 428.988 227.997 428.699 227.708Z" fill="#A6A6A6"/>
<path d="M432.5 227.708C432.437 227.646 432.437 227.545 432.5 227.489C432.563 227.426 432.664 227.426 432.726 227.489C432.958 227.715 433.253 227.827 433.555 227.827C433.855 227.827 434.151 227.715 434.382 227.483C434.615 227.251 434.728 226.956 434.728 226.656C434.728 226.349 434.615 226.048 434.389 225.823C434.163 225.598 433.862 225.485 433.561 225.485C433.253 225.485 432.958 225.598 432.726 225.829C432.663 225.892 432.562 225.892 432.506 225.829C432.488 225.817 432.474 225.798 432.468 225.779V225.773C432.462 225.767 432.462 225.76 432.462 225.754C432.456 225.742 432.456 225.723 432.456 225.704C432.456 225.698 432.462 225.685 432.462 225.673L432.675 223.907C432.675 223.857 432.701 223.819 432.738 223.794C432.763 223.769 432.801 223.756 432.839 223.756H434.885C434.973 223.756 435.042 223.825 435.042 223.913C435.042 224.007 434.973 224.07 434.885 224.07H432.971L432.814 225.373C433.039 225.241 433.297 225.172 433.56 225.172C433.943 225.172 434.32 225.31 434.608 225.604C434.904 225.892 435.041 226.268 435.041 226.656C435.041 227.032 434.903 227.42 434.608 227.708C434.32 227.99 433.931 228.14 433.554 228.14C433.172 228.141 432.789 227.997 432.5 227.708Z" fill="#A6A6A6"/>
<path d="M436.203 224.839V224.827C436.203 224.238 436.592 223.706 437.176 223.706C437.754 223.706 438.136 224.238 438.136 224.814V224.827C438.136 225.415 437.747 225.948 437.163 225.948C436.586 225.948 436.203 225.422 436.203 224.839ZM437.81 224.839V224.827C437.81 224.338 437.515 223.975 437.164 223.975C436.793 223.975 436.53 224.357 436.53 224.814V224.827C436.53 225.322 436.825 225.678 437.176 225.678C437.546 225.679 437.81 225.309 437.81 224.839ZM436.799 227.953L439.856 223.8C439.887 223.756 439.925 223.731 439.975 223.731C440.051 223.731 440.114 223.788 440.114 223.863C440.114 223.894 440.107 223.919 440.088 223.944L437.032 228.097C437.001 228.141 436.963 228.166 436.913 228.166C436.837 228.166 436.774 228.109 436.774 228.034C436.774 228.003 436.781 227.978 436.799 227.953ZM438.751 227.082V227.069C438.751 226.481 439.141 225.948 439.725 225.948C440.302 225.948 440.684 226.481 440.684 227.056V227.069C440.684 227.657 440.296 228.19 439.712 228.19C439.135 228.191 438.751 227.664 438.751 227.082ZM440.358 227.082V227.069C440.358 226.58 440.063 226.217 439.712 226.217C439.342 226.217 439.078 226.6 439.078 227.056V227.069C439.078 227.563 439.373 227.921 439.725 227.921C440.094 227.921 440.358 227.552 440.358 227.082Z" fill="#A6A6A6"/>
<path d="M442.603 231.056H426.68V232.075H442.603V231.056Z" fill="#A6A6A6"/>
<path d="M445.268 233.204H424.012V234.223H445.268V233.204Z" fill="#EBEBEB"/>
<path d="M445.268 235.137H424.012V236.156H445.268V235.137Z" fill="#EBEBEB"/>
<path d="M445.268 237.071H424.012V238.09H445.268V237.071Z" fill="#EBEBEB"/>
<path d="M297.704 172.923L297.819 192.139L297.86 211.355L297.939 249.786L297.861 288.218L297.819 307.434L297.704 326.65L297.589 307.434L297.547 288.218L297.469 249.786L297.548 211.355L297.589 192.139L297.704 172.923Z" fill="#A6A6A6"/>
<path d="M458.095 249.787L426.275 249.901L394.455 249.943L330.815 250.021L267.175 249.943L235.355 249.902L203.535 249.787L235.355 249.671L267.175 249.631L330.815 249.552L394.455 249.631L426.275 249.673L458.095 249.787Z" fill="#A6A6A6"/>
<path d="M307.938 270.033C332.029 269.914 354.912 269.944 379.003 269.896C403.095 269.944 426.636 269.914 450.727 270.033C426.636 270.153 403.095 270.122 379.003 270.171C354.912 270.122 332.03 270.152 307.938 270.033Z" fill="white"/>
<path d="M307.938 281.37C332.029 281.251 354.912 281.282 379.003 281.231C403.095 281.28 426.636 281.25 450.727 281.37C426.636 281.49 403.095 281.46 379.003 281.508C354.912 281.459 332.03 281.489 307.938 281.37Z" fill="white"/>
<path d="M307.938 292.707C332.029 292.588 354.912 292.619 379.003 292.569C403.095 292.618 426.636 292.588 450.727 292.707C426.636 292.827 403.095 292.797 379.003 292.846C354.912 292.796 332.03 292.826 307.938 292.707Z" fill="white"/>
<path d="M307.938 304.045C332.029 303.926 354.912 303.956 379.003 303.906C403.095 303.955 426.636 303.925 450.727 304.045C426.636 304.164 403.095 304.134 379.003 304.183C354.912 304.133 332.03 304.163 307.938 304.045Z" fill="white"/>
<path d="M307.938 315.382C332.029 315.263 354.912 315.293 379.003 315.243C403.095 315.292 426.636 315.262 450.727 315.382C426.636 315.501 403.095 315.471 379.003 315.52C354.912 315.471 332.03 315.501 307.938 315.382Z" fill="white"/>
<path d="M321.631 262.662C321.75 273.256 321.72 283.849 321.769 294.442C321.72 305.035 321.75 315.628 321.631 326.221C321.511 315.628 321.541 305.035 321.492 294.442C321.542 283.849 321.512 273.255 321.631 262.662Z" fill="white"/>
<path d="M333.975 262.662C334.094 273.256 334.063 283.849 334.113 294.442C334.064 305.035 334.094 315.628 333.975 326.221C333.855 315.628 333.885 305.035 333.836 294.442C333.886 283.849 333.855 273.255 333.975 262.662Z" fill="white"/>
<path d="M346.318 262.662C346.438 273.256 346.407 283.849 346.457 294.442C346.408 305.035 346.438 315.628 346.318 326.221C346.199 315.628 346.229 305.035 346.18 294.442C346.229 283.849 346.199 273.255 346.318 262.662Z" fill="white"/>
<path d="M358.662 262.662C358.782 273.256 358.751 283.849 358.8 294.442C358.751 305.035 358.782 315.628 358.662 326.221C358.542 315.628 358.572 305.035 358.523 294.442C358.573 283.849 358.543 273.255 358.662 262.662Z" fill="white"/>
<path d="M371.002 262.662C371.121 273.256 371.091 283.849 371.141 294.442C371.092 305.035 371.122 315.628 371.002 326.221C370.882 315.628 370.912 305.035 370.863 294.442C370.913 283.849 370.883 273.255 371.002 262.662Z" fill="white"/>
<path d="M383.342 262.662C383.461 273.256 383.431 283.849 383.48 294.442C383.431 305.035 383.461 315.628 383.342 326.221C383.222 315.628 383.252 305.035 383.203 294.442C383.253 283.849 383.223 273.255 383.342 262.662Z" fill="white"/>
<path d="M395.69 262.662C395.809 273.256 395.779 283.849 395.828 294.442C395.779 305.035 395.809 315.628 395.69 326.221C395.57 315.628 395.6 305.035 395.551 294.442C395.6 283.849 395.57 273.255 395.69 262.662Z" fill="white"/>
<path d="M408.029 262.662C408.149 273.256 408.118 283.849 408.168 294.442C408.119 305.035 408.149 315.628 408.029 326.221C407.909 315.628 407.94 305.035 407.891 294.442C407.941 283.849 407.911 273.255 408.029 262.662Z" fill="white"/>
<path d="M420.377 262.662C420.496 273.256 420.466 283.849 420.516 294.442C420.467 305.035 420.497 315.628 420.377 326.221C420.257 315.628 420.287 305.035 420.238 294.442C420.288 283.849 420.258 273.255 420.377 262.662Z" fill="white"/>
<path d="M432.717 262.662C432.836 273.256 432.806 283.849 432.856 294.442C432.807 305.035 432.837 315.628 432.717 326.221C432.597 315.628 432.627 305.035 432.578 294.442C432.628 283.849 432.598 273.255 432.717 262.662Z" fill="white"/>
<path d="M445.057 262.662C445.176 273.256 445.146 283.849 445.196 294.442C445.147 305.035 445.177 315.628 445.057 326.221C444.937 315.628 444.967 305.035 444.918 294.442C444.968 283.849 444.937 273.255 445.057 262.662Z" fill="white"/>
<path d="M307.728 263.352C307.888 273.83 308.027 284.308 308.041 294.786L308.191 326.221L307.729 325.962L378.184 326.028L413.412 326.08L451.28 326.221L413.412 326.364L378.184 326.415L307.729 326.481L307.266 326.481L307.267 326.222L307.417 294.787C307.43 284.308 307.568 273.83 307.728 263.352Z" fill="white"/>
<path d="M307.945 326.222C307.945 326.222 314.576 298.646 321.311 298.646C326.964 298.646 329.351 306.774 333.945 306.774C340.001 306.774 340.838 285.725 346.685 285.725C352.532 285.725 353.783 293.957 358.795 293.957C363.807 293.957 366.028 284.266 371.22 284.266C376.413 284.266 377.688 298.542 383.225 298.542C388.762 298.542 388.866 276.035 395.653 276.035C402.44 276.035 404.213 285.725 408.182 285.725C412.151 285.725 414.447 278.64 420.294 278.64C431.362 278.64 445.066 326.222 445.066 326.222H307.945Z" fill="#A6A6A6"/>
<path opacity="0.2" d="M307.945 326.222C307.945 326.222 314.576 298.646 321.311 298.646C326.964 298.646 329.351 306.774 333.945 306.774C340.001 306.774 340.838 285.725 346.685 285.725C352.532 285.725 353.783 293.957 358.795 293.957C363.807 293.957 366.028 284.266 371.22 284.266C376.413 284.266 377.688 298.542 383.225 298.542C388.762 298.542 388.866 276.035 395.653 276.035C402.44 276.035 404.213 285.725 408.182 285.725C412.151 285.725 414.447 278.64 420.294 278.64C431.362 278.64 445.066 326.222 445.066 326.222H307.945Z" fill="black"/>
<path d="M307.945 326.221C307.945 326.221 315.082 295.642 321.415 295.642C327.748 295.642 328.415 304.044 333.748 304.044C339.081 304.044 339.159 289.285 346.325 289.285C351.261 289.285 353 295.273 358.45 295.273C365.949 295.273 364.825 281.37 370.949 281.37C378.781 281.37 375.615 300.525 383.781 300.525C388.947 300.525 390.319 291.934 396.485 291.934C400.568 291.934 402.348 298.112 407.685 298.112C413.105 298.112 414.189 285.785 420.855 285.785C431.777 285.785 445.282 326.221 445.282 326.221H307.945Z" fill="#A6A6A6"/>
<g opacity="0.1">
<path d="M307.945 326.221C307.945 326.221 315.082 295.642 321.415 295.642C327.748 295.642 328.415 304.044 333.748 304.044C339.081 304.044 339.159 289.285 346.325 289.285C351.261 289.285 353 295.273 358.45 295.273C365.949 295.273 364.825 281.37 370.949 281.37C378.781 281.37 375.615 300.525 383.781 300.525C388.947 300.525 390.319 291.934 396.485 291.934C400.568 291.934 402.348 298.112 407.685 298.112C413.105 298.112 414.189 285.785 420.855 285.785C431.777 285.785 445.282 326.221 445.282 326.221H307.945Z" fill="black"/>
</g>
<path d="M307.938 326.222C307.938 326.222 314.374 312.193 321.632 312.193C327.08 312.193 328.055 315.874 334.041 315.874C337.8 315.874 339.24 301.128 346.456 301.128C353.671 301.128 353.81 309.831 358.753 309.831C363.695 309.831 365.084 301.634 371.142 301.634C377.2 301.634 377.931 306.149 383.346 306.149C389.521 306.149 389.327 287.879 395.689 287.879C402.051 287.879 404.126 301.425 408.17 301.425C413.397 301.425 413.918 296.565 420.235 296.565C429.059 296.565 445.275 326.222 445.275 326.222H307.938Z" fill="#A6A6A6"/>
<path d="M208.035 262.416V313.77H287.277V262.416H208.035Z" fill="#DBDBDB"/>
<path d="M211.789 265.144V311.043H215.861V265.144H211.789Z" fill="white"/>
<path d="M211.789 287.577V311.042H215.861V287.577H211.789Z" fill="#A6A6A6"/>
<path d="M219.305 265.144V311.042H223.377V265.144H219.305Z" fill="white"/>
<path d="M219.305 274.803V311.042H223.377V274.803H219.305Z" fill="#A6A6A6"/>
<path d="M226.82 265.144V311.043H230.893V265.144H226.82Z" fill="white"/>
<path d="M226.82 281.866V311.042H230.893V281.866H226.82Z" fill="#A6A6A6"/>
<path d="M234.344 265.144V311.042H238.416V265.144H234.344Z" fill="white"/>
<path d="M234.344 296.454V311.042H238.416V296.454H234.344Z" fill="#A6A6A6"/>
<path d="M241.863 265.144V311.043H245.936V265.144H241.863Z" fill="white"/>
<path d="M241.863 271.533V311.043H245.936V271.533H241.863Z" fill="#A6A6A6"/>
<path d="M249.383 265.144V311.042H253.455V265.144H249.383Z" fill="white"/>
<path d="M249.383 274.803V311.042H253.455V274.803H249.383Z" fill="#A6A6A6"/>
<path d="M256.898 265.144V311.043H260.971V265.144H256.898Z" fill="white"/>
<path d="M256.898 281.866V311.042H260.971V281.866H256.898Z" fill="#A6A6A6"/>
<path d="M264.41 265.144V311.042H268.483V265.144H264.41Z" fill="white"/>
<path d="M264.41 274.803V311.042H268.483V274.803H264.41Z" fill="#A6A6A6"/>
<path d="M271.934 265.144V311.043H276.006V265.144H271.934Z" fill="white"/>
<path d="M271.934 296.454V311.042H276.006V296.454H271.934Z" fill="#A6A6A6"/>
<path d="M279.453 265.144V311.042H283.526V265.144H279.453Z" fill="white"/>
<path d="M279.453 281.866V311.042H283.526V281.866H279.453Z" fill="#A6A6A6"/>
<path d="M212.672 317.612H208.078V322.197H212.672V317.612Z" fill="#A6A6A6"/>
<path d="M266.166 317.612H215.863V318.966H266.166V317.612Z" fill="#DBDBDB"/>
<path d="M248.367 320.842H215.863V322.197H248.367V320.842Z" fill="#DBDBDB"/>
</g>
<path d="M334.079 353.927C337.753 359.168 332.002 364.906 326.75 361.24C326.577 361.119 326.42 360.962 326.298 360.788C322.634 355.549 328.378 349.818 333.626 353.476C333.8 353.597 333.957 353.754 334.079 353.927Z" fill="#CDCDCD"/>
<path d="M455.193 374.01C455.193 374.1 399.7 374.173 331.261 374.173C262.798 374.173 207.316 374.099 207.316 374.01C207.316 373.919 262.798 373.847 331.261 373.847C399.699 373.846 455.193 373.919 455.193 374.01Z" fill="#455A64"/>
<path d="M383.001 273.433C383.001 278.614 381.436 282.693 378.307 285.668C375.434 288.336 371.817 289.67 367.457 289.67H361.147V311.601H353.605V257.735H367.841C372.048 257.735 375.537 258.966 378.307 261.429C381.436 264.199 383.001 268.2 383.001 273.433ZM375.229 273.664C375.229 270.791 374.459 268.611 372.92 267.123C371.484 265.789 369.611 265.122 367.303 265.122H361.147V282.359H367.534C369.842 282.359 371.689 281.615 373.074 280.128C374.511 278.64 375.229 276.485 375.229 273.664Z" fill="#2B3C15"/>
<path d="M344.694 311.601H336.306L328.149 288.131H321.916V311.601H314.375V257.735H329.534C333.844 257.735 337.332 258.889 340 261.198C343.027 263.814 344.54 267.636 344.54 272.663C344.54 279.897 341.718 284.617 336.075 286.822L344.694 311.601ZM336.768 272.894C336.768 267.662 334.152 265.045 328.919 265.045H321.916V280.897H328.919C334.152 280.897 336.768 278.23 336.768 272.894Z" fill="#2B3C15"/>
<path d="M306.427 311.601H280.109V257.735H305.426V265.045H287.651V279.435H299.27V286.669H287.651V304.29H306.427V311.601Z" fill="#2B3C15"/>
<path d="M386.397 246.704C386.397 246.704 386.219 246.719 385.855 246.726C385.469 246.73 384.929 246.738 384.227 246.747C382.765 246.757 380.639 246.771 377.889 246.789C372.324 246.809 364.249 246.837 354.117 246.873C333.766 246.904 305.164 246.949 272.074 247H271.852L271.79 246.786C270.092 240.984 271.129 234.185 274.926 228.985C278.71 223.8 285.209 220.496 291.905 220.668L291.602 221.06C291.11 219.365 290.88 217.453 290.967 215.548C291.22 209.201 294.826 203.07 300.361 200.231C305.824 197.344 312.569 197.451 317.745 200.325L317.32 200.475C320.269 193.275 326.491 188.053 333.242 185.634C340.013 183.171 347.522 183.495 353.425 186.586C359.359 189.629 363.582 194.811 365.921 200.248C368.321 205.716 368.653 211.586 367.458 216.629L367.229 216.368C370.622 215.992 373.906 216.575 376.726 217.731C379.552 218.89 381.951 220.591 383.772 222.563C384.678 223.545 385.464 224.61 385.991 225.746C386.516 226.879 386.907 228.016 387.172 229.129C387.718 231.353 387.913 233.439 387.98 235.306C388.1 239.05 387.648 241.936 387.241 243.846C387.02 244.801 386.83 245.518 386.652 245.998C386.488 246.479 386.397 246.704 386.397 246.704Z" fill="#8BC53F"/>
<line x1="302.5" y1="247" x2="302.5" y2="222" stroke="#EDEDED"/>
<line x1="318.5" y1="247" x2="318.5" y2="235" stroke="#EDEDED"/>
<line x1="336.5" y1="247" x2="336.5" y2="228" stroke="#EDEDED"/>
<line x1="354.5" y1="247" x2="354.5" y2="215" stroke="#EDEDED"/>
<circle cx="302.5" cy="221.5" r="2.5" fill="white"/>
<circle cx="318.5" cy="234.5" r="2.5" fill="white"/>
<circle cx="336.5" cy="227.5" r="2.5" fill="white"/>
<circle cx="354.5" cy="214.5" r="2.5" fill="white"/>
<path d="M415.004 143.286H363.614C356.278 143.286 350.332 137.34 350.332 130.004V78.6145C350.332 71.279 356.278 65.3325 363.614 65.3325H415.004C422.339 65.3325 428.286 71.279 428.286 78.6145V130.004C428.286 137.338 422.339 143.286 415.004 143.286Z" fill="#FAFAFA"/>
<path d="M415.001 143.286C414.996 143.223 416.025 143.303 417.898 142.891C419.729 142.455 422.526 141.396 424.919 138.625C426.107 137.264 427.146 135.479 427.681 133.341C428.293 131.217 428.071 128.78 428.098 126.184C428.084 120.987 428.067 115.073 428.048 108.54C428.035 102 428.022 94.841 428.007 87.1562C428.004 85.2338 428.001 83.2793 427.998 81.2942C427.979 79.3001 428.103 77.2881 427.561 75.3554C426.599 71.4709 423.6 67.9943 419.637 66.5093C418.658 66.109 417.609 65.8915 416.554 65.7457C415.501 65.628 414.409 65.6395 413.295 65.6472C411.082 65.6485 408.844 65.6511 406.582 65.6523C402.058 65.6549 397.438 65.6574 392.736 65.66C383.331 65.6626 373.594 65.6638 363.619 65.6664C361.188 65.6933 358.773 66.3533 356.746 67.6515C355.731 68.2898 354.792 69.0534 354.007 69.9526C353.197 70.8275 352.527 71.8252 352.009 72.8894C351.458 73.9395 351.125 75.0843 350.889 76.2329C350.666 77.3943 350.655 78.5531 350.658 79.7606C350.657 82.1525 350.657 84.5252 350.656 86.8774C350.649 96.2838 350.643 105.359 350.637 114.004C350.631 118.326 350.628 122.541 350.623 126.636C350.658 128.687 350.486 130.715 350.877 132.613C351.27 134.518 352.091 136.295 353.218 137.8C355.463 140.838 358.957 142.69 362.445 142.973C365.965 143.098 369.424 143.019 372.682 143.053C385.737 143.098 396.31 143.134 403.647 143.16C407.282 143.186 410.115 143.208 412.066 143.222C413.01 143.236 413.736 143.248 414.256 143.255C414.748 143.263 415.001 143.286 415.001 143.286C415.001 143.286 414.748 143.309 414.256 143.321C413.737 143.328 413.011 143.34 412.066 143.354C410.115 143.368 407.283 143.39 403.647 143.417C396.31 143.442 385.737 143.478 372.682 143.523C369.403 143.504 366.01 143.598 362.399 143.483C358.772 143.203 355.125 141.288 352.775 138.13C351.596 136.566 350.733 134.714 350.318 132.726C349.904 130.713 350.079 128.668 350.037 126.635C350.033 122.539 350.028 118.325 350.023 114.003C350.016 105.358 350.01 96.2838 350.003 86.8761C350.002 84.5239 350.001 82.1512 350.001 79.7593C349.996 78.5787 350.005 77.3227 350.24 76.1114C350.487 74.9039 350.839 73.7003 351.416 72.5952C351.959 71.476 352.663 70.4284 353.515 69.5075C354.34 68.5635 355.326 67.759 356.392 67.0875C358.523 65.7227 361.066 65.0269 363.619 65C373.594 65.0026 383.331 65.0051 392.736 65.0064C397.438 65.009 402.058 65.0115 406.582 65.0141C408.844 65.0154 411.082 65.0179 413.295 65.0192C414.394 65.0141 415.506 65.0026 416.627 65.1279C417.733 65.2814 418.831 65.5129 419.855 65.9337C424.006 67.4993 427.129 71.1421 428.127 75.2071C428.69 77.2472 428.552 79.3308 428.567 81.2929C428.565 83.2793 428.561 85.2338 428.558 87.155C428.543 94.8397 428.53 102 428.517 108.539C428.499 115.072 428.483 120.985 428.467 126.182C428.421 128.758 428.631 131.23 427.985 133.421C427.419 135.605 426.339 137.419 425.112 138.794C422.641 141.591 419.782 142.621 417.925 143.02C416.976 143.203 416.242 143.286 415.747 143.281C415.253 143.296 415.001 143.286 415.001 143.286Z" fill="#263238"/>
<path d="M372.602 119.834H362.766V127.365H372.602V119.834Z" fill="#CE629F"/>
<path d="M385.051 102.467H375.215V127.365H385.051V102.467Z" fill="#CE629F"/>
<path d="M398.731 113.186H388.895V127.365H398.731V113.186Z" fill="#CE629F"/>
<path d="M411.797 95.2432H401.961V127.365H411.797V95.2432Z" fill="#CE629F"/>
<path d="M367.025 112.078C364.326 112.078 362.129 109.882 362.129 107.182C362.129 104.483 364.325 102.286 367.025 102.286C369.725 102.286 371.922 104.482 371.922 107.182C371.922 109.881 369.725 112.078 367.025 112.078ZM367.025 103.565C365.031 103.565 363.408 105.188 363.408 107.182C363.408 109.177 365.031 110.799 367.025 110.799C369.019 110.799 370.642 109.177 370.642 107.182C370.642 105.188 369.019 103.565 367.025 103.565Z" fill="#CE629F"/>
<path d="M381.096 93.4489C378.397 93.4489 376.199 91.2527 376.199 88.5526C376.199 85.8524 378.395 83.6562 381.096 83.6562C383.794 83.6562 385.992 85.8524 385.992 88.5526C385.992 91.2527 383.796 93.4489 381.096 93.4489ZM381.096 84.9366C379.101 84.9366 377.478 86.5598 377.478 88.5539C377.478 90.5479 379.101 92.1711 381.096 92.1711C383.09 92.1711 384.713 90.5479 384.713 88.5539C384.713 86.5585 383.09 84.9366 381.096 84.9366Z" fill="#CE629F"/>
<path d="M393.818 105.247C391.119 105.247 388.922 103.051 388.922 100.351C388.922 97.6521 391.118 95.4546 393.818 95.4546C396.518 95.4546 398.715 97.6508 398.715 100.351C398.715 103.051 396.518 105.247 393.818 105.247ZM393.818 96.7349C391.824 96.7349 390.201 98.3581 390.201 100.352C390.201 102.346 391.824 103.969 393.818 103.969C395.812 103.969 397.435 102.348 397.435 100.352C397.435 98.3568 395.814 96.7349 393.818 96.7349Z" fill="#CE629F"/>
<path d="M407.42 88.1432C404.721 88.1432 402.523 85.9471 402.523 83.2469C402.523 80.5468 404.72 78.3506 407.42 78.3506C410.119 78.3506 412.316 80.5468 412.316 83.2469C412.316 85.9471 410.119 88.1432 407.42 88.1432ZM407.42 79.6297C405.426 79.6297 403.803 81.2515 403.803 83.2469C403.803 85.241 405.424 86.8642 407.42 86.8642C409.414 86.8642 411.037 85.241 411.037 83.2469C411.037 81.2528 409.414 79.6297 407.42 79.6297Z" fill="#CE629F"/>
<path d="M403.99 85.9962L396.09 97.2368L397.136 97.9723L405.037 86.7317L403.99 85.9962Z" fill="#CE629F"/>
<path d="M384.838 91.5324L383.914 92.4165L389.929 98.7051L390.853 97.821L384.838 91.5324Z" fill="#CE629F"/>
<path d="M377.733 91.8212L368.867 103.242L369.878 104.027L378.744 92.6056L377.733 91.8212Z" fill="#CE629F"/>
<path d="M169.378 324.773H60.0156V400.901H169.378V324.773Z" fill="#404040"/>
<path d="M157.486 347.356H44.9883V375.267H157.486V347.356Z" fill="#676767"/>
<path d="M72.1344 353.105H49.9844V356.513H72.1344V353.105Z" fill="#404040"/>
<path d="M72.1344 358.968H49.9844V362.376H72.1344V358.968Z" fill="#404040"/>
<path d="M72.1344 365.032H49.9844V368.44H72.1344V365.032Z" fill="#404040"/>
<path d="M80.8936 355.164C80.8936 355.866 80.3246 356.435 79.6226 356.435C78.9206 356.435 78.3516 355.866 78.3516 355.164C78.3516 354.462 78.9206 353.893 79.6226 353.893C80.3246 353.893 80.8936 354.462 80.8936 355.164Z" fill="#404040"/>
<path d="M86.499 355.164C86.499 355.866 85.93 356.435 85.228 356.435C84.526 356.435 83.957 355.866 83.957 355.164C83.957 354.462 84.526 353.893 85.228 353.893C85.931 353.893 86.499 354.462 86.499 355.164Z" fill="#404040"/>
<path d="M92.1084 355.164C92.1084 355.866 91.5394 356.435 90.8374 356.435C90.1354 356.435 89.5664 355.866 89.5664 355.164C89.5664 354.462 90.1354 353.893 90.8374 353.893C91.5394 353.893 92.1084 354.462 92.1084 355.164Z" fill="#404040"/>
<path d="M97.7139 355.164C97.7139 355.866 97.1449 356.435 96.4429 356.435C95.7409 356.435 95.1719 355.866 95.1719 355.164C95.1719 354.462 95.7409 353.893 96.4429 353.893C97.1449 353.893 97.7139 354.462 97.7139 355.164Z" fill="#404040"/>
<path d="M141.167 355.164C141.167 355.866 140.598 356.435 139.896 356.435C139.194 356.435 138.625 355.866 138.625 355.164C138.625 354.462 139.194 353.893 139.896 353.893C140.598 353.893 141.167 354.462 141.167 355.164Z" fill="#404040"/>
<path d="M146.886 355.164C146.886 355.866 146.317 356.435 145.615 356.435C144.913 356.435 144.344 355.866 144.344 355.164C144.344 354.462 144.913 353.893 145.615 353.893C146.317 353.893 146.886 354.462 146.886 355.164Z" fill="#404040"/>
<path d="M103.323 355.164C103.323 355.866 102.754 356.435 102.052 356.435C101.35 356.435 100.781 355.866 100.781 355.164C100.781 354.462 101.35 353.893 102.052 353.893C102.754 353.893 103.323 354.462 103.323 355.164Z" fill="#404040"/>
<path d="M130.862 355.164C130.862 355.866 130.293 356.435 129.591 356.435C128.889 356.435 128.32 355.866 128.32 355.164C128.32 354.462 128.889 353.893 129.591 353.893C130.293 353.893 130.862 354.462 130.862 355.164Z" fill="#404040"/>
<path d="M108.929 355.164C108.929 355.866 108.36 356.435 107.658 356.435C106.956 356.435 106.387 355.866 106.387 355.164C106.387 354.462 106.956 353.893 107.658 353.893C108.36 353.893 108.929 354.462 108.929 355.164Z" fill="#F5F5F5"/>
<path d="M114.538 355.164C114.538 355.866 113.969 356.435 113.267 356.435C112.565 356.435 111.996 355.866 111.996 355.164C111.996 354.462 112.565 353.893 113.267 353.893C113.969 353.893 114.538 354.462 114.538 355.164Z" fill="#F5F5F5"/>
<path d="M125.913 355.164C125.913 355.866 125.344 356.435 124.642 356.435C123.94 356.435 123.371 355.866 123.371 355.164C123.371 354.462 123.94 353.893 124.642 353.893C125.344 353.893 125.913 354.462 125.913 355.164Z" fill="#F5F5F5"/>
<path d="M151.538 355.164C151.538 355.866 150.969 356.435 150.267 356.435C149.565 356.435 148.996 355.866 148.996 355.164C148.996 354.462 149.565 353.893 150.267 353.893C150.969 353.893 151.538 354.462 151.538 355.164Z" fill="#F5F5F5"/>
<path d="M120.144 355.164C120.144 355.866 119.575 356.435 118.873 356.435C118.171 356.435 117.602 355.866 117.602 355.164C117.602 354.462 118.171 353.893 118.873 353.893C119.575 353.893 120.144 354.462 120.144 355.164Z" fill="#CE629F"/>
<path d="M136.198 355.164C136.198 355.866 135.629 356.435 134.927 356.435C134.225 356.435 133.656 355.866 133.656 355.164C133.656 354.462 134.225 353.893 134.927 353.893C135.629 353.893 136.198 354.462 136.198 355.164Z" fill="#CE629F"/>
<path d="M148.996 361.289C148.996 360.587 149.565 360.018 150.267 360.018C150.969 360.018 151.538 360.587 151.538 361.289C151.538 361.991 150.969 362.56 150.267 362.56C149.565 362.559 148.996 361.99 148.996 361.289Z" fill="#404040"/>
<path d="M143.387 361.289C143.387 360.587 143.956 360.018 144.658 360.018C145.36 360.018 145.929 360.587 145.929 361.289C145.929 361.991 145.36 362.56 144.658 362.56C143.955 362.559 143.387 361.99 143.387 361.289Z" fill="#404040"/>
<path d="M137.781 361.289C137.781 360.587 138.35 360.018 139.052 360.018C139.754 360.018 140.323 360.587 140.323 361.289C140.323 361.991 139.754 362.56 139.052 362.56C138.35 362.559 137.781 361.99 137.781 361.289Z" fill="#404040"/>
<path d="M132.172 361.289C132.172 360.587 132.741 360.018 133.443 360.018C134.145 360.018 134.714 360.587 134.714 361.289C134.714 361.991 134.145 362.56 133.443 362.56C132.741 362.559 132.172 361.99 132.172 361.289Z" fill="#404040"/>
<path d="M88.7227 361.289C88.7227 360.587 89.2917 360.018 89.9937 360.018C90.6957 360.018 91.2647 360.587 91.2647 361.289C91.2647 361.991 90.6957 362.56 89.9937 362.56C89.2917 362.559 88.7227 361.99 88.7227 361.289Z" fill="#404040"/>
<path d="M83.0039 361.289C83.0039 360.587 83.5729 360.018 84.2749 360.018C84.9769 360.018 85.5459 360.587 85.5459 361.289C85.5459 361.991 84.9769 362.56 84.2749 362.56C83.5729 362.559 83.0039 361.99 83.0039 361.289Z" fill="#404040"/>
<path d="M126.566 361.289C126.566 360.587 127.135 360.018 127.837 360.018C128.539 360.018 129.108 360.587 129.108 361.289C129.108 361.991 128.539 362.56 127.837 362.56C127.135 362.559 126.566 361.99 126.566 361.289Z" fill="#404040"/>
<path d="M99.0273 361.289C99.0273 360.587 99.5963 360.018 100.298 360.018C101 360.018 101.569 360.587 101.569 361.289C101.569 361.991 101 362.56 100.298 362.56C99.5963 362.559 99.0273 361.99 99.0273 361.289Z" fill="#404040"/>
<path d="M120.957 361.289C120.957 360.587 121.526 360.018 122.228 360.018C122.93 360.018 123.499 360.587 123.499 361.289C123.499 361.991 122.93 362.56 122.228 362.56C121.526 362.559 120.957 361.99 120.957 361.289Z" fill="#F5F5F5"/>
<path d="M115.352 361.289C115.352 360.587 115.921 360.018 116.623 360.018C117.325 360.018 117.894 360.587 117.894 361.289C117.894 361.991 117.325 362.56 116.623 362.56C115.921 362.559 115.352 361.99 115.352 361.289Z" fill="#F5F5F5"/>
<path d="M103.977 361.289C103.977 360.587 104.546 360.018 105.248 360.018C105.95 360.018 106.519 360.587 106.519 361.289C106.519 361.991 105.95 362.56 105.248 362.56C104.546 362.559 103.977 361.99 103.977 361.289Z" fill="#F5F5F5"/>
<path d="M78.3516 361.289C78.3516 360.587 78.9206 360.018 79.6226 360.018C80.3246 360.018 80.8936 360.587 80.8936 361.289C80.8936 361.991 80.3246 362.56 79.6226 362.56C78.9206 362.559 78.3516 361.99 78.3516 361.289Z" fill="#F5F5F5"/>
<path d="M109.746 361.289C109.746 360.587 110.315 360.018 111.017 360.018C111.719 360.018 112.288 360.587 112.288 361.289C112.288 361.991 111.719 362.56 111.017 362.56C110.315 362.559 109.746 361.99 109.746 361.289Z" fill="#CE629F"/>
<path d="M93.6914 361.289C93.6914 360.587 94.2604 360.018 94.9624 360.018C95.6644 360.018 96.2334 360.587 96.2334 361.289C96.2334 361.991 95.6644 362.56 94.9624 362.56C94.2604 362.559 93.6914 361.99 93.6914 361.289Z" fill="#CE629F"/>
<path d="M80.8936 366.736C80.8936 367.438 80.3246 368.007 79.6226 368.007C78.9206 368.007 78.3516 367.438 78.3516 366.736C78.3516 366.034 78.9206 365.465 79.6226 365.465C80.3246 365.465 80.8936 366.034 80.8936 366.736Z" fill="#404040"/>
<path d="M85.2319 368.007C85.9339 368.007 86.5029 367.438 86.5029 366.736C86.5029 366.034 85.9339 365.465 85.2319 365.465C84.53 365.465 83.9609 366.034 83.9609 366.736C83.9609 367.438 84.53 368.007 85.2319 368.007Z" fill="#404040"/>
<path d="M90.8374 368.007C91.5394 368.007 92.1084 367.438 92.1084 366.736C92.1084 366.034 91.5394 365.465 90.8374 365.465C90.1354 365.465 89.5664 366.034 89.5664 366.736C89.5664 367.438 90.1354 368.007 90.8374 368.007Z" fill="#404040"/>
<path d="M96.4468 368.007C97.1487 368.007 97.7178 367.438 97.7178 366.736C97.7178 366.034 97.1487 365.465 96.4468 365.465C95.7448 365.465 95.1758 366.034 95.1758 366.736C95.1758 367.438 95.7448 368.007 96.4468 368.007Z" fill="#404040"/>
<path d="M139.896 368.007C140.598 368.007 141.167 367.438 141.167 366.736C141.167 366.034 140.598 365.465 139.896 365.465C139.194 365.465 138.625 366.034 138.625 366.736C138.625 367.438 139.194 368.007 139.896 368.007Z" fill="#404040"/>
<path d="M145.615 368.007C146.317 368.007 146.886 367.438 146.886 366.736C146.886 366.034 146.317 365.465 145.615 365.465C144.913 365.465 144.344 366.034 144.344 366.736C144.344 367.438 144.913 368.007 145.615 368.007Z" fill="#404040"/>
<path d="M103.323 366.736C103.323 367.438 102.754 368.007 102.052 368.007C101.35 368.007 100.781 367.438 100.781 366.736C100.781 366.034 101.35 365.465 102.052 365.465C102.754 365.465 103.323 366.034 103.323 366.736Z" fill="#404040"/>
<path d="M130.862 366.736C130.862 367.438 130.293 368.007 129.591 368.007C128.889 368.007 128.32 367.438 128.32 366.736C128.32 366.034 128.889 365.465 129.591 365.465C130.293 365.465 130.862 366.034 130.862 366.736Z" fill="#404040"/>
<path d="M107.658 368.007C108.36 368.007 108.929 367.438 108.929 366.736C108.929 366.034 108.36 365.465 107.658 365.465C106.956 365.465 106.387 366.034 106.387 366.736C106.387 367.438 106.956 368.007 107.658 368.007Z" fill="#F5F5F5"/>
<path d="M114.538 366.736C114.538 367.438 113.969 368.007 113.267 368.007C112.565 368.007 111.996 367.438 111.996 366.736C111.996 366.034 112.565 365.465 113.267 365.465C113.969 365.465 114.538 366.034 114.538 366.736Z" fill="#F5F5F5"/>
<path d="M125.913 366.736C125.913 367.438 125.344 368.007 124.642 368.007C123.94 368.007 123.371 367.438 123.371 366.736C123.371 366.034 123.94 365.465 124.642 365.465C125.344 365.465 125.913 366.034 125.913 366.736Z" fill="#F5F5F5"/>
<path d="M151.538 366.736C151.538 367.438 150.969 368.007 150.267 368.007C149.565 368.007 148.996 367.438 148.996 366.736C148.996 366.034 149.565 365.465 150.267 365.465C150.969 365.465 151.538 366.034 151.538 366.736Z" fill="#F5F5F5"/>
<path d="M120.144 366.736C120.144 367.438 119.575 368.007 118.873 368.007C118.171 368.007 117.602 367.438 117.602 366.736C117.602 366.034 118.171 365.465 118.873 365.465C119.575 365.465 120.144 366.034 120.144 366.736Z" fill="#CE629F"/>
<path d="M134.927 368.007C135.629 368.007 136.198 367.438 136.198 366.736C136.198 366.034 135.629 365.465 134.927 365.465C134.225 365.465 133.656 366.034 133.656 366.736C133.656 367.438 134.225 368.007 134.927 368.007Z" fill="#CE629F"/>
<path d="M157.486 381.799H44.9883V409.71H157.486V381.799Z" fill="#676767"/>
<path d="M80.6162 389.329C80.6162 390.031 80.0472 390.6 79.3452 390.6C78.6432 390.6 78.0742 390.031 78.0742 389.329C78.0742 388.627 78.6432 388.058 79.3452 388.058C80.0472 388.058 80.6162 388.627 80.6162 389.329Z" fill="#404040"/>
<path d="M86.2217 389.329C86.2217 390.031 85.6527 390.6 84.9507 390.6C84.2487 390.6 83.6797 390.031 83.6797 389.329C83.6797 388.627 84.2487 388.058 84.9507 388.058C85.6527 388.058 86.2217 388.627 86.2217 389.329Z" fill="#404040"/>
<path d="M91.8311 389.329C91.8311 390.031 91.2621 390.6 90.5601 390.6C89.8581 390.6 89.2891 390.031 89.2891 389.329C89.2891 388.627 89.8581 388.058 90.5601 388.058C91.2621 388.058 91.8311 388.627 91.8311 389.329Z" fill="#404040"/>
<path d="M97.4365 389.329C97.4365 390.031 96.8675 390.6 96.1655 390.6C95.4635 390.6 94.8945 390.031 94.8945 389.329C94.8945 388.627 95.4635 388.058 96.1655 388.058C96.8675 388.058 97.4365 388.627 97.4365 389.329Z" fill="#404040"/>
<path d="M140.89 389.329C140.89 390.031 140.321 390.6 139.619 390.6C138.917 390.6 138.348 390.031 138.348 389.329C138.348 388.627 138.917 388.058 139.619 388.058C140.321 388.058 140.89 388.627 140.89 389.329Z" fill="#404040"/>
<path d="M146.608 389.329C146.608 390.031 146.039 390.6 145.337 390.6C144.635 390.6 144.066 390.031 144.066 389.329C144.066 388.627 144.635 388.058 145.337 388.058C146.039 388.058 146.608 388.627 146.608 389.329Z" fill="#404040"/>
<path d="M103.046 389.329C103.046 390.031 102.477 390.6 101.775 390.6C101.073 390.6 100.504 390.031 100.504 389.329C100.504 388.627 101.073 388.058 101.775 388.058C102.477 388.058 103.046 388.627 103.046 389.329Z" fill="#404040"/>
<path d="M130.581 389.329C130.581 390.031 130.012 390.6 129.31 390.6C128.608 390.6 128.039 390.031 128.039 389.329C128.039 388.627 128.608 388.058 129.31 388.058C130.013 388.058 130.581 388.627 130.581 389.329Z" fill="#404040"/>
<path d="M108.651 389.329C108.651 390.031 108.082 390.6 107.38 390.6C106.678 390.6 106.109 390.031 106.109 389.329C106.109 388.627 106.678 388.058 107.38 388.058C108.082 388.058 108.651 388.627 108.651 389.329Z" fill="#F5F5F5"/>
<path d="M114.261 389.329C114.261 390.031 113.692 390.6 112.99 390.6C112.288 390.6 111.719 390.031 111.719 389.329C111.719 388.627 112.288 388.058 112.99 388.058C113.692 388.058 114.261 388.627 114.261 389.329Z" fill="#F5F5F5"/>
<path d="M125.636 389.329C125.636 390.031 125.067 390.6 124.365 390.6C123.663 390.6 123.094 390.031 123.094 389.329C123.094 388.627 123.663 388.058 124.365 388.058C125.067 388.058 125.636 388.627 125.636 389.329Z" fill="#F5F5F5"/>
<path d="M151.261 389.329C151.261 390.031 150.692 390.6 149.99 390.6C149.288 390.6 148.719 390.031 148.719 389.329C148.719 388.627 149.288 388.058 149.99 388.058C150.692 388.058 151.261 388.627 151.261 389.329Z" fill="#F5F5F5"/>
<path d="M119.866 389.329C119.866 390.031 119.297 390.6 118.595 390.6C117.893 390.6 117.324 390.031 117.324 389.329C117.324 388.627 117.893 388.058 118.595 388.058C119.297 388.058 119.866 388.627 119.866 389.329Z" fill="#CE629F"/>
<path d="M135.921 389.329C135.921 390.031 135.352 390.6 134.65 390.6C133.948 390.6 133.379 390.031 133.379 389.329C133.379 388.627 133.948 388.058 134.65 388.058C135.353 388.058 135.921 388.627 135.921 389.329Z" fill="#CE629F"/>
<path d="M148.719 395.454C148.719 394.752 149.288 394.183 149.99 394.183C150.692 394.183 151.261 394.752 151.261 395.454C151.261 396.156 150.692 396.725 149.99 396.725C149.288 396.725 148.719 396.156 148.719 395.454Z" fill="#404040"/>
<path d="M144.38 396.725C145.082 396.725 145.651 396.156 145.651 395.454C145.651 394.752 145.082 394.183 144.38 394.183C143.678 394.183 143.109 394.752 143.109 395.454C143.109 396.156 143.678 396.725 144.38 396.725Z" fill="#404040"/>
<path d="M137.504 395.454C137.504 394.752 138.073 394.183 138.775 394.183C139.477 394.183 140.046 394.752 140.046 395.454C140.046 396.156 139.477 396.725 138.775 396.725C138.073 396.725 137.504 396.156 137.504 395.454Z" fill="#404040"/>
<path d="M131.895 395.454C131.895 394.752 132.464 394.183 133.166 394.183C133.868 394.183 134.437 394.752 134.437 395.454C134.437 396.156 133.868 396.725 133.166 396.725C132.464 396.725 131.895 396.156 131.895 395.454Z" fill="#404040"/>
<path d="M88.4453 395.454C88.4453 394.752 89.0143 394.183 89.7163 394.183C90.4183 394.183 90.9873 394.752 90.9873 395.454C90.9873 396.156 90.4183 396.725 89.7163 396.725C89.0143 396.725 88.4453 396.156 88.4453 395.454Z" fill="#404040"/>
<path d="M82.7266 395.454C82.7266 394.752 83.2956 394.183 83.9976 394.183C84.6996 394.183 85.2686 394.752 85.2686 395.454C85.2686 396.156 84.6996 396.725 83.9976 396.725C83.2956 396.725 82.7266 396.156 82.7266 395.454Z" fill="#404040"/>
<path d="M127.56 396.725C128.262 396.725 128.831 396.156 128.831 395.454C128.831 394.752 128.262 394.183 127.56 394.183C126.858 394.183 126.289 394.752 126.289 395.454C126.289 396.156 126.858 396.725 127.56 396.725Z" fill="#404040"/>
<path d="M100.021 396.725C100.723 396.725 101.292 396.156 101.292 395.454C101.292 394.752 100.723 394.183 100.021 394.183C99.319 394.183 98.75 394.752 98.75 395.454C98.75 396.156 99.319 396.725 100.021 396.725Z" fill="#404040"/>
<path d="M120.684 395.454C120.684 394.752 121.253 394.183 121.955 394.183C122.657 394.183 123.226 394.752 123.226 395.454C123.226 396.156 122.657 396.725 121.955 396.725C121.253 396.725 120.684 396.156 120.684 395.454Z" fill="#F5F5F5"/>
<path d="M115.074 395.454C115.074 394.752 115.643 394.183 116.345 394.183C117.047 394.183 117.616 394.752 117.616 395.454C117.616 396.156 117.047 396.725 116.345 396.725C115.642 396.725 115.074 396.156 115.074 395.454Z" fill="#F5F5F5"/>
<path d="M104.97 396.725C105.672 396.725 106.241 396.156 106.241 395.454C106.241 394.752 105.672 394.183 104.97 394.183C104.268 394.183 103.699 394.752 103.699 395.454C103.699 396.156 104.268 396.725 104.97 396.725Z" fill="#F5F5F5"/>
<path d="M78.0742 395.454C78.0742 394.752 78.6432 394.183 79.3452 394.183C80.0472 394.183 80.6162 394.752 80.6162 395.454C80.6162 396.156 80.0472 396.725 79.3452 396.725C78.6432 396.725 78.0742 396.156 78.0742 395.454Z" fill="#F5F5F5"/>
<path d="M109.469 395.454C109.469 394.752 110.038 394.183 110.74 394.183C111.442 394.183 112.011 394.752 112.011 395.454C112.011 396.156 111.442 396.725 110.74 396.725C110.038 396.725 109.469 396.156 109.469 395.454Z" fill="#CE629F"/>
<path d="M93.4141 395.454C93.4141 394.752 93.9831 394.183 94.6851 394.183C95.3871 394.183 95.9561 394.752 95.9561 395.454C95.9561 396.156 95.3871 396.725 94.6851 396.725C93.9831 396.725 93.4141 396.156 93.4141 395.454Z" fill="#CE629F"/>
<path d="M80.6162 400.901C80.6162 401.603 80.0472 402.172 79.3452 402.172C78.6432 402.172 78.0742 401.603 78.0742 400.901C78.0742 400.199 78.6432 399.63 79.3452 399.63C80.0472 399.63 80.6162 400.199 80.6162 400.901Z" fill="#404040"/>
<path d="M86.2217 400.901C86.2217 401.603 85.6527 402.172 84.9507 402.172C84.2487 402.172 83.6797 401.603 83.6797 400.901C83.6797 400.199 84.2487 399.63 84.9507 399.63C85.6527 399.63 86.2217 400.199 86.2217 400.901Z" fill="#404040"/>
<path d="M91.8311 400.901C91.8311 401.603 91.2621 402.172 90.5601 402.172C89.8581 402.172 89.2891 401.603 89.2891 400.901C89.2891 400.199 89.8581 399.63 90.5601 399.63C91.2621 399.63 91.8311 400.199 91.8311 400.901Z" fill="#404040"/>
<path d="M97.4365 400.901C97.4365 401.603 96.8675 402.172 96.1655 402.172C95.4635 402.172 94.8945 401.603 94.8945 400.901C94.8945 400.199 95.4635 399.63 96.1655 399.63C96.8675 399.63 97.4365 400.199 97.4365 400.901Z" fill="#404040"/>
<path d="M140.89 400.901C140.89 401.603 140.321 402.172 139.619 402.172C138.917 402.172 138.348 401.603 138.348 400.901C138.348 400.199 138.917 399.63 139.619 399.63C140.321 399.63 140.89 400.199 140.89 400.901Z" fill="#404040"/>
<path d="M146.608 400.901C146.608 401.603 146.039 402.172 145.337 402.172C144.635 402.172 144.066 401.603 144.066 400.901C144.066 400.199 144.635 399.63 145.337 399.63C146.039 399.63 146.608 400.199 146.608 400.901Z" fill="#404040"/>
<path d="M103.046 400.901C103.046 401.603 102.477 402.172 101.775 402.172C101.073 402.172 100.504 401.603 100.504 400.901C100.504 400.199 101.073 399.63 101.775 399.63C102.477 399.63 103.046 400.199 103.046 400.901Z" fill="#404040"/>
<path d="M130.581 400.901C130.581 401.603 130.012 402.172 129.31 402.172C128.608 402.172 128.039 401.603 128.039 400.901C128.039 400.199 128.608 399.63 129.31 399.63C130.013 399.63 130.581 400.199 130.581 400.901Z" fill="#404040"/>
<path d="M108.651 400.901C108.651 401.603 108.082 402.172 107.38 402.172C106.678 402.172 106.109 401.603 106.109 400.901C106.109 400.199 106.678 399.63 107.38 399.63C108.082 399.63 108.651 400.199 108.651 400.901Z" fill="#F5F5F5"/>
<path d="M114.261 400.901C114.261 401.603 113.692 402.172 112.99 402.172C112.288 402.172 111.719 401.603 111.719 400.901C111.719 400.199 112.288 399.63 112.99 399.63C113.692 399.63 114.261 400.199 114.261 400.901Z" fill="#F5F5F5"/>
<path d="M125.636 400.901C125.636 401.603 125.067 402.172 124.365 402.172C123.663 402.172 123.094 401.603 123.094 400.901C123.094 400.199 123.663 399.63 124.365 399.63C125.067 399.63 125.636 400.199 125.636 400.901Z" fill="#F5F5F5"/>
<path d="M151.261 400.901C151.261 401.603 150.692 402.172 149.99 402.172C149.288 402.172 148.719 401.603 148.719 400.901C148.719 400.199 149.288 399.63 149.99 399.63C150.692 399.63 151.261 400.199 151.261 400.901Z" fill="#F5F5F5"/>
<path d="M119.866 400.901C119.866 401.603 119.297 402.172 118.595 402.172C117.893 402.172 117.324 401.603 117.324 400.901C117.324 400.199 117.893 399.63 118.595 399.63C119.297 399.63 119.866 400.199 119.866 400.901Z" fill="#CE629F"/>
<path d="M135.921 400.901C135.921 401.603 135.352 402.172 134.65 402.172C133.948 402.172 133.379 401.603 133.379 400.901C133.379 400.199 133.948 399.63 134.65 399.63C135.353 399.63 135.921 400.199 135.921 400.901Z" fill="#CE629F"/>
<path d="M72.1344 387.548H49.9844V390.956H72.1344V387.548Z" fill="#404040"/>
<path d="M72.1344 393.411H49.9844V396.819H72.1344V393.411Z" fill="#404040"/>
<path d="M72.1344 399.475H49.9844V402.883H72.1344V399.475Z" fill="#404040"/>
<path d="M181.265 375.221L157.484 375.267V347.356L181.265 347.311V375.221Z" fill="#404040"/>
<path d="M181.265 409.447L157.484 409.492V381.581L181.265 381.536V409.447Z" fill="#404040"/>
<path d="M72.9469 330.837H50.7969V334.245H72.9469V330.837Z" fill="#404040"/>
<path d="M181.269 341.284L157.488 341.33V313.206L181.269 313.161V341.284Z" fill="#404040"/>
<path d="M158.303 313.161H45.8047V341.072H158.303V313.161Z" fill="#676767"/>
<path d="M72.9508 318.91H50.8008V322.318H72.9508V318.91Z" fill="#404040"/>
<path d="M72.9508 324.773H50.8008V328.181H72.9508V324.773Z" fill="#404040"/>
<path d="M81.71 320.969C81.71 321.671 81.141 322.24 80.439 322.24C79.737 322.24 79.168 321.671 79.168 320.969C79.168 320.267 79.737 319.698 80.439 319.698C81.141 319.698 81.71 320.267 81.71 320.969Z" fill="#404040"/>
<path d="M87.3154 320.969C87.3154 321.671 86.7464 322.24 86.0444 322.24C85.3424 322.24 84.7734 321.671 84.7734 320.969C84.7734 320.267 85.3424 319.698 86.0444 319.698C86.7464 319.698 87.3154 320.267 87.3154 320.969Z" fill="#404040"/>
<path d="M92.9248 320.969C92.9248 321.671 92.3558 322.24 91.6538 322.24C90.9518 322.24 90.3828 321.671 90.3828 320.969C90.3828 320.267 90.9518 319.698 91.6538 319.698C92.3558 319.698 92.9248 320.267 92.9248 320.969Z" fill="#404040"/>
<path d="M98.5303 320.969C98.5303 321.671 97.9613 322.24 97.2593 322.24C96.5573 322.24 95.9883 321.671 95.9883 320.969C95.9883 320.267 96.5573 319.698 97.2593 319.698C97.9613 319.698 98.5303 320.267 98.5303 320.969Z" fill="#404040"/>
<path d="M141.983 320.969C141.983 321.671 141.414 322.24 140.712 322.24C140.01 322.24 139.441 321.671 139.441 320.969C139.441 320.267 140.01 319.698 140.712 319.698C141.414 319.698 141.983 320.267 141.983 320.969Z" fill="#404040"/>
<path d="M147.702 320.969C147.702 321.671 147.133 322.24 146.431 322.24C145.729 322.24 145.16 321.671 145.16 320.969C145.16 320.267 145.729 319.698 146.431 319.698C147.133 319.698 147.702 320.267 147.702 320.969Z" fill="#404040"/>
<path d="M104.14 320.969C104.14 321.671 103.571 322.24 102.869 322.24C102.167 322.24 101.598 321.671 101.598 320.969C101.598 320.267 102.167 319.698 102.869 319.698C103.571 319.698 104.14 320.267 104.14 320.969Z" fill="#404040"/>
<path d="M131.679 320.969C131.679 321.671 131.11 322.24 130.408 322.24C129.706 322.24 129.137 321.671 129.137 320.969C129.137 320.267 129.706 319.698 130.408 319.698C131.11 319.698 131.679 320.267 131.679 320.969Z" fill="#404040"/>
<path d="M109.745 320.969C109.745 321.671 109.176 322.24 108.474 322.24C107.772 322.24 107.203 321.671 107.203 320.969C107.203 320.267 107.772 319.698 108.474 319.698C109.176 319.698 109.745 320.267 109.745 320.969Z" fill="#F5F5F5"/>
<path d="M115.354 320.969C115.354 321.671 114.786 322.24 114.084 322.24C113.382 322.24 112.812 321.671 112.812 320.969C112.812 320.267 113.382 319.698 114.084 319.698C114.786 319.698 115.354 320.267 115.354 320.969Z" fill="#F5F5F5"/>
<path d="M126.729 320.969C126.729 321.671 126.161 322.24 125.459 322.24C124.757 322.24 124.188 321.671 124.188 320.969C124.188 320.267 124.757 319.698 125.459 319.698C126.161 319.698 126.729 320.267 126.729 320.969Z" fill="#F5F5F5"/>
<path d="M152.354 320.969C152.354 321.671 151.785 322.24 151.083 322.24C150.381 322.24 149.812 321.671 149.812 320.969C149.812 320.267 150.381 319.698 151.083 319.698C151.785 319.698 152.354 320.267 152.354 320.969Z" fill="#F5F5F5"/>
<path d="M120.96 320.969C120.96 321.671 120.391 322.24 119.689 322.24C118.987 322.24 118.418 321.671 118.418 320.969C118.418 320.267 118.987 319.698 119.689 319.698C120.391 319.698 120.96 320.267 120.96 320.969Z" fill="#CE629F"/>
<path d="M137.015 320.969C137.015 321.671 136.446 322.24 135.744 322.24C135.042 322.24 134.473 321.671 134.473 320.969C134.473 320.267 135.042 319.698 135.744 319.698C136.446 319.698 137.015 320.267 137.015 320.969Z" fill="#CE629F"/>
<path d="M149.812 327.094C149.812 326.392 150.381 325.823 151.083 325.823C151.785 325.823 152.354 326.392 152.354 327.094C152.354 327.796 151.785 328.365 151.083 328.365C150.381 328.364 149.812 327.796 149.812 327.094Z" fill="#404040"/>
<path d="M145.474 328.365C146.176 328.365 146.745 327.796 146.745 327.094C146.745 326.392 146.176 325.823 145.474 325.823C144.772 325.823 144.203 326.392 144.203 327.094C144.203 327.796 144.772 328.365 145.474 328.365Z" fill="#404040"/>
<path d="M138.598 327.094C138.598 326.392 139.167 325.823 139.869 325.823C140.571 325.823 141.14 326.392 141.14 327.094C141.14 327.796 140.571 328.365 139.869 328.365C139.167 328.364 138.598 327.796 138.598 327.094Z" fill="#404040"/>
<path d="M132.992 327.094C132.992 326.392 133.561 325.823 134.263 325.823C134.965 325.823 135.534 326.392 135.534 327.094C135.534 327.796 134.965 328.365 134.263 328.365C133.56 328.364 132.992 327.796 132.992 327.094Z" fill="#404040"/>
<path d="M89.5391 327.094C89.5391 326.392 90.1081 325.823 90.8101 325.823C91.5121 325.823 92.0811 326.392 92.0811 327.094C92.0811 327.796 91.5121 328.365 90.8101 328.365C90.1081 328.364 89.5391 327.796 89.5391 327.094Z" fill="#404040"/>
<path d="M83.8203 327.094C83.8203 326.392 84.3893 325.823 85.0913 325.823C85.7933 325.823 86.3623 326.392 86.3623 327.094C86.3623 327.796 85.7933 328.365 85.0913 328.365C84.3893 328.364 83.8203 327.796 83.8203 327.094Z" fill="#404040"/>
<path d="M127.383 327.094C127.383 326.392 127.952 325.823 128.654 325.823C129.356 325.823 129.925 326.392 129.925 327.094C129.925 327.796 129.356 328.365 128.654 328.365C127.952 328.364 127.383 327.796 127.383 327.094Z" fill="#404040"/>
<path d="M101.115 328.365C101.817 328.365 102.386 327.796 102.386 327.094C102.386 326.392 101.817 325.823 101.115 325.823C100.413 325.823 99.8438 326.392 99.8438 327.094C99.8438 327.796 100.413 328.365 101.115 328.365Z" fill="#404040"/>
<path d="M121.777 327.094C121.777 326.392 122.346 325.823 123.048 325.823C123.75 325.823 124.319 326.392 124.319 327.094C124.319 327.796 123.75 328.365 123.048 328.365C122.346 328.364 121.777 327.796 121.777 327.094Z" fill="#F5F5F5"/>
<path d="M117.439 328.365C118.141 328.365 118.71 327.796 118.71 327.094C118.71 326.392 118.141 325.823 117.439 325.823C116.737 325.823 116.168 326.392 116.168 327.094C116.168 327.796 116.737 328.365 117.439 328.365Z" fill="#F5F5F5"/>
<path d="M104.793 327.094C104.793 326.392 105.362 325.823 106.064 325.823C106.766 325.823 107.335 326.392 107.335 327.094C107.335 327.796 106.766 328.365 106.064 328.365C105.362 328.364 104.793 327.796 104.793 327.094Z" fill="#F5F5F5"/>
<path d="M80.439 328.365C81.1409 328.365 81.71 327.796 81.71 327.094C81.71 326.392 81.1409 325.823 80.439 325.823C79.737 325.823 79.168 326.392 79.168 327.094C79.168 327.796 79.737 328.365 80.439 328.365Z" fill="#F5F5F5"/>
<path d="M110.562 327.094C110.562 326.392 111.132 325.823 111.834 325.823C112.536 325.823 113.104 326.392 113.104 327.094C113.104 327.796 112.536 328.365 111.834 328.365C111.132 328.364 110.562 327.796 110.562 327.094Z" fill="#CE629F"/>
<path d="M94.5078 327.094C94.5078 326.392 95.0768 325.823 95.7788 325.823C96.4808 325.823 97.0498 326.392 97.0498 327.094C97.0498 327.796 96.4808 328.365 95.7788 328.365C95.0768 328.364 94.5078 327.796 94.5078 327.094Z" fill="#CE629F"/>
<path d="M81.71 332.541C81.71 333.243 81.141 333.812 80.439 333.812C79.737 333.812 79.168 333.243 79.168 332.541C79.168 331.839 79.737 331.27 80.439 331.27C81.141 331.27 81.71 331.839 81.71 332.541Z" fill="#404040"/>
<path d="M87.3154 332.541C87.3154 333.243 86.7464 333.812 86.0444 333.812C85.3424 333.812 84.7734 333.243 84.7734 332.541C84.7734 331.839 85.3424 331.27 86.0444 331.27C86.7464 331.27 87.3154 331.839 87.3154 332.541Z" fill="#404040"/>
<path d="M92.9248 332.541C92.9248 333.243 92.3558 333.812 91.6538 333.812C90.9518 333.812 90.3828 333.243 90.3828 332.541C90.3828 331.839 90.9518 331.27 91.6538 331.27C92.3558 331.27 92.9248 331.839 92.9248 332.541Z" fill="#404040"/>
<path d="M98.5303 332.541C98.5303 333.243 97.9613 333.812 97.2593 333.812C96.5573 333.812 95.9883 333.243 95.9883 332.541C95.9883 331.839 96.5573 331.27 97.2593 331.27C97.9613 331.27 98.5303 331.839 98.5303 332.541Z" fill="#404040"/>
<path d="M141.983 332.541C141.983 333.243 141.414 333.812 140.712 333.812C140.01 333.812 139.441 333.243 139.441 332.541C139.441 331.839 140.01 331.27 140.712 331.27C141.414 331.27 141.983 331.839 141.983 332.541Z" fill="#404040"/>
<path d="M147.702 332.541C147.702 333.243 147.133 333.812 146.431 333.812C145.729 333.812 145.16 333.243 145.16 332.541C145.16 331.839 145.729 331.27 146.431 331.27C147.133 331.27 147.702 331.839 147.702 332.541Z" fill="#404040"/>
<path d="M104.14 332.541C104.14 333.243 103.571 333.812 102.869 333.812C102.167 333.812 101.598 333.243 101.598 332.541C101.598 331.839 102.167 331.27 102.869 331.27C103.571 331.27 104.14 331.839 104.14 332.541Z" fill="#404040"/>
<path d="M131.679 332.541C131.679 333.243 131.11 333.812 130.408 333.812C129.706 333.812 129.137 333.243 129.137 332.541C129.137 331.839 129.706 331.27 130.408 331.27C131.11 331.27 131.679 331.839 131.679 332.541Z" fill="#404040"/>
<path d="M109.745 332.541C109.745 333.243 109.176 333.812 108.474 333.812C107.772 333.812 107.203 333.243 107.203 332.541C107.203 331.839 107.772 331.27 108.474 331.27C109.176 331.27 109.745 331.839 109.745 332.541Z" fill="#F5F5F5"/>
<path d="M115.354 332.541C115.354 333.243 114.786 333.812 114.084 333.812C113.382 333.812 112.812 333.243 112.812 332.541C112.812 331.839 113.382 331.27 114.084 331.27C114.786 331.27 115.354 331.839 115.354 332.541Z" fill="#F5F5F5"/>
<path d="M126.729 332.541C126.729 333.243 126.161 333.812 125.459 333.812C124.757 333.812 124.188 333.243 124.188 332.541C124.188 331.839 124.757 331.27 125.459 331.27C126.161 331.27 126.729 331.839 126.729 332.541Z" fill="#F5F5F5"/>
<path d="M152.354 332.541C152.354 333.243 151.785 333.812 151.083 333.812C150.381 333.812 149.812 333.243 149.812 332.541C149.812 331.839 150.381 331.27 151.083 331.27C151.785 331.27 152.354 331.839 152.354 332.541Z" fill="#F5F5F5"/>
<path d="M120.96 332.541C120.96 333.243 120.391 333.812 119.689 333.812C118.987 333.812 118.418 333.243 118.418 332.541C118.418 331.839 118.987 331.27 119.689 331.27C120.391 331.27 120.96 331.839 120.96 332.541Z" fill="#CE629F"/>
<path d="M137.015 332.541C137.015 333.243 136.446 333.812 135.744 333.812C135.042 333.812 134.473 333.243 134.473 332.541C134.473 331.839 135.042 331.27 135.744 331.27C136.446 331.27 137.015 331.839 137.015 332.541Z" fill="#CE629F"/>
<path d="M145.936 294.234L165.113 247.966C165.988 245.855 164.89 244.143 162.661 244.143H158.803C157.229 244.143 156.156 243.276 156.054 241.922L155.926 240.221C155.824 238.867 154.749 238 153.173 238H134.84C133.411 238 131.797 238.714 130.595 239.878L129.107 241.32C127.906 242.484 126.293 243.198 124.865 243.198H101.514C99.2838 243.198 96.7878 244.91 95.9368 247.021L76.9258 294.235H145.936V294.234Z" fill="#CE629F"/>
<g opacity="0.3">
<path d="M145.936 294.234L165.113 247.966C165.988 245.855 164.89 244.143 162.661 244.143H158.803C157.229 244.143 156.156 243.276 156.054 241.922L155.926 240.221C155.824 238.867 154.749 238 153.173 238H134.84C133.411 238 131.797 238.714 130.595 239.878L129.107 241.32C127.906 242.484 126.293 243.198 124.865 243.198H101.514C99.2838 243.198 96.7878 244.91 95.9368 247.021L76.9258 294.235H145.936V294.234Z" fill="black"/>
</g>
<path d="M149.104 278.521L156.337 250.557C156.813 248.716 155.607 246.869 153.929 246.869H97.2375C96.1165 246.869 95.1315 247.719 94.8235 248.952L84.2955 291.042C83.8335 292.89 84.5715 293.999 86.2525 293.978L143.292 293.996C144.397 293.982 145.364 293.143 145.675 291.93L149.104 278.521Z" fill="#E0E0E0"/>
<path d="M145.185 292.969L148.266 248.931C148.375 247.369 147.138 246.042 145.572 246.042H86.832V292.969H145.185Z" fill="#EBEBEB"/>
<path d="M145.842 293.977L138.854 248.578C138.532 247.099 137.201 246.042 135.66 246.042H76.2384C73.8914 246.042 72.3104 248.4 73.2384 250.517L86.0694 292.064L145.842 293.977Z" fill="#FAFAFA"/>
<path d="M145.934 294.214L131.523 251.695C130.923 249.924 129.317 248.739 127.515 248.739H66.2564C64.2824 248.739 62.8904 250.76 63.5204 252.711L76.9244 294.235L145.934 294.214Z" fill="#CE629F"/>
<path d="M162.674 78.1533H80.1562V172.328H162.674V78.1533Z" fill="white"/>
<path d="M162.671 172.328C162.671 172.328 162.666 172.175 162.663 171.881C162.661 171.582 162.658 171.146 162.655 170.572C162.651 169.417 162.646 167.711 162.639 165.489C162.63 161.043 162.619 154.537 162.603 146.274C162.586 129.763 162.563 106.236 162.535 78.1541L162.671 78.29C138.371 78.2955 110.137 78.3015 80.1614 78.3076H80.1529L80.3064 78.1541C80.2979 112.875 80.2894 145.252 80.2827 172.328L80.1529 172.199C104.978 172.227 125.591 172.249 140.004 172.266C147.216 172.28 152.876 172.292 156.738 172.299C158.668 172.306 160.147 172.311 161.149 172.314C162.148 172.319 162.671 172.328 162.671 172.328C162.671 172.328 162.167 172.338 161.177 172.343C160.18 172.347 158.71 172.352 156.791 172.358C152.936 172.366 147.286 172.377 140.086 172.391C125.654 172.408 105.012 172.43 80.1535 172.458H80.0238V172.328C80.0171 145.252 80.0085 112.874 80 78.1535V78H80.1535H80.162C110.138 78.0067 138.371 78.0128 162.671 78.0177H162.807V78.1535C162.779 106.271 162.755 129.828 162.739 146.362C162.724 154.611 162.711 161.107 162.703 165.546C162.696 167.756 162.691 169.452 162.687 170.602C162.684 171.17 162.681 171.601 162.679 171.896C162.675 172.185 162.671 172.328 162.671 172.328Z" fill="#263238"/>
<path d="M155.567 126.238C155.54 126.294 154.653 125.781 152.914 125.23C151.188 124.695 148.525 124.178 145.304 124.665C143.707 124.921 141.975 125.405 140.285 126.279C138.583 127.131 136.961 128.397 135.35 129.828C133.732 131.256 132.125 132.877 130.272 134.376C128.419 135.851 126.293 137.246 123.792 137.883C122.55 138.203 121.25 138.286 120.008 138.111C118.763 137.941 117.587 137.534 116.502 137.029C114.329 136.005 112.47 134.658 110.629 133.536C108.802 132.392 106.964 131.483 105.105 131.06C103.258 130.611 101.464 130.52 99.8511 130.657C96.6036 130.941 94.1468 132.091 92.5982 133.019C91.0418 133.969 90.3077 134.685 90.2663 134.635C90.2529 134.621 90.4344 134.443 90.7933 134.117C91.146 133.785 91.7094 133.337 92.4819 132.832C94.0158 131.835 96.4939 130.602 99.814 130.26C101.464 130.093 103.307 130.161 105.215 130.605C107.134 131.02 109.052 131.95 110.9 133.092C112.766 134.215 114.625 135.543 116.735 136.527C118.822 137.533 121.278 137.98 123.654 137.336C126.031 136.733 128.104 135.387 129.927 133.944C131.75 132.479 133.364 130.868 135.006 129.437C136.642 128.003 138.31 126.722 140.074 125.861C141.824 124.98 143.608 124.506 145.247 124.271C148.552 123.823 151.254 124.415 152.982 125.021C153.855 125.323 154.504 125.632 154.931 125.86C155.358 126.092 155.576 126.221 155.567 126.238Z" fill="#8BC53F"/>
<path d="M109.871 138.887H102.855V157.86H109.871V138.887Z" fill="#8BC53F"/>
<path d="M139.644 138.887H132.629V157.86H139.644V138.887Z" fill="#8BC53F"/>
<path d="M149.57 127.745H142.555V157.861H149.57V127.745Z" fill="#8BC53F"/>
<path d="M100.793 151.888H93.7773V158.273H100.793V151.888Z" fill="#8BC53F"/>
<path d="M119.8 147.455H112.785V157.86H119.8V147.455Z" fill="#8BC53F"/>
<path d="M129.718 145.067H122.703V157.861H129.718V145.067Z" fill="#8BC53F"/>
<path d="M110.166 160.097C110.166 160.253 108.469 160.38 106.376 160.38C104.283 160.38 102.586 160.253 102.586 160.097C102.586 159.942 104.283 159.815 106.376 159.815C108.469 159.816 110.166 159.942 110.166 160.097Z" fill="#263238"/>
<path d="M101.436 160.096C101.436 160.251 99.739 160.378 97.6458 160.378C95.5521 160.378 93.8555 160.252 93.8555 160.096C93.8555 159.94 95.5521 159.814 97.6458 159.814C99.739 159.815 101.436 159.94 101.436 160.096Z" fill="#263238"/>
<path d="M150.948 160.097C150.948 160.253 149.029 160.38 146.663 160.38C144.297 160.38 142.379 160.253 142.379 160.097C142.379 159.942 144.297 159.815 146.663 159.815C149.029 159.816 150.948 159.942 150.948 160.097Z" fill="#263238"/>
<path d="M140.53 160.097C140.53 160.253 138.611 160.38 136.245 160.38C133.879 160.38 131.961 160.253 131.961 160.097C131.961 159.942 133.879 159.815 136.245 159.815C138.611 159.816 140.53 159.942 140.53 160.097Z" fill="#263238"/>
<path d="M129.729 160.097C129.729 160.253 128.032 160.38 125.939 160.38C123.846 160.38 122.148 160.253 122.148 160.097C122.148 159.942 123.845 159.815 125.939 159.815C128.031 159.815 129.729 159.942 129.729 160.097Z" fill="#263238"/>
<path d="M119.479 160.097C119.479 160.253 117.782 160.38 115.689 160.38C113.596 160.38 111.898 160.253 111.898 160.097C111.898 159.942 113.596 159.815 115.689 159.815C117.782 159.815 119.479 159.942 119.479 160.097Z" fill="#263238"/>
<path d="M150.953 91.8823H93.6211V115.692H150.953V91.8823Z" fill="#E0E0E0"/>
<path d="M105.529 99.4064C105.529 100.882 104.332 102.079 102.856 102.079C101.38 102.079 100.184 100.883 100.184 99.4064C100.184 97.9303 101.38 96.7339 102.856 96.7339C104.332 96.7339 105.529 97.9303 105.529 99.4064Z" fill="#263238"/>
<path d="M126.83 97.562H108.207V98.5958H126.83V97.562Z" fill="#263238"/>
<path d="M144.435 99.9097H108.207V100.943H144.435V99.9097Z" fill="white"/>
<path d="M105.529 107.625C105.529 109.101 104.332 110.298 102.856 110.298C101.38 110.298 100.184 109.101 100.184 107.625C100.184 106.149 101.38 104.953 102.856 104.953C104.332 104.953 105.529 106.148 105.529 107.625Z" fill="#8BC53F"/>
<path d="M117.717 105.778H108.207V106.812H117.717V105.778Z" fill="#8BC53F"/>
<path d="M144.435 108.128H108.207V109.162H144.435V108.128Z" fill="white"/>
<path d="M494.378 304.161H541.332C556.009 304.161 567.949 292.22 567.949 277.543V225.167H567.211V277.543C567.211 291.813 555.601 303.423 541.332 303.423H495.116V153.511C495.116 144.418 487.718 137.02 478.625 137.02C469.531 137.02 462.133 144.418 462.133 153.511V167.65H462.872V153.511C462.872 144.825 469.939 137.758 478.625 137.758C487.311 137.758 494.378 144.825 494.378 153.511V304.161Z" fill="#676767"/>
<path d="M560.23 180.655H575.371V184.212H560.23V180.655Z" fill="#E0E0E0"/>
<path d="M560.227 184.212C560.241 184.197 560.256 183.856 560.277 183.244C560.292 182.589 560.314 181.723 560.339 180.655L560.227 180.767C563.587 180.815 569.119 180.846 575.367 180.846C574.983 180.463 575.261 180.741 575.176 180.655V180.658V180.661V180.669V180.683V180.711V180.768V180.882V181.109V181.562C575.176 181.864 575.176 182.163 575.176 182.459C575.177 183.053 575.178 183.637 575.179 184.212L575.368 184.023C571.093 184.03 567.339 184.07 564.628 184.108C563.309 184.13 562.231 184.148 561.425 184.162C561.078 184.172 560.789 184.18 560.548 184.187C560.345 184.195 560.235 184.204 560.227 184.212C560.21 184.228 560.601 184.244 561.335 184.261C562.131 184.275 563.194 184.293 564.495 184.315C567.197 184.353 571.014 184.393 575.368 184.4H575.557V184.211C575.557 183.637 575.558 183.052 575.559 182.459C575.559 182.162 575.56 181.863 575.56 181.562V181.109V180.881V180.768V180.711V180.682V180.668V180.66V180.658V180.655C575.475 180.569 575.752 180.846 575.368 180.462C569.121 180.462 563.587 180.494 560.227 180.542L560.112 180.543L560.115 180.654C560.141 181.751 560.162 182.639 560.177 183.31C560.197 183.915 560.212 184.226 560.227 184.212Z" fill="#F8F8FF"/>
<path d="M535.569 180.655H599.543C605.692 180.655 610.676 175.67 610.676 169.522V84.3267C610.676 78.1779 605.691 73.1938 599.543 73.1938H535.569C529.421 73.1938 524.437 78.1786 524.437 84.3267V169.521C524.436 175.67 529.421 180.655 535.569 180.655Z" fill="#E6E6E6"/>
<path d="M534.347 180.655H600.765C606.239 180.655 610.676 176.218 610.676 170.744V146.905H524.436V170.744C524.436 176.218 528.873 180.655 534.347 180.655Z" fill="#676767"/>
<path d="M535.223 180.655C535.223 180.655 534.9 180.625 534.273 180.587C533.959 180.567 533.575 180.483 533.115 180.416C532.667 180.294 532.131 180.199 531.565 179.963C530.419 179.545 529.055 178.812 527.764 177.57C526.493 176.328 525.303 174.537 524.792 172.266C524.529 171.133 524.502 169.907 524.522 168.608C524.525 167.312 524.527 165.953 524.53 164.533C524.535 161.692 524.54 158.605 524.545 155.29C524.554 148.656 524.563 141.104 524.574 132.756C524.582 124.407 524.589 115.263 524.598 105.446C524.601 100.537 524.604 95.4608 524.607 90.2317C524.608 88.9245 524.609 87.6076 524.61 86.2811C524.628 84.9517 524.536 83.6149 524.804 82.3187C525.284 79.716 526.765 77.2727 528.93 75.6281C530.008 74.8036 531.247 74.1762 532.568 73.7997C533.895 73.4026 535.272 73.342 536.693 73.3738C539.52 73.3745 542.378 73.376 545.267 73.3767C551.044 73.3782 556.944 73.3797 562.95 73.3812C574.958 73.3922 587.391 73.4033 600.125 73.4144C603.253 73.5613 606.268 75.1247 608.152 77.5849C609.105 78.8022 609.793 80.2172 610.159 81.7068C610.553 83.1964 610.481 84.7472 610.488 86.3033C610.489 92.5082 610.49 98.6216 610.491 104.629C610.495 116.643 610.498 128.232 610.502 139.272C610.508 150.311 610.514 160.801 610.52 170.62C610.594 173.049 609.773 175.427 608.239 177.194C606.729 178.975 604.576 180.125 602.351 180.407C601.245 180.553 600.107 180.495 598.993 180.509C597.877 180.509 596.772 180.511 595.68 180.512C593.495 180.514 591.358 180.516 589.271 180.518C572.579 180.544 559.07 180.565 549.725 180.579C545.062 180.595 541.439 180.608 538.973 180.616C537.75 180.624 536.814 180.63 536.177 180.635C535.546 180.641 535.223 180.655 535.223 180.655C535.223 180.655 535.545 180.668 536.176 180.675C536.813 180.679 537.748 180.685 538.972 180.694C541.437 180.702 545.059 180.715 549.724 180.73C559.068 180.745 572.577 180.765 589.27 180.791C591.357 180.794 593.494 180.796 595.678 180.798C596.771 180.799 597.875 180.8 598.991 180.801C600.105 180.788 601.234 180.851 602.39 180.703C604.686 180.416 606.911 179.232 608.472 177.397C610.058 175.581 610.912 173.103 610.838 170.621C610.843 160.803 610.85 150.313 610.856 139.273C610.859 128.233 610.863 116.644 610.867 104.63C610.867 98.6231 610.869 92.5097 610.87 86.3048C610.863 84.7687 610.938 83.1661 610.53 81.6167C610.151 80.074 609.438 78.6095 608.454 77.3495C606.504 74.8036 603.383 73.1833 600.144 73.032C587.388 72.9722 574.965 73.0165 562.949 73.0062C556.944 73.0077 551.044 73.0091 545.266 73.0106C542.377 73.0113 539.519 73.0128 536.693 73.0136C535.294 72.9811 533.827 73.0446 532.47 73.4565C531.105 73.8462 529.826 74.495 528.715 75.3469C526.482 77.0461 524.956 79.5691 524.463 82.256C524.187 83.6068 524.284 84.9657 524.267 86.2819C524.268 87.6083 524.269 88.9245 524.269 90.2325C524.273 95.4615 524.276 100.538 524.279 105.447C524.288 115.263 524.295 124.407 524.303 132.757C524.313 141.105 524.323 148.657 524.331 155.29C524.337 158.606 524.342 161.692 524.347 164.534C524.35 165.954 524.353 167.313 524.355 168.609C524.34 169.899 524.373 171.155 524.646 172.3C525.176 174.6 526.392 176.407 527.684 177.653C528.997 178.899 530.38 179.627 531.538 180.037C532.111 180.269 532.652 180.358 533.104 180.474C533.568 180.534 533.954 180.613 534.269 180.627C534.901 180.652 535.223 180.655 535.223 180.655Z" fill="#F8F8FF"/>
<path d="M532.275 154.769C532.275 156.171 533.411 157.308 534.813 157.308C536.215 157.308 537.352 156.171 537.352 154.769C537.352 153.368 536.215 152.231 534.813 152.231C533.411 152.231 532.275 153.367 532.275 154.769Z" fill="#8BC53F"/>
<path d="M534.81 157.326C536.22 157.326 537.367 156.179 537.367 154.769C537.367 153.359 536.22 152.212 534.81 152.212C533.4 152.212 532.253 153.359 532.253 154.769C532.253 156.179 533.4 157.326 534.81 157.326ZM534.81 152.249C536.199 152.249 537.33 153.38 537.33 154.769C537.33 156.159 536.199 157.289 534.81 157.289C533.421 157.289 532.29 156.159 532.29 154.769C532.29 153.379 533.421 152.249 534.81 152.249Z" fill="#F8F8FF"/>
<path d="M540.857 154.769C540.857 156.171 541.993 157.308 543.395 157.308C544.797 157.308 545.934 156.171 545.934 154.769C545.934 153.368 544.797 152.231 543.395 152.231C541.993 152.231 540.857 153.367 540.857 154.769Z" fill="#FAFAFA"/>
<path d="M543.392 157.326C544.802 157.326 545.949 156.179 545.949 154.769C545.949 153.359 544.802 152.212 543.392 152.212C541.982 152.212 540.835 153.359 540.835 154.769C540.835 156.179 541.982 157.326 543.392 157.326ZM543.392 152.249C544.781 152.249 545.912 153.38 545.912 154.769C545.912 156.159 544.781 157.289 543.392 157.289C542.003 157.289 540.872 156.159 540.872 154.769C540.872 153.379 542.002 152.249 543.392 152.249Z" fill="#F8F8FF"/>
<path d="M554.314 123.961H575.395C581.75 123.961 586.922 118.79 586.922 112.434C586.922 108.801 584.842 105.082 581.747 103.179C579.591 101.852 577.216 101.512 574.913 102.174C572.615 98.7439 568.942 96.6025 565.18 96.6025C559.457 96.6025 554.409 100.206 552.494 105.509C548.198 106.358 544.995 110.143 544.995 114.642C544.995 119.781 549.176 123.961 554.314 123.961ZM577.202 105.545C578.26 105.545 579.154 105.918 579.814 106.323C581.826 107.56 583.231 110.074 583.231 112.434C583.231 116.756 579.716 120.271 575.395 120.271H554.314C551.21 120.271 548.686 117.745 548.686 114.642C548.686 111.658 551.023 109.193 554.005 109.032C554.809 108.988 555.491 108.429 555.693 107.65C556.81 103.319 560.712 100.294 565.18 100.294C568.027 100.294 570.957 102.305 572.471 105.297C572.932 106.207 574.041 106.571 574.951 106.111C575.757 105.702 576.514 105.545 577.202 105.545Z" fill="#8BC53F"/>
<path d="M458.096 167.649H466.918V165.265C466.918 162.829 464.943 160.854 462.507 160.854C460.071 160.854 458.096 162.829 458.096 165.265V167.649Z" fill="#676767"/>
<path d="M568.222 219.284C574.213 219.284 579.07 214.428 579.07 208.436V184.212H557.375V208.436C557.375 214.428 562.232 219.284 568.222 219.284Z" fill="#676767"/>
<path d="M565.287 215.234H569.633V226.499H565.287V215.234Z" fill="#676767"/>
</svg>
