<svg width="660" height="410" viewBox="0 0 660 410" fill="none" xmlns="http://www.w3.org/2000/svg">
<path d="M99.7564 252.143C100.77 251.5 102.117 251.48 103.177 252.033C103.704 252.313 104.204 252.637 104.744 252.889C105.271 253.156 105.837 253.393 106.266 253.82C106.704 254.23 107.036 254.753 107.213 255.326C107.403 255.904 107.359 256.514 107.392 257.104L107.514 260.676L107.47 260.634L122.061 260.128L121.969 260.226L121.795 255.527C121.806 254.713 122.124 253.908 122.658 253.293C123.193 252.652 123.959 252.32 124.584 251.892C125.24 251.516 125.874 250.972 126.69 250.763C127.483 250.544 128.356 250.6 129.116 250.938L133.286 253.124L132.963 253.221L139.766 240.298L139.91 240.772L135.737 238.565C134.992 238.107 134.421 237.38 134.139 236.557C133.993 236.147 133.922 235.713 133.913 235.279L133.867 234.116L133.816 232.953C133.788 232.518 133.827 232.076 133.944 231.652C134.169 230.804 134.697 230.025 135.426 229.516L139.424 227.009L139.276 227.641L131.544 215.257L132.235 215.419L128.219 217.915C127.424 218.347 126.479 218.483 125.597 218.305C125.156 218.217 124.732 218.049 124.346 217.821L123.346 217.246L122.317 216.726C121.915 216.528 121.544 216.267 121.23 215.948C120.599 215.311 120.197 214.451 120.118 213.557L119.981 208.83L120.47 209.29L105.875 209.691L106.284 209.256L106.388 213.978C106.353 214.848 106.014 215.701 105.439 216.352C105.149 216.676 104.804 216.949 104.424 217.158L103.436 217.759L102.449 218.359C102.093 218.602 101.694 218.783 101.277 218.892C100.443 219.104 99.5435 219.015 98.7675 218.657L94.6217 216.402L94.9979 216.289L87.996 229.106L87.9288 228.882L92.0518 231.144C92.739 231.58 93.2577 232.262 93.5088 233.029C93.7816 233.805 93.6793 234.623 93.7269 235.387C93.7165 236.153 93.8571 236.964 93.6308 237.745C93.4231 238.517 92.9436 239.216 92.2864 239.673L88.2884 242.142L88.307 242.063L95.9651 254.493L95.9465 254.489L99.7564 252.143ZM99.7564 252.143L95.9599 254.514L95.9485 254.521L95.9413 254.51L88.2078 242.126L88.1778 242.078L88.2264 242.047L92.2017 239.559C92.8279 239.118 93.2825 238.446 93.4768 237.707C93.6928 236.966 93.5409 236.184 93.5388 235.395C93.4799 234.607 93.5636 233.818 93.296 233.103C93.049 232.386 92.5551 231.76 91.9134 231.366L87.7707 229.176L87.625 229.1L87.7025 228.952L94.506 216.028L94.6341 215.784L94.8821 215.914L99.0248 218.088C99.6768 218.377 100.424 218.437 101.106 218.252C101.446 218.157 101.768 218.005 102.056 217.802L103.065 217.166L104.076 216.53C104.38 216.358 104.653 216.134 104.882 215.87C105.336 215.339 105.597 214.651 105.614 213.954L105.438 209.285L105.421 208.863L105.846 208.849L120.437 208.343L120.91 208.327L120.926 208.803L121.088 213.469C121.151 214.137 121.455 214.776 121.931 215.25C122.167 215.488 122.446 215.681 122.748 215.828L123.819 216.362L124.859 216.952C125.149 217.119 125.464 217.242 125.791 217.305C126.447 217.433 127.141 217.327 127.724 217.008L131.703 214.566L132.132 214.302L132.394 214.728L140.054 227.158L140.294 227.55L139.906 227.791L135.934 230.247C135.376 230.631 134.966 231.222 134.787 231.885C134.694 232.215 134.658 232.563 134.675 232.908L134.708 234.091L134.737 235.274C134.738 235.622 134.79 235.972 134.901 236.3C135.116 236.961 135.56 237.541 136.143 237.913L140.237 240.158L140.547 240.327L140.381 240.632L133.38 253.449L133.264 253.66L133.057 253.547L128.945 251.309C128.278 250.999 127.501 250.934 126.782 251.122C126.058 251.289 125.456 251.787 124.758 252.178C124.089 252.616 123.367 252.917 122.881 253.492C122.381 254.05 122.078 254.784 122.056 255.536L122.158 260.222L122.16 260.317L122.066 260.32L107.472 260.721L107.429 260.722L107.428 260.68L107.328 257.107C107.299 256.513 107.345 255.909 107.162 255.343C106.993 254.776 106.667 254.26 106.237 253.852C105.816 253.427 105.259 253.19 104.731 252.918C104.193 252.663 103.691 252.333 103.168 252.051C102.116 251.496 100.774 251.506 99.7564 252.143Z" fill="#EBEBEB"/>
<path d="M102.766 230.521C103.89 227.607 106.118 225.078 109.012 223.792C111.861 222.471 115.261 222.222 118.277 223.331C121.269 224.414 123.921 226.668 125.253 229.65C126.625 232.594 126.77 236.089 125.629 239.159C124.419 242.179 122.06 244.765 119.058 246.044C116.079 247.327 112.607 247.389 109.642 246.167C106.687 244.961 104.205 242.622 103 239.695C101.709 236.818 101.629 233.441 102.766 230.521ZM102.766 230.521C101.676 233.46 101.817 236.813 103.137 239.634C104.419 242.493 106.958 244.64 109.827 245.682C112.715 246.743 115.968 246.503 118.695 245.238C121.468 244.005 123.587 241.583 124.667 238.791C125.753 236.002 125.683 232.769 124.449 230.011C123.3 227.205 120.929 224.971 118.095 223.812C115.256 222.641 111.932 222.705 109.074 223.928C106.195 225.153 103.936 227.623 102.766 230.521Z" fill="#EBEBEB"/>
<path d="M447.558 45.1958L442.446 36.337L439.734 37.9035C438.937 38.3644 437.956 38.3199 437.185 37.8167C436.758 37.5387 436.317 37.2835 435.86 37.051C435.042 36.6346 434.516 35.8079 434.516 34.8903V31.7593H424.285V34.8903C424.285 35.8089 423.758 36.6356 422.94 37.051C422.483 37.2825 422.042 37.5387 421.615 37.8167C420.844 38.3189 419.863 38.3644 419.066 37.9035L416.354 36.337L411.242 45.1958L413.966 46.7644C414.765 47.2242 415.204 48.1005 415.157 49.0212C415.144 49.2713 415.138 49.5224 415.138 49.7745C415.138 50.0266 415.144 50.2777 415.157 50.5268C415.204 51.4433 414.767 52.3145 413.973 52.7743L411.242 54.3522L416.354 63.211L419.073 61.6434C419.871 61.1836 420.852 61.2291 421.623 61.7333C422.048 62.0103 422.488 62.2655 422.942 62.497C423.759 62.9134 424.285 63.7401 424.285 64.6577V67.7897H434.516V64.6577C434.516 63.7401 435.041 62.9144 435.858 62.497C436.312 62.2655 436.752 62.0103 437.177 61.7333C437.948 61.2291 438.929 61.1836 439.727 61.6434L442.446 63.211L447.558 54.3522L444.838 52.7836C444.042 52.3248 443.605 51.4506 443.652 50.534C443.664 50.2829 443.67 50.0297 443.67 49.7755C443.67 49.5234 443.664 49.2723 443.652 49.0222C443.604 48.1015 444.043 47.2253 444.842 46.7644L447.558 45.1958ZM437.779 49.7724C437.779 54.3997 434.031 58.1466 429.405 58.1466C424.778 58.1466 421.023 54.3997 421.023 49.7724C421.023 45.1451 424.779 41.39 429.405 41.39C434.031 41.39 437.779 45.1462 437.779 49.7724Z" fill="#EBEBEB"/>
<path d="M98.5042 281.808L93.3923 272.949L90.6808 274.515C89.883 274.976 88.9024 274.932 88.1315 274.429C87.7058 274.151 87.2635 273.895 86.8068 273.663C85.9884 273.246 85.4624 272.42 85.4624 271.502V268.371H75.2313V271.502C75.2313 272.421 74.7043 273.247 73.8859 273.663C73.4292 273.895 72.988 274.151 72.5612 274.429C71.7903 274.931 70.8086 274.976 70.0119 274.515L67.3005 272.949L62.1885 281.808L64.9124 283.376C65.7112 283.836 66.1504 284.712 66.1028 285.633C66.0904 285.883 66.0842 286.134 66.0842 286.386C66.0842 286.638 66.0904 286.89 66.1028 287.139C66.1493 288.055 65.7132 288.926 64.9186 289.386L62.1875 290.964L67.2994 299.823L70.0181 298.255C70.8159 297.795 71.7975 297.841 72.5684 298.344C72.9931 298.621 73.4333 298.876 73.887 299.108C74.7043 299.524 75.2303 300.351 75.2303 301.268V304.401H85.4614V301.268C85.4614 300.351 85.9863 299.525 86.8037 299.108C87.2573 298.876 87.6975 298.621 88.1222 298.344C88.8931 297.84 89.8748 297.794 90.6725 298.255L93.3912 299.823L98.5032 290.964L95.7834 289.395C94.9877 288.937 94.5506 288.062 94.5971 287.146C94.6095 286.895 94.6168 286.643 94.6168 286.387C94.6168 286.135 94.6106 285.884 94.5971 285.634C94.5506 284.713 94.9888 283.837 95.7875 283.376L98.5042 281.808ZM88.7247 286.385C88.7247 291.013 84.9768 294.759 80.3505 294.759C75.7232 294.759 71.9681 291.012 71.9681 286.385C71.9681 281.759 75.7242 278.003 80.3505 278.003C84.9768 278.003 88.7247 281.759 88.7247 286.385Z" fill="#EBEBEB"/>
<path d="M32.8672 344.285L251.134 344.027L469.401 344.285L251.134 344.542L32.8672 344.285Z" fill="#DBDBDB"/>
<path d="M32.8672 304.962L251.134 304.704L469.401 304.962L251.134 305.219L32.8672 304.962Z" fill="#DBDBDB"/>
<path d="M32.8672 265.636L251.134 265.379L469.401 265.636L251.134 265.895L32.8672 265.636Z" fill="#DBDBDB"/>
<path d="M32.8672 226.313L251.134 226.054L469.401 226.313L251.134 226.57L32.8672 226.313Z" fill="#DBDBDB"/>
<path d="M32.8672 186.989L251.134 186.731L469.401 186.989L251.134 187.246L32.8672 186.989Z" fill="#DBDBDB"/>
<path d="M32.8672 147.665L251.134 147.407L469.401 147.665L251.134 147.923L32.8672 147.665Z" fill="#DBDBDB"/>
<path d="M32.8672 108.341L251.134 108.083L469.401 108.341L251.134 108.599L32.8672 108.341Z" fill="#DBDBDB"/>
<path d="M32.8672 69.0171L251.134 68.7588L469.401 69.0171L251.134 69.2744L32.8672 69.0171Z" fill="#DBDBDB"/>
<path d="M32.8672 29.6924L251.134 29.4351L469.401 29.6924L251.134 29.9507L32.8672 29.6924Z" fill="#DBDBDB"/>
<g opacity="0.6">
<path opacity="0.6" d="M143.843 366.812C143.843 368.52 142.459 369.904 140.753 369.904C139.047 369.904 137.664 368.52 137.664 366.812C137.664 365.104 139.047 363.72 140.753 363.72C142.459 363.72 143.843 365.105 143.843 366.812Z" fill="#8BC53F"/>
<path opacity="0.6" d="M124.253 380.556C124.253 381.388 123.579 382.063 122.748 382.063C121.916 382.063 121.242 381.388 121.242 380.556C121.242 379.724 121.916 379.05 122.748 379.05C123.579 379.049 124.253 379.724 124.253 380.556Z" fill="#8BC53F"/>
<path opacity="0.6" d="M216.659 386.64C216.659 387.472 215.985 388.146 215.154 388.146C214.322 388.146 213.648 387.472 213.648 386.64C213.648 385.808 214.322 385.133 215.154 385.133C215.985 385.133 216.659 385.808 216.659 386.64Z" fill="#8BC53F"/>
</g>
<path opacity="0.6" d="M91.6562 401.92C91.6562 403.046 92.5714 403.97 93.6967 403.97H221.251C222.376 403.97 223.291 403.046 223.291 401.92C223.291 400.794 222.376 399.871 221.251 399.871C221.078 399.871 220.913 399.894 220.764 399.931C220.764 397.701 218.955 395.892 216.727 395.892C215.602 395.892 214.582 396.365 213.847 397.108L213.809 397.093C213.832 396.845 213.847 396.597 213.847 396.342C213.847 392.13 210.433 388.722 206.225 388.722C205.025 388.722 203.892 389 202.879 389.495C202.715 386.642 200.351 384.374 197.455 384.374C195.145 384.374 193.172 385.808 192.384 387.843C191.041 385.703 188.656 384.284 185.94 384.284C185.445 384.284 184.957 384.329 184.485 384.419C184.59 383.841 184.642 383.248 184.642 382.64C184.642 376.949 180.028 372.324 174.335 372.324C171.761 372.324 169.413 373.27 167.605 374.832C167.568 374.757 167.53 374.689 167.477 374.622C167.274 369.269 162.872 364.997 157.47 364.997C152.076 364.997 147.672 369.269 147.47 374.622C147.417 374.689 147.38 374.757 147.342 374.832C145.534 373.27 143.186 372.324 140.613 372.324C134.919 372.324 130.306 376.949 130.306 382.64C130.306 383.248 130.358 383.841 130.463 384.419C129.99 384.329 129.503 384.284 129.007 384.284C126.292 384.284 123.906 385.703 122.563 387.843C121.775 385.808 119.803 384.374 117.492 384.374C114.596 384.374 112.234 386.641 112.068 389.495C111.055 388.999 109.923 388.722 108.715 388.722C104.506 388.722 101.101 392.131 101.101 396.342C101.101 396.597 101.116 396.845 101.138 397.093L101.101 397.108C100.366 396.365 99.3455 395.892 98.2202 395.892C95.9923 395.892 94.1841 397.701 94.1841 399.931C94.0341 399.894 93.8687 399.871 93.6967 399.871C92.5714 399.87 91.6562 400.794 91.6562 401.92Z" fill="#8BC53F"/>
<g opacity="0.6">
<path opacity="0.6" d="M294.758 384.617C294.758 387.026 296.709 388.98 299.117 388.98C301.524 388.98 303.475 387.026 303.475 384.617C303.475 382.208 301.524 380.255 299.117 380.255C296.709 380.256 294.758 382.208 294.758 384.617Z" fill="#8BC53F"/>
<path opacity="0.6" d="M287.836 377.399C287.836 378.573 288.787 379.525 289.96 379.525C291.133 379.525 292.084 378.573 292.084 377.399C292.084 376.225 291.133 375.274 289.96 375.274C288.787 375.273 287.836 376.225 287.836 377.399Z" fill="#8BC53F"/>
<path opacity="0.6" d="M159.891 367.897C159.891 369.071 160.842 370.023 162.015 370.023C163.188 370.023 164.138 369.071 164.138 367.897C164.138 366.723 163.187 365.771 162.015 365.771C160.842 365.771 159.891 366.723 159.891 367.897Z" fill="#8BC53F"/>
</g>
<path opacity="0.6" fill-rule="evenodd" clip-rule="evenodd" d="M165.836 403.97H125.113C123.525 403.97 122.234 402.667 122.234 401.078C122.234 399.489 123.526 398.187 125.113 398.187C125.356 398.187 125.589 398.218 125.801 398.271C125.801 395.126 128.351 392.573 131.494 392.573C133.082 392.573 134.521 393.24 135.558 394.289L135.611 394.267C135.58 393.918 135.558 393.568 135.558 393.208C135.558 387.266 140.374 382.458 146.311 382.458C148.004 382.458 149.602 382.85 151.03 383.549C151.263 379.524 154.597 376.326 158.682 376.326C161.942 376.326 164.725 378.349 165.836 381.219C167.731 378.201 171.096 376.198 174.927 376.198C175.626 376.198 176.314 376.262 176.98 376.389C176.832 375.573 176.758 374.737 176.758 373.879C176.758 365.85 183.267 359.326 191.3 359.326C194.93 359.326 198.242 360.661 200.793 362.864C200.846 362.758 200.899 362.663 200.973 362.567C201.259 355.016 207.471 348.99 215.091 348.99C222.7 348.99 228.913 355.016 229.198 362.567C229.272 362.663 229.325 362.758 229.378 362.864C231.928 360.661 235.241 359.326 238.871 359.326C246.903 359.326 253.412 365.85 253.412 373.879L165.836 403.97Z" fill="#8BC53F"/>
<g opacity="0.6">
<path opacity="0.6" d="M80.6004 351.552C80.6004 353.961 78.6489 355.914 76.2416 355.914C73.8343 355.914 71.8828 353.961 71.8828 351.552C71.8828 349.143 73.8343 347.19 76.2416 347.19C78.6489 347.19 80.6004 349.143 80.6004 351.552Z" fill="#8BC53F"/>
<path opacity="0.6" d="M52.9751 370.94C52.9751 372.114 52.024 373.066 50.8508 373.066C49.6777 373.066 48.7266 372.114 48.7266 370.94C48.7266 369.766 49.6777 368.814 50.8508 368.814C52.024 368.814 52.9751 369.766 52.9751 370.94Z" fill="#8BC53F"/>
<path opacity="0.6" d="M183.334 379.523C183.334 380.697 182.383 381.649 181.209 381.649C180.036 381.649 179.086 380.697 179.086 379.523C179.086 378.349 180.037 377.397 181.209 377.397C182.383 377.397 183.334 378.349 183.334 379.523Z" fill="#8BC53F"/>
</g>
<path d="M6.98438 401.077C6.98438 402.666 8.27511 403.969 9.8628 403.969H189.806C191.394 403.969 192.685 402.666 192.685 401.077C192.685 399.489 191.393 398.186 189.806 398.186C189.563 398.186 189.33 398.217 189.118 398.27C189.118 395.125 186.568 392.572 183.425 392.572C181.837 392.572 180.398 393.24 179.361 394.288L179.308 394.266C179.339 393.917 179.361 393.568 179.361 393.207C179.361 387.266 174.545 382.457 168.608 382.457C166.915 382.457 165.317 382.849 163.888 383.548C163.655 379.523 160.322 376.325 156.236 376.325C152.976 376.325 150.193 378.348 149.082 381.218C147.188 378.2 143.822 376.198 139.991 376.198C139.293 376.198 138.605 376.261 137.938 376.388C138.087 375.572 138.16 374.736 138.16 373.878C138.16 365.85 131.651 359.326 123.619 359.326C119.988 359.326 116.676 360.66 114.126 362.863C114.073 362.757 114.02 362.662 113.946 362.567C113.66 355.015 107.448 348.989 99.8276 348.989C92.2184 348.989 86.0059 355.015 85.7207 362.567C85.6464 362.662 85.5935 362.757 85.5406 362.863C82.99 360.66 79.6779 359.326 76.0475 359.326C68.015 359.326 61.5062 365.85 61.5062 373.878C61.5062 374.736 61.5804 375.573 61.7281 376.388C61.0615 376.261 60.3735 376.198 59.6752 376.198C55.8441 376.198 52.4784 378.199 50.5842 381.218C49.4728 378.348 46.6899 376.325 43.43 376.325C39.3446 376.325 36.0112 379.523 35.7782 383.548C34.3493 382.849 32.7513 382.457 31.0475 382.457C25.1105 382.457 20.3056 387.266 20.3056 393.207C20.3056 393.568 20.3269 393.917 20.3585 394.266L20.3056 394.288C19.2684 393.239 17.8292 392.572 16.2415 392.572C13.0985 392.572 10.5479 395.125 10.5479 398.27C10.3362 398.217 10.1032 398.186 9.85986 398.186C8.27511 398.187 6.98438 399.489 6.98438 401.077Z" fill="#8BC53F"/>
<path opacity="0.6" d="M262.385 403.97H52.5469C121.561 403.97 147.498 354.799 149.769 322.294C151.801 293.315 151.315 257.261 151.315 257.261H163.611C163.611 257.261 163.132 293.315 165.156 322.294C167.434 354.799 193.363 403.97 262.385 403.97Z" fill="#8BC53F"/>
<path opacity="0.6" d="M252.821 403.97H62.0938C131.108 403.97 151.9 354.799 154.171 322.294C156.203 293.315 155.716 257.261 155.716 257.261H159.192C159.192 257.261 158.713 293.315 160.737 322.294C163.015 354.799 183.799 403.97 252.821 403.97Z" fill="#8BC53F"/>
<path d="M163.648 346.078L165.912 346.497L166.418 348.885L166.925 346.497L169.188 346.077L166.934 345.525L166.418 343.27L165.903 345.525L163.648 346.078Z" fill="white"/>
<path d="M25.8359 394.895L28.0999 395.315L28.6063 397.702L29.112 395.315L31.376 394.894L29.1216 394.344L28.6063 392.087L28.0903 394.344L25.8359 394.895Z" fill="white"/>
<path d="M246.492 375.099L248.756 375.517L249.262 377.906L249.768 375.517L252.031 375.097L249.777 374.546L249.262 372.29L248.746 374.546L246.492 375.099Z" fill="white"/>
<path d="M224.922 387.292L226.187 387.526L226.47 388.861L226.752 387.526L228.018 387.291L226.758 386.983L226.47 385.722L226.182 386.983L224.922 387.292Z" fill="white"/>
<path d="M168.234 373.224L169.499 373.458L169.782 374.793L170.065 373.458L171.33 373.224L170.071 372.915L169.782 371.655L169.494 372.915L168.234 373.224Z" fill="white"/>
<path d="M219.289 397.981L220.554 398.215L220.837 399.55L221.12 398.215L222.385 397.98L221.125 397.672L220.837 396.411L220.549 397.672L219.289 397.981Z" fill="white"/>
<path d="M187.312 394.841L188.578 395.076L188.861 396.41L189.143 395.076L190.409 394.841L189.149 394.533L188.861 393.272L188.572 394.533L187.312 394.841Z" fill="white"/>
<path d="M46.0859 396.411L47.3517 396.645L47.6339 397.98L47.9169 396.645L49.1827 396.411L47.9221 396.102L47.6339 394.842L47.3458 396.102L46.0859 396.411Z" fill="white"/>
<path d="M191.617 365.292L192.882 365.526L193.165 366.86L193.448 365.526L194.713 365.291L193.453 364.983L193.165 363.722L192.877 364.983L191.617 365.292Z" fill="white"/>
<path d="M233.906 365.292L235.171 365.526L235.454 366.86L235.737 365.526L237.002 365.291L235.742 364.983L235.454 363.722L235.166 364.983L233.906 365.292Z" fill="white"/>
<path d="M153.854 394.16C154.326 394.16 154.327 394.895 153.854 394.895C153.382 394.895 153.382 394.16 153.854 394.16Z" fill="white"/>
<path d="M201.464 355.329C201.936 355.329 201.936 356.063 201.464 356.063C200.992 356.063 200.99 355.329 201.464 355.329Z" fill="white"/>
<path d="M232.76 395.951C233.232 395.951 233.233 396.686 232.76 396.686C232.289 396.686 232.288 395.951 232.76 395.951Z" fill="white"/>
<path d="M209.51 390.907C209.982 390.907 209.983 391.641 209.51 391.641C209.039 391.641 209.038 390.907 209.51 390.907Z" fill="white"/>
<path d="M163.048 387.559C163.381 387.559 163.382 388.078 163.048 388.078C162.713 388.078 162.713 387.559 163.048 387.559Z" fill="white"/>
<path d="M165.415 324.946C165.748 324.946 165.749 325.465 165.415 325.465C165.081 325.465 165.08 324.946 165.415 324.946Z" fill="white"/>
<path d="M195.095 383.667C195.429 383.667 195.429 384.186 195.095 384.186C194.76 384.186 194.76 383.667 195.095 383.667Z" fill="white"/>
<path d="M218.579 378.591C218.912 378.591 218.913 379.11 218.579 379.11C218.245 379.11 218.244 378.591 218.579 378.591Z" fill="white"/>
<path d="M178.429 379.651C179.334 379.651 179.335 381.059 178.429 381.059C177.524 381.059 177.523 379.651 178.429 379.651Z" fill="white"/>
<path d="M215.257 376.203C216.162 376.203 216.164 377.611 215.257 377.611C214.352 377.611 214.351 376.203 215.257 376.203Z" fill="white"/>
<path d="M150.43 279.129L152.694 279.549L153.2 281.936L153.706 279.549L155.97 279.129L153.715 278.577L153.2 276.322L152.684 278.577L150.43 279.129Z" fill="white"/>
<path d="M132.734 388.191L133.999 388.425L134.282 389.76L134.565 388.425L135.83 388.19L134.571 387.882L134.282 386.621L133.994 387.882L132.734 388.191Z" fill="white"/>
<path d="M157.305 272.691L158.57 272.925L158.853 274.26L159.136 272.925L160.401 272.69L159.141 272.382L158.853 271.121L158.565 272.382L157.305 272.691Z" fill="white"/>
<path d="M86.7922 367.642C87.2641 367.642 87.2649 368.376 86.7922 368.376C86.3196 368.376 86.3189 367.642 86.7922 367.642Z" fill="white"/>
<path d="M140.565 396.851C141.037 396.851 141.038 397.585 140.565 397.585C140.093 397.585 140.093 396.851 140.565 396.851Z" fill="white"/>
<path d="M117.323 391.806C117.795 391.806 117.796 392.541 117.323 392.541C116.851 392.541 116.85 391.806 117.323 391.806Z" fill="white"/>
<path d="M102.907 384.566C103.241 384.566 103.242 385.085 102.907 385.085C102.573 385.085 102.573 384.566 102.907 384.566Z" fill="white"/>
<path d="M126.376 379.491C126.709 379.491 126.71 380.011 126.376 380.011C126.042 380.011 126.041 379.491 126.376 379.491Z" fill="white"/>
<path d="M143.664 333.998C143.998 333.998 143.999 334.518 143.664 334.518C143.331 334.518 143.331 333.998 143.664 333.998Z" fill="white"/>
<path d="M123.054 377.104C123.959 377.104 123.96 378.511 123.054 378.511C122.149 378.511 122.148 377.104 123.054 377.104Z" fill="white"/>
<path d="M162.789 288.635C163.694 288.635 163.695 290.043 162.789 290.043C161.884 290.043 161.882 288.635 162.789 288.635Z" fill="white"/>
<path d="M76.2964 393.456C77.2019 393.456 77.2027 394.864 76.2964 394.864C75.3915 394.864 75.3901 393.456 76.2964 393.456Z" fill="white"/>
<path d="M128.414 367.738L129.679 367.973L129.962 369.307L130.245 367.973L131.51 367.738L130.25 367.43L129.962 366.169L129.674 367.43L128.414 367.738Z" fill="white"/>
<path d="M273.148 394.895L274.413 395.129L274.696 396.464L274.979 395.129L276.244 394.894L274.985 394.586L274.696 393.325L274.408 394.586L273.148 394.895Z" fill="white"/>
<path d="M136.238 376.398C136.709 376.398 136.71 377.132 136.238 377.132C135.765 377.132 135.764 376.398 136.238 376.398Z" fill="white"/>
<path d="M147.378 356.595C147.85 356.595 147.85 357.33 147.378 357.33C146.906 357.33 146.905 356.595 147.378 356.595Z" fill="white"/>
<path d="M152.875 307.507L154.14 307.74L154.423 309.076L154.705 307.74L155.971 307.506L154.711 307.198L154.423 305.937L154.135 307.198L152.875 307.507Z" fill="white"/>
<path d="M188.596 363.355C189.068 363.355 189.069 364.089 188.596 364.089C188.124 364.089 188.124 363.355 188.596 363.355Z" fill="white"/>
<path d="M172.641 357.115C172.975 357.115 172.976 357.634 172.641 357.634C172.307 357.634 172.307 357.115 172.641 357.115Z" fill="white"/>
<path d="M86.5234 376.398L87.7892 376.632L88.0722 377.967L88.3544 376.632L89.6202 376.397L88.3603 376.089L88.0722 374.828L87.7833 376.089L86.5234 376.398Z" fill="white"/>
<path d="M286 399.55L287.266 399.783L287.548 401.119L287.831 399.783L289.097 399.549L287.837 399.241L287.548 397.98L287.26 399.241L286 399.55Z" fill="white"/>
<path d="M68.3229 376.393C68.7948 376.393 68.7956 377.127 68.3229 377.127C67.8511 377.127 67.8503 376.393 68.3229 376.393Z" fill="white"/>
<path d="M92.6256 378.331C92.9593 378.331 92.96 378.851 92.6256 378.851C92.2918 378.851 92.2911 378.331 92.6256 378.331Z" fill="white"/>
<path d="M128.359 359.913C129.264 359.913 129.265 361.321 128.359 361.321C127.454 361.321 127.453 359.913 128.359 359.913Z" fill="white"/>
<path d="M230.109 368.604C231.014 368.604 231.015 370.012 230.109 370.012C229.204 370.011 229.203 368.604 230.109 368.604Z" fill="white"/>
<path d="M190.381 88.4853C190.381 112.957 190.381 264.904 190.381 264.904H124.51C124.51 264.904 124.51 112.958 124.51 88.4853C124.51 64.0137 122.853 49.8158 137.419 29.227C150.107 11.3017 155.106 8.93823 157.446 8.93823C159.784 8.93823 164.794 11.3017 177.472 29.227C192.037 49.8158 190.381 64.0137 190.381 88.4853Z" fill="#676767"/>
<path d="M170.727 20.2113H144.164C152.003 10.4501 155.583 8.93921 157.45 8.93921C159.317 8.93921 162.889 10.4489 170.727 20.2113Z" fill="#676767"/>
<path d="M134.141 34.1796C138.023 34.0679 141.904 33.9877 145.786 33.9476L157.432 33.8772L169.078 33.9464C172.96 33.9877 176.841 34.0679 180.723 34.1796C176.841 34.2914 172.96 34.3727 169.078 34.4128L157.432 34.482L145.786 34.4116C141.904 34.3727 138.023 34.2914 134.141 34.1796Z" fill="#8BC53F"/>
<path d="M124.531 71.5781C130.02 71.4663 135.511 71.3862 141 71.3461L157.468 71.2756L173.937 71.3449C179.426 71.3862 184.916 71.4663 190.405 71.5781C184.916 71.6898 179.426 71.7712 173.937 71.8112L157.469 71.8817L141.001 71.8112C135.511 71.7712 130.022 71.6898 124.531 71.5781Z" fill="#8BC53F"/>
<path d="M124.992 61.4335C130.4 61.3218 135.808 61.2416 141.215 61.2016L157.439 61.1311L173.662 61.2003C179.07 61.2416 184.478 61.3218 189.885 61.4335C184.478 61.5465 179.07 61.6266 173.662 61.6667L157.439 61.7359L141.215 61.6655C135.808 61.6254 130.4 61.5453 124.992 61.4335Z" fill="#8BC53F"/>
<path d="M124.531 110.867C130.02 110.755 135.511 110.675 141 110.635L157.469 110.564L173.938 110.633C179.427 110.675 184.917 110.755 190.406 110.867C184.917 110.978 179.427 111.06 173.938 111.1L157.469 111.17L141.001 111.1C135.511 111.059 130.022 110.978 124.531 110.867Z" fill="#8BC53F"/>
<path d="M124.531 150.156C130.02 150.044 135.511 149.964 141 149.924L157.468 149.853L173.937 149.922C179.426 149.964 184.916 150.044 190.405 150.156C184.916 150.267 179.426 150.349 173.937 150.389L157.469 150.459L141.001 150.389C135.511 150.348 130.022 150.267 124.531 150.156Z" fill="#8BC53F"/>
<path d="M124.531 189.445C130.02 189.333 135.511 189.253 141 189.213L157.468 189.142L173.937 189.212C179.426 189.253 184.916 189.333 190.405 189.445C184.916 189.556 179.426 189.638 173.937 189.678L157.469 189.748L141.001 189.678C135.511 189.638 130.022 189.556 124.531 189.445Z" fill="#8BC53F"/>
<path d="M124.531 228.733C130.02 228.622 135.511 228.541 141 228.501L157.468 228.431L173.937 228.5C179.426 228.541 184.916 228.622 190.405 228.733C184.916 228.845 179.426 228.926 173.937 228.967L157.469 229.037L141.001 228.967C135.511 228.926 130.022 228.845 124.531 228.733Z" fill="#8BC53F"/>
<path d="M136.653 36.6896C136.672 37.1001 136.328 37.5057 135.875 37.5434C135.416 37.6053 134.942 37.1924 134.945 36.6896C134.94 36.1867 135.415 35.7726 135.875 35.8357C136.329 35.8734 136.674 36.279 136.653 36.6896ZM136.653 36.6896C136.655 36.2681 136.254 35.9268 135.875 35.9875C135.504 36.0276 135.232 36.3604 135.249 36.6896C135.232 37.0187 135.502 37.3527 135.875 37.3928C136.255 37.4523 136.655 37.111 136.653 36.6896Z" fill="#8BC53F"/>
<path d="M145.277 36.6896C145.296 37.1001 144.951 37.5057 144.499 37.5434C144.04 37.6053 143.565 37.1924 143.57 36.6896C143.565 36.1867 144.04 35.7726 144.5 35.8357C144.953 35.8734 145.296 36.279 145.277 36.6896ZM145.277 36.6896C145.279 36.2681 144.877 35.9268 144.499 35.9875C144.127 36.0276 143.856 36.3604 143.873 36.6896C143.856 37.0187 144.126 37.3527 144.499 37.3928C144.877 37.4523 145.279 37.111 145.277 36.6896Z" fill="#8BC53F"/>
<path d="M153.918 36.6896C153.938 37.1001 153.593 37.5057 153.141 37.5434C152.682 37.6053 152.207 37.1924 152.211 36.6896C152.206 36.1867 152.681 35.7726 153.141 35.8357C153.594 35.8734 153.938 36.279 153.918 36.6896ZM153.918 36.6896C153.921 36.2681 153.519 35.9268 153.141 35.9875C152.769 36.0276 152.497 36.3604 152.514 36.6896C152.497 37.0187 152.768 37.3527 153.141 37.3928C153.519 37.4523 153.921 37.111 153.918 36.6896Z" fill="#8BC53F"/>
<path d="M162.543 36.6896C162.563 37.1001 162.218 37.5057 161.766 37.5434C161.307 37.6053 160.832 37.1924 160.836 36.6896C160.831 36.1867 161.306 35.7726 161.766 35.8357C162.219 35.8734 162.563 36.279 162.543 36.6896ZM162.543 36.6896C162.546 36.2681 162.144 35.9268 161.766 35.9875C161.394 36.0276 161.122 36.3604 161.139 36.6896C161.122 37.0187 161.393 37.3527 161.766 37.3928C162.144 37.4523 162.546 37.111 162.543 36.6896Z" fill="#8BC53F"/>
<path d="M171.184 36.6896C171.204 37.1001 170.859 37.5057 170.406 37.5434C169.947 37.6053 169.473 37.1924 169.477 36.6896C169.472 36.1867 169.946 35.7726 170.406 35.8357C170.859 35.8734 171.204 36.279 171.184 36.6896ZM171.184 36.6896C171.187 36.2681 170.785 35.9268 170.406 35.9875C170.035 36.0276 169.763 36.3604 169.78 36.6896C169.763 37.0187 170.034 37.3527 170.406 37.3928C170.785 37.4523 171.187 37.111 171.184 36.6896Z" fill="#8BC53F"/>
<path d="M179.825 36.6896C179.844 37.1001 179.499 37.5057 179.047 37.5434C178.588 37.6053 178.114 37.1924 178.117 36.6896C178.112 36.1867 178.587 35.7726 179.047 35.8357C179.499 35.8734 179.844 36.279 179.825 36.6896ZM179.825 36.6896C179.827 36.2681 179.425 35.9268 179.047 35.9875C178.675 36.0276 178.404 36.3604 178.421 36.6896C178.404 37.0187 178.674 37.3527 179.047 37.3928C179.425 37.4523 179.826 37.111 179.825 36.6896Z" fill="#8BC53F"/>
<path d="M136.645 73.8048C136.664 74.2153 136.32 74.621 135.867 74.6586C135.408 74.7205 134.934 74.3076 134.938 73.8048C134.933 73.302 135.407 72.8878 135.867 72.9498C136.321 72.9886 136.666 73.3943 136.645 73.8048ZM136.645 73.8048C136.647 73.3833 136.246 73.0421 135.867 73.1028C135.496 73.1429 135.224 73.4757 135.241 73.8048C135.224 74.1339 135.495 74.4679 135.867 74.508C136.247 74.5675 136.647 74.2262 136.645 73.8048Z" fill="#8BC53F"/>
<path d="M145.286 73.8048C145.305 74.2153 144.96 74.621 144.508 74.6586C144.049 74.7205 143.575 74.3076 143.578 73.8048C143.573 73.302 144.048 72.8878 144.507 72.9498C144.962 72.9886 145.305 73.3943 145.286 73.8048ZM145.286 73.8048C145.288 73.3833 144.886 73.0421 144.508 73.1028C144.136 73.1429 143.865 73.4757 143.882 73.8048C143.865 74.1339 144.135 74.4679 144.508 74.508C144.886 74.5675 145.288 74.2262 145.286 73.8048Z" fill="#8BC53F"/>
<path d="M128.019 73.8048C128.038 74.2153 127.694 74.621 127.241 74.6586C126.782 74.7205 126.308 74.3076 126.313 73.8048C126.306 73.302 126.782 72.8878 127.241 72.9498C127.694 72.9886 128.038 73.3943 128.019 73.8048ZM128.019 73.8048C128.021 73.3833 127.62 73.0421 127.241 73.1028C126.87 73.1429 126.598 73.4757 126.615 73.8048C126.598 74.1339 126.868 74.4679 127.241 74.508C127.62 74.5675 128.021 74.2262 128.019 73.8048Z" fill="#8BC53F"/>
<path d="M153.911 73.8048C153.93 74.2153 153.585 74.621 153.133 74.6586C152.674 74.7205 152.2 74.3076 152.203 73.8048C152.198 73.302 152.673 72.8878 153.133 72.9498C153.587 72.9886 153.93 73.3943 153.911 73.8048ZM153.911 73.8048C153.913 73.3833 153.511 73.0421 153.133 73.1028C152.761 73.1429 152.49 73.4757 152.507 73.8048C152.49 74.1339 152.76 74.4679 153.133 74.508C153.511 74.5675 153.913 74.2262 153.911 73.8048Z" fill="#8BC53F"/>
<path d="M162.551 73.8048C162.571 74.2153 162.226 74.621 161.773 74.6586C161.315 74.7205 160.84 74.3076 160.844 73.8048C160.839 73.302 161.313 72.8878 161.773 72.9498C162.227 72.9886 162.571 73.3943 162.551 73.8048ZM162.551 73.8048C162.554 73.3833 162.152 73.0421 161.773 73.1028C161.402 73.1429 161.13 73.4757 161.147 73.8048C161.13 74.1339 161.401 74.4679 161.773 74.508C162.152 74.5675 162.554 74.2262 162.551 73.8048Z" fill="#8BC53F"/>
<path d="M171.192 73.8048C171.211 74.2153 170.867 74.621 170.414 74.6586C169.955 74.7205 169.481 74.3076 169.484 73.8048C169.48 73.302 169.954 72.8878 170.414 72.9498C170.867 72.9886 171.211 73.3943 171.192 73.8048ZM171.192 73.8048C171.194 73.3833 170.793 73.0421 170.414 73.1028C170.043 73.1429 169.771 73.4757 169.788 73.8048C169.771 74.1339 170.043 74.4679 170.414 74.508C170.793 74.5675 171.194 74.2262 171.192 73.8048Z" fill="#8BC53F"/>
<path d="M179.825 73.8048C179.844 74.2153 179.499 74.621 179.047 74.6586C178.588 74.7205 178.114 74.3076 178.117 73.8048C178.112 73.302 178.587 72.8878 179.047 72.9498C179.499 72.9886 179.844 73.3943 179.825 73.8048ZM179.825 73.8048C179.827 73.3833 179.425 73.0421 179.047 73.1028C178.675 73.1429 178.404 73.4757 178.421 73.8048C178.404 74.1339 178.675 74.4679 179.047 74.508C179.425 74.5675 179.827 74.2262 179.825 73.8048Z" fill="#8BC53F"/>
<path d="M188.434 73.8048C188.454 74.2153 188.109 74.621 187.656 74.6586C187.197 74.7205 186.723 74.3076 186.727 73.8048C186.722 73.302 187.196 72.8878 187.656 72.9498C188.109 72.9886 188.454 73.3943 188.434 73.8048ZM188.434 73.8048C188.437 73.3833 188.035 73.0421 187.656 73.1028C187.285 73.1429 187.013 73.4757 187.03 73.8048C187.013 74.1339 187.285 74.4679 187.656 74.508C188.035 74.5675 188.435 74.2262 188.434 73.8048Z" fill="#8BC53F"/>
<path d="M136.645 64.0094C136.664 64.4199 136.32 64.8256 135.867 64.8632C135.408 64.9251 134.934 64.5122 134.938 64.0094C134.933 63.5066 135.407 63.0924 135.867 63.1543C136.321 63.1932 136.666 63.5989 136.645 64.0094ZM136.645 64.0094C136.647 63.5879 136.246 63.2467 135.867 63.3074C135.496 63.3475 135.224 63.6802 135.241 64.0094C135.224 64.3385 135.495 64.6725 135.867 64.7126C136.247 64.7721 136.647 64.4308 136.645 64.0094Z" fill="#8BC53F"/>
<path d="M145.284 64.0094C145.304 64.4199 144.959 64.8256 144.507 64.8632C144.048 64.9251 143.573 64.5122 143.578 64.0094C143.573 63.5066 144.048 63.0924 144.507 63.1543C144.96 63.1932 145.304 63.5989 145.284 64.0094ZM145.284 64.0094C145.287 63.5879 144.885 63.2467 144.507 63.3074C144.135 63.3475 143.863 63.6802 143.88 64.0094C143.863 64.3385 144.135 64.6725 144.507 64.7126C144.885 64.7721 145.287 64.4308 145.284 64.0094Z" fill="#8BC53F"/>
<path d="M128.02 64.0094C128.039 64.4199 127.695 64.8256 127.242 64.8632C126.783 64.9251 126.309 64.5122 126.313 64.0094C126.308 63.5066 126.782 63.0924 127.242 63.1543C127.695 63.1932 128.039 63.5989 128.02 64.0094ZM128.02 64.0094C128.022 63.5879 127.621 63.2467 127.242 63.3074C126.871 63.3475 126.599 63.6802 126.616 64.0094C126.599 64.3385 126.87 64.6725 127.242 64.7126C127.621 64.7721 128.022 64.4308 128.02 64.0094Z" fill="#8BC53F"/>
<path d="M153.911 64.0094C153.93 64.4199 153.585 64.8256 153.133 64.8632C152.674 64.9251 152.2 64.5122 152.203 64.0094C152.198 63.5066 152.673 63.0924 153.133 63.1543C153.587 63.1932 153.93 63.5989 153.911 64.0094ZM153.911 64.0094C153.913 63.5879 153.511 63.2467 153.133 63.3074C152.761 63.3475 152.49 63.6802 152.507 64.0094C152.49 64.3385 152.76 64.6725 153.133 64.7126C153.511 64.7721 153.913 64.4308 153.911 64.0094Z" fill="#8BC53F"/>
<path d="M162.551 64.0094C162.571 64.4199 162.226 64.8256 161.773 64.8632C161.315 64.9251 160.84 64.5122 160.844 64.0094C160.839 63.5066 161.313 63.0924 161.773 63.1543C162.227 63.1932 162.571 63.5989 162.551 64.0094ZM162.551 64.0094C162.554 63.5879 162.152 63.2467 161.773 63.3074C161.402 63.3475 161.13 63.6802 161.147 64.0094C161.13 64.3385 161.401 64.6725 161.773 64.7126C162.152 64.7721 162.554 64.4308 162.551 64.0094Z" fill="#8BC53F"/>
<path d="M171.192 64.0094C171.211 64.4199 170.867 64.8256 170.414 64.8632C169.955 64.9251 169.481 64.5122 169.484 64.0094C169.48 63.5066 169.954 63.0924 170.414 63.1543C170.867 63.1932 171.211 63.5989 171.192 64.0094ZM171.192 64.0094C171.194 63.5879 170.793 63.2467 170.414 63.3074C170.043 63.3475 169.771 63.6802 169.788 64.0094C169.771 64.3385 170.043 64.6725 170.414 64.7126C170.793 64.7721 171.194 64.4308 171.192 64.0094Z" fill="#8BC53F"/>
<path d="M179.825 64.0094C179.844 64.4199 179.499 64.8256 179.047 64.8632C178.588 64.9251 178.114 64.5122 178.117 64.0094C178.112 63.5066 178.587 63.0924 179.047 63.1543C179.499 63.1932 179.844 63.5989 179.825 64.0094ZM179.825 64.0094C179.827 63.5879 179.425 63.2467 179.047 63.3074C178.675 63.3475 178.404 63.6802 178.421 64.0094C178.404 64.3385 178.675 64.6725 179.047 64.7126C179.425 64.7721 179.826 64.4308 179.825 64.0094Z" fill="#8BC53F"/>
<path d="M188.434 64.0094C188.454 64.4199 188.109 64.8256 187.656 64.8632C187.197 64.9251 186.723 64.5122 186.727 64.0094C186.722 63.5066 187.196 63.0924 187.656 63.1543C188.109 63.1932 188.454 63.5989 188.434 64.0094ZM188.434 64.0094C188.437 63.5879 188.035 63.2467 187.656 63.3074C187.285 63.3475 187.013 63.6802 187.03 64.0094C187.013 64.3385 187.285 64.6725 187.656 64.7126C188.035 64.7721 188.435 64.4308 188.434 64.0094Z" fill="#8BC53F"/>
<path d="M136.645 113.604C136.664 114.015 136.32 114.42 135.867 114.458C135.408 114.52 134.934 114.107 134.938 113.604C134.933 113.101 135.407 112.687 135.867 112.749C136.321 112.788 136.666 113.194 136.645 113.604ZM136.645 113.604C136.647 113.183 136.246 112.841 135.867 112.902C135.496 112.942 135.224 113.275 135.241 113.604C135.224 113.933 135.495 114.267 135.867 114.307C136.247 114.367 136.647 114.026 136.645 113.604Z" fill="#8BC53F"/>
<path d="M145.286 113.604C145.305 114.015 144.96 114.42 144.508 114.458C144.049 114.52 143.575 114.107 143.578 113.604C143.572 113.101 144.048 112.687 144.507 112.749C144.962 112.788 145.305 113.194 145.286 113.604ZM145.286 113.604C145.288 113.183 144.886 112.841 144.508 112.902C144.136 112.942 143.865 113.275 143.882 113.604C143.865 113.933 144.136 114.267 144.508 114.307C144.886 114.367 145.288 114.026 145.286 113.604Z" fill="#8BC53F"/>
<path d="M128.019 113.604C128.038 114.015 127.694 114.42 127.241 114.458C126.782 114.52 126.308 114.107 126.313 113.604C126.306 113.101 126.782 112.687 127.241 112.749C127.694 112.788 128.038 113.194 128.019 113.604ZM128.019 113.604C128.021 113.183 127.62 112.841 127.241 112.902C126.87 112.942 126.598 113.275 126.615 113.604C126.598 113.933 126.868 114.267 127.241 114.307C127.62 114.367 128.021 114.026 128.019 113.604Z" fill="#8BC53F"/>
<path d="M153.911 113.604C153.93 114.015 153.585 114.42 153.133 114.458C152.674 114.52 152.2 114.107 152.203 113.604C152.198 113.101 152.673 112.687 153.133 112.749C153.587 112.788 153.93 113.194 153.911 113.604ZM153.911 113.604C153.913 113.183 153.511 112.841 153.133 112.902C152.761 112.942 152.49 113.275 152.507 113.604C152.49 113.933 152.76 114.267 153.133 114.307C153.511 114.367 153.913 114.026 153.911 113.604Z" fill="#8BC53F"/>
<path d="M162.551 113.604C162.571 114.015 162.226 114.42 161.773 114.458C161.315 114.52 160.84 114.107 160.844 113.604C160.839 113.101 161.313 112.687 161.773 112.749C162.227 112.788 162.571 113.194 162.551 113.604ZM162.551 113.604C162.554 113.183 162.152 112.841 161.773 112.902C161.402 112.942 161.13 113.275 161.147 113.604C161.13 113.933 161.401 114.267 161.773 114.307C162.152 114.367 162.554 114.026 162.551 113.604Z" fill="#8BC53F"/>
<path d="M171.192 113.604C171.211 114.015 170.867 114.42 170.414 114.458C169.955 114.52 169.481 114.107 169.484 113.604C169.48 113.101 169.954 112.687 170.414 112.749C170.867 112.788 171.211 113.194 171.192 113.604ZM171.192 113.604C171.194 113.183 170.793 112.841 170.414 112.902C170.043 112.942 169.771 113.275 169.788 113.604C169.771 113.933 170.043 114.267 170.414 114.307C170.793 114.367 171.194 114.026 171.192 113.604Z" fill="#8BC53F"/>
<path d="M179.825 113.604C179.844 114.015 179.499 114.42 179.047 114.458C178.588 114.52 178.114 114.107 178.117 113.604C178.112 113.101 178.587 112.687 179.047 112.749C179.499 112.788 179.844 113.194 179.825 113.604ZM179.825 113.604C179.827 113.183 179.425 112.841 179.047 112.902C178.675 112.942 178.404 113.275 178.421 113.604C178.404 113.933 178.675 114.267 179.047 114.307C179.425 114.367 179.827 114.026 179.825 113.604Z" fill="#8BC53F"/>
<path d="M188.434 113.604C188.454 114.015 188.109 114.42 187.656 114.458C187.197 114.52 186.723 114.107 186.727 113.604C186.722 113.101 187.196 112.687 187.656 112.749C188.109 112.788 188.454 113.194 188.434 113.604ZM188.434 113.604C188.437 113.183 188.035 112.841 187.656 112.902C187.285 112.942 187.013 113.275 187.03 113.604C187.013 113.933 187.285 114.267 187.656 114.307C188.035 114.367 188.435 114.026 188.434 113.604Z" fill="#8BC53F"/>
<path d="M136.645 153.404C136.664 153.814 136.32 154.22 135.867 154.258C135.408 154.32 134.934 153.907 134.938 153.404C134.933 152.901 135.407 152.487 135.867 152.549C136.321 152.588 136.666 152.993 136.645 153.404ZM136.645 153.404C136.647 152.982 136.246 152.641 135.867 152.702C135.496 152.742 135.224 153.075 135.241 153.404C135.224 153.733 135.495 154.067 135.867 154.107C136.247 154.167 136.647 153.825 136.645 153.404Z" fill="#8BC53F"/>
<path d="M145.284 153.404C145.304 153.814 144.959 154.22 144.507 154.258C144.048 154.32 143.573 153.907 143.578 153.404C143.573 152.901 144.048 152.487 144.508 152.549C144.96 152.588 145.304 152.993 145.284 153.404ZM145.284 153.404C145.287 152.982 144.885 152.641 144.507 152.702C144.135 152.742 143.863 153.075 143.88 153.404C143.863 153.733 144.134 154.067 144.507 154.107C144.885 154.167 145.287 153.825 145.284 153.404Z" fill="#8BC53F"/>
<path d="M128.019 153.404C128.038 153.814 127.694 154.22 127.241 154.258C126.782 154.32 126.308 153.907 126.313 153.404C126.306 152.901 126.782 152.487 127.241 152.549C127.694 152.588 128.038 152.993 128.019 153.404ZM128.019 153.404C128.021 152.982 127.62 152.641 127.241 152.702C126.87 152.742 126.598 153.075 126.615 153.404C126.598 153.733 126.868 154.067 127.241 154.107C127.62 154.167 128.021 153.825 128.019 153.404Z" fill="#8BC53F"/>
<path d="M153.911 153.404C153.93 153.814 153.585 154.22 153.133 154.258C152.674 154.32 152.2 153.907 152.203 153.404C152.198 152.901 152.673 152.487 153.133 152.549C153.587 152.588 153.93 152.993 153.911 153.404ZM153.911 153.404C153.913 152.982 153.511 152.641 153.133 152.702C152.761 152.742 152.49 153.075 152.507 153.404C152.49 153.733 152.76 154.067 153.133 154.107C153.511 154.167 153.913 153.825 153.911 153.404Z" fill="#8BC53F"/>
<path d="M162.551 153.404C162.571 153.814 162.226 154.22 161.773 154.258C161.315 154.32 160.84 153.907 160.844 153.404C160.839 152.901 161.313 152.487 161.773 152.549C162.227 152.588 162.571 152.993 162.551 153.404ZM162.551 153.404C162.554 152.982 162.152 152.641 161.773 152.702C161.402 152.742 161.13 153.075 161.147 153.404C161.13 153.733 161.401 154.067 161.773 154.107C162.152 154.167 162.554 153.825 162.551 153.404Z" fill="#8BC53F"/>
<path d="M171.192 153.404C171.211 153.814 170.867 154.22 170.414 154.258C169.955 154.32 169.481 153.907 169.484 153.404C169.48 152.901 169.954 152.487 170.414 152.549C170.867 152.588 171.211 152.993 171.192 153.404ZM171.192 153.404C171.194 152.982 170.793 152.641 170.414 152.702C170.043 152.742 169.771 153.075 169.788 153.404C169.771 153.733 170.043 154.067 170.414 154.107C170.793 154.167 171.194 153.825 171.192 153.404Z" fill="#8BC53F"/>
<path d="M179.825 153.404C179.844 153.814 179.499 154.22 179.047 154.258C178.588 154.32 178.114 153.907 178.117 153.404C178.112 152.901 178.587 152.487 179.047 152.549C179.499 152.588 179.844 152.993 179.825 153.404ZM179.825 153.404C179.827 152.982 179.425 152.641 179.047 152.702C178.675 152.742 178.404 153.075 178.421 153.404C178.404 153.733 178.675 154.067 179.047 154.107C179.425 154.167 179.826 153.825 179.825 153.404Z" fill="#8BC53F"/>
<path d="M188.434 153.404C188.454 153.814 188.109 154.22 187.656 154.258C187.197 154.32 186.723 153.907 186.727 153.404C186.722 152.901 187.196 152.487 187.656 152.549C188.109 152.588 188.454 152.993 188.434 153.404ZM188.434 153.404C188.437 152.982 188.035 152.641 187.656 152.702C187.285 152.742 187.013 153.075 187.03 153.404C187.013 153.733 187.285 154.067 187.656 154.107C188.035 154.167 188.435 153.825 188.434 153.404Z" fill="#8BC53F"/>
<path d="M136.645 193.203C136.664 193.613 136.32 194.019 135.867 194.057C135.408 194.118 134.934 193.706 134.938 193.203C134.933 192.7 135.407 192.286 135.867 192.348C136.321 192.387 136.666 192.792 136.645 193.203ZM136.645 193.203C136.647 192.781 136.246 192.44 135.867 192.501C135.496 192.541 135.224 192.874 135.241 193.203C135.224 193.532 135.495 193.866 135.867 193.906C136.247 193.965 136.647 193.624 136.645 193.203Z" fill="#8BC53F"/>
<path d="M145.284 193.203C145.304 193.613 144.959 194.019 144.507 194.057C144.048 194.118 143.573 193.706 143.578 193.203C143.573 192.7 144.048 192.286 144.507 192.348C144.96 192.387 145.304 192.792 145.284 193.203ZM145.284 193.203C145.287 192.781 144.885 192.44 144.507 192.501C144.135 192.541 143.863 192.874 143.88 193.203C143.863 193.532 144.135 193.866 144.507 193.906C144.885 193.965 145.287 193.624 145.284 193.203Z" fill="#8BC53F"/>
<path d="M128.02 193.203C128.039 193.613 127.695 194.019 127.242 194.057C126.783 194.118 126.309 193.706 126.313 193.203C126.308 192.7 126.782 192.286 127.242 192.348C127.695 192.387 128.039 192.792 128.02 193.203ZM128.02 193.203C128.022 192.781 127.621 192.44 127.242 192.501C126.871 192.541 126.599 192.874 126.616 193.203C126.599 193.532 126.87 193.866 127.242 193.906C127.621 193.965 128.022 193.624 128.02 193.203Z" fill="#8BC53F"/>
<path d="M153.911 193.203C153.93 193.613 153.585 194.019 153.133 194.057C152.674 194.118 152.2 193.706 152.203 193.203C152.198 192.7 152.673 192.286 153.133 192.348C153.587 192.387 153.93 192.792 153.911 193.203ZM153.911 193.203C153.913 192.781 153.511 192.44 153.133 192.501C152.761 192.541 152.49 192.874 152.507 193.203C152.49 193.532 152.76 193.866 153.133 193.906C153.511 193.965 153.913 193.624 153.911 193.203Z" fill="#8BC53F"/>
<path d="M162.551 193.203C162.571 193.613 162.226 194.019 161.773 194.057C161.315 194.118 160.84 193.706 160.844 193.203C160.839 192.7 161.313 192.286 161.773 192.348C162.227 192.387 162.571 192.792 162.551 193.203ZM162.551 193.203C162.554 192.781 162.152 192.44 161.773 192.501C161.402 192.541 161.13 192.874 161.147 193.203C161.13 193.532 161.401 193.866 161.773 193.906C162.152 193.965 162.554 193.624 162.551 193.203Z" fill="#8BC53F"/>
<path d="M171.192 193.203C171.211 193.613 170.867 194.019 170.414 194.057C169.955 194.118 169.481 193.706 169.484 193.203C169.48 192.7 169.954 192.286 170.414 192.348C170.867 192.387 171.211 192.792 171.192 193.203ZM171.192 193.203C171.194 192.781 170.793 192.44 170.414 192.501C170.043 192.541 169.771 192.874 169.788 193.203C169.771 193.532 170.043 193.866 170.414 193.906C170.793 193.965 171.194 193.624 171.192 193.203Z" fill="#8BC53F"/>
<path d="M179.825 193.203C179.844 193.613 179.499 194.019 179.047 194.057C178.588 194.118 178.114 193.706 178.117 193.203C178.112 192.7 178.587 192.286 179.047 192.348C179.499 192.387 179.844 192.792 179.825 193.203ZM179.825 193.203C179.827 192.781 179.425 192.44 179.047 192.501C178.675 192.541 178.404 192.874 178.421 193.203C178.404 193.532 178.675 193.866 179.047 193.906C179.425 193.965 179.826 193.624 179.825 193.203Z" fill="#8BC53F"/>
<path d="M188.434 193.203C188.454 193.613 188.109 194.019 187.656 194.057C187.197 194.118 186.723 193.706 186.727 193.203C186.722 192.7 187.196 192.286 187.656 192.348C188.109 192.387 188.454 192.792 188.434 193.203ZM188.434 193.203C188.437 192.781 188.035 192.44 187.656 192.501C187.285 192.541 187.013 192.874 187.03 193.203C187.013 193.532 187.285 193.866 187.656 193.906C188.035 193.965 188.435 193.624 188.434 193.203Z" fill="#8BC53F"/>
<path d="M136.645 233.001C136.664 233.411 136.32 233.817 135.867 233.854C135.408 233.916 134.934 233.503 134.938 233.001C134.933 232.498 135.407 232.084 135.867 232.146C136.321 232.184 136.666 232.59 136.645 233.001ZM136.645 233.001C136.647 232.579 136.246 232.238 135.867 232.299C135.496 232.339 135.224 232.671 135.241 233.001C135.224 233.33 135.495 233.664 135.867 233.703C136.247 233.763 136.647 233.422 136.645 233.001Z" fill="#8BC53F"/>
<path d="M145.286 233.001C145.305 233.411 144.96 233.817 144.508 233.854C144.049 233.916 143.575 233.503 143.578 233.001C143.572 232.498 144.048 232.084 144.507 232.146C144.962 232.184 145.305 232.59 145.286 233.001ZM145.286 233.001C145.288 232.579 144.886 232.238 144.508 232.299C144.136 232.339 143.865 232.671 143.882 233.001C143.865 233.33 144.136 233.664 144.508 233.703C144.886 233.763 145.288 233.422 145.286 233.001Z" fill="#8BC53F"/>
<path d="M128.019 233.001C128.038 233.411 127.694 233.817 127.241 233.854C126.782 233.916 126.308 233.503 126.313 233.001C126.306 232.498 126.782 232.084 127.241 232.146C127.694 232.184 128.038 232.59 128.019 233.001ZM128.019 233.001C128.021 232.579 127.62 232.238 127.241 232.299C126.87 232.339 126.598 232.671 126.615 233.001C126.598 233.33 126.868 233.664 127.241 233.703C127.62 233.763 128.021 233.422 128.019 233.001Z" fill="#8BC53F"/>
<path d="M153.911 233.001C153.93 233.411 153.585 233.817 153.133 233.854C152.674 233.916 152.2 233.503 152.203 233.001C152.198 232.498 152.673 232.084 153.133 232.146C153.587 232.184 153.93 232.59 153.911 233.001ZM153.911 233.001C153.913 232.579 153.511 232.238 153.133 232.299C152.761 232.339 152.49 232.671 152.507 233.001C152.49 233.33 152.76 233.664 153.133 233.703C153.511 233.763 153.913 233.422 153.911 233.001Z" fill="#8BC53F"/>
<path d="M162.551 233.001C162.571 233.411 162.226 233.817 161.773 233.854C161.315 233.916 160.84 233.503 160.844 233.001C160.839 232.498 161.313 232.084 161.773 232.146C162.227 232.184 162.571 232.59 162.551 233.001ZM162.551 233.001C162.554 232.579 162.152 232.238 161.773 232.299C161.402 232.339 161.13 232.671 161.147 233.001C161.13 233.33 161.401 233.664 161.773 233.703C162.152 233.763 162.554 233.422 162.551 233.001Z" fill="#8BC53F"/>
<path d="M171.192 233.001C171.211 233.411 170.867 233.817 170.414 233.854C169.955 233.916 169.481 233.503 169.484 233.001C169.48 232.498 169.954 232.084 170.414 232.146C170.867 232.184 171.211 232.59 171.192 233.001ZM171.192 233.001C171.194 232.579 170.793 232.238 170.414 232.299C170.043 232.339 169.771 232.671 169.788 233.001C169.771 233.33 170.043 233.664 170.414 233.703C170.793 233.763 171.194 233.422 171.192 233.001Z" fill="#8BC53F"/>
<path d="M179.825 233.001C179.844 233.411 179.499 233.817 179.047 233.854C178.588 233.916 178.114 233.503 178.117 233.001C178.112 232.498 178.587 232.084 179.047 232.146C179.499 232.184 179.844 232.59 179.825 233.001ZM179.825 233.001C179.827 232.579 179.425 232.238 179.047 232.299C178.675 232.339 178.404 232.671 178.421 233.001C178.404 233.33 178.675 233.664 179.047 233.703C179.425 233.763 179.827 233.422 179.825 233.001Z" fill="#8BC53F"/>
<path d="M188.434 233.001C188.454 233.411 188.109 233.817 187.656 233.854C187.197 233.916 186.723 233.503 186.727 233.001C186.722 232.498 187.196 232.084 187.656 232.146C188.109 232.184 188.454 232.59 188.434 233.001ZM188.434 233.001C188.437 232.579 188.035 232.238 187.656 232.299C187.285 232.339 187.013 232.671 187.03 233.001C187.013 233.33 187.285 233.664 187.656 233.703C188.035 233.763 188.435 233.422 188.434 233.001Z" fill="#8BC53F"/>
<path d="M157.437 8.93921C156.8 9.1894 156.398 9.79788 155.949 10.2886C155.518 10.8132 155.109 11.3549 154.715 11.9075C153.923 13.0103 153.175 14.1435 152.456 15.2949C151.011 17.5928 149.673 19.9575 148.406 22.3574C145.881 27.1609 143.65 32.1259 141.855 37.2439C140.069 42.3547 138.665 47.644 138.284 53.0474C138.121 55.74 138.224 58.4691 138.201 61.1824L138.213 69.3307L138.315 134.522L138.215 199.713L138.161 232.309L138.013 264.905L137.865 232.309L137.812 199.713L137.711 134.522L137.813 69.3307L137.825 61.1824C137.858 58.4642 137.762 55.7546 137.934 53.0243C138.337 47.5747 139.759 42.2648 141.577 37.1455C143.425 32.0275 145.705 27.0746 148.276 22.2881C149.568 19.8967 150.927 17.5417 152.394 15.256C153.124 14.1107 153.883 12.9836 154.685 11.8869C155.085 11.3379 155.5 10.7987 155.935 10.2788C156.388 9.78817 156.796 9.18333 157.437 8.93921Z" fill="#8BC53F"/>
<path d="M157.32 8.93921C157.961 9.18454 158.368 9.78938 158.823 10.2764C159.258 10.7974 159.673 11.3355 160.073 11.8845C160.875 12.9812 161.633 14.1083 162.364 15.2536C163.832 17.5405 165.192 19.8943 166.482 22.2857C169.053 27.0722 171.334 32.0238 173.181 37.1431C174.999 42.2624 176.421 47.5723 176.824 53.0219C176.996 55.7534 176.9 58.4618 176.933 61.1799L176.945 69.3282L177.047 134.52L176.947 199.711L176.893 232.306L176.745 264.902L176.597 232.306L176.544 199.711L176.443 134.52L176.545 69.3282L176.557 61.1799C176.534 58.4667 176.636 55.7376 176.474 53.045C176.095 47.6415 174.689 42.3522 172.903 37.2415C171.108 32.1234 168.877 27.1596 166.352 22.3549C165.085 19.955 163.748 17.5903 162.302 15.2924C161.584 14.1411 160.835 13.0079 160.044 11.9051C159.65 11.3525 159.24 10.8108 158.809 10.2861C158.359 9.79667 157.957 9.1894 157.32 8.93921Z" fill="#8BC53F"/>
<path d="M124.505 96.7898C124.505 106.529 124.505 264.904 124.505 264.904H98.2882C98.2882 264.904 98.2882 106.529 98.2882 96.7898C98.2882 87.0493 97.6293 81.3993 103.427 73.2048C108.476 66.0707 110.467 65.1306 111.397 65.1306C112.328 65.1306 114.322 66.0707 119.368 73.2048C125.164 81.3993 124.505 87.0493 124.505 96.7898Z" fill="#8BC53F"/>
<path d="M129.874 92.5105H124.445V94.7209H129.874V92.5105Z" fill="#8BC53F"/>
<path d="M129.874 113.278H124.445V115.489H129.874V113.278Z" fill="#8BC53F"/>
<path d="M129.874 134.045H124.445V136.255H129.874V134.045Z" fill="#8BC53F"/>
<path d="M129.874 154.812H124.445V157.022H129.874V154.812Z" fill="#8BC53F"/>
<path d="M98.7734 83.967C102.986 83.7168 107.199 83.6998 111.413 83.6633C115.625 83.6986 119.839 83.7143 124.053 83.967C119.839 84.2196 115.627 84.2354 111.413 84.2706C107.199 84.2342 102.986 84.2184 98.7734 83.967Z" fill="#676767"/>
<path d="M98.2656 104.426C102.643 104.175 107.019 104.159 111.397 104.122C115.774 104.158 120.15 104.173 124.528 104.426C120.15 104.679 115.774 104.694 111.397 104.73C107.019 104.693 102.643 104.677 98.2656 104.426Z" fill="#676767"/>
<path d="M98.2656 127.211C102.643 126.959 107.019 126.944 111.397 126.907C115.774 126.942 120.15 126.958 124.528 127.211C120.15 127.463 115.774 127.479 111.397 127.514C107.019 127.478 102.643 127.462 98.2656 127.211Z" fill="#676767"/>
<path d="M98.2656 149.995C102.643 149.745 107.019 149.728 111.397 149.691C115.774 149.727 120.15 149.742 124.528 149.995C120.15 150.248 115.774 150.263 111.397 150.299C107.019 150.262 102.643 150.245 98.2656 149.995Z" fill="#676767"/>
<path d="M98.2656 172.78C102.643 172.53 107.019 172.513 111.397 172.476C115.774 172.512 120.15 172.527 124.528 172.78C120.15 173.033 115.774 173.048 111.397 173.084C107.019 173.047 102.643 173.03 98.2656 172.78Z" fill="#676767"/>
<path d="M98.2656 195.564C102.643 195.312 107.019 195.297 111.397 195.26C115.774 195.295 120.15 195.311 124.528 195.564C120.15 195.817 115.774 195.832 111.397 195.868C107.019 195.831 102.643 195.815 98.2656 195.564Z" fill="#676767"/>
<path d="M98.2656 218.348C102.643 218.097 107.019 218.081 111.397 218.045C115.774 218.08 120.15 218.094 124.528 218.348C120.15 218.601 115.774 218.617 111.397 218.652C107.019 218.616 102.643 218.6 98.2656 218.348Z" fill="#676767"/>
<path d="M98.2656 241.132C102.643 240.881 107.019 240.865 111.397 240.829C115.774 240.864 120.15 240.88 124.528 241.132C120.15 241.385 115.774 241.401 111.397 241.436C107.019 241.4 102.643 241.383 98.2656 241.132Z" fill="#676767"/>
<path d="M117.021 97.0199L111.458 97.1839C109.573 97.2228 107.669 97.2859 105.759 97.2871H105.493L105.492 97.0199L105.456 91.4914L105.453 91.1853L105.758 91.1877C109.511 91.2132 113.266 91.2181 117.02 91.314L117.198 91.3189L117.196 91.4914C117.172 93.3836 117.057 95.2261 117.021 97.0199ZM117.021 97.0199C116.985 95.1277 116.871 93.2852 116.845 91.4914L117.021 91.6675C113.267 91.7634 109.513 91.7683 105.759 91.7938L106.062 91.4901L106.026 97.0187L105.759 96.7515C107.602 96.7515 109.453 96.8159 111.322 96.8547L117.021 97.0199Z" fill="#676767"/>
<path d="M112.172 85.6787C112.178 86.0747 111.897 86.5252 111.394 86.6078C110.904 86.7159 110.294 86.2775 110.313 85.6787C110.292 85.0799 110.902 84.6391 111.394 84.7484C111.898 84.831 112.178 85.284 112.172 85.6787ZM112.172 85.6787C112.188 85.2427 111.723 84.9476 111.394 85.0532C111.055 85.1407 110.919 85.4455 110.92 85.6787C110.919 85.9119 111.053 86.2192 111.394 86.3054C111.723 86.4111 112.188 86.1147 112.172 85.6787Z" fill="#676767"/>
<path d="M120.813 85.6787C120.819 86.0747 120.537 86.5252 120.035 86.6078C119.545 86.7159 118.934 86.2775 118.954 85.6787C118.933 85.0799 119.542 84.6391 120.035 84.7484C120.539 84.831 120.819 85.284 120.813 85.6787ZM120.813 85.6787C120.829 85.2427 120.364 84.9476 120.035 85.0532C119.695 85.1407 119.559 85.4455 119.56 85.6787C119.559 85.9119 119.694 86.2192 120.035 86.3054C120.364 86.4111 120.829 86.1147 120.813 85.6787Z" fill="#676767"/>
<path d="M103.547 85.6787C103.553 86.0747 103.272 86.5252 102.769 86.6078C102.279 86.7159 101.669 86.2775 101.688 85.6787C101.667 85.0799 102.277 84.6391 102.769 84.7484C103.273 84.831 103.553 85.284 103.547 85.6787ZM103.547 85.6787C103.563 85.2427 103.098 84.9476 102.769 85.0532C102.43 85.1407 102.294 85.4455 102.295 85.6787C102.294 85.9119 102.428 86.2192 102.769 86.3054C103.099 86.4111 103.563 86.1147 103.547 85.6787Z" fill="#676767"/>
<path d="M112.172 106.397C112.178 106.793 111.897 107.244 111.394 107.326C110.904 107.434 110.294 106.996 110.313 106.397C110.292 105.799 110.902 105.356 111.394 105.467C111.898 105.55 112.178 106.003 112.172 106.397ZM112.172 106.397C112.188 105.961 111.723 105.666 111.394 105.772C111.055 105.859 110.919 106.164 110.92 106.397C110.919 106.63 111.053 106.938 111.394 107.024C111.723 107.13 112.188 106.833 112.172 106.397Z" fill="#676767"/>
<path d="M120.813 106.397C120.819 106.793 120.537 107.244 120.035 107.326C119.545 107.434 118.934 106.996 118.954 106.397C118.933 105.799 119.542 105.356 120.035 105.467C120.539 105.55 120.819 106.003 120.813 106.397ZM120.813 106.397C120.829 105.961 120.364 105.666 120.035 105.772C119.695 105.859 119.559 106.164 119.56 106.397C119.559 106.63 119.694 106.938 120.035 107.024C120.364 107.13 120.829 106.833 120.813 106.397Z" fill="#676767"/>
<path d="M103.547 106.397C103.553 106.793 103.272 107.244 102.769 107.326C102.279 107.434 101.669 106.996 101.688 106.397C101.667 105.798 102.277 105.357 102.769 105.467C103.273 105.549 103.553 106.002 103.547 106.397ZM103.547 106.397C103.563 105.961 103.098 105.666 102.769 105.772C102.43 105.859 102.294 106.164 102.295 106.397C102.294 106.63 102.428 106.937 102.769 107.024C103.099 107.129 103.563 106.833 103.547 106.397Z" fill="#676767"/>
<path d="M112.172 129.277C112.178 129.673 111.897 130.124 111.394 130.206C110.904 130.315 110.294 129.876 110.313 129.277C110.291 128.679 110.902 128.238 111.394 128.347C111.898 128.43 112.178 128.883 112.172 129.277ZM112.172 129.277C112.188 128.841 111.723 128.546 111.394 128.652C111.055 128.739 110.919 129.044 110.92 129.277C110.919 129.511 111.053 129.818 111.394 129.904C111.724 130.01 112.188 129.715 112.172 129.277Z" fill="#676767"/>
<path d="M120.813 129.277C120.819 129.673 120.537 130.124 120.035 130.206C119.545 130.315 118.934 129.876 118.954 129.277C118.933 128.679 119.542 128.238 120.035 128.347C120.537 128.43 120.819 128.883 120.813 129.277ZM120.813 129.277C120.829 128.841 120.364 128.546 120.035 128.652C119.695 128.739 119.559 129.044 119.56 129.277C119.559 129.511 119.694 129.818 120.035 129.904C120.364 130.01 120.829 129.715 120.813 129.277Z" fill="#676767"/>
<path d="M103.547 129.277C103.553 129.673 103.272 130.124 102.769 130.206C102.279 130.315 101.669 129.876 101.688 129.277C101.667 128.679 102.277 128.238 102.769 128.347C103.273 128.43 103.553 128.883 103.547 129.277ZM103.547 129.277C103.563 128.841 103.098 128.546 102.769 128.652C102.43 128.739 102.294 129.044 102.295 129.277C102.294 129.511 102.428 129.818 102.769 129.904C103.099 130.01 103.563 129.715 103.547 129.277Z" fill="#676767"/>
<path d="M112.172 152.156C112.178 152.552 111.897 153.002 111.394 153.085C110.904 153.193 110.294 152.754 110.313 152.156C110.291 151.557 110.902 151.115 111.394 151.225C111.898 151.308 112.178 151.76 112.172 152.156ZM112.172 152.156C112.188 151.72 111.723 151.424 111.394 151.53C111.055 151.618 110.919 151.922 110.92 152.156C110.919 152.389 111.053 152.696 111.394 152.782C111.723 152.887 112.188 152.592 112.172 152.156Z" fill="#676767"/>
<path d="M120.813 152.156C120.819 152.552 120.537 153.002 120.035 153.085C119.545 153.193 118.934 152.754 118.954 152.156C118.933 151.557 119.542 151.115 120.035 151.225C120.539 151.308 120.819 151.76 120.813 152.156ZM120.813 152.156C120.829 151.72 120.364 151.424 120.035 151.53C119.695 151.618 119.559 151.922 119.56 152.156C119.559 152.389 119.694 152.696 120.035 152.782C120.364 152.887 120.829 152.592 120.813 152.156Z" fill="#676767"/>
<path d="M103.547 152.156C103.553 152.552 103.272 153.002 102.769 153.085C102.279 153.193 101.669 152.754 101.688 152.156C101.667 151.557 102.277 151.115 102.769 151.225C103.273 151.308 103.553 151.76 103.547 152.156ZM103.547 152.156C103.563 151.72 103.098 151.424 102.769 151.53C102.43 151.618 102.294 151.922 102.295 152.156C102.294 152.389 102.428 152.696 102.769 152.782C103.099 152.887 103.563 152.592 103.547 152.156Z" fill="#676767"/>
<path d="M112.172 175.034C112.178 175.43 111.897 175.881 111.394 175.963C110.904 176.071 110.294 175.633 110.313 175.034C110.291 174.435 110.902 173.993 111.394 174.104C111.898 174.186 112.178 174.638 112.172 175.034ZM112.172 175.034C112.188 174.598 111.723 174.303 111.394 174.409C111.055 174.496 110.919 174.801 110.92 175.034C110.919 175.267 111.053 175.574 111.394 175.661C111.724 175.765 112.188 175.47 112.172 175.034Z" fill="#676767"/>
<path d="M120.813 175.034C120.819 175.43 120.537 175.881 120.035 175.963C119.545 176.071 118.934 175.633 118.954 175.034C118.933 174.435 119.542 173.993 120.035 174.104C120.539 174.186 120.819 174.638 120.813 175.034ZM120.813 175.034C120.829 174.598 120.364 174.303 120.035 174.409C119.695 174.496 119.559 174.801 119.56 175.034C119.559 175.267 119.694 175.574 120.035 175.661C120.364 175.765 120.829 175.47 120.813 175.034Z" fill="#676767"/>
<path d="M103.547 175.034C103.553 175.43 103.272 175.881 102.769 175.963C102.279 176.071 101.669 175.633 101.688 175.034C101.667 174.435 102.277 173.993 102.769 174.104C103.273 174.186 103.553 174.638 103.547 175.034ZM103.547 175.034C103.563 174.598 103.098 174.303 102.769 174.409C102.43 174.496 102.294 174.801 102.295 175.034C102.294 175.267 102.428 175.574 102.769 175.661C103.099 175.765 103.563 175.47 103.547 175.034Z" fill="#676767"/>
<path d="M112.172 197.912C112.178 198.308 111.897 198.759 111.394 198.842C110.904 198.95 110.294 198.511 110.313 197.912C110.292 197.314 110.902 196.872 111.394 196.982C111.898 197.065 112.178 197.516 112.172 197.912ZM112.172 197.912C112.188 197.476 111.723 197.181 111.394 197.287C111.055 197.374 110.919 197.679 110.92 197.912C110.919 198.146 111.053 198.453 111.394 198.539C111.723 198.644 112.188 198.348 112.172 197.912Z" fill="#676767"/>
<path d="M120.813 197.912C120.819 198.308 120.537 198.759 120.035 198.842C119.545 198.95 118.934 198.511 118.954 197.912C118.933 197.314 119.542 196.872 120.035 196.982C120.539 197.065 120.819 197.516 120.813 197.912ZM120.813 197.912C120.829 197.476 120.364 197.181 120.035 197.287C119.695 197.374 119.559 197.679 119.56 197.912C119.559 198.146 119.694 198.453 120.035 198.539C120.364 198.644 120.829 198.348 120.813 197.912Z" fill="#676767"/>
<path d="M103.547 197.912C103.553 198.308 103.272 198.759 102.769 198.842C102.279 198.95 101.669 198.511 101.688 197.912C101.667 197.314 102.277 196.872 102.769 196.982C103.273 197.065 103.553 197.516 103.547 197.912ZM103.547 197.912C103.563 197.476 103.098 197.181 102.769 197.287C102.43 197.374 102.294 197.679 102.295 197.912C102.294 198.146 102.428 198.453 102.769 198.539C103.099 198.644 103.563 198.348 103.547 197.912Z" fill="#676767"/>
<path d="M112.172 220.79C112.178 221.186 111.897 221.637 111.394 221.719C110.904 221.827 110.294 221.389 110.313 220.79C110.292 220.191 110.902 219.75 111.394 219.86C111.898 219.942 112.178 220.394 112.172 220.79ZM112.172 220.79C112.188 220.354 111.723 220.059 111.394 220.165C111.055 220.252 110.919 220.557 110.92 220.79C110.919 221.023 111.053 221.331 111.394 221.417C111.723 221.521 112.188 221.226 112.172 220.79Z" fill="#676767"/>
<path d="M120.813 220.79C120.819 221.186 120.537 221.637 120.035 221.719C119.545 221.827 118.934 221.389 118.954 220.79C118.933 220.191 119.542 219.75 120.035 219.86C120.539 219.942 120.819 220.394 120.813 220.79ZM120.813 220.79C120.829 220.354 120.364 220.059 120.035 220.165C119.695 220.252 119.559 220.557 119.56 220.79C119.559 221.023 119.694 221.331 120.035 221.417C120.364 221.521 120.829 221.226 120.813 220.79Z" fill="#676767"/>
<path d="M103.547 220.79C103.553 221.186 103.272 221.637 102.769 221.719C102.279 221.827 101.669 221.389 101.688 220.79C101.667 220.191 102.277 219.75 102.769 219.86C103.273 219.942 103.553 220.394 103.547 220.79ZM103.547 220.79C103.563 220.354 103.098 220.059 102.769 220.165C102.43 220.252 102.294 220.557 102.295 220.79C102.294 221.023 102.428 221.331 102.769 221.417C103.099 221.521 103.563 221.226 103.547 220.79Z" fill="#676767"/>
<path d="M112.172 243.669C112.178 244.065 111.897 244.515 111.394 244.598C110.904 244.706 110.294 244.268 110.313 243.669C110.291 243.07 110.902 242.628 111.394 242.738C111.898 242.821 112.178 243.273 112.172 243.669ZM112.172 243.669C112.188 243.233 111.723 242.938 111.394 243.043C111.055 243.131 110.919 243.436 110.92 243.669C110.919 243.902 111.053 244.209 111.394 244.295C111.724 244.401 112.188 244.105 112.172 243.669Z" fill="#676767"/>
<path d="M120.813 243.669C120.819 244.065 120.537 244.515 120.035 244.598C119.545 244.706 118.934 244.268 118.954 243.669C118.933 243.07 119.542 242.628 120.035 242.738C120.537 242.821 120.819 243.273 120.813 243.669ZM120.813 243.669C120.829 243.233 120.364 242.938 120.035 243.043C119.695 243.131 119.559 243.436 119.56 243.669C119.559 243.902 119.694 244.209 120.035 244.295C120.364 244.401 120.829 244.105 120.813 243.669Z" fill="#676767"/>
<path d="M103.547 243.669C103.553 244.065 103.272 244.515 102.769 244.598C102.279 244.706 101.669 244.268 101.688 243.669C101.667 243.07 102.277 242.628 102.769 242.738C103.273 242.821 103.553 243.273 103.547 243.669ZM103.547 243.669C103.563 243.233 103.098 242.938 102.769 243.043C102.43 243.131 102.294 243.436 102.295 243.669C102.294 243.902 102.428 244.209 102.769 244.295C103.099 244.401 103.563 244.105 103.547 243.669Z" fill="#676767"/>
<path d="M106.299 77.4149C106.299 77.6724 106.09 77.8812 105.833 77.8812C105.576 77.8812 105.367 77.6724 105.367 77.4149C105.367 77.1574 105.576 76.9485 105.833 76.9485C106.09 76.9485 106.299 77.1574 106.299 77.4149Z" fill="#676767"/>
<path d="M108.151 80.0018C108.151 80.2593 107.942 80.4682 107.685 80.4682C107.427 80.4682 107.219 80.2593 107.219 80.0018C107.219 79.7443 107.427 79.5354 107.685 79.5354C107.942 79.5354 108.151 79.7443 108.151 80.0018Z" fill="#676767"/>
<path d="M111.862 80.0018C111.862 80.2593 111.653 80.4682 111.396 80.4682C111.138 80.4682 110.93 80.2593 110.93 80.0018C110.93 79.7443 111.138 79.5354 111.396 79.5354C111.653 79.5354 111.862 79.7443 111.862 80.0018Z" fill="#676767"/>
<path d="M115.573 80.0018C115.573 80.2593 115.364 80.4682 115.107 80.4682C114.849 80.4682 114.641 80.2593 114.641 80.0018C114.641 79.7443 114.849 79.5354 115.107 79.5354C115.365 79.5354 115.573 79.7443 115.573 80.0018Z" fill="#676767"/>
<path d="M110.01 77.4149C110.01 77.6724 109.801 77.8812 109.544 77.8812C109.287 77.8812 109.078 77.6724 109.078 77.4149C109.078 77.1574 109.287 76.9485 109.544 76.9485C109.801 76.9497 110.01 77.1574 110.01 77.4149Z" fill="#676767"/>
<path d="M113.713 77.4149C113.713 77.6724 113.505 77.8812 113.247 77.8812C112.99 77.8812 112.781 77.6724 112.781 77.4149C112.781 77.1574 112.99 76.9485 113.247 76.9485C113.505 76.9497 113.713 77.1574 113.713 77.4149Z" fill="#676767"/>
<path d="M117.424 77.4149C117.424 77.6724 117.215 77.8812 116.958 77.8812C116.701 77.8812 116.492 77.6724 116.492 77.4149C116.492 77.1574 116.701 76.9485 116.958 76.9485C117.217 76.9497 117.424 77.1574 117.424 77.4149Z" fill="#676767"/>
<path d="M108.151 94.255C108.151 94.5124 107.942 94.7213 107.685 94.7213C107.427 94.7213 107.219 94.5124 107.219 94.255C107.219 93.9975 107.427 93.7898 107.685 93.7898C107.942 93.7886 108.151 93.9975 108.151 94.255Z" fill="#676767"/>
<path d="M111.854 94.255C111.854 94.5124 111.645 94.7213 111.388 94.7213C111.131 94.7213 110.922 94.5124 110.922 94.255C110.922 93.9975 111.131 93.7898 111.388 93.7898C111.645 93.7886 111.854 93.9975 111.854 94.255Z" fill="#676767"/>
<path d="M115.565 94.255C115.565 94.5124 115.356 94.7213 115.099 94.7213C114.842 94.7213 114.633 94.5124 114.633 94.255C114.633 93.9975 114.842 93.7898 115.099 93.7898C115.357 93.7886 115.565 93.9975 115.565 94.255Z" fill="#676767"/>
<path d="M98.2693 92.5107H93.6406V102.923H98.2693V92.5107Z" fill="#8BC53F"/>
<path d="M190.382 96.7898C190.382 106.529 190.382 264.904 190.382 264.904H216.599C216.599 264.904 216.599 106.529 216.599 96.7898C216.599 87.0493 217.258 81.3993 211.461 73.2048C206.411 66.0707 204.421 65.1306 203.49 65.1306C202.559 65.1306 200.565 66.0707 195.519 73.2048C189.722 81.3993 190.382 87.0493 190.382 96.7898Z" fill="#8BC53F"/>
<path d="M185.017 94.7229H190.445V92.5124H185.017V94.7229Z" fill="#8BC53F"/>
<path d="M185.017 115.489H190.445V113.278H185.017V115.489Z" fill="#8BC53F"/>
<path d="M185.017 136.255H190.445V134.044H185.017V136.255Z" fill="#8BC53F"/>
<path d="M185.017 157.023H190.445V154.813H185.017V157.023Z" fill="#8BC53F"/>
<path d="M216.144 83.967C211.932 83.7168 207.718 83.6998 203.506 83.6633C199.293 83.6986 195.08 83.7143 190.867 83.967C195.08 84.2196 199.293 84.2354 203.506 84.2706C207.718 84.2342 211.932 84.2184 216.144 83.967Z" fill="#676767"/>
<path d="M216.622 104.427C212.244 104.176 207.868 104.16 203.49 104.123C199.113 104.159 194.737 104.174 190.359 104.427C194.737 104.68 199.113 104.695 203.49 104.731C207.868 104.694 212.244 104.678 216.622 104.427Z" fill="#676767"/>
<path d="M216.622 127.211C212.244 126.959 207.868 126.944 203.49 126.907C199.113 126.942 194.737 126.958 190.359 127.211C194.737 127.463 199.113 127.479 203.49 127.514C207.868 127.478 212.244 127.462 216.622 127.211Z" fill="#676767"/>
<path d="M216.622 149.995C212.244 149.745 207.868 149.728 203.49 149.691C199.113 149.727 194.737 149.742 190.359 149.995C194.737 150.248 199.113 150.263 203.49 150.299C207.868 150.262 212.244 150.245 216.622 149.995Z" fill="#676767"/>
<path d="M216.622 172.78C212.244 172.53 207.868 172.513 203.49 172.476C199.113 172.512 194.737 172.527 190.359 172.78C194.737 173.033 199.113 173.048 203.49 173.084C207.868 173.047 212.244 173.03 216.622 172.78Z" fill="#676767"/>
<path d="M216.622 195.564C212.244 195.312 207.868 195.297 203.49 195.26C199.113 195.295 194.737 195.311 190.359 195.564C194.737 195.817 199.113 195.832 203.49 195.868C207.868 195.831 212.244 195.815 216.622 195.564Z" fill="#676767"/>
<path d="M216.622 218.348C212.244 218.097 207.868 218.081 203.49 218.045C199.113 218.08 194.737 218.094 190.359 218.348C194.737 218.601 199.113 218.617 203.49 218.652C207.868 218.616 212.244 218.6 216.622 218.348Z" fill="#676767"/>
<path d="M216.622 241.132C212.244 240.881 207.868 240.865 203.49 240.829C199.113 240.864 194.737 240.88 190.359 241.132C194.737 241.385 199.113 241.401 203.49 241.436C207.868 241.4 212.244 241.383 216.622 241.132Z" fill="#676767"/>
<path d="M197.682 91.4914L197.68 91.3189L197.858 91.314C201.612 91.2181 205.367 91.2132 209.12 91.1877L209.425 91.1853L209.422 91.4914L209.386 97.0199L209.385 97.2871H209.119C207.209 97.2871 205.305 97.2228 203.42 97.1839L197.857 97.0199C197.822 95.2261 197.708 93.3836 197.682 91.4914ZM203.557 96.8547C205.426 96.8159 207.277 96.7527 209.12 96.7515L208.853 97.0187L208.817 91.4901L209.12 91.7938C205.365 91.7683 201.612 91.7634 197.858 91.6675L198.034 91.4914C198.007 93.2852 197.894 95.1277 197.858 97.0199L203.557 96.8547Z" fill="#676767"/>
<path d="M203.481 84.7479C203.973 84.6386 204.583 85.0795 204.563 85.6782C204.583 86.277 203.973 86.7154 203.481 86.6073C202.979 86.5248 202.697 86.0742 202.704 85.6782C202.697 85.2835 202.978 84.8305 203.481 84.7479ZM203.481 86.3061C203.822 86.2199 203.957 85.9114 203.956 85.6794C203.957 85.4463 203.821 85.1414 203.481 85.054C203.153 84.9483 202.688 85.2422 202.704 85.6782C202.688 86.113 203.151 86.4106 203.481 86.3061Z" fill="#676767"/>
<path d="M194.856 84.7479C195.348 84.6386 195.958 85.0795 195.938 85.6782C195.958 86.277 195.348 86.7154 194.856 86.6073C194.354 86.5248 194.072 86.0742 194.079 85.6782C194.072 85.2835 194.353 84.8305 194.856 84.7479ZM194.856 86.3061C195.197 86.2199 195.332 85.9114 195.331 85.6794C195.332 85.4463 195.196 85.1414 194.856 85.054C194.528 84.9483 194.063 85.2422 194.079 85.6782C194.063 86.113 194.528 86.4106 194.856 86.3061Z" fill="#676767"/>
<path d="M212.122 84.7479C212.613 84.6386 213.224 85.0795 213.203 85.6782C213.224 86.277 212.612 86.7154 212.122 86.6073C211.619 86.5248 211.338 86.0742 211.344 85.6782C211.339 85.2835 211.619 84.8305 212.122 84.7479ZM212.123 86.3061C212.464 86.2199 212.599 85.9114 212.597 85.6794C212.599 85.4463 212.463 85.1414 212.123 85.054C211.794 84.9483 211.329 85.2434 211.345 85.6794C211.329 86.1142 211.793 86.4106 212.123 86.3061Z" fill="#676767"/>
<path d="M203.481 105.469C203.973 105.359 204.583 105.801 204.563 106.399C204.583 106.998 203.973 107.436 203.481 107.328C202.979 107.245 202.697 106.795 202.704 106.399C202.697 106.004 202.978 105.551 203.481 105.469ZM203.481 107.027C203.822 106.941 203.957 106.632 203.956 106.4C203.957 106.167 203.821 105.862 203.481 105.775C203.154 105.67 202.688 105.964 202.704 106.4C202.688 106.835 203.151 107.131 203.481 107.027Z" fill="#676767"/>
<path d="M194.856 105.469C195.348 105.359 195.958 105.801 195.938 106.399C195.958 106.998 195.348 107.436 194.856 107.328C194.354 107.245 194.072 106.795 194.079 106.399C194.072 106.004 194.353 105.551 194.856 105.469ZM194.856 107.027C195.197 106.941 195.332 106.632 195.331 106.4C195.332 106.167 195.196 105.862 194.856 105.775C194.529 105.67 194.063 105.964 194.079 106.4C194.063 106.835 194.528 107.131 194.856 107.027Z" fill="#676767"/>
<path d="M212.122 105.469C212.614 105.359 213.224 105.801 213.203 106.399C213.224 106.998 212.612 107.436 212.122 107.328C211.62 107.245 211.338 106.795 211.344 106.399C211.338 106.004 211.618 105.551 212.122 105.469ZM212.122 107.027C212.463 106.941 212.598 106.632 212.597 106.4C212.598 106.167 212.462 105.862 212.122 105.775C211.794 105.67 211.328 105.964 211.344 106.4C211.328 106.835 211.792 107.131 212.122 107.027Z" fill="#676767"/>
<path d="M203.481 128.347C203.973 128.238 204.583 128.68 204.563 129.277C204.583 129.876 203.972 130.315 203.481 130.206C202.979 130.124 202.697 129.673 202.704 129.277C202.697 128.883 202.978 128.43 203.481 128.347ZM203.481 129.905C203.822 129.819 203.957 129.511 203.956 129.279C203.957 129.045 203.821 128.74 203.481 128.653C203.154 128.547 202.688 128.841 202.704 129.277C202.688 129.713 203.151 130.01 203.481 129.905Z" fill="#676767"/>
<path d="M194.856 128.347C195.348 128.238 195.958 128.68 195.938 129.277C195.958 129.876 195.347 130.315 194.856 130.206C194.354 130.124 194.072 129.673 194.079 129.277C194.072 128.883 194.353 128.43 194.856 128.347ZM194.856 129.905C195.197 129.819 195.332 129.511 195.331 129.279C195.332 129.045 195.196 128.74 194.856 128.653C194.528 128.547 194.063 128.841 194.079 129.277C194.063 129.713 194.528 130.01 194.856 129.905Z" fill="#676767"/>
<path d="M212.122 128.347C212.614 128.238 213.224 128.68 213.203 129.277C213.224 129.876 212.612 130.315 212.122 130.206C211.62 130.124 211.338 129.673 211.344 129.277C211.338 128.883 211.618 128.43 212.122 128.347ZM212.122 129.905C212.463 129.819 212.598 129.511 212.597 129.279C212.598 129.045 212.462 128.74 212.122 128.653C211.794 128.547 211.328 128.841 211.344 129.277C211.328 129.713 211.792 130.01 212.122 129.905Z" fill="#676767"/>
<path d="M203.481 151.224C203.973 151.115 204.583 151.557 204.563 152.154C204.583 152.753 203.973 153.191 203.481 153.083C202.979 153.001 202.697 152.55 202.704 152.154C202.697 151.76 202.978 151.308 203.481 151.224ZM203.481 152.782C203.822 152.696 203.957 152.387 203.956 152.155C203.957 151.922 203.821 151.617 203.481 151.53C203.154 151.426 202.688 151.719 202.704 152.155C202.688 152.591 203.151 152.887 203.481 152.782Z" fill="#676767"/>
<path d="M194.856 151.224C195.348 151.115 195.958 151.557 195.938 152.154C195.958 152.753 195.348 153.191 194.856 153.083C194.354 153.001 194.072 152.55 194.079 152.154C194.072 151.76 194.353 151.308 194.856 151.224ZM194.856 152.782C195.197 152.696 195.332 152.387 195.331 152.155C195.332 151.922 195.196 151.617 194.856 151.53C194.529 151.426 194.063 151.719 194.079 152.155C194.063 152.591 194.528 152.887 194.856 152.782Z" fill="#676767"/>
<path d="M212.122 151.224C212.614 151.115 213.224 151.556 213.203 152.154C213.224 152.753 212.612 153.192 212.122 153.083C211.62 153.001 211.338 152.55 211.344 152.154C211.338 151.76 211.618 151.308 212.122 151.224ZM212.122 152.782C212.463 152.696 212.598 152.387 212.597 152.156C212.598 151.922 212.462 151.617 212.122 151.53C211.793 151.426 211.328 151.719 211.344 152.156C211.328 152.592 211.792 152.887 212.122 152.782Z" fill="#676767"/>
<path d="M203.481 174.103C203.973 173.994 204.583 174.436 204.563 175.033C204.583 175.632 203.972 176.07 203.481 175.962C202.979 175.88 202.697 175.429 202.704 175.033C202.697 174.638 202.978 174.187 203.481 174.103ZM203.481 175.661C203.822 175.575 203.957 175.266 203.956 175.034C203.957 174.801 203.821 174.496 203.481 174.409C203.154 174.303 202.688 174.597 202.704 175.033C202.688 175.469 203.151 175.766 203.481 175.661Z" fill="#676767"/>
<path d="M194.856 174.103C195.348 173.994 195.958 174.436 195.938 175.033C195.958 175.632 195.348 176.07 194.856 175.962C194.354 175.88 194.072 175.429 194.079 175.033C194.072 174.638 194.353 174.187 194.856 174.103ZM194.856 175.661C195.197 175.575 195.332 175.266 195.331 175.034C195.332 174.801 195.196 174.496 194.856 174.409C194.528 174.303 194.063 174.597 194.079 175.033C194.063 175.469 194.528 175.766 194.856 175.661Z" fill="#676767"/>
<path d="M212.122 174.103C212.614 173.994 213.224 174.434 213.203 175.033C213.224 175.632 212.612 176.07 212.122 175.962C211.62 175.88 211.338 175.429 211.344 175.033C211.338 174.638 211.618 174.187 212.122 174.103ZM212.122 175.661C212.463 175.575 212.598 175.266 212.597 175.034C212.598 174.801 212.462 174.496 212.122 174.409C211.794 174.303 211.328 174.597 211.344 175.033C211.328 175.469 211.792 175.766 212.122 175.661Z" fill="#676767"/>
<path d="M203.481 196.981C203.973 196.871 204.583 197.314 204.563 197.911C204.583 198.51 203.973 198.948 203.481 198.84C202.979 198.758 202.697 198.307 202.704 197.911C202.697 197.516 202.978 197.065 203.481 196.981ZM203.481 198.539C203.822 198.453 203.957 198.144 203.956 197.912C203.957 197.679 203.821 197.374 203.481 197.287C203.153 197.182 202.688 197.475 202.704 197.911C202.688 198.347 203.151 198.643 203.481 198.539Z" fill="#676767"/>
<path d="M194.856 196.981C195.348 196.871 195.958 197.314 195.938 197.911C195.958 198.51 195.348 198.948 194.856 198.84C194.354 198.758 194.072 198.307 194.079 197.911C194.072 197.516 194.353 197.065 194.856 196.981ZM194.856 198.539C195.197 198.453 195.332 198.144 195.331 197.912C195.332 197.679 195.196 197.374 194.856 197.287C194.528 197.182 194.063 197.475 194.079 197.911C194.063 198.347 194.528 198.643 194.856 198.539Z" fill="#676767"/>
<path d="M212.122 196.981C212.613 196.871 213.224 197.312 213.203 197.911C213.224 198.51 212.612 198.948 212.122 198.84C211.619 198.758 211.338 198.307 211.344 197.911C211.339 197.516 211.619 197.065 212.122 196.981ZM212.123 198.539C212.464 198.453 212.599 198.144 212.597 197.912C212.599 197.679 212.463 197.374 212.123 197.287C211.794 197.182 211.329 197.476 211.345 197.912C211.329 198.348 211.793 198.644 212.123 198.539Z" fill="#676767"/>
<path d="M203.481 219.859C203.973 219.75 204.583 220.192 204.563 220.79C204.583 221.388 203.973 221.827 203.481 221.719C202.979 221.636 202.697 221.185 202.704 220.79C202.697 220.395 202.978 219.943 203.481 219.859ZM203.481 221.417C203.822 221.331 203.957 221.023 203.956 220.791C203.957 220.558 203.821 220.253 203.481 220.165C203.154 220.06 202.688 220.355 202.704 220.791C202.688 221.227 203.151 221.522 203.481 221.417Z" fill="#676767"/>
<path d="M194.856 219.859C195.348 219.75 195.958 220.192 195.938 220.79C195.958 221.388 195.348 221.827 194.856 221.719C194.354 221.636 194.072 221.185 194.079 220.79C194.072 220.395 194.353 219.943 194.856 219.859ZM194.856 221.417C195.197 221.331 195.332 221.023 195.331 220.791C195.332 220.558 195.196 220.253 194.856 220.165C194.529 220.06 194.063 220.355 194.079 220.791C194.063 221.227 194.528 221.522 194.856 221.417Z" fill="#676767"/>
<path d="M212.122 219.859C212.614 219.75 213.224 220.192 213.203 220.79C213.224 221.388 212.612 221.827 212.122 221.719C211.62 221.636 211.338 221.185 211.344 220.79C211.338 220.395 211.618 219.943 212.122 219.859ZM212.122 221.417C212.463 221.331 212.598 221.023 212.597 220.791C212.598 220.558 212.462 220.253 212.122 220.165C211.794 220.06 211.328 220.355 211.344 220.791C211.328 221.227 211.792 221.522 212.122 221.417Z" fill="#676767"/>
<path d="M203.481 242.739C203.973 242.629 204.583 243.071 204.563 243.669C204.583 244.268 203.972 244.706 203.481 244.598C202.979 244.515 202.697 244.065 202.704 243.669C202.697 243.273 202.978 242.821 203.481 242.739ZM203.481 244.296C203.822 244.209 203.957 243.901 203.956 243.669C203.957 243.436 203.821 243.131 203.481 243.043C203.154 242.938 202.688 243.233 202.704 243.669C202.688 244.105 203.151 244.401 203.481 244.296Z" fill="#676767"/>
<path d="M194.856 242.739C195.348 242.629 195.958 243.071 195.938 243.669C195.958 244.268 195.347 244.706 194.856 244.598C194.354 244.515 194.072 244.065 194.079 243.669C194.072 243.273 194.353 242.821 194.856 242.739ZM194.856 244.296C195.197 244.209 195.332 243.901 195.331 243.669C195.332 243.436 195.196 243.131 194.856 243.043C194.528 242.938 194.063 243.233 194.079 243.669C194.063 244.105 194.528 244.401 194.856 244.296Z" fill="#676767"/>
<path d="M212.122 242.739C212.614 242.629 213.224 243.07 213.203 243.669C213.224 244.268 212.612 244.706 212.122 244.598C211.62 244.515 211.338 244.065 211.344 243.669C211.338 243.273 211.618 242.821 212.122 242.739ZM212.122 244.296C212.463 244.209 212.598 243.901 212.597 243.669C212.598 243.436 212.462 243.131 212.122 243.043C211.794 242.938 211.328 243.233 211.344 243.669C211.328 244.105 211.792 244.401 212.122 244.296Z" fill="#676767"/>
<path d="M208.594 77.4149C208.594 77.6724 208.802 77.8812 209.06 77.8812C209.317 77.8812 209.526 77.6724 209.526 77.4149C209.526 77.1574 209.317 76.9485 209.06 76.9485C208.802 76.9497 208.594 77.1574 208.594 77.4149Z" fill="#676767"/>
<path d="M206.742 80.0018C206.742 80.2593 206.951 80.4682 207.208 80.4682C207.465 80.4682 207.674 80.2593 207.674 80.0018C207.674 79.7443 207.465 79.5354 207.208 79.5354C206.951 79.5354 206.742 79.7443 206.742 80.0018Z" fill="#676767"/>
<path d="M203.031 80.0018C203.031 80.2593 203.24 80.4682 203.497 80.4682C203.755 80.4682 203.963 80.2593 203.963 80.0018C203.963 79.7443 203.755 79.5354 203.497 79.5354C203.24 79.5354 203.031 79.7443 203.031 80.0018Z" fill="#676767"/>
<path d="M199.32 80.0018C199.32 80.2593 199.529 80.4682 199.785 80.4682C200.042 80.4682 200.251 80.2593 200.251 80.0018C200.251 79.7443 200.042 79.5354 199.785 79.5354C199.528 79.5354 199.32 79.7443 199.32 80.0018Z" fill="#676767"/>
<path d="M204.883 77.4149C204.883 77.6724 205.092 77.8812 205.349 77.8812C205.606 77.8812 205.815 77.6724 205.815 77.4149C205.815 77.1574 205.606 76.9485 205.349 76.9485C205.092 76.9497 204.883 77.1574 204.883 77.4149Z" fill="#676767"/>
<path d="M201.172 77.4149C201.172 77.6724 201.381 77.8812 201.638 77.8812C201.895 77.8812 202.104 77.6724 202.104 77.4149C202.104 77.1574 201.895 76.9485 201.638 76.9485C201.381 76.9485 201.172 77.1574 201.172 77.4149Z" fill="#676767"/>
<path d="M197.469 77.4149C197.469 77.6724 197.677 77.8812 197.935 77.8812C198.192 77.8812 198.401 77.6724 198.401 77.4149C198.401 77.1574 198.192 76.9485 197.935 76.9485C197.676 76.9497 197.469 77.1574 197.469 77.4149Z" fill="#676767"/>
<path d="M206.734 94.255C206.734 94.5124 206.943 94.7213 207.2 94.7213C207.458 94.7213 207.666 94.5124 207.666 94.255C207.666 93.9975 207.458 93.7898 207.2 93.7898C206.943 93.7886 206.734 93.9975 206.734 94.255Z" fill="#676767"/>
<path d="M203.031 94.255C203.031 94.5124 203.24 94.7213 203.497 94.7213C203.755 94.7213 203.963 94.5124 203.963 94.255C203.963 93.9975 203.755 93.7898 203.497 93.7898C203.24 93.7886 203.031 93.9975 203.031 94.255Z" fill="#676767"/>
<path d="M199.32 94.255C199.32 94.5124 199.529 94.7213 199.785 94.7213C200.042 94.7213 200.251 94.5124 200.251 94.255C200.251 93.9975 200.042 93.7898 199.785 93.7898C199.528 93.7886 199.32 93.9975 199.32 94.255Z" fill="#676767"/>
<path d="M216.606 102.926H221.234V92.5133H216.606V102.926Z" fill="#8BC53F"/>
<path d="M125.803 250.017H98.0078V281.499H125.803V250.017Z" fill="#404040"/>
<path d="M123.982 281.499H99.7891V285.266H123.982V281.499Z" fill="#C53F8B"/>
<path d="M122.064 285.265H101.742V288.204H122.064V285.265Z" fill="#404040"/>
<path d="M128.715 297.491H95.0703V300.78H128.715V297.491Z" fill="#404040"/>
<path d="M126.998 297.49H96.7969C99.5833 291.98 105.303 288.203 111.893 288.203C118.483 288.203 124.201 291.98 126.998 297.49Z" fill="#C53F8B"/>
<path d="M138.147 268.613V132.086C138.147 132.086 133.158 140.585 132.124 144.753C130.371 151.814 127.797 176.756 124.256 184.968C123.193 187.436 117.948 202.964 111.224 209.411C102.343 217.927 91.4336 226.871 86.4458 231.954C79.6581 238.87 70.8984 245.34 70.8984 265.951L138.147 268.613Z" fill="#C53F8B"/>
<path opacity="0.1" d="M138.147 268.613V132.086C138.147 132.086 133.158 140.585 132.124 144.753C130.371 151.814 127.797 176.756 124.256 184.968C123.193 187.436 117.948 202.964 111.224 209.411C102.343 217.927 91.4336 226.871 86.4458 231.954C79.6581 238.87 70.8984 245.34 70.8984 265.951L138.147 268.613Z" fill="#0C1106"/>
<path opacity="0.1" d="M138.149 132.085V268.611L117.555 267.797L135.176 137.538C136.681 134.587 138.149 132.085 138.149 132.085Z" fill="#0C1106"/>
<path d="M189.158 281.499H216.953V250.017H189.158V281.499Z" fill="#404040"/>
<path d="M190.955 285.266H215.148V281.5H190.955V285.266Z" fill="#C53F8B"/>
<path d="M192.889 288.204H213.211V285.265H192.889V288.204Z" fill="#404040"/>
<path d="M186.215 300.779H219.859V297.49H186.215V300.779Z" fill="#404040"/>
<path d="M187.945 297.49H218.147C215.36 291.98 209.641 288.202 203.051 288.202C196.461 288.202 190.743 291.98 187.945 297.49Z" fill="#C53F8B"/>
<path d="M176.82 268.613V132.086C176.82 132.086 181.809 140.585 182.843 144.753C184.597 151.814 187.171 176.756 190.711 184.968C191.774 187.436 197.019 202.964 203.744 209.411C212.625 217.927 223.534 226.871 228.522 231.954C235.309 238.87 244.069 245.34 244.069 265.951L176.82 268.613Z" fill="#C53F8B"/>
<path opacity="0.1" d="M176.82 268.613V132.086C176.82 132.086 181.809 140.585 182.843 144.753C184.597 151.814 187.171 176.756 190.711 184.968C191.774 187.436 197.019 202.964 203.744 209.411C212.625 217.927 223.534 226.871 228.522 231.954C235.309 238.87 244.069 245.34 244.069 265.951L176.82 268.613Z" fill="#0C1106"/>
<path opacity="0.1" d="M176.82 132.085V268.611L197.415 267.797L179.794 137.538C178.289 134.587 176.82 132.085 176.82 132.085Z" fill="#0C1106"/>
<path opacity="0.6" d="M124.525 310.672C124.525 334.218 112.181 358.203 112.181 358.203C112.181 358.203 99.8359 334.218 99.8359 310.672C99.8359 307.304 100.469 303.951 101.466 300.78H122.897C123.892 303.951 124.525 307.304 124.525 310.672Z" fill="#C53F8B"/>
<path opacity="0.6" d="M120.3 304.933C120.3 323.858 112.181 343.145 112.181 343.145C112.181 343.145 104.062 323.858 104.062 304.933C104.062 303.544 104.168 302.154 104.365 300.78H119.999C120.195 302.153 120.3 303.544 120.3 304.933Z" fill="#C53F8B"/>
<path opacity="0.6" d="M215.408 310.672C215.408 334.218 203.063 358.203 203.063 358.203C203.063 358.203 190.719 334.218 190.719 310.672C190.719 307.304 191.352 303.951 192.349 300.78H213.779C214.775 303.951 215.408 307.304 215.408 310.672Z" fill="#C53F8B"/>
<path opacity="0.6" d="M211.183 304.933C211.183 323.858 203.064 343.145 203.064 343.145C203.064 343.145 194.945 323.858 194.945 304.933C194.945 303.544 195.051 302.154 195.247 300.78H210.882C211.078 302.153 211.183 303.544 211.183 304.933Z" fill="#C53F8B"/>
<path d="M181.277 125.363C181.277 135.019 181.277 231.958 181.277 231.958H133.648C133.648 231.958 133.648 135.019 133.648 125.363C133.648 115.698 135.255 106.924 141.536 92.4082C147.806 77.8812 150.816 71.7417 157.464 71.7417C164.112 71.7417 167.122 77.8812 173.391 92.4082C179.67 106.926 181.277 115.699 181.277 125.363Z" fill="#C53F8B"/>
<rect x="141.484" y="145.781" width="31.9498" height="32.8133" rx="15.9749" fill="white"/>
<path d="M160.109 151.938L158.987 154.314C158.91 154.477 158.727 154.562 158.552 154.516L155.885 153.826C155.725 153.784 155.557 153.851 155.471 153.99L152.487 158.781C152.452 158.837 152.38 158.858 152.321 158.828C152.271 158.804 152.243 158.751 152.251 158.696L153.238 151.834C153.258 151.698 153.351 151.584 153.48 151.536L157.198 150.179C157.296 150.143 157.406 150.15 157.499 150.198L159.941 151.449C160.12 151.541 160.194 151.757 160.109 151.938Z" fill="#8BC53F"/>
<path d="M168.611 159.101L165.978 159.325C165.798 159.34 165.632 159.226 165.584 159.052L164.853 156.414C164.809 156.256 164.667 156.145 164.502 156.14L158.831 155.971C158.764 155.969 158.71 155.917 158.706 155.851C158.703 155.796 158.736 155.745 158.787 155.725L165.268 153.143C165.396 153.092 165.542 153.115 165.648 153.202L168.69 155.719C168.771 155.786 168.82 155.884 168.825 155.988L168.954 158.713C168.964 158.913 168.812 159.084 168.611 159.101Z" fill="#8BC53F"/>
<path d="M146.296 164.906L148.93 164.682C149.11 164.667 149.276 164.782 149.324 164.955L150.055 167.593C150.099 167.751 150.241 167.862 150.406 167.867L156.077 168.036C156.143 168.038 156.197 168.09 156.201 168.156C156.205 168.211 156.172 168.262 156.121 168.282L149.64 170.864C149.512 170.916 149.366 170.893 149.26 170.805L146.217 168.288C146.137 168.221 146.088 168.123 146.083 168.019L145.953 165.295C145.944 165.095 146.095 164.923 146.296 164.906Z" fill="#8BC53F"/>
<path d="M165.41 169.491L163.898 167.339C163.794 167.191 163.812 166.991 163.939 166.864L165.875 164.916C165.991 164.799 166.016 164.622 165.938 164.477L163.25 159.517C163.219 159.459 163.237 159.387 163.293 159.35C163.339 159.32 163.399 159.322 163.443 159.356L168.936 163.637C169.045 163.721 169.098 163.858 169.074 163.993L168.4 167.868C168.382 167.971 168.321 168.061 168.232 168.118L165.92 169.591C165.751 169.7 165.525 169.655 165.41 169.491Z" fill="#8BC53F"/>
<path d="M149.498 154.516L151.01 156.669C151.113 156.816 151.096 157.016 150.969 157.144L149.033 159.091C148.917 159.208 148.891 159.386 148.969 159.53L151.657 164.49C151.689 164.548 151.67 164.621 151.615 164.657C151.569 164.687 151.508 164.685 151.465 164.651L145.972 160.37C145.863 160.286 145.81 160.149 145.834 160.014L146.508 156.139C146.526 156.036 146.587 155.946 146.675 155.889L148.987 154.416C149.157 154.308 149.383 154.352 149.498 154.516Z" fill="#8BC53F"/>
<path d="M154.456 172.438L155.578 170.062C155.655 169.899 155.837 169.814 156.012 169.859L158.68 170.55C158.839 170.591 159.007 170.525 159.094 170.385L162.077 165.594C162.112 165.538 162.185 165.518 162.244 165.547C162.293 165.572 162.322 165.625 162.314 165.679L161.326 172.542C161.307 172.678 161.214 172.792 161.084 172.839L157.367 174.196C157.268 174.233 157.159 174.226 157.065 174.178L154.624 172.927C154.444 172.835 154.37 172.619 154.456 172.438Z" fill="#8BC53F"/>
<g opacity="0.1">
<path d="M133.633 127.331C137.601 127.22 141.571 127.139 145.539 127.099L157.447 127.029L169.355 127.098C173.325 127.139 177.293 127.22 181.261 127.331C177.293 127.443 173.323 127.524 169.355 127.564L157.447 127.634L145.539 127.563C141.571 127.523 137.601 127.442 133.633 127.331Z" fill="#0C1106"/>
<path d="M133.633 162.746C137.601 162.634 141.571 162.554 145.539 162.514L157.447 162.443L169.355 162.512C173.325 162.554 177.293 162.634 181.261 162.746C177.293 162.857 173.323 162.939 169.355 162.979L157.447 163.049L145.539 162.979C141.571 162.937 137.601 162.857 133.633 162.746Z" fill="#0C1106"/>
<path d="M133.633 198.162C137.601 198.05 141.571 197.97 145.539 197.93L157.447 197.859L169.355 197.929C173.325 197.97 177.293 198.05 181.261 198.162C177.293 198.274 173.323 198.355 169.355 198.395L157.447 198.464L145.539 198.394C141.571 198.354 137.601 198.272 133.633 198.162Z" fill="#0C1106"/>
<path d="M136.661 130.068C136.68 130.479 136.335 130.884 135.883 130.922C135.423 130.984 134.95 130.571 134.953 130.068C134.948 129.565 135.423 129.151 135.883 129.213C136.335 129.252 136.68 129.658 136.661 130.068ZM136.661 130.068C136.663 129.647 136.261 129.305 135.883 129.366C135.511 129.406 135.24 129.739 135.257 130.068C135.24 130.397 135.51 130.731 135.883 130.771C136.261 130.831 136.663 130.49 136.661 130.068Z" fill="#0C1106"/>
<path d="M145.301 130.068C145.321 130.479 144.976 130.884 144.523 130.922C144.065 130.984 143.59 130.571 143.594 130.068C143.589 129.565 144.063 129.151 144.523 129.213C144.977 129.252 145.322 129.658 145.301 130.068ZM145.301 130.068C145.304 129.647 144.902 129.305 144.523 129.366C144.152 129.406 143.88 129.739 143.897 130.068C143.88 130.397 144.151 130.731 144.523 130.771C144.903 130.831 145.304 130.49 145.301 130.068Z" fill="#0C1106"/>
<path d="M171.176 130.068C171.196 130.479 170.851 130.884 170.398 130.922C169.94 130.984 169.465 130.571 169.469 130.068C169.464 129.565 169.938 129.151 170.398 129.213C170.852 129.252 171.196 129.658 171.176 130.068ZM171.176 130.068C171.179 129.647 170.777 129.305 170.398 129.366C170.027 129.406 169.755 129.739 169.772 130.068C169.755 130.397 170.026 130.731 170.398 130.771C170.777 130.831 171.179 130.49 171.176 130.068Z" fill="#0C1106"/>
<path d="M179.817 130.068C179.836 130.479 179.492 130.884 179.039 130.922C178.58 130.984 178.106 130.571 178.109 130.068C178.105 129.565 178.579 129.151 179.039 129.213C179.492 129.252 179.836 129.658 179.817 130.068ZM179.817 130.068C179.819 129.647 179.418 129.305 179.039 129.366C178.668 129.406 178.396 129.739 178.413 130.068C178.396 130.397 178.668 130.731 179.039 130.771C179.418 130.831 179.819 130.49 179.817 130.068Z" fill="#0C1106"/>
<path d="M136.661 165.994C136.68 166.405 136.335 166.811 135.883 166.848C135.424 166.91 134.95 166.497 134.953 165.994C134.948 165.492 135.423 165.078 135.883 165.139C136.335 165.178 136.68 165.584 136.661 165.994ZM136.661 165.994C136.663 165.573 136.261 165.232 135.883 165.292C135.511 165.333 135.24 165.665 135.257 165.994C135.24 166.324 135.51 166.658 135.883 166.698C136.261 166.757 136.663 166.416 136.661 165.994Z" fill="#0C1106"/>
<path d="M145.301 165.994C145.321 166.405 144.976 166.811 144.523 166.848C144.065 166.91 143.59 166.497 143.594 165.994C143.589 165.492 144.063 165.078 144.523 165.139C144.977 165.178 145.322 165.584 145.301 165.994ZM145.301 165.994C145.304 165.573 144.902 165.232 144.523 165.292C144.152 165.333 143.88 165.665 143.897 165.994C143.88 166.324 144.151 166.658 144.523 166.698C144.903 166.757 145.304 166.416 145.301 165.994Z" fill="#0C1106"/>
<path d="M171.176 165.994C171.196 166.405 170.851 166.811 170.398 166.848C169.94 166.91 169.465 166.497 169.469 165.994C169.464 165.492 169.938 165.078 170.398 165.139C170.852 165.178 171.196 165.584 171.176 165.994ZM171.176 165.994C171.179 165.573 170.777 165.232 170.398 165.292C170.027 165.333 169.755 165.665 169.772 165.994C169.755 166.324 170.027 166.658 170.398 166.698C170.777 166.757 171.179 166.416 171.176 165.994Z" fill="#0C1106"/>
<path d="M179.817 165.994C179.836 166.405 179.492 166.811 179.039 166.848C178.58 166.91 178.106 166.497 178.109 165.994C178.105 165.492 178.579 165.078 179.039 165.139C179.492 165.178 179.836 165.584 179.817 165.994ZM179.817 165.994C179.819 165.573 179.418 165.232 179.039 165.292C178.668 165.333 178.396 165.665 178.413 165.994C178.396 166.324 178.668 166.658 179.039 166.698C179.418 166.757 179.819 166.416 179.817 165.994Z" fill="#0C1106"/>
<path d="M136.661 201.918C136.68 202.328 136.335 202.734 135.883 202.772C135.424 202.834 134.95 202.421 134.953 201.918C134.948 201.415 135.423 201.001 135.883 201.063C136.335 201.102 136.68 201.507 136.661 201.918ZM136.661 201.918C136.663 201.496 136.261 201.155 135.883 201.216C135.511 201.256 135.24 201.589 135.257 201.918C135.24 202.247 135.51 202.581 135.883 202.621C136.261 202.681 136.663 202.339 136.661 201.918Z" fill="#0C1106"/>
<path d="M145.301 201.918C145.321 202.328 144.976 202.734 144.523 202.772C144.065 202.834 143.59 202.421 143.594 201.918C143.589 201.415 144.063 201.001 144.523 201.063C144.977 201.102 145.322 201.507 145.301 201.918ZM145.301 201.918C145.304 201.496 144.902 201.155 144.523 201.216C144.152 201.256 143.88 201.589 143.897 201.918C143.88 202.247 144.151 202.581 144.523 202.621C144.903 202.681 145.304 202.339 145.301 201.918Z" fill="#0C1106"/>
<path d="M171.176 201.918C171.196 202.328 170.851 202.734 170.398 202.772C169.94 202.834 169.465 202.421 169.469 201.918C169.464 201.415 169.938 201.001 170.398 201.063C170.852 201.102 171.196 201.507 171.176 201.918ZM171.176 201.918C171.179 201.496 170.777 201.155 170.398 201.216C170.027 201.256 169.755 201.589 169.772 201.918C169.755 202.247 170.027 202.581 170.398 202.621C170.777 202.681 171.179 202.339 171.176 201.918Z" fill="#0C1106"/>
<path d="M179.817 201.918C179.836 202.328 179.492 202.734 179.039 202.772C178.58 202.834 178.106 202.421 178.109 201.918C178.105 201.415 178.579 201.001 179.039 201.063C179.492 201.102 179.836 201.507 179.817 201.918ZM179.817 201.918C179.819 201.496 179.418 201.155 179.039 201.216C178.668 201.256 178.396 201.589 178.413 201.918C178.396 202.247 178.668 202.581 179.039 202.621C179.418 202.681 179.819 202.339 179.817 201.918Z" fill="#0C1106"/>
<path d="M157.456 127.332C157.586 144.814 157.553 162.296 157.608 179.778C157.555 197.26 157.587 214.742 157.456 232.224C157.325 214.742 157.358 197.26 157.305 179.778C157.359 162.296 157.327 144.814 157.456 127.332Z" fill="#0C1106"/>
</g>
<path opacity="0.2" d="M162.168 120.904H152.758V124.554H162.168V120.904Z" fill="#0C1106"/>
<path d="M149.434 107.147L151.288 111.583C148.791 112.726 147.045 114.091 147.045 114.091L144.945 110.062C144.945 110.062 146.66 108.503 149.434 107.147Z" fill="#404040"/>
<path d="M165.486 107.147L163.633 111.583C166.129 112.726 167.876 114.091 167.876 114.091L169.975 110.062C169.975 110.062 168.261 108.503 165.486 107.147Z" fill="#404040"/>
<path d="M163.54 106.304L161.654 110.808C160.325 110.362 158.9 110.062 157.453 110.062C156.007 110.062 154.582 110.362 153.253 110.808L151.367 106.304C153.146 105.636 155.213 105.152 157.453 105.152C159.692 105.152 161.76 105.636 163.54 106.304Z" fill="#404040"/>
<path d="M172.846 91.1308H142.094C147.997 77.5243 151.026 71.7432 157.47 71.7432C163.914 71.7419 166.943 77.5243 172.846 91.1308Z" fill="#C53F8B"/>
<path opacity="0.5" d="M172.846 91.1308H142.094C147.997 77.5243 151.026 71.7432 157.47 71.7432C163.914 71.7419 166.943 77.5243 172.846 91.1308Z" fill="white"/>
<path d="M161.167 86.9292H153.766V89.3449H161.167V86.9292Z" fill="#C53F8B"/>
<path d="M179.357 231.955H135.594V273.982H179.357V231.955Z" fill="#DBDBDB"/>
<path d="M179.358 235.336L135.594 237.43V231.955H179.358V235.336Z" fill="#C7C7C7"/>
<path d="M147.665 273.981H138.406V279.939H147.665V273.981Z" fill="#404040"/>
<path d="M148.682 285.586H137.398C137.398 282.468 139.925 279.939 143.04 279.939C146.156 279.939 148.682 282.469 148.682 285.586Z" fill="#DBDBDB"/>
<path d="M176.462 273.981H167.203V279.939H176.462V273.981Z" fill="#404040"/>
<path d="M177.479 285.585H166.195C166.195 282.468 168.722 279.939 171.837 279.939C174.953 279.939 177.479 282.469 177.479 285.585Z" fill="#DBDBDB"/>
<path d="M146.893 232.223C141.035 231.823 136.688 238.588 133.78 253.936C131.15 267.818 131.705 273.981 131.705 273.981H154.238C154.238 273.981 154.238 261.834 154.238 252.949C154.238 244.419 152.144 232.581 146.893 232.223Z" fill="#404040"/>
<path d="M168.056 232.223C173.914 231.823 178.261 238.588 181.168 253.936C183.798 267.818 183.244 273.981 183.244 273.981H160.711C160.711 273.981 160.711 261.834 160.711 252.949C160.71 244.419 162.804 232.581 168.056 232.223Z" fill="#404040"/>
<path d="M162.063 252.967C162.063 252.967 160.679 268.223 160.292 273.231C159.769 279.913 159.019 283.854 157.477 283.854C155.963 283.854 155.183 279.913 154.661 273.231C154.264 268.224 152.891 252.967 152.891 252.967L157.478 245.214L162.063 252.967Z" fill="#C7C7C7"/>
<path d="M197.953 403.13C228.877 397.977 309.408 381.149 332.267 369.934C459.059 308.831 519.62 97.1944 520.379 95.1733H622.462C621.701 97.1944 609.676 131.83 558.754 228.515C527.269 285.967 481.709 324.264 427.937 355.724C335.654 409.715 197.953 403.13 197.953 403.13Z" fill="#7BAF37"/>
<g opacity="0.1">
<path d="M197.953 403.13C228.877 397.977 309.408 381.149 332.267 369.934C459.059 308.831 519.62 97.1944 520.379 95.1733H622.462C621.701 97.1944 609.676 131.83 558.754 228.515C527.269 285.967 481.709 324.264 427.937 355.724C335.654 409.715 197.953 403.13 197.953 403.13Z" fill="black"/>
</g>
<path d="M496.647 84.5659L520.365 95.1732C519.718 96.8929 488.118 259.718 391.417 337.876C323.582 392.703 280.185 405.58 132.797 403.353V384.731C215.972 384.731 275.302 372.057 329.435 343.815C451.593 280.084 496.466 85.0436 496.647 84.5659Z" fill="#8BC53F"/>
<path d="M496.648 84.5659H606.676L622.449 95.1732H520.366L496.648 84.5659Z" fill="#7BAF37"/>
<path d="M580.454 16.3975L651.998 106.859L483.391 106.407L580.454 16.3975Z" fill="#7BAF37"/>
<g opacity="0.1">
<path d="M580.454 16.3975L651.998 106.859L483.391 106.407L580.454 16.3975Z" fill="black"/>
</g>
<path d="M483.381 106.408L458.859 95.1726L555.923 5.16357L580.444 16.3979L483.381 106.408Z" fill="#7EB439"/>
</svg>
