<svg width="660" height="411" viewBox="0 0 660 411" fill="none" xmlns="http://www.w3.org/2000/svg">
<path fill-rule="evenodd" clip-rule="evenodd" d="M138.348 26.8418H532.544C539.34 26.8418 544.849 32.3388 544.85 39.1209V316.981C544.85 323.762 539.341 329.26 532.546 329.26H385.874H289.64H138.348C131.551 329.26 126.043 323.762 126.043 316.98V39.1209C126.043 32.3388 131.552 26.8418 138.348 26.8418Z" fill="#676767"/>
<path d="M289.64 329.26C289.64 329.26 299.264 366.413 269.431 381.779H410.897C410.897 381.779 377.214 362.801 385.874 329.26H289.64Z" fill="#404040"/>
<path d="M130.625 43.1641C130.625 36.5366 135.998 31.1641 142.625 31.1641H528.31C534.937 31.1641 540.31 36.5366 540.31 43.1641V264.288C540.31 270.915 534.937 276.288 528.31 276.288H142.625C135.998 276.288 130.625 270.915 130.625 264.288V43.1641Z" fill="#EFEFEF"/>
<path d="M174.994 76.2039H163.66V133.679H174.994V76.2039Z" fill="#C53F8B"/>
<path d="M194.474 85.7557H183.141V133.679H194.474V85.7557Z" fill="#C53F8B"/>
<path d="M213.951 103.177H202.617V133.679H213.951V103.177Z" fill="#C53F8B"/>
<path d="M233.435 84.9178H222.102V133.679H233.435V84.9178Z" fill="#C53F8B"/>
<path d="M252.912 92.9246H241.578V133.677H252.912V92.9246Z" fill="#C53F8B"/>
<path d="M272.392 68.1922H261.059V133.679H272.392V68.1922Z" fill="#C53F8B"/>
<path d="M157.089 64.2029L157.221 81.572L157.285 98.941L157.375 133.679L157.089 133.393C184.618 133.311 212.148 133.428 239.677 133.449L262.641 133.511L283.006 133.679L262.641 133.847L239.677 133.911C212.148 133.931 184.618 134.048 157.089 133.966L156.801 133.965L156.802 133.679L156.892 98.941L156.957 81.572L157.089 64.2029Z" fill="white"/>
<path d="M154.59 68.192C155.423 67.9423 156.257 67.8838 157.09 67.871C157.923 67.8819 158.757 67.9405 159.59 68.192C158.757 68.4435 157.923 68.5021 157.09 68.5131C156.256 68.5003 155.423 68.4417 154.59 68.192Z" fill="white"/>
<path d="M154.59 75.0875C155.423 74.8378 156.257 74.7792 157.09 74.7664C157.923 74.7783 158.757 74.8359 159.59 75.0875C158.757 75.339 157.923 75.3966 157.09 75.4085C156.256 75.3957 155.423 75.3372 154.59 75.0875Z" fill="white"/>
<path d="M154.59 81.981C155.423 81.7313 156.257 81.6728 157.09 81.66C157.923 81.6709 158.757 81.7295 159.59 81.981C158.757 82.2325 157.923 82.2911 157.09 82.302C156.256 82.2892 155.423 82.2307 154.59 81.981Z" fill="white"/>
<path d="M154.59 88.8767C155.423 88.627 156.257 88.5685 157.09 88.5557C157.923 88.5676 158.757 88.6252 159.59 88.8767C158.757 89.1282 157.923 89.1859 157.09 89.1978C156.256 89.1849 155.423 89.1264 154.59 88.8767Z" fill="white"/>
<path d="M154.59 95.7711C155.423 95.5214 156.257 95.4629 157.09 95.4501C157.923 95.461 158.757 95.5196 159.59 95.7711C158.757 96.0226 157.923 96.0803 157.09 96.0921C156.256 96.0793 155.423 96.0208 154.59 95.7711Z" fill="white"/>
<path d="M154.59 102.666C155.423 102.416 156.257 102.357 157.09 102.344C157.923 102.356 158.757 102.414 159.59 102.666C158.757 102.917 157.923 102.975 157.09 102.987C156.256 102.974 155.423 102.915 154.59 102.666Z" fill="white"/>
<path d="M154.59 109.561C155.423 109.311 156.257 109.253 157.09 109.24C157.923 109.251 158.757 109.31 159.59 109.561C158.757 109.813 157.923 109.871 157.09 109.882C156.256 109.869 155.423 109.812 154.59 109.561Z" fill="white"/>
<path d="M154.59 116.455C155.423 116.205 156.257 116.146 157.09 116.134C157.923 116.145 158.757 116.203 159.59 116.455C158.757 116.706 157.923 116.765 157.09 116.776C156.256 116.763 155.423 116.704 154.59 116.455Z" fill="white"/>
<path d="M154.59 123.349C155.423 123.099 156.257 123.041 157.09 123.028C157.923 123.039 158.757 123.098 159.59 123.349C158.757 123.601 157.923 123.659 157.09 123.67C156.256 123.657 155.423 123.6 154.59 123.349Z" fill="white"/>
<path d="M348.505 64.7733H301.562V133.993H348.505V64.7733Z" fill="white"/>
<path d="M339.151 85.9102C339.151 93.6919 332.83 100 325.033 100C317.235 100 310.914 93.6919 310.914 85.9102C310.914 78.1284 317.235 71.8201 325.033 71.8201C330.275 71.8201 334.849 74.6711 337.286 78.9049C338.472 80.9693 339.151 83.3602 339.151 85.9102Z" fill="#EFEFEF"/>
<path d="M337.288 78.9049L325.035 85.9102V71.8201C330.277 71.821 334.851 74.6711 337.288 78.9049Z" fill="#C53F8B"/>
<path d="M318.498 106.321L317.592 106.851C317.564 106.869 317.519 106.887 317.482 106.887C317.399 106.887 317.326 106.841 317.289 106.777C317.225 106.658 317.262 106.53 317.372 106.476L318.608 105.726C318.709 105.672 318.856 105.708 318.911 105.809C318.938 105.864 318.947 105.919 318.938 105.973V111.852C318.938 111.971 318.847 112.071 318.718 112.071C318.599 112.071 318.498 111.971 318.498 111.852V106.321Z" fill="#A6A6A6"/>
<path d="M320.666 111.44C320.575 111.349 320.575 111.203 320.666 111.12C320.758 111.029 320.905 111.029 320.996 111.12C321.335 111.45 321.765 111.614 322.205 111.614C322.644 111.614 323.075 111.45 323.414 111.111C323.753 110.773 323.918 110.343 323.918 109.905C323.918 109.457 323.753 109.018 323.424 108.689C323.094 108.36 322.655 108.195 322.215 108.195C321.766 108.195 321.336 108.36 320.997 108.698C320.906 108.79 320.759 108.79 320.676 108.698C320.649 108.68 320.631 108.653 320.622 108.625V108.616C320.612 108.607 320.612 108.598 320.612 108.589C320.603 108.57 320.603 108.543 320.603 108.515C320.603 108.506 320.612 108.488 320.612 108.47L320.924 105.892C320.924 105.819 320.961 105.764 321.016 105.728C321.052 105.691 321.107 105.673 321.162 105.673H324.148C324.277 105.673 324.377 105.773 324.377 105.901C324.377 106.039 324.277 106.13 324.148 106.13H321.355L321.126 108.032C321.456 107.839 321.831 107.739 322.215 107.739C322.774 107.739 323.324 107.94 323.745 108.369C324.176 108.79 324.377 109.339 324.377 109.905C324.377 110.453 324.176 111.02 323.745 111.44C323.324 111.852 322.756 112.071 322.206 112.071C321.646 112.071 321.087 111.861 320.666 111.44Z" fill="#A6A6A6"/>
<path d="M326.07 107.253V107.235C326.07 106.376 326.639 105.598 327.49 105.598C328.333 105.598 328.891 106.376 328.891 107.216V107.235C328.891 108.094 328.323 108.871 327.472 108.871C326.628 108.871 326.07 108.104 326.07 107.253ZM328.415 107.253V107.235C328.415 106.521 327.984 105.992 327.471 105.992C326.931 105.992 326.546 106.55 326.546 107.216V107.235C326.546 107.957 326.977 108.478 327.489 108.478C328.03 108.479 328.415 107.939 328.415 107.253ZM326.94 111.797L331.402 105.737C331.448 105.673 331.503 105.636 331.575 105.636C331.685 105.636 331.777 105.718 331.777 105.828C331.777 105.874 331.767 105.91 331.74 105.947L327.279 112.007C327.233 112.071 327.178 112.108 327.105 112.108C326.995 112.108 326.903 112.026 326.903 111.916C326.903 111.87 326.913 111.834 326.94 111.797ZM329.789 110.526V110.507C329.789 109.648 330.357 108.871 331.208 108.871C332.051 108.871 332.61 109.648 332.61 110.489V110.507C332.61 111.366 332.041 112.144 331.19 112.144C330.348 112.145 329.789 111.376 329.789 110.526ZM332.134 110.526V110.507C332.134 109.794 331.703 109.264 331.191 109.264C330.65 109.264 330.265 109.822 330.265 110.489V110.507C330.265 111.229 330.696 111.75 331.209 111.75C331.749 111.751 332.134 111.212 332.134 110.526Z" fill="#A6A6A6"/>
<path d="M336.657 116.327H313.418V117.814H336.657V116.327Z" fill="#A6A6A6"/>
<path d="M340.546 119.462H309.523V120.949H340.546V119.462Z" fill="#EBEBEB"/>
<path d="M340.546 122.284H309.523V123.771H340.546V122.284Z" fill="#EBEBEB"/>
<path d="M340.546 125.105H309.523V126.592H340.546V125.105Z" fill="#EBEBEB"/>
<path d="M402.649 64.7733H355.707V133.993H402.649V64.7733Z" fill="white"/>
<path d="M393.293 85.9081C393.293 86.6087 393.24 87.2993 393.137 87.9725C392.142 94.7746 386.268 99.9982 379.174 99.9982C371.377 99.9982 365.055 93.689 365.055 85.909C365.055 78.1282 371.377 71.8199 379.174 71.8199C384.413 71.8199 388.986 74.669 391.427 78.9047C392.614 80.9672 393.293 83.3599 393.293 85.9081Z" fill="#EFEFEF"/>
<path d="M393.295 85.9083C393.295 86.6089 393.243 87.2995 393.139 87.9726L379.176 85.9083V71.8192C384.415 71.8192 388.988 74.6683 391.429 78.904C392.617 80.9674 393.295 83.3601 393.295 85.9083Z" fill="#C53F8B"/>
<path d="M370.421 111.679L373.417 108.983C373.775 108.654 373.967 108.215 373.967 107.758C373.967 107.365 373.821 106.972 373.537 106.661C373.215 106.304 372.767 106.122 372.318 106.122C371.914 106.122 371.521 106.259 371.2 106.543L370.889 106.826C370.797 106.918 370.65 106.908 370.577 106.817C370.485 106.726 370.495 106.579 370.586 106.507L370.898 106.214C371.3 105.858 371.814 105.675 372.318 105.675C372.877 105.675 373.444 105.894 373.857 106.361C374.232 106.763 374.407 107.265 374.407 107.759C374.407 108.326 374.178 108.892 373.72 109.313L371.155 111.626H374.187C374.306 111.626 374.407 111.727 374.407 111.855C374.407 111.974 374.306 112.074 374.187 112.074H370.616H370.579C370.515 112.074 370.451 112.056 370.414 112.01C370.33 111.908 370.33 111.771 370.421 111.679Z" fill="#A6A6A6"/>
<path d="M375.971 111.441C375.879 111.35 375.879 111.204 375.971 111.121C376.064 111.03 376.209 111.03 376.301 111.121C376.639 111.451 377.07 111.615 377.51 111.615C377.949 111.615 378.38 111.451 378.718 111.112C379.057 110.774 379.222 110.344 379.222 109.906C379.222 109.458 379.057 109.018 378.728 108.69C378.398 108.361 377.958 108.196 377.519 108.196C377.07 108.196 376.639 108.361 376.301 108.699C376.208 108.791 376.063 108.791 375.979 108.699C375.953 108.681 375.934 108.654 375.924 108.626V108.617C375.915 108.608 375.915 108.599 375.915 108.59C375.906 108.571 375.906 108.544 375.906 108.516C375.906 108.507 375.915 108.489 375.915 108.471L376.227 105.893C376.227 105.82 376.263 105.765 376.318 105.729C376.355 105.692 376.41 105.674 376.465 105.674H379.451C379.58 105.674 379.68 105.774 379.68 105.902C379.68 106.04 379.58 106.131 379.451 106.131H376.658L376.428 108.033C376.757 107.84 377.134 107.74 377.519 107.74C378.077 107.74 378.627 107.941 379.049 108.37C379.48 108.791 379.681 109.34 379.681 109.906C379.681 110.454 379.48 111.021 379.049 111.441C378.627 111.853 378.06 112.072 377.51 112.072C376.952 112.072 376.393 111.862 375.971 111.441Z" fill="#A6A6A6"/>
<path fill-rule="evenodd" clip-rule="evenodd" d="M386.709 105.738L382.249 111.798C382.221 111.835 382.212 111.871 382.212 111.917C382.212 112.027 382.304 112.109 382.414 112.109C382.487 112.109 382.541 112.072 382.588 112.008L387.049 105.948C387.075 105.911 387.085 105.875 387.085 105.829C387.085 105.719 386.993 105.637 386.884 105.637C386.81 105.637 386.755 105.674 386.709 105.738ZM385.097 110.508V110.527C385.097 111.377 385.656 112.146 386.499 112.145C387.35 112.145 387.918 111.367 387.918 110.508V110.49C387.918 109.649 387.36 108.872 386.517 108.872C385.665 108.872 385.097 109.649 385.097 110.508ZM387.443 110.508V110.527C387.443 111.213 387.058 111.752 386.517 111.751C386.005 111.751 385.574 111.23 385.574 110.508V110.49C385.574 109.823 385.959 109.265 386.499 109.265C387.012 109.265 387.443 109.795 387.443 110.508Z" fill="#A6A6A6"/>
<path fill-rule="evenodd" clip-rule="evenodd" d="M381.379 107.254V107.236C381.379 106.377 381.946 105.599 382.799 105.599C383.642 105.599 384.2 106.377 384.2 107.217V107.236C384.2 108.095 383.632 108.872 382.78 108.872C381.937 108.872 381.379 108.105 381.379 107.254ZM383.723 107.236V107.254C383.723 107.94 383.338 108.48 382.798 108.479C382.285 108.479 381.855 107.958 381.855 107.236V107.217C381.855 106.551 382.24 105.993 382.78 105.993C383.293 105.993 383.723 106.522 383.723 107.236Z" fill="#A6A6A6"/>
<path d="M390.806 116.327H367.566V117.814H390.806V116.327Z" fill="#A6A6A6"/>
<path d="M394.694 119.462H363.672V120.949H394.694V119.462Z" fill="#EBEBEB"/>
<path d="M394.694 122.284H363.672V123.771H394.694V122.284Z" fill="#EBEBEB"/>
<path d="M394.694 125.105H363.672V126.592H394.694V125.105Z" fill="#EBEBEB"/>
<path d="M456.794 64.7733H409.852V133.993H456.794V64.7733Z" fill="white"/>
<path d="M447.451 85.9112C447.451 91.9103 443.691 97.0387 438.392 99.0655C436.818 99.6719 435.114 100.001 433.333 100.001C425.536 100.001 419.215 93.692 419.215 85.9112C419.215 78.1303 425.537 71.8211 433.333 71.8211C438.576 71.8211 443.151 74.6702 445.586 78.9059C446.772 80.9703 447.451 83.363 447.451 85.9112Z" fill="#EFEFEF"/>
<path d="M447.45 85.9112C447.45 91.9103 443.691 97.0387 438.391 99.0655L433.332 85.9112V71.8211C438.575 71.8211 443.15 74.6702 445.585 78.9059C446.771 80.9703 447.45 83.363 447.45 85.9112Z" fill="#C53F8B"/>
<path d="M427.91 110.756H424.439H424.429H424.411C424.365 110.756 424.311 110.747 424.275 110.71C424.174 110.637 424.165 110.491 424.247 110.399L427.957 105.792L427.966 105.783C428.049 105.682 428.176 105.673 428.278 105.756C428.315 105.783 428.333 105.829 428.351 105.865C428.351 105.884 428.36 105.893 428.36 105.902V105.929V110.317H428.791C428.92 110.317 429.02 110.418 429.02 110.536C429.02 110.655 428.92 110.756 428.791 110.756H428.36V111.854C428.36 111.972 428.261 112.073 428.131 112.073C428.012 112.073 427.912 111.972 427.912 111.854V110.756H427.91ZM427.91 110.317V106.569L424.878 110.317H427.91Z" fill="#A6A6A6"/>
<path d="M430.459 111.441C430.368 111.35 430.368 111.204 430.459 111.121C430.551 111.03 430.698 111.03 430.789 111.121C431.127 111.451 431.558 111.615 431.998 111.615C432.438 111.615 432.868 111.451 433.206 111.112C433.545 110.774 433.71 110.344 433.71 109.906C433.71 109.458 433.545 109.018 433.216 108.69C432.886 108.361 432.446 108.196 432.007 108.196C431.558 108.196 431.127 108.361 430.789 108.699C430.697 108.791 430.55 108.791 430.468 108.699C430.441 108.681 430.422 108.654 430.413 108.626V108.617C430.403 108.608 430.403 108.599 430.403 108.59C430.394 108.571 430.394 108.544 430.394 108.516C430.394 108.507 430.403 108.489 430.403 108.471L430.715 105.893C430.715 105.82 430.752 105.765 430.807 105.729C430.843 105.692 430.898 105.674 430.953 105.674H433.939C434.068 105.674 434.169 105.774 434.169 105.902C434.169 106.04 434.068 106.131 433.939 106.131H431.146L430.917 108.033C431.246 107.84 431.622 107.74 432.007 107.74C432.566 107.74 433.115 107.941 433.537 108.37C433.968 108.791 434.169 109.34 434.169 109.906C434.169 110.454 433.968 111.021 433.537 111.441C433.115 111.853 432.548 112.072 431.998 112.072C431.439 112.072 430.881 111.862 430.459 111.441Z" fill="#A6A6A6"/>
<path d="M435.863 107.254V107.236C435.863 106.377 436.432 105.599 437.283 105.599C438.126 105.599 438.684 106.377 438.684 107.217V107.236C438.684 108.095 438.117 108.872 437.265 108.872C436.421 108.872 435.863 108.105 435.863 107.254ZM438.209 107.254V107.236C438.209 106.522 437.778 105.993 437.266 105.993C436.725 105.993 436.34 106.551 436.34 107.217V107.236C436.34 107.958 436.771 108.479 437.283 108.479C437.824 108.48 438.209 107.94 438.209 107.254ZM436.733 111.798L441.195 105.738C441.24 105.674 441.295 105.637 441.368 105.637C441.478 105.637 441.57 105.719 441.57 105.829C441.57 105.875 441.56 105.911 441.533 105.948L437.072 112.008C437.026 112.072 436.971 112.109 436.899 112.109C436.789 112.109 436.696 112.027 436.696 111.917C436.696 111.871 436.706 111.835 436.733 111.798ZM439.583 110.527V110.508C439.583 109.649 440.151 108.872 441.003 108.872C441.845 108.872 442.404 109.649 442.404 110.49V110.508C442.404 111.367 441.836 112.145 440.984 112.145C440.142 112.146 439.583 111.377 439.583 110.527ZM441.927 110.527V110.508C441.927 109.795 441.496 109.265 440.984 109.265C440.443 109.265 440.058 109.823 440.058 110.49V110.508C440.058 111.23 440.489 111.751 441.002 111.751C441.542 111.752 441.927 111.213 441.927 110.527Z" fill="#A6A6A6"/>
<path d="M444.942 116.327H421.703V117.814H444.942V116.327Z" fill="#A6A6A6"/>
<path d="M448.831 119.462H417.809V120.949H448.831V119.462Z" fill="#EBEBEB"/>
<path d="M448.831 122.284H417.809V123.771H448.831V122.284Z" fill="#EBEBEB"/>
<path d="M448.831 125.104H417.809V126.591H448.831V125.104Z" fill="#EBEBEB"/>
<path d="M510.942 64.7733H464V133.993H510.942V64.7733Z" fill="white"/>
<path d="M501.636 85.9111C501.636 88.9157 500.696 91.7026 499.094 93.9901C496.537 97.6496 492.284 100.046 487.473 100.046C483.966 100.046 480.753 98.7719 478.281 96.66C475.237 94.0706 473.309 90.2172 473.309 85.912C473.309 78.1065 479.651 71.7772 487.473 71.7772C492.728 71.7772 497.317 74.6354 499.765 78.8848C500.955 80.9547 501.636 83.3547 501.636 85.9111Z" fill="#EFEFEF"/>
<path d="M501.637 85.9111C501.637 88.9157 500.697 91.7026 499.095 93.9901C496.537 97.6496 492.285 100.046 487.473 100.046C483.966 100.046 480.753 98.7719 478.281 96.66L487.473 85.912V71.7772C492.728 71.7772 497.317 74.6354 499.765 78.8848C500.956 80.9547 501.637 83.3547 501.637 85.9111Z" fill="#C53F8B"/>
<path d="M478.791 111.441C478.7 111.35 478.7 111.204 478.791 111.121C478.883 111.03 479.03 111.03 479.121 111.121C479.46 111.45 479.89 111.615 480.33 111.615C480.769 111.615 481.2 111.45 481.538 111.112C481.877 110.774 482.042 110.344 482.042 109.906C482.042 109.457 481.877 109.018 481.548 108.69C481.218 108.361 480.778 108.196 480.339 108.196C479.89 108.196 479.46 108.361 479.121 108.699C479.029 108.791 478.882 108.791 478.8 108.699C478.773 108.681 478.754 108.653 478.745 108.626V108.617C478.736 108.608 478.736 108.599 478.736 108.589C478.726 108.571 478.726 108.544 478.726 108.516C478.726 108.507 478.736 108.489 478.736 108.471L479.047 105.893C479.047 105.82 479.084 105.765 479.139 105.728C479.175 105.692 479.23 105.674 479.285 105.674H482.271C482.4 105.674 482.501 105.774 482.501 105.902C482.501 106.039 482.4 106.131 482.271 106.131H479.478L479.249 108.032C479.578 107.84 479.954 107.74 480.339 107.74C480.898 107.74 481.448 107.941 481.869 108.37C482.3 108.791 482.502 109.339 482.502 109.906C482.502 110.454 482.3 111.021 481.869 111.441C481.448 111.853 480.88 112.071 480.33 112.071C479.771 112.072 479.213 111.862 478.791 111.441Z" fill="#A6A6A6"/>
<path d="M484.338 111.441C484.247 111.35 484.247 111.204 484.338 111.121C484.43 111.03 484.577 111.03 484.668 111.121C485.006 111.451 485.437 111.615 485.877 111.615C486.316 111.615 486.747 111.451 487.085 111.112C487.424 110.774 487.589 110.344 487.589 109.906C487.589 109.458 487.424 109.018 487.095 108.69C486.765 108.361 486.325 108.196 485.886 108.196C485.437 108.196 485.006 108.361 484.668 108.699C484.576 108.791 484.429 108.791 484.347 108.699C484.32 108.681 484.301 108.654 484.292 108.626V108.617C484.282 108.608 484.282 108.599 484.282 108.59C484.273 108.571 484.273 108.544 484.273 108.516C484.273 108.507 484.282 108.489 484.282 108.471L484.594 105.893C484.594 105.82 484.631 105.765 484.686 105.729C484.722 105.692 484.777 105.674 484.832 105.674H487.818C487.947 105.674 488.047 105.774 488.047 105.902C488.047 106.04 487.947 106.131 487.818 106.131H485.025L484.796 108.033C485.125 107.84 485.5 107.74 485.885 107.74C486.444 107.74 486.993 107.941 487.415 108.37C487.846 108.791 488.047 109.34 488.047 109.906C488.047 110.454 487.845 111.021 487.415 111.441C486.993 111.853 486.426 112.072 485.876 112.072C485.318 112.072 484.76 111.862 484.338 111.441Z" fill="#A6A6A6"/>
<path d="M489.742 107.254V107.236C489.742 106.377 490.31 105.599 491.162 105.599C492.005 105.599 492.563 106.377 492.563 107.217V107.236C492.563 108.095 491.996 108.872 491.144 108.872C490.301 108.872 489.742 108.105 489.742 107.254ZM492.088 107.254V107.236C492.088 106.522 491.657 105.993 491.144 105.993C490.604 105.993 490.219 106.551 490.219 107.217V107.236C490.219 107.958 490.65 108.479 491.162 108.479C491.703 108.48 492.088 107.94 492.088 107.254ZM490.612 111.798L495.074 105.738C495.119 105.674 495.174 105.637 495.248 105.637C495.358 105.637 495.449 105.719 495.449 105.829C495.449 105.875 495.44 105.911 495.413 105.948L490.952 112.008C490.906 112.072 490.851 112.109 490.778 112.109C490.668 112.109 490.575 112.027 490.575 111.917C490.575 111.871 490.585 111.835 490.612 111.798ZM493.461 110.527V110.508C493.461 109.649 494.03 108.872 494.882 108.872C495.724 108.872 496.282 109.649 496.282 110.49V110.508C496.282 111.367 495.715 112.145 494.863 112.145C494.02 112.146 493.461 111.377 493.461 110.527ZM495.807 110.527V110.508C495.807 109.795 495.376 109.265 494.864 109.265C494.323 109.265 493.938 109.823 493.938 110.49V110.508C493.938 111.23 494.369 111.751 494.882 111.751C495.421 111.752 495.807 111.213 495.807 110.527Z" fill="#A6A6A6"/>
<path d="M499.091 116.327H475.852V117.814H499.091V116.327Z" fill="#A6A6A6"/>
<path d="M502.979 119.462H471.957V120.949H502.979V119.462Z" fill="#EBEBEB"/>
<path d="M502.979 122.284H471.957V123.771H502.979V122.284Z" fill="#EBEBEB"/>
<path d="M502.979 125.105H471.957V126.592H502.979V125.105Z" fill="#EBEBEB"/>
<path d="M287.604 31.4842L287.772 59.5289L287.833 87.5746L287.948 143.664L287.834 199.754L287.773 227.799L287.604 255.844L287.437 227.799L287.376 199.754L287.262 143.664L287.377 87.5746L287.438 59.5289L287.604 31.4842Z" fill="#A6A6A6"/>
<path d="M521.693 143.664L475.251 143.831L428.811 143.892L335.93 144.006L243.049 143.892L196.609 143.833L150.168 143.664L196.609 143.496L243.049 143.436L335.93 143.322L428.811 143.436L475.251 143.498L521.693 143.664Z" fill="#A6A6A6"/>
<path d="M302.547 173.215C337.708 173.041 371.104 173.085 406.266 173.013C441.427 173.085 475.784 173.041 510.945 173.215C475.784 173.389 441.427 173.345 406.266 173.416C371.105 173.345 337.709 173.388 302.547 173.215Z" fill="white"/>
<path d="M302.547 189.76C337.708 189.587 371.104 189.632 406.266 189.558C441.427 189.63 475.784 189.586 510.945 189.76C475.784 189.935 441.427 189.891 406.266 189.962C371.105 189.89 337.709 189.934 302.547 189.76Z" fill="white"/>
<path d="M302.547 206.306C337.708 206.133 371.104 206.177 406.266 206.105C441.427 206.177 475.784 206.133 510.945 206.306C475.784 206.481 441.427 206.437 406.266 206.509C371.105 206.436 337.709 206.48 302.547 206.306Z" fill="white"/>
<path d="M302.547 222.854C337.708 222.68 371.104 222.725 406.266 222.652C441.427 222.723 475.784 222.68 510.945 222.854C475.784 223.029 441.427 222.985 406.266 223.056C371.105 222.983 337.709 223.027 302.547 222.854Z" fill="white"/>
<path d="M302.547 239.4C337.708 239.226 371.104 239.27 406.266 239.198C441.427 239.269 475.784 239.225 510.945 239.4C475.784 239.574 441.427 239.531 406.266 239.602C371.105 239.53 337.709 239.574 302.547 239.4Z" fill="white"/>
<path d="M322.531 162.457C322.705 177.918 322.661 193.378 322.732 208.838C322.661 224.298 322.705 239.76 322.531 255.22C322.356 239.76 322.4 224.298 322.328 208.838C322.401 193.378 322.357 177.917 322.531 162.457Z" fill="white"/>
<path d="M340.55 162.457C340.724 177.918 340.679 193.378 340.752 208.838C340.68 224.298 340.724 239.76 340.55 255.22C340.375 239.76 340.419 224.298 340.348 208.838C340.42 193.378 340.376 177.917 340.55 162.457Z" fill="white"/>
<path d="M358.562 162.457C358.736 177.918 358.691 193.378 358.764 208.838C358.692 224.298 358.736 239.76 358.562 255.22C358.387 239.76 358.431 224.298 358.359 208.838C358.432 193.378 358.388 177.917 358.562 162.457Z" fill="white"/>
<path d="M376.578 162.457C376.752 177.918 376.707 193.378 376.779 208.838C376.708 224.298 376.752 239.76 376.578 255.22C376.403 239.76 376.446 224.298 376.375 208.838C376.447 193.378 376.403 177.917 376.578 162.457Z" fill="white"/>
<path d="M394.589 162.457C394.763 177.918 394.719 193.378 394.792 208.838C394.72 224.298 394.764 239.76 394.589 255.22C394.414 239.76 394.458 224.298 394.387 208.838C394.459 193.378 394.415 177.917 394.589 162.457Z" fill="white"/>
<path d="M412.601 162.457C412.775 177.918 412.731 193.378 412.803 208.838C412.731 224.298 412.775 239.76 412.601 255.22C412.426 239.76 412.47 224.298 412.398 208.838C412.472 193.378 412.427 177.917 412.601 162.457Z" fill="white"/>
<path d="M430.617 162.457C430.791 177.918 430.747 193.378 430.818 208.838C430.747 224.298 430.791 239.76 430.617 255.22C430.442 239.76 430.486 224.298 430.414 208.838C430.486 193.378 430.442 177.917 430.617 162.457Z" fill="white"/>
<path d="M448.628 162.457C448.802 177.918 448.758 193.378 448.83 208.838C448.758 224.298 448.802 239.76 448.628 255.22C448.453 239.76 448.497 224.298 448.426 208.838C448.499 193.378 448.455 177.917 448.628 162.457Z" fill="white"/>
<path d="M466.648 162.457C466.822 177.918 466.777 193.378 466.85 208.838C466.779 224.298 466.823 239.76 466.648 255.22C466.473 239.76 466.517 224.298 466.445 208.838C466.518 193.378 466.474 177.917 466.648 162.457Z" fill="white"/>
<path d="M484.66 162.457C484.834 177.918 484.79 193.378 484.862 208.838C484.791 224.298 484.835 239.76 484.66 255.22C484.485 239.76 484.529 224.298 484.457 208.838C484.53 193.378 484.486 177.917 484.66 162.457Z" fill="white"/>
<path d="M502.671 162.457C502.845 177.918 502.801 193.378 502.874 208.838C502.802 224.298 502.846 239.76 502.671 255.22C502.496 239.76 502.54 224.298 502.469 208.838C502.541 193.378 502.497 177.917 502.671 162.457Z" fill="white"/>
<path d="M302.242 163.463C302.475 178.755 302.677 194.048 302.697 209.341L302.916 255.219L302.243 254.842L405.07 254.938L456.484 255.013L511.752 255.219L456.484 255.427L405.07 255.502L302.243 255.598L301.566 255.599L301.568 255.22L301.787 209.342C301.807 194.048 302.008 178.755 302.242 163.463Z" fill="white"/>
<path d="M302.551 255.22C302.551 255.22 312.227 214.974 322.057 214.974C330.309 214.974 333.791 226.836 340.497 226.836C349.335 226.836 350.556 196.115 359.09 196.115C367.624 196.115 369.45 208.129 376.765 208.129C384.08 208.129 387.321 193.986 394.899 193.986C402.478 193.986 404.339 214.821 412.42 214.821C420.501 214.821 420.653 181.972 430.558 181.972C440.464 181.972 443.051 196.115 448.844 196.115C454.636 196.115 457.987 185.775 466.521 185.775C482.675 185.775 502.676 255.22 502.676 255.22H302.551Z" fill="#8BC53F"/>
<path opacity="0.2" d="M302.551 255.22C302.551 255.22 312.227 214.974 322.057 214.974C330.309 214.974 333.791 226.836 340.497 226.836C349.335 226.836 350.556 196.115 359.09 196.115C367.624 196.115 369.45 208.129 376.765 208.129C384.08 208.129 387.321 193.986 394.899 193.986C402.478 193.986 404.339 214.821 412.42 214.821C420.501 214.821 420.653 181.972 430.558 181.972C440.464 181.972 443.051 196.115 448.844 196.115C454.636 196.115 457.987 185.775 466.521 185.775C482.675 185.775 502.676 255.22 502.676 255.22H302.551Z" fill="black"/>
<path d="M302.551 255.219C302.551 255.219 312.967 210.59 322.21 210.59C331.452 210.59 332.426 222.852 340.209 222.852C347.992 222.852 348.106 201.311 358.565 201.311C365.77 201.311 368.307 210.052 376.261 210.052C387.206 210.052 385.565 189.76 394.503 189.76C405.933 189.76 401.313 217.716 413.231 217.716C420.771 217.716 422.773 205.179 431.772 205.179C437.731 205.179 440.329 214.194 448.118 214.194C456.03 214.194 457.611 196.203 467.339 196.203C483.28 196.203 502.99 255.219 502.99 255.219H302.551Z" fill="#8BC53F"/>
<g opacity="0.1">
<path d="M302.551 255.219C302.551 255.219 312.967 210.59 322.21 210.59C331.452 210.59 332.426 222.852 340.209 222.852C347.992 222.852 348.106 201.311 358.565 201.311C365.77 201.311 368.307 210.052 376.261 210.052C387.206 210.052 385.565 189.76 394.503 189.76C405.933 189.76 401.313 217.716 413.231 217.716C420.771 217.716 422.773 205.179 431.772 205.179C437.731 205.179 440.329 214.194 448.118 214.194C456.03 214.194 457.611 196.203 467.339 196.203C483.28 196.203 502.99 255.219 502.99 255.219H302.551Z" fill="black"/>
</g>
<path d="M302.551 255.22C302.551 255.22 311.944 234.745 322.537 234.745C330.489 234.745 331.912 240.118 340.649 240.118C346.135 240.118 348.237 218.597 358.767 218.597C369.298 218.597 369.501 231.298 376.715 231.298C383.928 231.298 385.954 219.334 394.796 219.334C403.638 219.334 404.704 225.924 412.608 225.924C421.62 225.924 421.336 199.26 430.622 199.26C439.907 199.26 442.936 219.029 448.838 219.029C456.467 219.029 457.227 211.936 466.447 211.936C479.325 211.936 502.991 255.22 502.991 255.22H302.551Z" fill="#8BC53F"/>
<path d="M156.734 162.097V237.047H272.386V162.097H156.734Z" fill="#DBDBDB"/>
<path d="M162.215 166.079V233.067H168.158V166.079H162.215Z" fill="white"/>
<path d="M162.215 198.818V233.066H168.158V198.818H162.215Z" fill="#8BC53F"/>
<path d="M173.188 166.078V233.066H179.131V166.078H173.188Z" fill="white"/>
<path d="M173.188 180.175V233.066H179.131V180.175H173.188Z" fill="#8BC53F"/>
<path d="M184.152 166.079V233.067H190.096V166.079H184.152Z" fill="white"/>
<path d="M184.152 190.483V233.066H190.096V190.483H184.152Z" fill="#8BC53F"/>
<path d="M195.129 166.078V233.066H201.073V166.078H195.129Z" fill="white"/>
<path d="M195.129 211.775V233.066H201.073V211.775H195.129Z" fill="#8BC53F"/>
<path d="M206.102 166.079V233.067H212.045V166.079H206.102Z" fill="white"/>
<path d="M206.102 175.403V233.067H212.045V175.403H206.102Z" fill="#8BC53F"/>
<path d="M217.074 166.078V233.066H223.018V166.078H217.074Z" fill="white"/>
<path d="M217.074 180.175V233.066H223.018V180.175H217.074Z" fill="#8BC53F"/>
<path d="M228.047 166.079V233.067H233.99V166.079H228.047Z" fill="white"/>
<path d="M228.047 190.483V233.066H233.99V190.483H228.047Z" fill="#8BC53F"/>
<path d="M239.016 166.078V233.066H244.959V166.078H239.016Z" fill="white"/>
<path d="M239.016 180.175V233.066H244.959V180.175H239.016Z" fill="#8BC53F"/>
<path d="M249.992 166.079V233.067H255.936V166.079H249.992Z" fill="white"/>
<path d="M249.992 211.775V233.066H255.936V211.775H249.992Z" fill="#8BC53F"/>
<path d="M260.965 166.078V233.066H266.908V166.078H260.965Z" fill="white"/>
<path d="M260.965 190.483V233.066H266.908V190.483H260.965Z" fill="#8BC53F"/>
<path d="M163.502 242.653H156.797V249.345H163.502V242.653Z" fill="#C53F8B"/>
<path d="M241.575 242.653H168.16V244.63H241.575V242.653Z" fill="#DBDBDB"/>
<path d="M215.598 247.368H168.16V249.344H215.598V247.368Z" fill="#DBDBDB"/>
<path d="M340.705 300.034C346.067 307.683 337.675 316.058 330.009 310.707C329.757 310.53 329.527 310.301 329.35 310.048C324.002 302.402 332.385 294.037 340.045 299.376C340.298 299.552 340.528 299.782 340.705 300.034Z" fill="#CDCDCD"/>
<path d="M517.461 329.342C517.461 329.474 436.47 329.58 336.585 329.58C236.666 329.58 155.691 329.473 155.691 329.342C155.691 329.211 236.665 329.104 336.585 329.104C436.469 329.104 517.461 329.211 517.461 329.342Z" fill="#455A64"/>
<path d="M625.18 106.671H456.832V184.337H625.18V106.671Z" fill="#FAFAFA"/>
<path d="M625.177 184.339C625.177 184.339 625.165 183.863 625.158 182.952C625.154 182.034 625.147 180.683 625.139 178.915C625.129 175.368 625.114 170.153 625.096 163.44C625.074 150.024 625.042 130.628 625.002 106.672L625.177 106.845C581.501 106.862 522.139 106.885 456.84 106.91H456.828L457.066 106.672C457.062 133.988 457.058 160.261 457.055 184.338L456.828 184.112C505.82 184.156 547.876 184.194 577.696 184.22C592.617 184.247 604.474 184.268 612.611 184.283C616.677 184.294 619.811 184.304 621.938 184.311C622.995 184.317 623.8 184.322 624.351 184.325C624.892 184.33 625.177 184.339 625.177 184.339C625.177 184.339 624.911 184.348 624.377 184.353C623.833 184.356 623.037 184.36 621.992 184.367C619.875 184.373 616.756 184.382 612.711 184.395C604.587 184.41 592.747 184.431 577.848 184.457C547.992 184.484 505.881 184.521 456.828 184.565H456.602V184.339C456.598 160.262 456.594 133.989 456.59 106.673V106.436H456.828H456.84C522.139 106.46 581.502 106.483 625.177 106.5H625.351V106.674C625.311 130.674 625.279 150.106 625.257 163.547C625.238 170.244 625.224 175.445 625.214 178.983C625.206 180.737 625.199 182.077 625.195 182.987C625.188 183.887 625.177 184.339 625.177 184.339Z" fill="#2B3C15"/>
<path d="M468.676 160.32V162.772H468.423V160.544H467.844V160.32H468.676Z" fill="#2B3C15"/>
<path d="M469.266 161.546C469.266 160.765 469.676 160.299 470.244 160.299C470.813 160.299 471.227 160.765 471.227 161.546C471.227 162.328 470.813 162.793 470.244 162.793C469.676 162.793 469.266 162.328 469.266 161.546ZM470.968 161.546C470.968 160.892 470.673 160.53 470.244 160.53C469.816 160.53 469.521 160.892 469.521 161.546C469.521 162.201 469.816 162.562 470.244 162.562C470.673 162.562 470.968 162.201 470.968 161.546Z" fill="#2B3C15"/>
<path d="M469.673 147.303V147.527H467.949V147.348L468.97 146.349C469.248 146.077 469.3 145.911 469.3 145.744C469.3 145.46 469.099 145.285 468.725 145.285C468.437 145.285 468.215 145.373 468.054 145.558L467.875 145.405C468.064 145.181 468.37 145.054 468.745 145.054C469.243 145.054 469.56 145.307 469.56 145.717C469.56 145.951 469.486 146.161 469.156 146.484L468.321 147.303L469.673 147.303Z" fill="#2B3C15"/>
<path d="M469.98 146.301C469.98 145.52 470.391 145.054 470.959 145.054C471.528 145.054 471.942 145.52 471.942 146.301C471.942 147.082 471.528 147.548 470.959 147.548C470.391 147.548 469.98 147.082 469.98 146.301ZM471.682 146.301C471.682 145.646 471.388 145.285 470.959 145.285C470.531 145.285 470.236 145.646 470.236 146.301C470.236 146.956 470.531 147.316 470.959 147.316C471.388 147.316 471.682 146.956 471.682 146.301Z" fill="#2B3C15"/>
<path d="M469.621 131.577C469.621 131.987 469.322 132.302 468.729 132.302C468.374 132.302 468.033 132.18 467.844 131.987L467.967 131.787C468.125 131.952 468.409 132.071 468.729 132.071C469.136 132.071 469.361 131.882 469.361 131.577C469.361 131.283 469.153 131.09 468.696 131.09H468.521V130.905L469.202 130.053H467.946V129.829H469.526V130.007L468.83 130.88C469.358 130.908 469.621 131.185 469.621 131.577Z" fill="#2B3C15"/>
<path d="M469.977 131.055C469.977 130.274 470.387 129.807 470.955 129.807C471.524 129.807 471.938 130.274 471.938 131.055C471.938 131.836 471.524 132.302 470.955 132.302C470.387 132.302 469.977 131.836 469.977 131.055ZM471.679 131.055C471.679 130.4 471.384 130.039 470.955 130.039C470.527 130.039 470.232 130.4 470.232 131.055C470.232 131.71 470.527 132.07 470.955 132.07C471.384 132.07 471.679 131.71 471.679 131.055Z" fill="#2B3C15"/>
<path d="M479.523 169.591C479.523 168.81 479.934 168.344 480.502 168.344C481.071 168.344 481.485 168.81 481.485 169.591C481.485 170.372 481.071 170.838 480.502 170.838C479.934 170.838 479.523 170.372 479.523 169.591ZM481.225 169.591C481.225 168.936 480.931 168.575 480.502 168.575C480.074 168.575 479.779 168.936 479.779 169.591C479.779 170.246 480.074 170.607 480.502 170.607C480.931 170.607 481.225 170.246 481.225 169.591Z" fill="#2B3C15"/>
<path d="M497.719 168.365V170.817H497.466V168.589H496.887V168.365H497.719Z" fill="#2B3C15"/>
<path d="M516.883 170.593V170.817H515.159V170.639L516.18 169.64C516.458 169.367 516.51 169.202 516.51 169.034C516.51 168.75 516.309 168.575 515.935 168.575C515.647 168.575 515.425 168.663 515.265 168.849L515.086 168.695C515.275 168.471 515.581 168.345 515.956 168.345C516.454 168.345 516.77 168.597 516.77 169.007C516.77 169.241 516.697 169.451 516.367 169.774L515.532 170.594L516.883 170.593Z" fill="#2B3C15"/>
<path d="M534.996 170.113C534.996 170.523 534.697 170.838 534.104 170.838C533.749 170.838 533.408 170.716 533.219 170.523L533.342 170.323C533.5 170.488 533.784 170.607 534.104 170.607C534.511 170.607 534.737 170.419 534.737 170.113C534.737 169.82 534.528 169.627 534.072 169.627H533.897V169.441L534.578 168.589H533.321V168.365H534.901V168.544L534.206 169.416C534.733 169.445 534.996 169.721 534.996 170.113Z" fill="#2B3C15"/>
<path d="M553.634 170.173H553.143V170.817H552.891V170.173H551.504V169.991L552.806 168.365H553.088L551.831 169.949H552.898V169.381H553.144V169.949H553.635V170.173H553.634Z" fill="#2B3C15"/>
<path d="M571.391 170.096C571.391 170.513 571.099 170.838 570.499 170.838C570.144 170.838 569.807 170.716 569.617 170.523L569.741 170.323C569.899 170.488 570.18 170.607 570.495 170.607C570.912 170.607 571.134 170.404 571.134 170.107C571.134 169.791 570.937 169.595 570.312 169.595H569.789L569.916 168.365H571.26V168.589H570.137L570.053 169.37H570.369C571.11 169.371 571.391 169.661 571.391 170.096Z" fill="#2B3C15"/>
<path d="M589.737 170.085C589.737 170.543 589.376 170.838 588.899 170.838C588.245 170.838 587.891 170.386 587.891 169.612C587.891 168.778 588.347 168.344 589.014 168.344C589.235 168.344 589.442 168.383 589.597 168.477L589.495 168.68C589.369 168.596 589.201 168.565 589.018 168.565C588.488 168.565 588.147 168.905 588.147 169.571C588.147 169.627 588.151 169.697 588.158 169.771C588.281 169.501 588.569 169.35 588.909 169.35C589.396 169.349 589.737 169.637 589.737 170.085ZM589.487 170.092C589.487 169.77 589.249 169.563 588.869 169.563C588.495 169.563 588.237 169.794 588.237 170.099C588.237 170.369 588.462 170.625 588.887 170.625C589.243 170.625 589.487 170.418 589.487 170.092Z" fill="#2B3C15"/>
<path d="M607.8 168.365V168.544L606.771 170.817H606.497L607.509 168.589H606.245V169.048H605.996V168.365H607.8Z" fill="#2B3C15"/>
<path d="M607.936 161.664C607.936 161.795 579.495 161.901 544.42 161.901C509.333 161.901 480.898 161.794 480.898 161.664C480.898 161.532 509.333 161.426 544.42 161.426C579.495 161.426 607.936 161.533 607.936 161.664Z" fill="#2B3C15"/>
<path d="M607.936 146.337C607.936 146.469 579.495 146.575 544.42 146.575C509.333 146.575 480.898 146.468 480.898 146.337C480.898 146.206 509.333 146.1 544.42 146.1C579.495 146.1 607.936 146.206 607.936 146.337Z" fill="#2B3C15"/>
<path d="M607.936 131.015C607.936 131.147 579.495 131.253 544.42 131.253C509.333 131.253 480.898 131.146 480.898 131.015C480.898 130.884 509.333 130.777 544.42 130.777C579.495 130.776 607.936 130.883 607.936 131.015Z" fill="#2B3C15"/>
<path d="M480.893 161.44C480.893 161.89 480.528 162.254 480.077 162.254C479.626 162.254 479.262 161.889 479.262 161.44C479.262 160.991 479.626 160.626 480.077 160.626C480.528 160.626 480.893 160.991 480.893 161.44Z" fill="#C53F8B"/>
<path d="M499.159 161.44C499.159 161.89 498.794 162.254 498.343 162.254C497.892 162.254 497.527 161.889 497.527 161.44C497.527 160.991 497.892 160.626 498.343 160.626C498.793 160.626 499.159 160.991 499.159 161.44Z" fill="#C53F8B"/>
<path d="M517.42 161.44C517.42 161.89 517.056 162.254 516.605 162.254C516.154 162.254 515.789 161.889 515.789 161.44C515.789 160.991 516.154 160.626 516.605 160.626C517.056 160.626 517.42 160.991 517.42 161.44Z" fill="#C53F8B"/>
<path d="M535.686 161.44C535.686 161.89 535.321 162.254 534.87 162.254C534.419 162.254 534.055 161.889 534.055 161.44C534.055 160.991 534.419 160.626 534.87 160.626C535.321 160.626 535.686 160.991 535.686 161.44Z" fill="#C53F8B"/>
<path d="M553.956 161.44C553.956 161.89 553.591 162.254 553.14 162.254C552.689 162.254 552.324 161.889 552.324 161.44C552.324 160.991 552.689 160.626 553.14 160.626C553.591 160.626 553.956 160.991 553.956 161.44Z" fill="#C53F8B"/>
<path d="M590.479 161.44C590.479 161.89 590.114 162.254 589.663 162.254C589.212 162.254 588.848 161.889 588.848 161.44C588.848 160.991 589.212 160.626 589.663 160.626C590.114 160.626 590.479 160.991 590.479 161.44Z" fill="#C53F8B"/>
<path d="M572.213 161.44C572.213 161.89 571.848 162.254 571.398 162.254C570.947 162.254 570.582 161.889 570.582 161.44C570.582 160.991 570.947 160.626 571.398 160.626C571.848 160.626 572.213 160.991 572.213 161.44Z" fill="#C53F8B"/>
<path d="M608.745 161.44C608.745 161.89 608.38 162.254 607.929 162.254C607.478 162.254 607.113 161.889 607.113 161.44C607.113 160.991 607.478 160.626 607.929 160.626C608.379 160.626 608.745 160.991 608.745 161.44Z" fill="#C53F8B"/>
<path d="M489.22 161.664C489.22 161.959 488.98 162.199 488.684 162.199C488.388 162.199 488.148 161.959 488.148 161.664C488.148 161.369 488.389 161.129 488.684 161.129C488.98 161.129 489.22 161.369 489.22 161.664Z" fill="#E0E0E0"/>
<path d="M507.552 161.664C507.552 161.959 507.312 162.199 507.016 162.199C506.72 162.199 506.48 161.959 506.48 161.664C506.48 161.369 506.721 161.129 507.016 161.129C507.311 161.129 507.552 161.369 507.552 161.664Z" fill="#E0E0E0"/>
<path d="M525.353 162.199C525.649 162.199 525.889 161.959 525.889 161.664C525.889 161.368 525.649 161.129 525.353 161.129C525.056 161.129 524.816 161.368 524.816 161.664C524.816 161.959 525.056 162.199 525.353 162.199Z" fill="#E0E0E0"/>
<path d="M543.681 162.199C543.977 162.199 544.217 161.959 544.217 161.664C544.217 161.368 543.977 161.129 543.681 161.129C543.385 161.129 543.145 161.368 543.145 161.664C543.145 161.959 543.385 162.199 543.681 162.199Z" fill="#E0E0E0"/>
<path d="M562.021 162.199C562.317 162.199 562.557 161.959 562.557 161.664C562.557 161.368 562.317 161.129 562.021 161.129C561.724 161.129 561.484 161.368 561.484 161.664C561.484 161.959 561.724 162.199 562.021 162.199Z" fill="#E0E0E0"/>
<path d="M580.883 161.664C580.883 161.959 580.643 162.199 580.348 162.199C580.053 162.199 579.812 161.959 579.812 161.664C579.812 161.369 580.053 161.129 580.348 161.129C580.643 161.129 580.883 161.369 580.883 161.664Z" fill="#E0E0E0"/>
<path d="M599.22 161.664C599.22 161.959 598.98 162.199 598.685 162.199C598.389 162.199 598.148 161.959 598.148 161.664C598.148 161.369 598.389 161.129 598.685 161.129C598.98 161.129 599.22 161.369 599.22 161.664Z" fill="#E0E0E0"/>
<path d="M500.341 154.89C500.341 155.993 499.446 156.887 498.341 156.887C497.235 156.887 496.34 155.993 496.34 154.89C496.34 153.787 497.235 152.894 498.341 152.894C499.446 152.894 500.341 153.788 500.341 154.89Z" fill="#C53F8B"/>
<path d="M516.283 145.507C516.283 146.61 515.387 147.504 514.282 147.504C513.177 147.504 512.281 146.61 512.281 145.507C512.281 144.404 513.177 143.511 514.282 143.511C515.386 143.51 516.283 144.404 516.283 145.507Z" fill="#C53F8B"/>
<path d="M536.056 146.34C536.056 147.443 535.161 148.337 534.055 148.337C532.95 148.337 532.055 147.443 532.055 146.34C532.055 145.237 532.95 144.344 534.055 144.344C535.161 144.344 536.056 145.237 536.056 146.34Z" fill="#C53F8B"/>
<path d="M555.361 129.282C555.361 130.385 554.465 131.278 553.36 131.278C552.255 131.278 551.359 130.385 551.359 129.282C551.359 128.179 552.255 127.285 553.36 127.285C554.465 127.285 555.361 128.179 555.361 129.282Z" fill="#C53F8B"/>
<path d="M573.4 140.131C573.4 141.234 572.505 142.128 571.399 142.128C570.294 142.128 569.398 141.234 569.398 140.131C569.398 139.028 570.294 138.135 571.399 138.135C572.505 138.135 573.4 139.028 573.4 140.131Z" fill="#C53F8B"/>
<path d="M591.666 143.019C591.666 144.122 590.77 145.016 589.665 145.016C588.559 145.016 587.664 144.122 587.664 143.019C587.664 141.916 588.559 141.022 589.665 141.022C590.77 141.022 591.666 141.917 591.666 143.019Z" fill="#C53F8B"/>
<path d="M608.747 154.89C608.747 154.89 608.588 154.908 608.278 154.889C607.968 154.869 607.507 154.829 606.912 154.707C605.743 154.466 603.94 153.962 602.162 152.454C601.277 151.708 600.469 150.672 599.827 149.425C599.182 148.197 598.405 146.897 597.383 145.648C596.353 144.436 595.023 143.196 593.254 142.774C592.383 142.563 591.435 142.6 590.523 142.87C589.61 143.154 588.757 143.654 587.988 144.303C586.432 145.601 585.286 147.445 583.775 149.118C583.019 149.95 582.14 150.759 581.033 151.248C579.931 151.723 578.65 151.871 577.428 151.544C576.178 151.21 575.226 150.166 574.684 149.028C574.117 147.882 573.803 146.634 573.499 145.388C573.192 144.146 572.941 142.859 572.411 141.695C572.146 141.121 571.775 140.583 571.242 140.297C570.696 140 570.046 139.934 569.396 139.939C568.079 140.008 566.755 140.386 565.38 140.646C564.69 140.769 563.989 140.89 563.262 140.887C562.543 140.889 561.786 140.803 561.108 140.469C560.401 140.185 559.862 139.62 559.398 139.04C558.985 138.428 558.628 137.779 558.351 137.101C557.772 135.752 557.386 134.338 556.862 132.978C556.589 132.307 556.302 131.634 555.896 131.047C555.489 130.466 554.96 129.978 554.311 129.73C554.144 129.681 553.981 129.62 553.813 129.58L553.286 129.53C552.937 129.511 552.616 129.577 552.309 129.73C551.697 130.04 551.234 130.635 550.846 131.254C550.089 132.528 549.587 133.979 549.149 135.445C548.713 136.914 548.346 138.42 547.995 139.938C547.411 142.452 546.889 144.959 546.241 147.412C545.915 148.637 545.564 149.853 545.117 151.034C544.659 152.203 544.139 153.383 543.219 154.323C542.752 154.773 542.114 155.125 541.417 155.12C540.75 155.121 540.115 154.883 539.571 154.561C538.474 153.902 537.665 152.932 536.976 151.941C535.591 149.944 534.703 147.72 533.843 145.594C532.967 143.489 531.979 141.405 530.344 139.977C528.743 138.56 526.442 138.031 524.473 138.548C523.479 138.797 522.54 139.24 521.678 139.775C520.806 140.294 520 140.901 519.239 141.536C517.718 142.807 516.358 144.199 515.167 145.624L515.158 145.634L515.155 145.637C513.205 147.58 511.165 149.226 509.121 150.639C507.076 152.045 505.01 153.2 502.942 153.981C500.88 154.743 498.805 155.193 496.893 154.986C494.994 154.801 493.323 154.284 491.855 153.769C488.919 152.706 486.765 151.56 485.312 150.783C484.588 150.387 484.042 150.07 483.68 149.849C483.317 149.63 483.141 149.499 483.141 149.499C483.141 149.499 483.337 149.596 483.709 149.8C484.1 150.009 484.652 150.304 485.365 150.684C486.832 151.428 488.998 152.54 491.927 153.567C493.391 154.064 495.054 154.561 496.916 154.726C498.773 154.914 500.809 154.46 502.835 153.696C504.867 152.914 506.906 151.761 508.926 150.357C510.941 148.948 512.97 147.296 514.882 145.375L514.871 145.388C516.08 143.93 517.44 142.528 518.982 141.23C519.753 140.582 520.571 139.962 521.466 139.425C522.348 138.874 523.317 138.409 524.371 138.141C526.486 137.585 528.909 138.141 530.632 139.648C532.366 141.161 533.373 143.306 534.26 145.422C535.129 147.56 536.006 149.737 537.357 151.679C538.025 152.64 538.811 153.565 539.807 154.16C540.302 154.452 540.856 154.655 541.423 154.653C541.972 154.652 542.478 154.381 542.894 153.985C543.711 153.153 544.234 152.01 544.675 150.866C545.111 149.71 545.459 148.507 545.782 147.291C546.425 144.854 546.945 142.35 547.53 139.831C547.884 138.308 548.252 136.796 548.693 135.309C549.138 133.827 549.642 132.353 550.442 131.007C550.857 130.352 551.351 129.691 552.098 129.307C552.466 129.119 552.905 129.034 553.306 129.059L553.902 129.117C554.098 129.163 554.288 129.232 554.481 129.29C555.239 129.579 555.845 130.149 556.284 130.781C556.724 131.42 557.02 132.119 557.3 132.809C557.833 134.199 558.216 135.61 558.778 136.92C559.332 138.211 560.047 139.522 561.3 140.055C562.521 140.644 563.967 140.437 565.298 140.206C566.649 139.956 567.983 139.57 569.382 139.5C570.079 139.496 570.808 139.566 571.453 139.916C572.108 140.273 572.521 140.903 572.801 141.512C573.363 142.757 573.603 144.05 573.908 145.291C574.206 146.532 574.514 147.756 575.05 148.846C575.57 149.932 576.42 150.858 577.54 151.164C578.648 151.466 579.861 151.337 580.881 150.898C581.915 150.449 582.762 149.683 583.505 148.871C584.995 147.239 586.157 145.383 587.772 144.045C588.571 143.378 589.474 142.854 590.432 142.564C591.394 142.283 592.405 142.249 593.327 142.479C595.197 142.942 596.55 144.239 597.59 145.479C598.621 146.759 599.393 148.078 600.031 149.321C600.653 150.56 601.426 151.571 602.285 152.315C604.007 153.815 605.778 154.346 606.932 154.614C607.518 154.75 607.975 154.805 608.281 154.84C608.588 154.876 608.747 154.881 608.747 154.89Z" fill="#C53F8B"/>
<path d="M500.536 120.512C500.536 120.644 493.445 120.75 484.701 120.75C475.953 120.75 468.863 120.643 468.863 120.512C468.863 120.381 475.953 120.274 484.701 120.274C493.445 120.274 500.536 120.381 500.536 120.512Z" fill="#2B3C15"/>
<path d="M131.655 263.339L119.359 249.893L77.6357 287.889L89.9314 301.336L131.655 263.339Z" fill="#CDCDCD"/>
<path d="M237.851 154.297C209.146 122.907 160.361 120.681 128.897 149.334C97.442 177.98 95.2113 226.666 123.916 258.057C152.629 289.457 201.406 291.674 232.862 263.028C264.325 234.373 266.564 185.697 237.851 154.297ZM135.909 247.134C113.25 222.355 115.011 183.918 139.842 161.305C164.68 138.684 203.197 140.443 225.857 165.221C248.523 190.009 246.754 228.438 221.915 251.058C197.084 273.67 158.577 271.922 135.909 247.134Z" fill="#8BC53F"/>
<path d="M44.9807 337.523L37.4152 329.25C34.3699 325.919 34.6062 320.756 37.9438 317.717L80.7705 278.715C84.1081 275.676 89.2823 275.912 92.3275 279.242L99.893 287.515C102.938 290.846 102.702 296.01 99.3644 299.049L56.5377 338.05C53.2001 341.089 48.0259 340.854 44.9807 337.523Z" fill="#7BAF37"/>
<g opacity="0.4">
<path d="M221.908 251.057C197.077 273.669 158.57 271.921 135.902 247.133C113.243 222.354 115.004 183.917 139.835 161.304C164.673 138.683 203.19 140.442 225.85 165.22C248.516 190.008 246.746 228.436 221.908 251.057Z" fill="white"/>
<path d="M207.678 260.744C184.007 272.345 154.576 267.566 135.902 247.132C132.042 242.909 128.889 238.294 126.438 233.414L207.678 260.744Z" fill="#EBEBEB"/>
<path d="M241.652 209.653L130.387 172.221C133.027 168.297 136.191 164.633 139.837 161.304C144.026 157.473 148.622 154.354 153.468 151.929L235.621 179.557C240.245 189.032 242.246 199.41 241.652 209.653Z" fill="#EBEBEB"/>
<path d="M226.184 246.749L120.198 211.093C119.878 207.122 119.957 203.131 120.408 199.172L233.265 237.138C231.272 240.523 228.908 243.738 226.184 246.749Z" fill="#EBEBEB"/>
<path d="M240.6 217.902L126.207 179.428C126.532 178.763 126.862 178.109 127.21 177.46L240.984 215.735C240.878 216.455 240.761 217.182 240.6 217.902Z" fill="#EBEBEB"/>
<path d="M223.732 163.019L172.961 145.939C174.767 145.699 176.591 145.547 178.413 145.477L219.706 159.368C221.092 160.509 222.434 161.725 223.732 163.019Z" fill="#EBEBEB"/>
</g>
<path d="M150.532 173.71C150.596 173.654 150.663 173.6 150.728 173.545C151.647 172.789 149.789 174.251 150.429 173.776C151.193 173.208 151.956 172.643 152.745 172.109C155.5 170.242 158.423 168.618 161.451 167.233C161.878 167.038 162.312 166.859 162.738 166.662C162.879 166.597 161.707 167.083 162.644 166.707C162.91 166.6 163.176 166.492 163.444 166.386C164.477 165.981 165.521 165.605 166.575 165.259C168.899 164.496 171.271 163.88 173.674 163.428C174.249 163.32 174.826 163.23 175.403 163.131C176.181 162.998 174.514 163.237 175.566 163.11C175.915 163.068 176.263 163.024 176.613 162.986C177.943 162.843 179.28 162.751 180.618 162.71C182.065 162.667 183.514 162.688 184.959 162.77C185.622 162.808 186.283 162.863 186.943 162.923C188.087 163.027 186.469 162.843 187.287 162.96C187.682 163.016 188.078 163.066 188.473 163.127C192.023 163.668 195.466 164.617 198.838 165.835C198.906 165.86 199.509 166.094 199.008 165.898C198.499 165.698 199.276 166.009 199.362 166.045C199.851 166.249 200.339 166.454 200.824 166.669C201.756 167.082 202.677 167.52 203.587 167.981C205.512 168.956 207.378 170.04 209.196 171.199C211.286 172.532 214.292 171.447 215.427 169.384C216.688 167.092 215.703 164.501 213.608 163.165C202.065 155.805 188.344 152.163 174.689 154.052C165.546 155.317 156.689 158.608 148.947 163.643C147.218 164.768 145.509 165.985 143.946 167.332C142.123 168.902 142.302 172.266 144.044 173.807C146.042 175.576 148.581 175.391 150.532 173.71Z" fill="white"/>
<path d="M141.192 183.646C139.457 185.43 136.6 185.473 134.811 183.742C133.023 182.011 132.98 179.16 134.715 177.375C136.449 175.59 139.307 175.547 141.095 177.279C142.883 179.011 142.928 181.861 141.192 183.646Z" fill="white"/>
</svg>
