<svg width="553" height="466" viewBox="0 0 553 466" fill="none" xmlns="http://www.w3.org/2000/svg">
<g clip-path="url(#clip0_389_13000)">
    <g class="el1" style="animation-delay: 0.2s">
<path opacity="0.5" d="M428.749 153.792C431.429 152.171 434.282 150.94 437.225 150.104L438.971 141.704L453.147 141.455L455.186 149.788C458.157 150.521 461.053 151.65 463.787 153.176L470.952 148.474L481.151 158.335L476.71 165.668C478.331 168.351 479.559 171.21 480.394 174.157L488.783 175.905L489.033 190.097L480.709 192.14C479.977 195.114 478.85 198.011 477.326 200.75L482.021 207.923L472.175 218.136L464.851 213.69C462.171 215.312 459.316 216.541 456.373 217.378L454.626 225.778L440.451 226.027L438.411 217.694C435.441 216.96 432.546 215.832 429.81 214.306L422.645 219.007L412.445 209.148L416.886 201.816C415.265 199.132 414.037 196.275 413.201 193.327L404.811 191.58L404.562 177.387L412.886 175.344C413.618 172.37 414.745 169.473 416.269 166.734L411.574 159.561L421.421 149.348L428.749 153.792ZM436.304 172.699C430.47 178.749 430.638 188.389 436.683 194.23C442.726 200.071 452.355 199.901 458.188 193.851C464.022 187.8 463.854 178.16 457.81 172.32C451.768 166.479 442.139 166.648 436.304 172.699Z" fill="#C53F8B"/>
<path d="M436.3 172.699C436.3 172.699 437.095 171.576 439.132 170.211C441.131 168.878 444.624 167.395 449.054 167.863C451.236 168.108 453.622 168.82 455.798 170.261C457.95 171.702 459.982 173.752 461.252 176.414C461.92 177.721 462.384 179.173 462.636 180.688C462.909 182.201 462.949 183.792 462.721 185.376C462.336 188.557 460.834 191.691 458.5 194.155C456.123 196.578 453.046 198.192 449.884 198.691C448.311 198.975 446.72 198.991 445.201 198.771C443.679 198.572 442.213 198.16 440.886 197.537C438.184 196.36 436.066 194.399 434.552 192.296C433.037 190.169 432.243 187.805 431.921 185.632C431.299 181.215 432.657 177.668 433.918 175.622C435.208 173.534 436.3 172.699 436.3 172.699C436.382 172.768 435.381 173.698 434.21 175.789C433.064 177.843 431.852 181.308 432.528 185.537C432.876 187.619 433.67 189.865 435.14 191.874C436.608 193.86 438.641 195.708 441.211 196.8C442.474 197.382 443.865 197.763 445.307 197.943C446.747 198.143 448.253 198.121 449.739 197.846C452.729 197.365 455.624 195.836 457.871 193.547C460.075 191.218 461.498 188.269 461.873 185.26C462.095 183.763 462.064 182.257 461.812 180.823C461.583 179.388 461.154 178.008 460.528 176.766C459.347 174.233 457.433 172.265 455.399 170.864C453.342 169.464 451.072 168.749 448.982 168.475C444.737 167.947 441.32 169.281 439.31 170.5C437.265 171.745 436.373 172.779 436.3 172.699Z" fill="#E0E0E0"/>
<path d="M428.744 153.792C428.744 153.804 428.586 153.721 428.272 153.542C427.928 153.343 427.466 153.076 426.867 152.729C425.587 151.973 423.741 150.881 421.346 149.465L421.519 149.443C419.013 152.073 415.717 155.53 411.731 159.711L411.757 159.437C413.187 161.605 414.779 164.013 416.481 166.591L416.566 166.72L416.491 166.857C415.099 169.382 413.929 172.256 413.163 175.411L413.122 175.579L412.952 175.621C410.359 176.265 407.553 176.962 404.634 177.688L404.871 177.381C404.96 181.849 405.054 186.591 405.152 191.571L404.879 191.241C407.477 191.777 410.339 192.367 413.272 192.973L413.485 193.017L413.545 193.227C414.324 195.967 415.541 198.88 417.204 201.619L417.322 201.814L417.204 202.01C415.83 204.284 414.315 206.793 412.774 209.348L412.712 208.866C415.918 211.959 419.378 215.294 422.924 218.713L422.419 218.667C424.648 217.2 427.098 215.59 429.578 213.958L429.788 213.821L430.007 213.943C432.507 215.339 435.429 216.529 438.506 217.284L438.755 217.343L438.816 217.592C439.456 220.202 440.156 223.049 440.861 225.924L440.438 225.598C444.927 225.517 449.736 225.43 454.614 225.343L454.198 225.688C454.749 223.035 455.343 220.171 455.942 217.288L455.996 217.029L456.249 216.957C459.041 216.167 461.933 214.944 464.613 213.32L464.62 213.315L464.848 213.179L465.071 213.315C467.53 214.808 469.974 216.292 472.395 217.762L471.856 217.831C475.184 214.381 478.468 210.977 481.705 207.622L481.655 208.16C480.076 205.744 478.512 203.353 476.963 200.984L476.821 200.767L476.947 200.541C478.453 197.841 479.572 194.968 480.295 192.038L480.357 191.789L480.605 191.729C483.421 191.041 486.193 190.363 488.93 189.693L488.613 190.103C488.533 185.259 488.455 180.526 488.378 175.912L488.697 176.298C485.851 175.702 483.055 175.116 480.31 174.54L480.078 174.49L480.014 174.263C479.164 171.254 477.925 168.427 476.383 165.864L476.264 165.667L476.383 165.472C477.909 162.961 479.39 160.525 480.835 158.148L480.894 158.597C477.313 155.121 473.933 151.84 470.714 148.717L471.129 148.755C468.605 150.402 466.238 151.948 463.954 153.439L463.795 153.544L463.63 153.451C460.774 151.852 457.912 150.771 455.112 150.068L454.942 150.026L454.902 149.858C454.171 146.827 453.511 144.097 452.889 141.519L453.145 141.715C447.652 141.788 442.974 141.849 438.968 141.901L439.155 141.745C438.436 145.095 437.847 147.845 437.356 150.135L437.337 150.218L437.256 150.24C434.256 151.079 432.147 152.059 430.773 152.737C430.118 153.079 429.616 153.342 429.249 153.534C428.908 153.723 428.744 153.804 428.744 153.792C428.745 153.782 428.906 153.669 429.216 153.47C429.541 153.27 430.032 152.971 430.71 152.608C432.067 151.885 434.17 150.856 437.182 149.968L437.084 150.074C437.545 147.778 438.1 145.023 438.776 141.662L438.806 141.509L438.964 141.506C442.969 141.418 447.647 141.316 453.139 141.195L453.344 141.19L453.394 141.392C454.034 143.967 454.71 146.692 455.462 149.717L455.252 149.507C458.103 150.204 461.021 151.287 463.938 152.9L463.614 152.911C465.891 151.409 468.252 149.852 470.767 148.192L470.99 148.046L471.183 148.232C474.413 151.342 477.807 154.61 481.402 158.07L481.611 158.271L481.461 158.52C480.023 160.902 478.551 163.342 477.033 165.859L477.034 165.469C478.618 168.084 479.894 170.97 480.771 174.045L480.474 173.769C483.222 174.338 486.018 174.917 488.865 175.507L489.179 175.572L489.185 175.893C489.271 180.508 489.359 185.24 489.449 190.085L489.455 190.416L489.132 190.496C486.396 191.171 483.625 191.852 480.812 192.546L481.121 192.236C480.384 195.24 479.242 198.184 477.701 200.954L477.684 200.512C479.236 202.878 480.801 205.268 482.383 207.682L482.571 207.971L482.332 208.22C479.097 211.577 475.814 214.982 472.488 218.434L472.247 218.685L471.949 218.505C469.528 217.035 467.083 215.552 464.624 214.06H465.075L465.067 214.065C462.318 215.732 459.353 216.984 456.491 217.794L456.798 217.464C456.198 220.347 455.601 223.211 455.05 225.863L454.979 226.202L454.633 226.208C449.756 226.291 444.946 226.373 440.457 226.451L440.116 226.457L440.035 226.125C439.332 223.248 438.637 220.401 438 217.79L438.308 218.1C435.156 217.325 432.165 216.099 429.608 214.664L430.036 214.649C427.553 216.276 425.1 217.882 422.867 219.343L422.595 219.522L422.362 219.296C418.825 215.869 415.375 212.526 412.175 209.424L411.951 209.207L412.113 208.942C413.663 206.392 415.184 203.888 416.564 201.617V202.006C414.873 199.202 413.639 196.222 412.856 193.422L413.129 193.676C410.197 193.061 407.338 192.459 404.742 191.912L404.474 191.856L404.469 191.581C404.393 186.602 404.321 181.858 404.254 177.389L404.25 177.14L404.49 177.082C407.413 176.373 410.223 175.691 412.819 175.062L412.61 175.272C413.409 172.069 414.615 169.158 416.047 166.605L416.057 166.87C414.375 164.279 412.804 161.858 411.39 159.679L411.294 159.528L411.417 159.403C415.451 155.268 418.786 151.849 421.323 149.248L421.402 149.167L421.495 149.226C423.836 150.684 425.639 151.807 426.891 152.588C427.482 152.963 427.938 153.254 428.278 153.47C428.586 153.671 428.744 153.779 428.744 153.792Z" fill="#CE629F"/>
</g>
<g class="el1">
<path d="M64.2497 238.177C66.9292 236.555 69.7833 235.325 72.7265 234.489L74.4722 226.089L88.6478 225.84L90.6876 234.173C93.6577 234.906 96.554 236.035 99.2885 237.561L106.453 232.859L116.652 242.72L112.212 250.052C113.832 252.736 115.06 255.595 115.895 258.541L124.285 260.289L124.534 274.482L116.21 276.525C115.478 279.499 114.351 282.396 112.827 285.135L117.521 292.308L107.675 302.521L100.351 298.075C97.6705 299.697 94.8164 300.926 91.8733 301.763L90.1264 310.163L75.9508 310.412L73.9098 302.078C70.9397 301.345 68.0446 300.217 65.3088 298.691L58.1443 303.392L47.9441 293.533L52.3846 286.2C50.7642 283.516 49.5363 280.66 48.701 277.712L40.3109 275.964L40.0625 261.772L48.3858 259.729C49.1181 256.755 50.2452 253.856 51.7695 251.119L47.0736 243.946L56.9211 233.733L64.2497 238.177ZM71.8067 257.082C65.972 263.133 66.1419 272.773 72.1852 278.614C78.2284 284.456 87.8569 284.286 93.6905 278.235C99.524 272.185 99.3553 262.545 93.312 256.705C87.2688 250.863 77.6403 251.033 71.8067 257.082Z" fill="#F5F5F5"/>
<path d="M71.8089 257.084C71.8089 257.084 72.6044 255.961 74.6407 254.596C76.6395 253.263 80.1333 251.779 84.5632 252.247C86.7448 252.493 89.1314 253.205 91.3072 254.646C93.4595 256.087 95.4911 258.137 96.7611 260.799C97.4289 262.106 97.8929 263.558 98.1448 265.073C98.4178 266.585 98.4576 268.177 98.2303 269.761C97.8449 272.942 96.3428 276.076 94.0078 278.54C91.6317 280.963 88.5538 282.577 85.3916 283.076C83.8193 283.36 82.2282 283.376 80.7086 283.155C79.1866 282.957 77.7209 282.544 76.3923 281.921C73.6905 280.745 71.5722 278.784 70.0596 276.68C68.5447 274.554 67.7503 272.19 67.4293 270.016C66.8072 265.6 68.1651 262.053 69.4258 260.007C70.7157 257.919 71.8089 257.084 71.8089 257.084C71.8909 257.154 70.8903 258.083 69.7187 260.174C68.5728 262.227 67.3613 265.693 68.0374 269.921C68.3853 272.003 69.1785 274.25 70.6489 276.259C72.117 278.245 74.1498 280.093 76.7203 281.185C77.9834 281.767 79.3741 282.148 80.8175 282.327C82.2575 282.528 83.763 282.506 85.2487 282.231C88.2387 281.75 91.1338 280.221 93.381 277.932C95.5848 275.602 97.0083 272.652 97.3833 269.645C97.6047 268.148 97.5742 266.642 97.3223 265.208C97.0927 263.772 96.6639 262.393 96.0382 261.151C94.8572 258.618 92.9428 256.65 90.9088 255.249C88.8526 253.849 86.582 253.134 84.4918 252.86C80.247 252.332 76.8305 253.666 74.82 254.884C72.7731 256.13 71.8815 257.165 71.8089 257.084Z" fill="#F5F5F5"/>
<path d="M64.2484 238.177C64.2484 238.189 64.0903 238.105 63.7763 237.927C63.4318 237.728 62.9702 237.46 62.3715 237.114C61.0909 236.358 59.2456 235.266 56.8508 233.85L57.023 233.827C54.5169 236.456 51.2211 239.914 47.2352 244.096L47.2609 243.822C48.6927 245.989 50.2838 248.398 51.985 250.976L52.0705 251.105L51.9955 251.242C50.6036 253.767 49.4332 256.642 48.6669 259.796L48.6259 259.964L48.4572 260.006C45.8644 260.65 43.0583 261.347 40.1398 262.073L40.3764 261.765C40.4655 266.233 40.5592 270.976 40.6576 275.956L40.3846 275.626C42.9821 276.162 45.8444 276.752 48.777 277.357L48.9903 277.402L49.05 277.612C49.8292 280.351 51.0465 283.265 52.709 286.004L52.8274 286.198L52.709 286.394C51.3359 288.669 49.821 291.178 48.2791 293.733L48.217 293.252C51.4238 296.345 54.8836 299.68 58.429 303.099L57.924 303.052C60.1536 301.586 62.6035 299.976 65.0838 298.344L65.2935 298.207L65.5126 298.329C68.0129 299.725 70.935 300.915 74.0117 301.669L74.2601 301.73L74.321 301.979C74.9619 304.589 75.6613 307.436 76.3666 310.311L75.9437 309.985C80.4322 309.904 85.2429 309.817 90.1193 309.73L89.7033 310.075C90.254 307.422 90.848 304.559 91.4479 301.675L91.5018 301.416L91.7549 301.345C94.5457 300.554 97.4385 299.332 100.118 297.707L100.125 297.703L100.353 297.567L100.576 297.703C103.035 299.197 105.479 300.681 107.9 302.15L107.361 302.22C110.69 298.77 113.974 295.366 117.211 292.011L117.161 292.548C115.581 290.133 114.017 287.741 112.468 285.373L112.326 285.156L112.453 284.929C113.958 282.229 115.077 279.356 115.8 276.426L115.862 276.177L116.111 276.117C118.926 275.429 121.698 274.751 124.435 274.081L124.119 274.492C124.039 269.647 123.961 264.914 123.883 260.3L124.202 260.686C121.356 260.09 118.562 259.504 115.816 258.928L115.584 258.879L115.52 258.651C114.671 255.642 113.431 252.815 111.889 250.252L111.771 250.055L111.889 249.86C113.416 247.349 114.897 244.914 116.342 242.536L116.4 242.985C112.82 239.51 109.439 236.229 106.221 233.105L106.636 233.144C104.112 234.79 101.744 236.337 99.4607 237.827L99.3013 237.932L99.1373 237.839C96.2821 236.24 93.4198 235.159 90.6196 234.456L90.4508 234.414L90.4098 234.246C89.6787 231.215 89.0191 228.485 88.397 225.907L88.6524 226.103C83.1609 226.176 78.4814 226.237 74.4756 226.29L74.6631 226.134C73.9437 229.484 73.3544 232.233 72.8635 234.523L72.8447 234.607L72.7639 234.63C69.7633 235.468 67.6544 236.448 66.2812 237.126C65.6263 237.469 65.1237 237.731 64.7569 237.924C64.4113 238.108 64.2484 238.19 64.2484 238.177C64.2496 238.166 64.4101 238.054 64.7206 237.854C65.0452 237.655 65.5361 237.355 66.2144 236.992C67.5712 236.27 69.6743 235.241 72.6865 234.353L72.5881 234.459C73.0498 232.163 73.6039 229.407 74.28 226.047L74.3104 225.894L74.4686 225.891C78.4732 225.803 83.1516 225.7 88.643 225.58L88.848 225.575L88.8984 225.777C89.5381 228.352 90.2142 231.077 90.9664 234.102L90.7566 233.892C93.6072 234.589 96.5258 235.671 99.4408 237.284L99.1174 237.296C101.394 235.793 103.755 234.237 106.27 232.577L106.493 232.43L106.686 232.617C109.916 235.727 113.311 238.995 116.905 242.455L117.114 242.656L116.964 242.904C115.526 245.287 114.055 247.727 112.536 250.244L112.537 249.853C114.121 252.469 115.397 255.355 116.274 258.429L115.978 258.154C118.726 258.723 121.523 259.302 124.37 259.891L124.684 259.955L124.689 260.277C124.775 264.892 124.863 269.624 124.953 274.468L124.959 274.8L124.637 274.88C121.9 275.554 119.129 276.236 116.316 276.929L116.625 276.619C115.888 279.624 114.746 282.568 113.205 285.337L113.189 284.894C114.74 287.261 116.305 289.651 117.887 292.065L118.076 292.353L117.837 292.602C114.601 295.958 111.319 299.364 107.993 302.817L107.751 303.068L107.454 302.887C105.032 301.417 102.588 299.935 100.13 298.442H100.581L100.573 298.447C97.8239 300.114 94.8585 301.367 91.9962 302.176L92.3032 301.845C91.7033 304.729 91.107 307.592 90.5563 310.244L90.486 310.583L90.1404 310.589C85.264 310.672 80.4533 310.755 75.9648 310.832L75.6238 310.838L75.543 310.506C74.84 307.63 74.1452 304.783 73.5079 302.171L73.816 302.481C70.6643 301.706 67.6731 300.48 65.1155 299.047L65.5443 299.031C63.0604 300.658 60.6082 302.264 58.375 303.726L58.1032 303.904L57.8701 303.679C54.3329 300.251 50.8825 296.908 47.6827 293.807L47.459 293.591L47.6206 293.326C49.1707 290.776 50.6915 288.271 52.0717 286V286.39C50.381 283.586 49.1484 280.605 48.3635 277.805L48.6364 278.059C45.705 277.443 42.8462 276.841 40.2499 276.295L39.9816 276.238L39.9769 275.964C39.9007 270.984 39.8293 266.241 39.7613 261.771L39.7578 261.523L39.998 261.464C42.9212 260.755 45.7308 260.074 48.3271 259.444L48.1174 259.654C48.9165 256.452 50.1232 253.539 51.555 250.988L51.5644 251.253C49.8831 248.662 48.3119 246.24 46.8977 244.061L46.8005 243.912L46.9235 243.786C50.9574 239.652 54.2931 236.232 56.8297 233.632L56.9082 233.551L57.0019 233.609C59.3428 235.067 61.146 236.191 62.3973 236.971C62.9889 237.347 63.4447 237.637 63.7845 237.853C64.0903 238.057 64.2484 238.165 64.2484 238.177Z" fill="#F5F5F5"/>
</g>
<g class="el1">
<path d="M455.118 76.2365C457.06 75.0611 459.128 74.1708 461.261 73.5644L462.526 67.4775L472.798 67.2969L474.276 73.3344C476.429 73.8658 478.527 74.6834 480.509 75.7896L485.701 72.3819L493.092 79.5268L489.874 84.8395C491.048 86.7844 491.939 88.8559 492.543 90.9908L498.623 92.2577L498.803 102.542L492.772 104.022C492.241 106.177 491.424 108.277 490.32 110.261L493.722 115.459L486.587 122.86L481.279 119.637C479.337 120.813 477.269 121.703 475.136 122.309L473.871 128.396L463.599 128.577L462.121 122.538C459.968 122.007 457.871 121.189 455.889 120.083L450.697 123.491L443.305 116.346L446.524 111.032C445.35 109.087 444.46 107.017 443.854 104.882L437.774 103.615L437.594 93.331L443.625 91.8507C444.156 89.6958 444.973 87.5961 446.078 85.6113L442.675 80.4137L449.81 73.0142L455.118 76.2365ZM460.594 89.9363C456.366 94.3211 456.489 101.306 460.868 105.539C465.247 109.771 472.225 109.649 476.452 105.264C480.679 100.879 480.558 93.8941 476.178 89.6618C471.8 85.4295 464.823 85.5527 460.594 89.9363Z" fill="#F5F5F5"/>
<path d="M460.606 89.938C460.606 89.938 461.183 89.1251 462.658 88.1351C464.106 87.1685 466.638 86.094 469.848 86.433C471.429 86.6113 473.158 87.1263 474.735 88.1715C476.294 89.2155 477.767 90.7005 478.687 92.629C479.171 93.5756 479.507 94.6278 479.69 95.7258C479.888 96.8214 479.916 97.9744 479.752 99.1228C479.473 101.428 478.384 103.7 476.693 105.484C474.97 107.24 472.741 108.411 470.449 108.771C469.309 108.976 468.157 108.988 467.056 108.828C465.953 108.684 464.891 108.385 463.929 107.933C461.971 107.081 460.436 105.659 459.34 104.135C458.242 102.594 457.667 100.881 457.433 99.3058C456.982 96.1058 457.966 93.5345 458.88 92.0518C459.814 90.5433 460.606 89.938 460.606 89.938C460.666 89.9885 459.941 90.663 459.091 92.1774C458.262 93.6659 457.383 96.1774 457.873 99.2413C458.125 100.75 458.7 102.378 459.765 103.834C460.83 105.273 462.303 106.611 464.164 107.403C465.079 107.826 466.088 108.101 467.133 108.231C468.177 108.377 469.267 108.36 470.345 108.162C472.511 107.814 474.609 106.705 476.238 105.047C477.835 103.359 478.867 101.221 479.139 99.0419C479.3 97.958 479.277 96.8659 479.096 95.8266C478.929 94.7862 478.619 93.7867 478.165 92.8859C477.31 91.0512 475.922 89.6237 474.448 88.609C472.957 87.5943 471.313 87.077 469.798 86.8776C466.722 86.4952 464.246 87.4618 462.789 88.3451C461.306 89.2471 460.659 89.9967 460.606 89.938Z" fill="#F5F5F5"/>
<path d="M455.126 76.239C455.126 76.2484 455.012 76.1874 454.784 76.0584C454.535 75.9141 454.2 75.7206 453.766 75.4695C452.838 74.9206 451.501 74.1299 449.766 73.1035L449.89 73.0871C448.074 74.9921 445.687 77.4977 442.797 80.5288L442.816 80.3294C443.853 81.9001 445.006 83.6455 446.24 85.513L446.302 85.6068L446.247 85.7054C445.238 87.5353 444.391 89.6174 443.834 91.9036L443.805 92.0256L443.682 92.0561C441.804 92.523 439.77 93.0274 437.655 93.5541L437.826 93.3312C437.891 96.5688 437.958 100.006 438.03 103.614L437.832 103.375C439.715 103.763 441.789 104.191 443.914 104.63L444.069 104.663L444.112 104.815C444.677 106.8 445.559 108.911 446.763 110.896L446.849 111.037L446.763 111.179C445.769 112.827 444.671 114.645 443.553 116.497L443.509 116.148C445.832 118.389 448.339 120.806 450.909 123.283L450.543 123.249C452.159 122.186 453.934 121.019 455.731 119.837L455.883 119.737L456.043 119.825C457.855 120.836 459.971 121.7 462.202 122.246L462.381 122.29L462.426 122.47C462.89 124.361 463.397 126.425 463.908 128.508L463.602 128.272C466.854 128.214 470.34 128.151 473.874 128.087L473.573 128.337C473.972 126.414 474.402 124.339 474.837 122.25L474.875 122.062L475.059 122.011C477.083 121.438 479.178 120.552 481.12 119.375L481.125 119.371L481.29 119.273L481.452 119.371C483.234 120.453 485.005 121.528 486.759 122.594L486.369 122.644C488.782 120.144 491.161 117.677 493.507 115.246L493.47 115.635C492.326 113.885 491.193 112.151 490.07 110.436L489.967 110.279L490.059 110.115C491.149 108.158 491.96 106.076 492.484 103.953L492.528 103.772L492.708 103.729C494.748 103.229 496.757 102.738 498.739 102.253L498.51 102.551C498.452 99.0403 498.395 95.6104 498.34 92.2673L498.571 92.5465C496.508 92.1148 494.483 91.689 492.493 91.2725L492.325 91.2374L492.278 91.072C491.663 88.8913 490.764 86.8432 489.647 84.9851L489.562 84.8432L489.647 84.7024C490.753 82.8819 491.827 81.1177 492.874 79.3945L492.916 79.7194C490.321 77.2009 487.872 74.8232 485.54 72.5604L485.841 72.5886C484.012 73.7815 482.297 74.9018 480.641 75.9822L480.525 76.0572L480.406 75.9904C478.336 74.8314 476.263 74.0478 474.233 73.5387L474.11 73.5082L474.081 73.3862C473.552 71.1903 473.073 69.2126 472.622 67.3428L472.808 67.4847C468.827 67.5375 465.438 67.5809 462.535 67.6196L462.671 67.507C462.149 69.9352 461.723 71.927 461.367 73.5857L461.354 73.6466L461.295 73.6631C459.121 74.2707 457.593 74.9816 456.598 75.4719C456.123 75.7206 455.759 75.9106 455.493 76.0502C455.245 76.1886 455.126 76.2472 455.126 76.239C455.126 76.2308 455.244 76.1499 455.469 76.0056C455.704 75.8613 456.059 75.6431 456.551 75.3804C457.534 74.8572 459.058 74.1112 461.241 73.4683L461.17 73.5458C461.504 71.8824 461.905 69.8848 462.395 67.4507L462.417 67.3405L462.532 67.3381C465.434 67.2748 468.824 67.1997 472.804 67.1129L472.953 67.1094L472.989 67.2548C473.452 69.1199 473.943 71.0953 474.488 73.2877L474.336 73.1352C476.402 73.6396 478.517 74.4244 480.629 75.5939L480.395 75.6021C482.045 74.5135 483.755 73.3851 485.578 72.1827L485.739 72.0771L485.878 72.212C488.219 74.4654 490.678 76.8338 493.284 79.3417L493.435 79.4872L493.326 79.6678C492.285 81.3945 491.217 83.1622 490.117 84.9863V84.7036C491.264 86.5992 492.19 88.6907 492.825 90.9183L492.61 90.7177C494.601 91.1306 496.628 91.5494 498.691 91.9775L498.919 92.0245L498.923 92.2579C498.985 95.6022 499.049 99.0309 499.114 102.542L499.119 102.782L498.886 102.84C496.902 103.329 494.895 103.823 492.855 104.325L493.079 104.101C492.545 106.278 491.718 108.412 490.601 110.419L490.589 110.097C491.713 111.812 492.848 113.545 493.994 115.294L494.131 115.503L493.958 115.683C491.613 118.116 489.235 120.584 486.824 123.085L486.649 123.267L486.434 123.135C484.679 122.07 482.908 120.996 481.126 119.914H481.453L481.447 119.917C479.455 121.125 477.307 122.033 475.233 122.619L475.455 122.38C475.021 124.469 474.59 126.544 474.189 128.467L474.137 128.713L473.887 128.718C470.353 128.779 466.866 128.839 463.614 128.894L463.367 128.899L463.308 128.658C462.798 126.574 462.296 124.51 461.833 122.618L462.057 122.842C459.773 122.28 457.604 121.392 455.752 120.353L456.063 120.341C454.263 121.52 452.486 122.684 450.868 123.743L450.671 123.872L450.502 123.709C447.938 121.226 445.438 118.802 443.12 116.556L442.957 116.4L443.074 116.208C444.197 114.359 445.3 112.544 446.299 110.9V111.182C445.074 109.151 444.181 106.991 443.612 104.962L443.81 105.146C441.685 104.699 439.614 104.263 437.732 103.867L437.538 103.826L437.534 103.628C437.479 100.02 437.427 96.5817 437.377 93.3441L437.375 93.1635L437.55 93.1212C439.668 92.6075 441.704 92.1136 443.585 91.6573L443.434 91.8098C444.012 89.4884 444.888 87.3793 445.924 85.5294L445.931 85.7218C444.713 83.8438 443.574 82.0889 442.55 80.51L442.48 80.4021L442.569 80.3106C445.492 77.3135 447.909 74.8361 449.747 72.9522L449.805 72.8936L449.873 72.9358C451.569 73.9927 452.876 74.8068 453.783 75.3722C454.211 75.6443 454.542 75.8543 454.788 76.0115C455.012 76.1511 455.126 76.2297 455.126 76.239Z" fill="#F5F5F5"/>
</g>
<g class="el1">
<path  opacity="0.5" d="M133.835 47.2648C135.778 46.0895 137.845 45.1991 139.978 44.5927L141.244 38.5058L151.517 38.3252L152.995 44.3628C155.147 44.8941 157.246 45.7117 159.228 46.8179L164.42 43.4103L171.81 50.5552L168.593 55.8678C169.767 57.8127 170.658 59.8843 171.262 62.0192L177.342 63.286L177.522 73.57L171.491 75.0503C170.96 77.2052 170.143 79.3049 169.038 81.2896L172.441 86.4885L165.306 93.8891L159.998 90.6668C158.055 91.8422 155.987 92.7325 153.855 93.339L152.59 99.4258L142.318 99.6065L140.839 93.5677C138.687 93.0363 136.59 92.2187 134.608 91.1126L129.416 94.5202L122.024 87.3753L125.243 82.0615C124.069 80.1166 123.178 78.0462 122.573 75.9113L116.493 74.6445L116.312 64.3605L122.344 62.8802C122.875 60.7253 123.691 58.6256 124.796 56.6408L121.394 51.4432L128.529 44.0437L133.835 47.2648ZM139.312 60.9658C135.083 65.3506 135.206 72.3359 139.586 76.5682C143.964 80.8005 150.942 80.6773 155.17 76.2937C159.397 71.909 159.275 64.9236 154.896 60.6913C150.516 56.459 143.539 56.581 139.312 60.9658Z" fill="#C53F8B"/>
<path d="M139.317 60.9664C139.317 60.9664 139.894 60.1535 141.369 59.1634C142.817 58.1968 145.349 57.1224 148.559 57.4614C150.139 57.6397 151.869 58.1546 153.446 59.1998C155.005 60.2438 156.478 61.7288 157.398 63.6573C157.882 64.6039 158.218 65.6561 158.401 66.7541C158.599 67.8497 158.627 69.0039 158.463 70.1512C158.184 72.4562 157.095 74.7271 155.404 76.5125C153.681 78.2685 151.452 79.438 149.16 79.7993C148.02 80.0046 146.868 80.0163 145.767 79.8568C144.663 79.7125 143.602 79.4134 142.64 78.9618C140.682 78.109 139.147 76.6873 138.051 75.1635C136.953 73.6221 136.377 71.9095 136.144 70.3353C135.693 67.1353 136.677 64.564 137.591 63.0813C138.525 61.5716 139.317 60.9664 139.317 60.9664C139.377 61.0168 138.652 61.6901 137.802 63.2057C136.973 64.6942 136.094 67.2057 136.584 70.2696C136.836 71.7781 137.41 73.4063 138.476 74.862C139.54 76.3013 141.014 77.6398 142.875 78.4316C143.79 78.8527 144.799 79.1295 145.844 79.2597C146.888 79.4052 147.978 79.3887 149.055 79.1905C151.221 78.8421 153.319 77.7336 154.948 76.0749C156.545 74.387 157.577 72.2497 157.849 70.0702C158.009 68.9863 157.987 67.8943 157.805 66.8549C157.639 65.8145 157.329 64.8151 156.875 63.9142C156.019 62.0796 154.631 60.652 153.158 59.6373C151.667 58.6227 150.022 58.1053 148.507 57.9059C145.432 57.5235 142.956 58.4901 141.499 59.3734C140.015 60.2754 139.369 61.0238 139.317 60.9664Z" fill="#E0E0E0"/>
<path d="M133.854 47.2637C133.854 47.273 133.739 47.212 133.512 47.083C133.262 46.9387 132.927 46.7452 132.494 46.4941C131.566 45.9452 130.229 45.1545 128.494 44.1282L128.618 44.1117C126.802 46.0167 124.414 48.5223 121.525 51.5534L121.544 51.354C122.581 52.9247 123.734 54.6701 124.967 56.5376L125.029 56.6314L124.974 56.73C123.966 58.5599 123.118 60.642 122.562 62.9282L122.533 63.0502L122.41 63.0807C120.532 63.5476 118.498 64.0532 116.383 64.5787L116.554 64.3558C116.618 67.5934 116.686 71.0303 116.758 74.6386L116.56 74.3993C118.442 74.7876 120.516 75.2157 122.64 75.6544L122.795 75.6861L122.838 75.8386C123.403 77.8233 124.285 79.9348 125.49 81.9195L125.575 82.0603L125.49 82.2023C124.495 83.8504 123.397 85.6685 122.28 87.5208L122.235 87.1712C124.558 89.4128 127.066 91.8293 129.635 94.3067L129.27 94.2727C130.885 93.2099 132.66 92.0428 134.458 90.8604L134.61 90.7607L134.769 90.8486C136.582 91.8598 138.698 92.7231 140.928 93.2698L141.108 93.3132L141.152 93.4938C141.616 95.3847 142.124 97.4481 142.634 99.5314L142.329 99.2956C145.581 99.2369 149.067 99.1748 152.6 99.1102L152.299 99.3601C152.699 97.4375 153.129 95.3624 153.563 93.2733L153.602 93.0856L153.786 93.034C155.809 92.4615 157.904 91.5759 159.847 90.3982L159.853 90.3947L160.018 90.2961L160.18 90.3947C161.962 91.4762 163.733 92.5519 165.487 93.617L165.097 93.6674C167.509 91.1677 169.889 88.7008 172.234 86.2691L172.198 86.6586C171.053 84.9084 169.921 83.1747 168.798 81.4597L168.695 81.3025L168.786 81.1383C169.877 79.1817 170.688 77.0996 171.212 74.9764L171.256 74.7958L171.437 74.7524C173.476 74.2526 175.485 73.7623 177.468 73.2767L177.239 73.5746C177.181 70.0638 177.124 66.635 177.069 63.2907L177.301 63.5699C175.239 63.1382 173.213 62.7124 171.223 62.296L171.055 62.2608L171.009 62.0966C170.394 59.9159 169.495 57.8678 168.379 56.0097L168.293 55.8678L168.379 55.727C169.485 53.9065 170.558 52.1423 171.605 50.4191L171.647 50.7452C169.052 48.2267 166.604 45.849 164.271 43.585L164.572 43.6132C162.743 44.8062 161.028 45.9264 159.372 47.0068L159.256 47.0818L159.137 47.015C157.068 45.856 154.994 45.0724 152.965 44.5633L152.842 44.5328L152.812 44.4109C152.283 42.2149 151.805 40.2372 151.354 38.3674L151.539 38.5105C147.559 38.5621 144.169 38.6067 141.266 38.6454L141.402 38.5328C140.88 40.961 140.454 42.9528 140.098 44.6114L140.085 44.6724L140.026 44.6889C137.853 45.2965 136.324 46.0073 135.329 46.4977C134.855 46.7463 134.49 46.9364 134.224 47.076C133.972 47.2132 133.854 47.2719 133.854 47.2637C133.854 47.2554 133.971 47.1745 134.196 47.0302C134.431 46.8859 134.787 46.6689 135.279 46.405C136.262 45.8818 137.786 45.1358 139.969 44.493L139.897 44.5692C140.233 42.9059 140.633 40.9082 141.123 38.4742L141.145 38.3639L141.26 38.3616C144.162 38.2982 147.552 38.2231 151.531 38.1363L151.679 38.1328L151.716 38.2783C152.178 40.1434 152.669 42.1188 153.214 44.3111L153.062 44.1587C155.127 44.6631 157.242 45.4478 159.355 46.6173L159.12 46.6255C160.77 45.537 162.481 44.4085 164.304 43.2062L164.464 43.1006L164.604 43.2355C166.945 45.4889 169.404 47.8572 172.01 50.3651L172.161 50.5106L172.052 50.6912C171.01 52.4179 169.944 54.1857 168.843 56.0097V55.727C169.99 57.6227 170.915 59.7142 171.55 61.9417L171.336 61.7411C173.326 62.154 175.353 62.5728 177.417 62.9998L177.644 63.0467L177.649 63.2802C177.711 66.6245 177.774 70.0532 177.84 73.5641L177.844 73.8046L177.611 73.862C175.629 74.3512 173.621 74.845 171.581 75.3471L171.804 75.123C171.27 77.299 170.443 79.4339 169.327 81.4398L169.315 81.1184C170.438 82.8333 171.574 84.5659 172.72 86.3149L172.857 86.5237L172.683 86.7043C170.339 89.136 167.96 91.6052 165.549 94.1061L165.375 94.2879L165.159 94.1566C163.404 93.0914 161.634 92.017 159.852 90.9354H160.178L160.173 90.9378C158.181 92.146 156.032 93.0527 153.958 93.6404L154.181 93.4011C153.746 95.4903 153.314 97.5654 152.914 99.488L152.863 99.7343L152.612 99.739C149.078 99.8 145.592 99.8598 142.339 99.915L142.092 99.9196L142.033 99.6792C141.525 97.5947 141.021 95.5314 140.558 93.6393L140.782 93.8633C138.498 93.3014 136.33 92.4134 134.477 91.3741L134.788 91.3624C132.987 92.5413 131.211 93.7049 129.593 94.7642L129.396 94.8932L129.227 94.7302C126.664 92.2469 124.164 89.8234 121.845 87.5771L121.683 87.4199L121.8 87.2275C122.924 85.3788 124.026 83.5641 125.026 81.9195V82.2023C123.8 80.1706 122.908 78.011 122.338 75.9817L122.536 76.1659C120.412 75.7189 118.341 75.2826 116.459 74.8873L116.264 74.8462L116.261 74.648C116.206 71.0397 116.153 67.6016 116.104 64.364L116.102 64.1834L116.276 64.1412C118.394 63.6274 120.431 63.1335 122.311 62.6772L122.16 62.8297C122.739 60.5083 123.614 58.3992 124.651 56.5493L124.658 56.7417C123.44 54.8637 122.301 53.1088 121.277 51.53L121.206 51.422L121.295 51.3305C124.219 48.3335 126.636 45.856 128.474 43.9721L128.531 43.9135L128.599 43.9557C130.296 45.0126 131.602 45.8267 132.509 46.3921C132.938 46.6642 133.268 46.8742 133.514 47.0314C133.739 47.1757 133.854 47.2554 133.854 47.2637Z" fill="#CE629F"/>
</g>
<path d="M405.617 79.3041L405.612 79.2806L404.5 74.7352C402.862 74.3293 401.286 73.7088 399.816 72.89L395.888 75.4671L395.871 75.4507L390.27 70.036L390.282 70.0161L392.704 66.0172C391.834 64.5732 391.161 63.019 390.698 61.3955L386.099 60.4371L386.098 60.4137L385.961 52.6201L385.984 52.6142L390.524 51.4999C390.931 49.8588 391.551 48.2811 392.366 46.8101L389.793 42.8781L389.811 42.8605L395.218 37.2523L395.238 37.264L399.233 39.6898C400.674 38.8194 402.228 38.1438 403.848 37.6816L404.805 33.0775H404.829L412.613 32.9414L412.619 32.9649L413.731 37.5103C415.368 37.915 416.944 38.5356 418.415 39.3543L422.342 36.7772L422.36 36.7936L427.96 42.2083L427.949 42.2283L425.527 46.2271C426.395 47.6676 427.07 49.2218 427.533 50.8488L432.131 51.8072L432.133 51.8307L432.27 59.6254L432.246 59.6313L427.706 60.7445C427.302 62.382 426.682 63.9597 425.864 65.4342L428.438 69.3662L428.421 69.3838L423.014 74.9921L422.994 74.9803L418.999 72.5557C417.558 73.4249 416.005 74.1006 414.382 74.5639L413.425 79.168H413.402L405.617 79.3041ZM399.813 72.822L399.828 72.8302C401.305 73.6536 402.886 74.2765 404.531 74.6824L404.549 74.6871L404.554 74.7047L405.664 79.2443L413.378 79.1094L414.333 74.5146L414.351 74.5099C415.982 74.0454 417.541 73.3674 418.986 72.4935L419.001 72.4841L419.016 72.4935L423.007 74.9158L428.365 69.358L425.798 65.4354L425.807 65.4202C426.629 63.941 427.252 62.3574 427.656 60.7128L427.661 60.6952L427.678 60.6905L432.212 59.5785L432.076 51.8553L427.489 50.8993L427.484 50.8817C427.02 49.2476 426.342 47.6864 425.47 46.2412L425.46 46.2259L425.47 46.2107L427.89 42.2165L422.339 36.8511L418.421 39.4224L418.406 39.4142C416.928 38.5907 415.348 37.9678 413.703 37.562L413.685 37.5573L413.681 37.5397L412.57 33.0001L404.856 33.135L403.901 37.7297L403.883 37.7344C402.255 38.1977 400.697 38.8757 399.25 39.7508L399.234 39.7602L399.219 39.7508L395.229 37.3285L389.871 42.8863L392.437 46.8089L392.427 46.8242C391.607 48.2998 390.985 49.8834 390.578 51.5315L390.574 51.5491L390.556 51.5538L386.022 52.667L386.158 60.3902L390.745 61.3462L390.751 61.3638C391.213 62.9943 391.891 64.5556 392.765 66.0043L392.774 66.0196L392.765 66.0348L390.345 70.029L395.896 75.3944L399.813 72.822ZM409.361 64.2307C407.271 64.2307 405.177 63.4518 403.558 61.887C401.953 60.3351 401.046 58.2495 401.006 56.0148C400.967 53.7802 401.799 51.6641 403.35 50.0559C406.549 46.7374 411.853 46.6447 415.166 49.8482C418.481 53.0518 418.573 58.3585 415.374 61.6782C413.737 63.3768 411.549 64.2307 409.361 64.2307ZM409.363 47.5644C407.19 47.5644 405.018 48.4125 403.391 50.0981C401.853 51.6946 401.026 53.7955 401.066 56.0137C401.104 58.233 402.004 60.3034 403.599 61.8448C406.891 65.0272 412.155 64.9345 415.333 61.6383C418.51 58.3421 418.418 53.0717 415.125 49.8916C413.518 48.3386 411.438 47.5644 409.363 47.5644Z" fill="#E0E0E0"/>
<path d="M403.365 50.0788C403.365 50.0788 403.801 49.4641 404.915 48.7169C406.01 47.9873 407.922 47.1744 410.348 47.4313C411.542 47.565 412.85 47.9556 414.04 48.7439C415.219 49.5322 416.331 50.6548 417.025 52.1117C417.391 52.8272 417.645 53.6225 417.784 54.4519C417.933 55.28 417.955 56.1516 417.83 57.0184C417.619 58.7604 416.797 60.4765 415.519 61.8255C414.217 63.1522 412.533 64.0367 410.802 64.3088C409.941 64.4636 409.07 64.473 408.238 64.3522C407.405 64.2431 406.603 64.0179 405.875 63.6765C404.396 63.0326 403.237 61.9581 402.408 60.8073C401.579 59.6437 401.144 58.3487 400.968 57.1592C400.627 54.7416 401.371 52.7991 402.061 51.6788C402.768 50.5363 403.365 50.0788 403.365 50.0788C403.41 50.1175 402.863 50.6254 402.221 51.7703C401.594 52.8953 400.93 54.792 401.3 57.1076C401.491 58.2478 401.924 59.4771 402.729 60.5774C403.533 61.6648 404.646 62.676 406.053 63.2742C406.744 63.5933 407.506 63.8021 408.296 63.8994C409.084 64.0097 409.908 63.9968 410.722 63.8466C412.359 63.5839 413.944 62.7463 415.174 61.4924C416.381 60.2173 417.16 58.602 417.366 56.9551C417.488 56.1363 417.472 55.3117 417.334 54.5269C417.208 53.741 416.973 52.9856 416.631 52.3052C415.984 50.9187 414.935 49.8407 413.822 49.0747C412.696 48.3087 411.453 47.9169 410.308 47.7668C407.985 47.477 406.114 48.2078 405.013 48.8753C403.894 49.5568 403.405 50.1222 403.365 50.0788Z" fill="#EBEBEB"/>
<path d="M399.231 39.7238C399.231 39.7308 399.145 39.6839 398.972 39.5865C398.784 39.4774 398.531 39.3308 398.204 39.1408C397.502 38.7267 396.492 38.1284 395.181 37.3531L395.275 37.3413C393.903 38.7807 392.098 40.6739 389.916 42.9637L389.93 42.8135C390.713 44.0006 391.584 45.3191 392.517 46.7303L392.563 46.8006L392.522 46.8757C391.76 48.2575 391.12 49.8317 390.699 51.5596L390.677 51.6511L390.585 51.6746C389.166 52.0276 387.629 52.4089 386.03 52.8065L386.159 52.6388C386.209 55.0857 386.259 57.6816 386.314 60.4089L386.165 60.2283C387.588 60.5215 389.154 60.8453 390.76 61.1761L390.877 61.2007L390.91 61.3157C391.337 62.816 392.003 64.4113 392.914 65.9104L392.978 66.0172L392.914 66.1239C392.162 67.3697 391.333 68.7433 390.488 70.1415L390.455 69.8776C392.211 71.5714 394.104 73.3967 396.046 75.2688L395.769 75.243C396.99 74.4395 398.331 73.5585 399.689 72.6647L399.804 72.5896L399.924 72.6565C401.293 73.4201 402.893 74.0723 404.577 74.4852L404.713 74.5181L404.747 74.6541C405.098 76.0829 405.481 77.6418 405.867 79.216L405.635 79.0378C408.093 78.9932 410.726 78.9463 413.396 78.8982L413.169 79.087C413.47 77.6348 413.796 76.0665 414.124 74.4876L414.153 74.3456L414.291 74.3058C415.82 73.8729 417.403 73.2043 418.87 72.314L418.874 72.3116L418.999 72.2377L419.121 72.3116C420.467 73.1292 421.805 73.941 423.131 74.7468L422.836 74.7855C424.659 72.897 426.456 71.033 428.229 69.1961L428.201 69.4905C427.336 68.1685 426.48 66.8582 425.632 65.562L425.554 65.4435L425.623 65.3192C426.448 63.8412 427.06 62.2682 427.456 60.6635L427.49 60.5274L427.626 60.4946C429.166 60.1168 430.685 59.7462 432.183 59.379L432.01 59.6042C431.965 56.952 431.923 54.3608 431.881 51.8341L432.056 52.0452C430.497 51.7191 428.967 51.3977 427.464 51.0822L427.336 51.0552L427.301 50.9309C426.836 49.2839 426.158 47.7355 425.313 46.3326L425.249 46.2247L425.313 46.1179C426.149 44.7431 426.959 43.4094 427.751 42.1074L427.783 42.3537C425.823 40.451 423.971 38.654 422.209 36.9449L422.437 36.966C421.055 37.868 419.758 38.7138 418.508 39.5302L418.42 39.5877L418.33 39.5373C416.767 38.6622 415.199 38.0698 413.667 37.685L413.574 37.6616L413.552 37.5701C413.151 35.9103 412.791 34.4158 412.451 33.0047L412.59 33.1126C409.584 33.1525 407.021 33.1853 404.828 33.2146L404.931 33.129C404.538 34.9636 404.215 36.4686 403.946 37.7226L403.935 37.7683L403.891 37.7812C402.248 38.2399 401.093 38.7771 400.342 39.1478C399.983 39.3355 399.708 39.4786 399.508 39.5842C399.32 39.6862 399.231 39.7308 399.231 39.7238C399.231 39.7179 399.32 39.6569 399.49 39.5478C399.668 39.4387 399.937 39.2745 400.308 39.0763C401.051 38.6809 402.203 38.1179 403.851 37.6311L403.797 37.6886C404.05 36.4323 404.354 34.9226 404.723 33.0833L404.739 33L404.826 32.9976C407.019 32.9495 409.58 32.8932 412.587 32.8275L412.699 32.8252L412.726 32.9355C413.076 34.3454 413.447 35.8375 413.858 37.4938L413.743 37.3789C415.304 37.7601 416.902 38.3537 418.498 39.2358L418.321 39.2428C419.567 38.4205 420.86 37.5677 422.236 36.6586L422.358 36.5789L422.464 36.6809C424.233 38.3842 426.091 40.173 428.058 42.0675L428.172 42.1777L428.09 42.3138C427.302 43.6182 426.496 44.9543 425.666 46.3326V46.1191C426.533 47.5514 427.231 49.1314 427.711 50.8147L427.55 50.6634C429.054 50.9754 430.585 51.2922 432.145 51.6147L432.317 51.6499L432.32 51.8259C432.367 54.3526 432.415 56.9426 432.465 59.596L432.468 59.7778L432.291 59.8212C430.793 60.1907 429.275 60.5638 427.735 60.9438L427.903 60.7749C427.5 62.4195 426.875 64.0312 426.031 65.5479L426.022 65.3051C426.871 66.6013 427.729 67.9093 428.595 69.2313L428.698 69.3896L428.567 69.5257C426.795 71.3638 424.998 73.2278 423.177 75.1187L423.045 75.2559L422.882 75.1562C421.556 74.3515 420.217 73.5398 418.871 72.7222H419.119L419.114 72.7245C417.608 73.6371 415.986 74.3234 414.418 74.7668L414.585 74.5861C414.257 76.165 413.931 77.7322 413.628 79.1844L413.59 79.3709L413.4 79.3744C410.73 79.4202 408.096 79.4647 405.639 79.507L405.453 79.5105L405.408 79.3287C405.024 77.7545 404.643 76.1943 404.294 74.7656L404.463 74.9345C402.737 74.5099 401.099 73.8389 399.699 73.0541L399.933 73.0459C398.573 73.9363 397.23 74.816 396.008 75.616L395.859 75.7134L395.732 75.5902C393.795 73.7134 391.906 71.8835 390.153 70.1849L390.03 70.0664L390.118 69.921C390.967 68.5251 391.8 67.1538 392.555 65.9104V66.1239C391.63 64.5884 390.955 62.9567 390.525 61.4248L390.675 61.5632C389.07 61.2253 387.504 60.8957 386.083 60.5966L385.936 60.5649L385.933 60.4148C385.892 57.6887 385.852 55.0916 385.815 52.6447L385.812 52.5086L385.944 52.4757C387.544 52.0875 389.083 51.7144 390.504 51.3707L390.389 51.4857C390.826 49.732 391.488 48.1379 392.271 46.7408L392.275 46.8863C391.354 45.4681 390.494 44.1414 389.72 42.9484L389.667 42.8663L389.734 42.7971C391.943 40.5332 393.769 38.661 395.157 37.237L395.201 37.1924L395.252 37.224C396.534 38.0229 397.521 38.6375 398.206 39.0645C398.529 39.2698 398.779 39.4293 398.965 39.5478C399.145 39.6581 399.231 39.7167 399.231 39.7238Z" fill="#EBEBEB"/>
<path d="M44.1955 219.502L44.1897 219.48L43.0766 214.935C41.4387 214.529 39.8628 213.908 38.3925 213.089L34.4651 215.667L34.4476 215.65L28.8472 210.235L28.8589 210.215L31.2806 206.217C30.4125 204.775 29.7376 203.22 29.2748 201.595L24.6761 200.637V200.613L24.5391 192.82L24.5625 192.814L29.1026 191.699C29.508 190.059 30.1277 188.483 30.9444 187.01L28.3715 183.078L28.3879 183.06L33.795 177.452L33.8149 177.463L37.8101 179.889C39.2501 179.02 40.8025 178.344 42.4264 177.881L43.3836 173.277L43.407 173.276L51.1914 173.14L51.1972 173.163L52.3103 177.707C53.9482 178.112 55.5241 178.733 56.9945 179.551L60.9218 176.974L60.9393 176.991L66.5409 182.405L66.5292 182.425L64.1074 186.424C64.9756 187.867 65.6505 189.421 66.1133 191.046L70.7119 192.004V192.028L70.849 199.822L70.8256 199.828L66.2855 200.942C65.8813 202.581 65.2615 204.158 64.4437 205.631L67.0178 209.563L67.0014 209.581L61.5931 215.189L61.5732 215.177L57.5779 212.753C56.138 213.622 54.5844 214.298 52.9617 214.761L52.0045 219.365H51.981L44.1955 219.502ZM38.3913 213.02L38.4065 213.028C39.8816 213.852 41.4633 214.475 43.1083 214.881L43.1258 214.885L43.1305 214.903L44.2424 219.443L51.9564 219.308L52.9113 214.714L52.9289 214.709C54.5586 214.246 56.1181 213.568 57.5639 212.693L57.5791 212.684L57.5943 212.693L61.5849 215.115L66.944 209.557L64.3758 205.635L64.3839 205.62C65.2064 204.142 65.8286 202.558 66.234 200.912L66.2386 200.895L66.2562 200.89L70.7904 199.778L70.6545 192.054L66.0664 191.098L66.0617 191.08C65.5989 189.447 64.9217 187.887 64.0477 186.439L64.0383 186.424L64.0477 186.409L66.4671 182.415L60.9159 177.049L56.998 179.621L56.9827 179.612C55.5077 178.789 53.9248 178.166 52.281 177.76L52.2634 177.756L52.2587 177.738L51.1468 173.198L43.4328 173.333L42.4779 177.928L42.4604 177.933C40.8294 178.397 39.27 179.075 37.8254 179.949L37.8101 179.958L37.7949 179.949L33.8043 177.526L28.4465 183.083L31.0135 187.006L31.0053 187.021C30.1828 188.499 29.5607 190.083 29.1553 191.729L29.1506 191.746L29.133 191.751L24.5988 192.864L24.7336 200.587L29.3228 201.543L29.3275 201.561C29.7915 203.194 30.4687 204.755 31.3416 206.201L31.3509 206.217L31.3416 206.232L28.9221 210.226L34.4722 215.591L38.3913 213.02ZM47.9377 204.429C45.8475 204.429 43.755 203.65 42.1346 202.085C40.5283 200.533 39.6227 198.448 39.584 196.213C39.5442 193.978 40.3772 191.862 41.9273 190.254C45.1282 186.936 50.4286 186.842 53.7432 190.046C55.3495 191.598 56.2552 193.683 56.2938 195.919C56.3325 198.153 55.5006 200.268 53.9506 201.878C52.3138 203.575 50.1264 204.429 47.9377 204.429ZM47.9436 187.759C47.8932 187.759 47.844 187.76 47.7936 187.76C45.5781 187.799 43.509 188.7 41.9694 190.296C40.4299 191.893 39.6027 193.994 39.6426 196.212C39.6824 198.43 40.5811 200.502 42.1768 202.043C45.4679 205.225 50.7321 205.132 53.9096 201.837C55.4491 200.24 56.2751 198.139 56.2364 195.921C56.1978 193.702 55.2979 191.631 53.7033 190.09C52.1451 188.584 50.1041 187.759 47.9436 187.759Z" fill="#E0E0E0"/>
<path d="M41.9424 190.273C41.9424 190.273 42.3782 189.658 43.4924 188.911C44.5867 188.182 46.5 187.369 48.9253 187.626C50.1192 187.761 51.4267 188.15 52.6171 188.939C53.7958 189.728 54.9077 190.85 55.6036 192.307C55.9692 193.023 56.2234 193.818 56.3616 194.647C56.5116 195.476 56.5327 196.347 56.4085 197.214C56.1976 198.956 55.3751 200.672 54.0969 202.021C52.7952 203.348 51.1116 204.232 49.3799 204.504C48.5187 204.659 47.6482 204.669 46.8164 204.548C45.9833 204.439 45.1808 204.213 44.4532 203.872C42.9746 203.228 41.8147 202.154 40.9863 201.003C40.1568 199.839 39.7221 198.544 39.5464 197.355C39.2054 194.937 39.9494 192.995 40.6395 191.874C41.3448 190.731 41.9424 190.273 41.9424 190.273C41.9881 190.312 41.4397 190.82 40.7977 191.965C40.1709 193.09 39.5065 194.986 39.8768 197.302C40.0666 198.442 40.5013 199.671 41.3062 200.772C42.1099 201.859 43.223 202.87 44.6301 203.469C45.3214 203.788 46.0829 203.995 46.8726 204.094C47.6611 204.204 48.4848 204.191 49.299 204.041C50.9358 203.777 52.521 202.941 53.7512 201.687C54.958 200.412 55.7372 198.796 55.9422 197.149C56.0641 196.331 56.0476 195.506 55.9094 194.721C55.784 193.935 55.5485 193.18 55.2064 192.5C54.5597 191.113 53.5111 190.035 52.398 189.269C51.2721 188.503 50.029 188.111 48.8843 187.961C46.5609 187.671 44.6898 188.402 43.5885 189.07C42.4708 189.751 41.9822 190.317 41.9424 190.273Z" fill="#EBEBEB"/>
<path d="M37.8082 179.923C37.8082 179.93 37.7215 179.884 37.5492 179.786C37.3606 179.676 37.1075 179.53 36.7806 179.341C36.08 178.927 35.0689 178.329 33.7578 177.553L33.8527 177.542C32.4807 178.981 30.6764 180.874 28.4937 183.164L28.5077 183.014C29.2916 184.201 30.1621 185.519 31.0947 186.93L31.1416 187.001L31.1006 187.076C30.3378 188.458 29.6981 190.032 29.2775 191.76L29.2552 191.851L29.1627 191.875C27.7438 192.228 26.2067 192.609 24.6085 193.007L24.7386 192.839C24.7878 195.286 24.8382 197.882 24.8933 200.609L24.7433 200.428C26.1657 200.722 27.7321 201.045 29.3384 201.376L29.4556 201.401L29.4884 201.516C29.9149 203.016 30.5815 204.61 31.4919 206.111L31.5563 206.217L31.4919 206.325C30.7397 207.571 29.9114 208.945 29.0666 210.343L29.0326 210.079C30.7889 211.773 32.6823 213.598 34.6237 215.47L34.3472 215.444C35.568 214.641 36.9095 213.76 38.2674 212.866L38.3823 212.791L38.5018 212.858C39.8702 213.621 41.4707 214.275 43.1555 214.687L43.2914 214.719L43.3242 214.856C43.6745 216.284 44.0577 217.843 44.4443 219.417L44.2135 219.239C46.6704 219.195 49.3042 219.148 51.9744 219.1L51.7471 219.288C52.0482 217.836 52.3739 216.268 52.702 214.689L52.7312 214.547L52.8695 214.508C54.3973 214.075 55.9814 213.407 57.4482 212.517L57.4529 212.514L57.5783 212.44L57.7001 212.514C59.0464 213.332 60.3844 214.143 61.7106 214.948L61.4154 214.987C63.2373 213.098 65.0357 211.234 66.8084 209.397L66.7803 209.692C65.9156 208.369 65.0592 207.06 64.2109 205.763L64.1336 205.645L64.2027 205.522C65.0275 204.044 65.6403 202.471 66.0351 200.866L66.0691 200.73L66.205 200.697C67.7457 200.319 69.2642 199.949 70.7627 199.582L70.5893 199.807C70.5459 197.155 70.5026 194.563 70.4604 192.037L70.635 192.248C69.0767 191.922 67.5465 191.6 66.0433 191.285L65.9168 191.258L65.8817 191.133C65.4165 189.485 64.7381 187.938 63.8934 186.535L63.829 186.427L63.8934 186.32C64.7288 184.946 65.5395 183.612 66.3316 182.31L66.3632 182.556C64.4031 180.654 62.5519 178.857 60.7897 177.147L61.017 177.169C59.6357 178.071 58.3387 178.916 57.0886 179.733L57.0007 179.79L56.9105 179.74C55.3475 178.864 53.7799 178.272 52.2474 177.888L52.1548 177.864L52.1325 177.773C51.7318 176.113 51.371 174.618 51.03 173.207L51.1695 173.315C48.1631 173.355 45.6007 173.388 43.4074 173.417L43.5105 173.332C43.1168 175.166 42.7946 176.671 42.5252 177.924L42.5146 177.97L42.4701 177.983C40.8275 178.441 39.6722 178.979 38.9212 179.349C38.5627 179.537 38.2874 179.68 38.0858 179.786C37.8972 179.885 37.8082 179.93 37.8082 179.923C37.8082 179.917 37.8972 179.856 38.0671 179.747C38.2452 179.638 38.5135 179.474 38.8849 179.275C39.6277 178.88 40.7794 178.317 42.4279 177.83L42.374 177.889C42.6271 176.632 42.9305 175.123 43.2996 173.283L43.316 173.2L43.4027 173.198C45.596 173.15 48.1572 173.093 51.1636 173.028L51.2761 173.025L51.3042 173.136C51.6545 174.546 52.0248 176.038 52.436 177.694L52.3212 177.579C53.8818 177.96 55.4799 178.554 57.0757 179.436L56.8987 179.442C58.1454 178.62 59.4377 177.767 60.8143 176.858L60.9362 176.778L61.0416 176.88C62.8108 178.583 64.669 180.372 66.6374 182.267L66.751 182.377L66.669 182.513C65.8817 183.817 65.0756 185.153 64.2449 186.532V186.318C65.1119 187.75 65.8102 189.33 66.2906 191.014L66.1289 190.862C67.6333 191.174 69.1646 191.491 70.7228 191.814L70.8951 191.849L70.8986 192.025C70.9455 194.552 70.9935 197.142 71.0427 199.795L71.0462 199.977L70.8693 200.02C69.3708 200.39 67.8535 200.763 66.3128 201.143L66.4815 200.974C66.0785 202.619 65.4528 204.231 64.6093 205.747L64.6011 205.504C65.4505 206.8 66.3081 208.108 67.174 209.43L67.2771 209.589L67.1458 209.725C65.3743 211.563 63.5771 213.428 61.7563 215.318L61.6239 215.455L61.4611 215.355C60.1348 214.551 58.7968 213.739 57.4506 212.921H57.6978L57.6931 212.924C56.1876 213.836 54.5649 214.522 52.9972 214.966L53.1648 214.785C52.8367 216.364 52.5098 217.931 52.2075 219.385L52.1689 219.57L51.9791 219.573C49.3089 219.619 46.6751 219.664 44.2182 219.706L44.0307 219.71L43.9862 219.528C43.6019 217.953 43.2211 216.393 42.872 214.965L43.0407 215.134C41.3149 214.709 39.6769 214.038 38.2768 213.253L38.5111 213.245C37.1509 214.135 35.8082 215.015 34.5862 215.815L34.4374 215.912L34.3097 215.789C32.373 213.912 30.4843 212.082 28.7315 210.384L28.6085 210.265L28.6964 210.12C29.5446 208.723 30.3777 207.353 31.1334 206.109V206.323C30.2078 204.787 29.5329 203.156 29.1029 201.624L29.2529 201.762C27.6478 201.424 26.0825 201.096 24.6613 200.796L24.5136 200.765L24.5113 200.615C24.4691 197.889 24.4305 195.292 24.393 192.845L24.3906 192.709L24.5218 192.677C26.1223 192.289 27.6607 191.916 29.0818 191.571L28.967 191.686C29.404 189.932 30.066 188.338 30.8498 186.941L30.8545 187.086C29.9348 185.668 29.0736 184.342 28.2992 183.149L28.2465 183.066L28.3144 182.997C30.5229 180.733 32.3495 178.861 33.7379 177.437L33.7813 177.393L33.8328 177.424C35.1146 178.223 36.1023 178.838 36.7865 179.265C37.1099 179.47 37.3594 179.63 37.5457 179.748C37.7215 179.857 37.8082 179.917 37.8082 179.923Z" fill="#EBEBEB"/>
<path d="M207.677 156.872C213.364 151.679 219.656 147.348 226.352 143.921L226.548 122.832L260.607 115.444L269.505 134.558C277.018 134.902 284.536 136.236 291.861 138.607L306.889 123.841L336.19 142.729L328.987 162.533C334.176 168.229 338.501 174.531 341.923 181.235L362.984 181.432L370.364 215.529L351.273 224.441C350.929 231.96 349.596 239.487 347.229 246.821L361.976 261.867L343.114 291.202L323.331 283.989C317.643 289.184 311.35 293.513 304.653 296.94L304.455 318.028L270.398 325.416L261.498 306.302C253.987 305.957 246.469 304.622 239.145 302.252L224.117 317.018L194.816 298.13L202.019 278.325C196.831 272.63 192.504 266.331 189.082 259.625L168.02 259.427L160.641 225.33L179.732 216.418C180.077 208.899 181.411 201.372 183.777 194.038L169.03 178.993L187.893 149.657L207.677 156.872ZM226.7 195.42C212.902 216.877 219.09 245.468 240.521 259.281C261.952 273.094 290.509 266.897 304.305 245.441C318.101 223.986 311.915 195.393 290.483 181.581C269.052 167.77 240.496 173.964 226.7 195.42Z" fill="#CE629F"/>
<path d="M226.701 195.42C226.701 195.42 226.831 195.203 227.111 194.794C227.406 194.369 227.824 193.769 228.368 192.989C228.648 192.591 228.958 192.149 229.302 191.661C229.667 191.189 230.115 190.712 230.573 190.173C231.038 189.638 231.539 189.064 232.074 188.45C232.587 187.813 233.279 187.277 233.932 186.631C236.533 184.031 240.218 181.343 244.866 178.964C249.522 176.613 255.292 174.731 261.866 174.204C262.687 174.144 263.519 174.084 264.359 174.023C265.202 174.013 266.055 174.055 266.916 174.07C267.776 174.115 268.653 174.061 269.526 174.186C270.4 174.293 271.285 174.401 272.178 174.51C272.624 174.566 273.072 174.624 273.523 174.681C273.965 174.78 274.412 174.879 274.859 174.979C275.755 175.18 276.659 175.382 277.572 175.586C278.477 175.817 279.361 176.158 280.269 176.443C281.164 176.766 282.108 176.985 282.977 177.423C284.74 178.227 286.585 178.943 288.284 180.017C289.145 180.529 290.047 180.991 290.894 181.553C291.722 182.145 292.556 182.743 293.395 183.345C293.808 183.654 294.249 183.932 294.646 184.267L295.821 185.303C296.599 186.006 297.418 186.675 298.176 187.418C299.601 188.995 301.163 190.494 302.408 192.294C303.801 193.982 304.895 195.908 306.068 197.811C306.606 198.789 307.064 199.819 307.569 200.83C307.805 201.344 308.09 201.837 308.286 202.371L308.884 203.973C309.772 206.085 310.286 208.344 310.897 210.595C311.278 212.896 311.742 215.21 311.816 217.592L311.942 219.374L311.903 221.167L311.856 222.969C311.855 223.572 311.822 224.174 311.727 224.772C311.58 225.972 311.431 227.175 311.282 228.385C311.016 229.574 310.749 230.767 310.482 231.965C309.234 236.712 307.239 241.326 304.566 245.604C301.782 249.811 298.415 253.543 294.614 256.646C293.636 257.387 292.661 258.124 291.69 258.859C290.652 259.496 289.618 260.129 288.589 260.761L287.814 261.229L287.002 261.625L285.383 262.413L283.769 263.192L282.097 263.816C279.9 264.736 277.603 265.271 275.353 265.875C273.053 266.251 270.787 266.716 268.497 266.783L266.793 266.901C266.227 266.943 265.66 266.887 265.095 266.885C263.967 266.842 262.841 266.852 261.728 266.766C259.511 266.486 257.307 266.285 255.196 265.715C253.042 265.327 251.033 264.523 249.01 263.877C248.021 263.492 247.072 263.024 246.111 262.605L244.682 261.964C244.213 261.741 243.776 261.455 243.325 261.205C242.43 260.689 241.542 260.176 240.661 259.667C239.8 259.127 239.005 258.498 238.184 257.924C236.504 256.82 235.09 255.434 233.627 254.16C232.869 253.55 232.28 252.778 231.616 252.096C230.981 251.387 230.305 250.723 229.72 249.993C229.156 249.246 228.599 248.506 228.046 247.773L227.221 246.678L226.509 245.523C226.04 244.754 225.576 243.993 225.117 243.24C224.642 242.496 224.327 241.674 223.931 240.909C223.562 240.129 223.169 239.37 222.831 238.598C222.538 237.806 222.248 237.024 221.963 236.251C219.721 230.041 219.045 224.003 219.255 218.787C219.494 213.566 220.413 209.097 221.7 205.65C222.018 204.787 222.219 203.935 222.585 203.203C222.922 202.462 223.237 201.768 223.53 201.122C223.83 200.482 224.08 199.877 224.356 199.348C224.657 198.834 224.931 198.367 225.176 197.948C225.661 197.129 226.034 196.501 226.298 196.055C226.557 195.629 226.701 195.42 226.701 195.42C226.701 195.42 226.592 195.651 226.354 196.087C226.103 196.538 225.748 197.176 225.286 198.007C225.05 198.429 224.785 198.9 224.494 199.417C224.227 199.948 223.987 200.555 223.698 201.197C223.414 201.844 223.108 202.538 222.783 203.281C222.427 204.013 222.236 204.864 221.927 205.725C220.681 209.166 219.803 213.615 219.598 218.799C219.421 223.978 220.123 229.961 222.37 236.103C222.656 236.868 222.947 237.642 223.24 238.425C223.578 239.188 223.97 239.939 224.339 240.71C224.733 241.466 225.047 242.279 225.521 243.014C225.978 243.757 226.441 244.509 226.907 245.268L227.615 246.409L228.435 247.49C228.984 248.214 229.538 248.944 230.097 249.682C230.677 250.402 231.349 251.057 231.979 251.757C232.638 252.429 233.222 253.191 233.974 253.793C235.425 255.048 236.825 256.417 238.491 257.503C239.304 258.068 240.09 258.689 240.943 259.221C241.816 259.722 242.696 260.227 243.582 260.734C244.029 260.981 244.459 261.262 244.924 261.482L246.338 262.113C247.289 262.523 248.227 262.986 249.205 263.363C251.207 263.997 253.192 264.788 255.32 265.167C257.407 265.728 259.585 265.922 261.773 266.196C262.872 266.278 263.984 266.266 265.099 266.308C265.656 266.309 266.216 266.365 266.775 266.322L268.458 266.202C270.718 266.135 272.956 265.671 275.226 265.299C277.448 264.698 279.715 264.169 281.882 263.259L283.533 262.643L285.126 261.872L286.723 261.093L287.525 260.703L288.289 260.239C289.305 259.615 290.325 258.989 291.349 258.36C292.307 257.634 293.268 256.906 294.234 256.175C297.982 253.11 301.304 249.428 304.053 245.275C306.69 241.052 308.659 236.501 309.894 231.817C310.158 230.635 310.423 229.457 310.686 228.284C310.833 227.091 310.981 225.901 311.127 224.718C311.221 224.128 311.255 223.533 311.255 222.938L311.302 221.16L311.343 219.39L311.22 217.63C311.151 215.279 310.693 212.995 310.319 210.721C309.718 208.498 309.214 206.267 308.339 204.181L307.751 202.598C307.559 202.07 307.276 201.583 307.044 201.075C306.546 200.077 306.096 199.059 305.567 198.091C304.41 196.211 303.335 194.306 301.961 192.637C300.735 190.855 299.194 189.372 297.789 187.811C297.042 187.075 296.232 186.411 295.466 185.716L294.307 184.688C293.916 184.355 293.481 184.08 293.073 183.773C292.244 183.176 291.42 182.584 290.604 181.995C289.767 181.437 288.877 180.978 288.026 180.471C286.35 179.403 284.525 178.693 282.784 177.891C281.927 177.454 280.993 177.237 280.108 176.915C279.211 176.63 278.338 176.289 277.443 176.058C276.541 175.854 275.647 175.651 274.761 175.451C274.318 175.35 273.878 175.25 273.439 175.15C272.994 175.093 272.55 175.034 272.108 174.977C271.225 174.865 270.351 174.756 269.485 174.647C268.622 174.519 267.752 174.57 266.901 174.523C266.048 174.505 265.203 174.46 264.369 174.467C263.536 174.523 262.712 174.579 261.898 174.635C255.382 175.13 249.652 176.966 245.016 179.271C240.387 181.603 236.704 184.245 234.092 186.806C233.436 187.443 232.742 187.969 232.224 188.597C231.684 189.202 231.179 189.768 230.708 190.294C230.244 190.824 229.79 191.295 229.419 191.758C229.069 192.237 228.751 192.673 228.465 193.064C227.9 193.829 227.467 194.416 227.161 194.831C226.866 195.226 226.701 195.42 226.701 195.42Z" fill="#263238"/>
<path d="M207.682 156.873C207.682 156.873 207.257 156.734 206.413 156.435C205.56 156.13 204.301 155.679 202.642 155.084C199.295 153.877 194.339 152.089 187.864 149.752L187.979 149.713C183.187 157.192 176.846 167.09 169.165 179.08L169.145 178.887C173.614 183.436 178.587 188.498 183.91 193.916L183.986 193.994L183.953 194.097C181.774 200.882 180.301 208.41 179.939 216.43L179.933 216.551L179.823 216.603C173.877 219.384 167.438 222.396 160.739 225.529L160.86 225.287C163.19 236.02 165.664 247.413 168.261 259.379L168.029 259.191C174.548 259.248 181.729 259.311 189.092 259.376L189.244 259.377L189.313 259.513C192.515 265.796 196.868 272.292 202.22 278.15L202.328 278.267L202.273 278.418C200.042 284.557 197.583 291.328 195.078 298.225L194.97 297.903C204.174 303.831 214.103 310.225 224.277 316.78L223.924 316.817C228.603 312.217 233.741 307.165 238.947 302.046L239.072 301.923L239.24 301.977C245.991 304.167 253.67 305.658 261.519 306.007L261.697 306.015L261.773 306.177C264.561 312.163 267.604 318.693 270.676 325.291L270.342 325.125C281.125 322.785 292.682 320.276 304.398 317.733L304.159 318.026C304.221 311.366 304.288 304.177 304.356 296.937L304.357 296.752L304.521 296.669C310.931 293.397 317.377 289.029 323.116 283.778L323.132 283.764L323.271 283.64L323.443 283.702C330.079 286.122 336.675 288.527 343.226 290.915L342.865 291.037C349.234 281.133 355.527 271.348 361.729 261.703L361.768 262.079C356.804 257.012 351.889 251.996 347.023 247.03L346.897 246.901L346.953 246.728C349.311 239.431 350.645 231.904 350.987 224.427L350.995 224.247L351.158 224.172C357.615 221.16 363.973 218.194 370.251 215.265L370.089 215.59C367.572 203.949 365.114 192.577 362.718 181.49L362.99 181.712C355.843 181.643 348.825 181.575 341.929 181.508L341.764 181.507L341.689 181.359C338.169 174.458 333.79 168.192 328.802 162.711L328.694 162.593L328.749 162.443C331.222 155.653 333.621 149.07 335.962 142.642L336.063 142.942C325.757 136.29 316.03 130.012 306.773 124.037L307.062 124.007C301.773 129.198 296.81 134.067 292.026 138.763L291.931 138.856L291.804 138.815C284.103 136.323 276.636 135.096 269.507 134.757L269.385 134.751L269.333 134.641C266.104 127.688 263.197 121.429 260.452 115.519L260.654 115.619C247.44 118.467 236.194 120.893 226.586 122.963L226.694 122.831C226.6 131.277 226.523 138.189 226.459 143.92L226.457 143.979L226.405 144.006C219.571 147.508 214.966 150.923 212.003 153.25C210.52 154.419 209.459 155.345 208.746 155.954C208.032 156.581 207.682 156.873 207.682 156.873C207.682 156.873 208.994 155.561 211.936 153.175C214.883 150.819 219.476 147.373 226.312 143.835L226.258 143.922C226.302 138.192 226.353 131.279 226.416 122.833L226.418 122.724L226.524 122.701C236.126 120.606 247.366 118.153 260.573 115.271L260.714 115.24L260.775 115.372C263.53 121.277 266.45 127.53 269.692 134.476L269.52 134.359C276.683 134.688 284.188 135.908 291.934 138.4L291.714 138.452C296.493 133.749 301.449 128.873 306.731 123.675L306.864 123.544L307.021 123.645C316.285 129.61 326.02 135.876 336.333 142.517L336.504 142.627L336.435 142.818C334.1 149.249 331.709 155.833 329.241 162.625L329.189 162.356C334.212 167.866 338.626 174.17 342.173 181.112L341.931 180.963C348.826 181.025 355.846 181.088 362.992 181.153L363.216 181.155L363.264 181.374C365.667 192.459 368.131 203.83 370.654 215.469L370.703 215.697L370.492 215.796C364.216 218.727 357.86 221.696 351.404 224.711L351.574 224.456C351.232 231.985 349.891 239.565 347.519 246.914L347.447 246.612C352.314 251.578 357.23 256.592 362.196 261.657L362.364 261.83L362.233 262.033C356.033 271.679 349.74 281.465 343.373 291.37L343.242 291.575L343.014 291.492C336.464 289.104 329.868 286.699 323.231 284.28L323.54 284.219L323.524 284.235C317.744 289.523 311.251 293.923 304.795 297.217L304.962 296.948C304.894 304.188 304.826 311.376 304.762 318.037L304.76 318.279L304.523 318.331C292.807 320.871 281.249 323.377 270.466 325.714L270.233 325.764L270.132 325.547C267.062 318.95 264.022 312.419 261.236 306.432L261.49 306.602C253.588 306.248 245.857 304.743 239.061 302.534L239.352 302.465C234.143 307.58 229.002 312.629 224.322 317.227L224.16 317.387L223.969 317.264C213.798 310.703 203.875 304.302 194.675 298.366L194.492 298.248L194.567 298.044C197.078 291.148 199.544 284.379 201.779 278.242L201.832 278.509C196.452 272.61 192.079 266.07 188.866 259.747L189.087 259.884C181.726 259.811 174.544 259.74 168.025 259.675L167.832 259.673L167.791 259.485C165.209 247.515 162.751 236.119 160.435 225.383L160.398 225.213L160.555 225.139C167.26 222.016 173.704 219.014 179.653 216.243L179.538 216.415C179.915 208.357 181.411 200.797 183.612 193.989L183.654 194.17C178.344 188.74 173.384 183.668 168.924 179.107L168.838 179.018L168.905 178.913C176.626 166.95 182.999 157.072 187.816 149.609L187.858 149.543L187.931 149.57C194.375 151.943 199.306 153.759 202.636 154.986C204.295 155.602 205.553 156.069 206.406 156.385C207.251 156.701 207.682 156.873 207.682 156.873Z" fill="#263238"/>
<path d="M364.06 334.383L296.219 377.785H518.613V334.383H364.06Z" fill="#676767"/>
<path d="M489.5 307.578V311.946V404.586L552.647 356.082L489.5 307.578Z" fill="#676767"/>
<path d="M90.2756 226.063C97.2421 314.422 171.287 384.187 261.3 384.187V340.785C190.605 340.785 133.091 283.202 133.091 212.423C133.091 212.423 135.023 190.026 136.37 183.279L93.692 175.245C92.1373 182.909 89.6616 218.267 90.2756 226.063Z" fill="#8BC53F"/>
<path d="M162.984 172.527L77.7656 149.128L105.338 215.718L162.984 172.527Z" fill="#676767"/>
<path d="M141.27 170.881C159.28 121.771 206.456 86.6403 261.675 86.6403V43.2383C187.502 43.2383 124.172 90.6098 100.281 156.722L141.27 170.881Z" fill="#676767"/>
<path d="M286.109 118.468L229.656 56.6411L301.692 15.7881L286.109 118.468Z" fill="#E0E0E0"/>
<path d="M363.993 127.978C339.62 100.067 304.423 84.0582 267.43 84.0582V40.6562C316.932 40.6562 364.024 62.071 396.63 99.4096L363.993 127.978Z" fill="#E0E0E0"/>
<path d="M419.569 291.555L380.317 273.135C388.311 256.058 395.645 231.449 395.645 212.421C395.645 192.034 391.02 172.553 381.895 154.516C380.311 151.388 374.575 140.972 373 138.366L410.084 115.891C412.364 119.662 418.637 131.09 420.566 134.902C432.795 159.074 438.996 185.155 438.996 212.42C438.996 237.863 430.283 268.671 419.569 291.555Z" fill="#8BC53F"/>
<path d="M357.727 158.157L431.548 109.53L363.39 86.2939L357.727 158.157Z" fill="#8BC53F"/>
<path d="M267.423 384.186H129.086V340.784H267.423C307.697 340.784 344.847 322.385 369.346 290.307L403.783 316.67C371.015 359.576 321.313 384.186 267.423 384.186Z" fill="#8BC53F"/>
<path d="M347.43 279.454L420.986 328.479L415.711 256.587L347.43 279.454Z" fill="#8BC53F"/>
<g opacity="0.3">
<path d="M420.989 328.479L415.714 256.587L347.431 279.454L367.409 292.769C342.912 323.323 306.652 340.784 267.423 340.784H129.086V384.186H267.423C321.217 384.186 370.835 359.661 403.607 316.895L420.989 328.479Z" fill="black"/>
</g>
<path d="M117.562 313.981V410.989L179.899 362.486L117.562 313.981Z" fill="#E0E0E0"/>
<path d="M129.087 340.785H-0.328125V384.187H129.087V340.785Z" fill="#E0E0E0"/>
<path d="M226.747 183.337L213.839 180.445C210.198 184.578 205.406 187.788 199.753 189.513C183.497 194.475 166.302 185.303 161.346 169.029C156.39 152.753 165.551 135.538 181.807 130.576C198.063 125.614 215.258 134.786 220.214 151.061C222.283 157.857 221.884 164.814 219.542 170.978L219.552 170.964L226.747 183.337Z" fill="white"/>
<path d="M226.745 183.337C226.335 182.618 224.137 178.766 219.65 170.903C219.619 170.848 219.548 170.828 219.492 170.859C219.478 170.868 219.464 170.88 219.455 170.893L219.444 170.907L219.647 171.017C221.241 166.888 222.322 161.313 221.306 155.041C221.041 153.485 220.688 151.881 220.121 150.296C219.832 149.507 219.564 148.694 219.243 147.889C218.869 147.107 218.492 146.314 218.107 145.51C216.432 142.369 214.125 139.339 211.181 136.754C208.243 134.168 204.672 132.035 200.669 130.671C196.672 129.311 192.239 128.707 187.76 129.157C183.289 129.615 178.787 131.063 174.749 133.508C170.728 135.956 167.103 139.343 164.548 143.536C161.931 147.789 160.254 152.572 159.901 157.387C159.506 162.194 160.252 166.965 161.901 171.239C163.547 175.516 166.074 179.317 169.186 182.289C172.285 185.278 175.882 187.498 179.581 188.929C183.283 190.367 187.081 191.015 190.672 191.039C194.277 191.051 197.628 190.327 200.649 189.391C206.687 187.357 211.067 183.785 213.92 180.518L213.812 180.553C222.016 182.319 225.972 183.17 226.745 183.337C225.975 183.157 222.033 182.239 213.861 180.335C213.82 180.326 213.779 180.341 213.752 180.37C210.892 183.589 206.533 187.1 200.547 189.085C197.552 189.996 194.236 190.698 190.675 190.674C187.126 190.639 183.378 189.986 179.727 188.556C176.08 187.134 172.535 184.936 169.486 181.982C166.423 179.045 163.939 175.295 162.321 171.078C160.702 166.862 159.972 162.161 160.363 157.427C160.713 152.685 162.367 147.976 164.946 143.785C167.461 139.653 171.031 136.317 174.989 133.904C178.965 131.494 183.4 130.062 187.805 129.605C192.219 129.156 196.589 129.745 200.533 131.079C204.484 132.415 208.011 134.512 210.917 137.056C213.831 139.599 216.118 142.585 217.784 145.683C218.166 146.476 218.542 147.258 218.913 148.03C219.232 148.824 219.5 149.626 219.791 150.406C220.359 151.971 220.714 153.556 220.983 155.095C222.016 161.296 220.98 166.824 219.43 170.934C219.407 170.994 219.437 171.062 219.497 171.085C219.547 171.105 219.604 171.086 219.634 171.044L219.643 171.029L219.449 171.02C224.063 178.809 226.324 182.625 226.745 183.337Z" fill="#263238"/>
<path d="M173.766 160.674L178.187 156.248L186.715 163.837L203.452 147.711L207.558 152.137L186.083 172.374L173.766 160.674Z" fill="#8BC53F"/>
<path fill-rule="evenodd" clip-rule="evenodd" d="M265.47 266.76C291.026 266.76 311.744 246.058 311.744 220.52C311.744 194.982 291.026 174.28 265.47 174.28C239.914 174.28 219.196 194.982 219.196 220.52C219.196 246.058 239.914 266.76 265.47 266.76ZM265.47 287.16C302.301 287.16 332.159 257.324 332.159 220.52C332.159 183.716 302.301 153.88 265.47 153.88C228.639 153.88 198.781 183.716 198.781 220.52C198.781 257.324 228.639 287.16 265.47 287.16Z" fill="#D999BB"/>
</g>
<defs>
<clipPath id="clip0_389_13000">
<rect width="553" height="466" fill="white"/>
</clipPath>
</defs>






<style>
    .el1 {
    animation: move1 3s infinite;
    animation-timing-function: ease-in-out;
    }

    @keyframes move1 {
    0% {
    transform: translateY(0px);
    }
    50% {
    transform: translateY(10px);
    }
    100% {
    transform: translateY(0px);
    }
    }



    
</style>
</svg>
