<svg width="88" height="88" viewBox="0 0 88 88" fill="none" xmlns="http://www.w3.org/2000/svg">
<rect width="88" height="88" rx="12" fill="white"/>
<path fill-rule="evenodd" clip-rule="evenodd" d="M55.9197 54.9102L34.865 55.1801L30.1873 63.207C29.9818 63.5596 30.2597 63.9464 30.6121 63.9464H60.3296C60.682 63.9464 60.9599 63.5596 60.7544 63.207L55.9197 54.9102Z" fill="#A93175"/>
<path fill-rule="evenodd" clip-rule="evenodd" d="M72.6117 12.1602C74.3518 12.1602 75.7757 13.5838 75.7757 15.3242V53.4126C75.7757 55.153 74.3518 56.5767 72.6117 56.5767H18.332C16.5917 56.5767 15.168 55.1531 15.168 53.4126V15.3242C15.168 13.5838 16.5919 12.1602 18.332 12.1602H72.6117Z" fill="#EFEFEF"/>
<path fill-rule="evenodd" clip-rule="evenodd" d="M75.7758 51.2793H15.168V53.4131C15.168 55.1534 16.5919 56.5771 18.332 56.5771H72.6117C74.3518 56.5771 75.7757 55.1534 75.7757 53.4131V51.2793H75.7758Z" fill="#C53F8B"/>
<path opacity="0.8" fill-rule="evenodd" clip-rule="evenodd" d="M59.6111 37.7178H62.4786C62.884 37.7178 63.2146 38.0484 63.2146 38.4538V49.3155C63.2146 49.7209 62.884 50.0515 62.4786 50.0515H59.6111C59.2056 50.0515 58.875 49.7209 58.875 49.3155V38.4538C58.8749 38.0484 59.2056 37.7178 59.6111 37.7178Z" fill="#C53F8B"/>
<path opacity="0.5" fill-rule="evenodd" clip-rule="evenodd" d="M52.0329 34.1162H54.9003C55.3057 34.1162 55.6364 34.4469 55.6364 34.8523V49.3165C55.6364 49.7219 55.3057 50.0525 54.9003 50.0525H52.0329C51.6275 50.0525 51.2969 49.7219 51.2969 49.3165V34.8523C51.2969 34.4469 51.6275 34.1162 52.0329 34.1162Z" fill="#C53F8B"/>
<path opacity="0.3" fill-rule="evenodd" clip-rule="evenodd" d="M44.4548 42.4922H47.3222C47.7276 42.4922 48.0583 42.8228 48.0583 43.2282V49.3152C48.0583 49.7206 47.7276 50.0512 47.3222 50.0512H44.4548C44.0494 50.0512 43.7188 49.7206 43.7188 49.3152V43.2282C43.7188 42.8228 44.0494 42.4922 44.4548 42.4922Z" fill="#C53F8B"/>
<path fill-rule="evenodd" clip-rule="evenodd" d="M67.1892 30.7217H70.0566C70.462 30.7217 70.7926 31.0523 70.7926 31.4577V49.3162C70.7926 49.7216 70.462 50.0522 70.0566 50.0522H67.1892C66.7838 50.0522 66.4531 49.7216 66.4531 49.3162V31.4577C66.453 31.0523 66.7836 30.7217 67.1892 30.7217Z" fill="#C53F8B"/>
<path fill-rule="evenodd" clip-rule="evenodd" d="M46.6632 38.3423C46.333 38.7701 45.7184 38.8489 45.2906 38.5187C44.8629 38.1884 44.7839 37.5738 45.1143 37.1461L52.6926 27.2931C53.0137 26.8773 53.6036 26.7912 54.0292 27.0904L60.9476 31.7266L66.4569 26.64L65.7085 26.6048C65.1685 26.5794 64.7515 26.121 64.7769 25.5811C64.8023 25.0413 65.2607 24.6241 65.8005 24.6495L68.9951 24.8C69.5351 24.8254 69.9521 25.2838 69.9267 25.8236C69.9239 25.8842 69.9155 25.9432 69.9022 26.0002L69.3397 29.0968C69.2444 29.6283 68.7362 29.9819 68.2048 29.8866C67.6733 29.7914 67.3197 29.2832 67.415 28.7517L67.487 28.3555L61.7085 33.6906L61.7078 33.6897C61.3829 33.9892 60.8841 34.0392 60.5008 33.7825L53.6839 29.2144L46.6632 38.3423Z" fill="#676767"/>
<path fill-rule="evenodd" clip-rule="evenodd" d="M43.7179 18.1563C43.1759 18.1563 42.7365 17.7169 42.7365 17.1749C42.7365 16.6328 43.1759 16.1934 43.7179 16.1934H58.5235C59.0655 16.1934 59.505 16.6328 59.505 17.1749C59.505 17.7169 59.0655 18.1563 58.5235 18.1563H43.7179ZM21.0948 48.3293C20.5527 48.3293 20.1133 47.8899 20.1133 47.3478C20.1133 46.8058 20.5527 46.3663 21.0948 46.3663H37.0264C37.5685 46.3663 38.0079 46.8058 38.0079 47.3478C38.0079 47.8899 37.5685 48.3293 37.0264 48.3293H21.0948ZM21.0948 44.2793C20.5549 44.2793 20.1171 43.8416 20.1171 43.3017C20.1171 42.7618 20.5549 42.3241 21.0948 42.3241H37.0264C37.5664 42.3241 38.004 42.7618 38.004 43.3017C38.004 43.8416 37.5663 44.2793 37.0264 44.2793H21.0948ZM21.0948 40.2371C20.5527 40.2371 20.1133 39.7976 20.1133 39.2556C20.1133 38.7135 20.5527 38.2741 21.0948 38.2741H37.0264C37.5685 38.2741 38.0079 38.7135 38.0079 39.2556C38.0079 39.7976 37.5685 40.2371 37.0264 40.2371H21.0948ZM43.7179 26.2486C43.1759 26.2486 42.7365 25.8091 42.7365 25.2671C42.7365 24.725 43.1759 24.2856 43.7179 24.2856H58.5235C59.0655 24.2856 59.505 24.725 59.505 25.2671C59.505 25.8091 59.0655 26.2486 58.5235 26.2486H43.7179ZM43.7179 22.1987C43.1781 22.1987 42.7403 21.761 42.7403 21.2211C42.7403 20.6812 43.1781 20.2435 43.7179 20.2435H58.5235C59.0635 20.2435 59.5011 20.6812 59.5011 21.2211C59.5011 21.761 59.0633 22.1987 58.5235 22.1987H43.7179Z" fill="#CDCDCD"/>
<path d="M38.4697 28.6261C39.9618 23.4306 36.9596 18.0091 31.7641 16.517C26.5686 15.0248 21.1471 18.027 19.6549 23.2225C18.1628 28.4181 21.1649 33.8395 26.3605 35.3317C31.556 36.8239 36.9775 33.8217 38.4697 28.6261Z" fill="#CC64A2"/>
<path fill-rule="evenodd" clip-rule="evenodd" d="M29.0587 16.126L29.0586 25.9152L38.0494 29.7938C38.5632 28.6045 38.8479 27.2931 38.8479 25.9151C38.848 20.5088 34.4652 16.126 29.0587 16.126Z" fill="#C53F8B"/>
<path fill-rule="evenodd" clip-rule="evenodd" d="M38.0489 29.7937L29.0581 25.915L23.1797 33.7435C24.8167 34.9746 26.8521 35.7043 29.0581 35.7043C33.0866 35.7042 36.5468 33.2708 38.0489 29.7937Z" fill="#A93175"/>
<path fill-rule="evenodd" clip-rule="evenodd" d="M29.0577 30.0239C31.3207 30.0239 33.1663 28.1782 33.1663 25.9153C33.1663 23.6523 31.3207 21.8066 29.0577 21.8066C26.7949 21.8066 24.9492 23.6523 24.9492 25.9153C24.9492 28.1783 26.7949 30.0239 29.0577 30.0239Z" fill="#EFF4F7"/>
<path fill-rule="evenodd" clip-rule="evenodd" d="M23.1798 66.8793L21.2461 64.8129L25.1538 60.9053L27.2258 62.8333L23.1798 66.8793Z" fill="#8D9CA8"/>
<path d="M42.0614 62.736C46.6866 58.1108 46.6866 50.6119 42.0614 45.9867C37.4362 41.3615 29.9373 41.3615 25.3121 45.9867C20.687 50.6119 20.687 58.1108 25.3121 62.736C29.9373 67.3612 37.4362 67.3612 42.0614 62.736Z" fill="#84295D"/>
<path fill-rule="evenodd" clip-rule="evenodd" d="M33.6939 45.5527C28.8277 45.5527 24.8828 49.4977 24.8828 54.3639C24.8828 59.2301 28.8277 63.175 33.6939 63.175C38.5602 63.175 42.5051 59.2302 42.5051 54.3639C42.5051 49.4975 38.5603 45.5527 33.6939 45.5527Z" fill="#F8F8FF"/>
<path fill-rule="evenodd" clip-rule="evenodd" d="M21.7492 63.7374L24.3214 66.3096C24.5872 66.5754 24.5872 67.0092 24.3214 67.275L16.4858 75.1106C15.513 76.0834 13.9212 76.0834 12.9484 75.1106C11.9755 74.1376 11.9755 72.546 12.9484 71.5731L20.7838 63.7376C21.0496 63.4716 21.4834 63.4716 21.7492 63.7374Z" fill="#676767"/>
<path fill-rule="evenodd" clip-rule="evenodd" d="M24.3211 67.274L22.5256 69.0694L18.9883 65.532L20.7838 63.7365C21.0496 63.4707 21.4834 63.4707 21.7492 63.7365C22.6066 64.5938 23.4639 65.4513 24.3213 66.3087C24.5871 66.5745 24.5871 67.0082 24.3211 67.274Z" fill="#404040"/>
</svg>
