<svg width="88" height="88" viewBox="0 0 88 88" fill="none" xmlns="http://www.w3.org/2000/svg">
<rect width="88" height="88" rx="12" fill="white"/>
<path d="M60.6706 55.8824C60.6706 55.8824 57.6841 61.5072 62.1501 71.1091C62.6945 72.3091 61.9269 73.7048 60.629 73.9419C53.1203 75.296 45.9189 75.3096 39.108 73.5371C38.7871 73.4397 38.4801 73.2864 38.2289 73.0628C37.0285 71.9745 36.2612 70.7322 35.898 69.3782C35.6189 68.3737 34.6001 67.759 33.5674 67.9689C30.4272 68.5829 27.2032 68.527 23.8817 67.7317C23.2258 67.5777 22.6813 67.0755 22.4581 66.4479C20.6158 61.2558 19.7922 56.3009 20.3926 51.6819C20.3647 51.6819 20.3367 51.7091 20.3367 51.7091C17.3362 52.7143 14.7961 49.1557 16.4708 46.4898C18.383 43.4334 20.3926 40.6285 22.5 38.0465C22.9324 37.502 23.128 36.8457 23.0302 36.1622C22.4442 31.6959 21.5647 14.1386 43.9928 12.9106C43.9928 12.9106 67.3977 10.7477 68.4165 31.9753C68.6676 37.3486 67.2863 42.6518 64.9134 47.467L60.6706 55.8824Z" fill="#FFCECF"/>
<path d="M60.6711 55.8838C60.6711 55.8838 57.679 61.5056 62.1513 71.1099C62.6943 72.3134 61.9277 73.7078 60.6284 73.9423C53.122 75.2946 45.9134 75.305 39.1094 73.5378C38.7901 73.4417 38.4813 73.282 38.2255 73.0585C37.0224 71.9724 36.2558 70.7371 35.8937 69.3744C35.6171 68.3736 34.5947 67.7559 33.5619 67.9691C30.4209 68.5867 27.2052 68.5228 23.8833 67.7346C23.223 67.575 22.6799 67.0748 22.4564 66.4463C21.6258 64.1041 20.9975 61.7931 20.625 59.5465C24.4474 60.9305 28.6108 61.6865 32.9656 61.6865C51.7271 61.6865 66.9427 47.6 66.9427 30.2013C66.9427 27.5929 66.6019 25.0583 65.9523 22.6309C67.3153 25.0906 68.2311 28.157 68.412 31.9794C68.6675 37.3459 67.2833 42.6484 64.9089 47.4722L60.6711 55.8838Z" fill="#EABFC0"/>
<path d="M45.8967 30.0415V31.7789C45.8967 32.2448 45.5958 32.6523 45.1493 32.7784L44.4117 32.9921C44.0913 33.0793 43.8389 33.3125 43.7226 33.6229C43.6352 33.885 43.5283 34.1471 43.4022 34.3997C43.2664 34.6907 43.2856 35.04 43.4411 35.3314L43.8098 35.9911C44.033 36.3987 43.9652 36.9034 43.6352 37.2337L42.4122 38.4659C42.0824 38.7962 41.5776 38.864 41.1698 38.6408L40.5002 38.2721C40.209 38.1166 39.8597 38.0972 39.5684 38.2332C39.3161 38.3593 39.054 38.4659 38.7919 38.5536C38.4815 38.6602 38.2483 38.9223 38.1611 39.2427L37.9474 39.9706C37.8213 40.417 37.4138 40.7275 36.9479 40.7275H35.2202C34.7544 40.7275 34.3466 40.417 34.2108 39.9706L34.007 39.2427C33.9098 38.9223 33.6769 38.6602 33.376 38.5536C33.1044 38.4659 32.8518 38.3498 32.5997 38.2332C32.2988 38.0972 31.9492 38.1166 31.668 38.2721L30.9884 38.6408C30.5905 38.864 30.0761 38.7962 29.7557 38.4659L28.523 37.2337C28.1932 36.9034 28.1252 36.3987 28.3484 35.9911L28.7173 35.3314C28.8823 35.04 28.9017 34.6907 28.7562 34.3997C28.6396 34.1471 28.533 33.885 28.4358 33.6229C28.329 33.3125 28.0669 33.0793 27.7562 32.9921L27.0188 32.7784C26.5724 32.6523 26.2617 32.2448 26.2617 31.7789V30.0415C26.2617 29.5757 26.5724 29.1681 27.0188 29.0415L27.7562 28.8283C28.0669 28.7311 28.329 28.4984 28.4358 28.1875C28.533 27.9255 28.6396 27.6634 28.7562 27.4207C28.9017 27.1203 28.8823 26.7705 28.7173 26.489L28.3484 25.8194C28.1252 25.4118 28.1932 24.9071 28.523 24.5772L29.7557 23.3446C30.0761 23.0242 30.5808 22.9465 30.9884 23.1697L31.668 23.5483C31.9492 23.7033 32.2988 23.7232 32.5997 23.5772C32.8518 23.4607 33.1044 23.354 33.3665 23.2569C33.6769 23.1502 33.9098 22.8882 33.9973 22.5778L34.2108 21.8399C34.3466 21.3934 34.7544 21.083 35.2202 21.083H36.9479C37.4138 21.083 37.8213 21.3934 37.9474 21.8399L38.1611 22.5778C38.2483 22.8882 38.4815 23.1502 38.7919 23.2569C39.054 23.354 39.3161 23.4607 39.5684 23.5772C39.8597 23.7232 40.209 23.7033 40.5002 23.5483L41.1698 23.1697C41.5776 22.9465 42.0824 23.0242 42.4122 23.3446L43.6352 24.5772C43.9652 24.9071 44.033 25.4118 43.8098 25.8194L43.4411 26.489C43.2856 26.7705 43.2664 27.1203 43.4022 27.4207C43.5283 27.6634 43.6352 27.9255 43.7226 28.1875C43.8389 28.4984 44.0913 28.7311 44.4117 28.8283L45.1493 29.0415C45.5958 29.1681 45.8967 29.5757 45.8967 30.0415Z" fill="#DA97BD"/>
<path d="M36.0821 36.4474C39.1434 36.4474 41.6251 33.9657 41.6251 30.9044C41.6251 27.843 39.1434 25.3613 36.0821 25.3613C33.0208 25.3613 30.5391 27.843 30.5391 30.9044C30.5391 33.9657 33.0208 36.4474 36.0821 36.4474Z" fill="#CE629F"/>
<path d="M36.0809 34.736C38.1967 34.736 39.9118 33.0209 39.9118 30.9051C39.9118 28.7894 38.1967 27.0742 36.0809 27.0742C33.9652 27.0742 32.25 28.7894 32.25 30.9051C32.25 33.0209 33.9652 34.736 36.0809 34.736Z" fill="white"/>
<path d="M61.1627 24.6649V26.0625C61.1627 26.4312 60.92 26.7615 60.561 26.8681L59.9689 27.033C59.7165 27.1108 59.503 27.2951 59.4156 27.5472C59.3478 27.761 59.2604 27.9648 59.1632 28.1686C59.0469 28.4017 59.0663 28.6832 59.1924 28.9159L59.4933 29.45C59.6679 29.7799 59.6096 30.178 59.3478 30.4495L58.3673 31.4296C58.1052 31.7016 57.6976 31.7599 57.3678 31.5756L56.8242 31.2746C56.5913 31.1486 56.3195 31.1386 56.0768 31.2457C55.873 31.3424 55.6692 31.4296 55.4555 31.5073C55.2129 31.595 55.0285 31.7988 54.9508 32.0509L54.7761 32.6428C54.6792 33.0021 54.3491 33.2447 53.9802 33.2447H52.5826C52.2139 33.2447 51.8838 33.0021 51.7769 32.6428L51.612 32.0509C51.5343 31.7988 51.3499 31.595 51.1073 31.5073C50.8938 31.4296 50.6803 31.3424 50.4862 31.2457C50.2436 31.1386 49.9621 31.1486 49.7388 31.2746L49.1953 31.5756C48.8652 31.7599 48.4576 31.7016 48.1955 31.4296L47.2155 30.4495C46.9534 30.178 46.8951 29.7799 47.0697 29.45L47.3707 28.9159C47.4967 28.6832 47.5162 28.4017 47.3998 28.1686C47.3027 27.9648 47.2155 27.761 47.1377 27.5472C47.06 27.2951 46.8465 27.1108 46.5941 27.033L46.0022 26.8681C45.643 26.7615 45.3906 26.4312 45.3906 26.0625V24.6649C45.3906 24.2962 45.643 23.9663 46.0022 23.8592L46.5941 23.6943C46.8465 23.6166 47.06 23.4322 47.1377 23.1796C47.2155 22.9758 47.3027 22.7626 47.3998 22.5588C47.5162 22.3256 47.4967 22.0441 47.3707 21.8114L47.0697 21.2773C46.8951 20.9474 46.9534 20.5399 47.2155 20.2778L48.1955 19.2972C48.4576 19.0356 48.8652 18.9774 49.1953 19.1518L49.7388 19.4527C49.9621 19.5788 50.2436 19.5987 50.4862 19.4821C50.6803 19.3849 50.8938 19.2972 51.1073 19.22C51.3499 19.1323 51.5343 18.9285 51.612 18.6764L51.7769 18.084C51.8838 17.7253 52.2139 17.4727 52.5826 17.4727H53.9707C54.3491 17.4727 54.6792 17.7253 54.7761 18.084L54.9508 18.6764C55.0285 18.9285 55.2129 19.1323 55.4555 19.22C55.6692 19.2972 55.8827 19.3849 56.0768 19.4821C56.3195 19.5987 56.5913 19.5788 56.8242 19.4527L57.3678 19.1518C57.6976 18.9774 58.0957 19.0356 58.3673 19.2972L59.3478 20.2778C59.6096 20.5399 59.6679 20.9474 59.4933 21.2773L59.1924 21.8114C59.0663 22.0441 59.0469 22.3256 59.1632 22.5588C59.2604 22.7626 59.3478 22.9758 59.4156 23.1796C59.503 23.4322 59.7165 23.6166 59.9689 23.6943L60.561 23.8592C60.92 23.9663 61.1627 24.2962 61.1627 24.6649Z" fill="#CE629F"/>
<path d="M53.2831 29.8134C55.7414 29.8134 57.7343 27.8205 57.7343 25.3623C57.7343 22.904 55.7414 20.9111 53.2831 20.9111C50.8249 20.9111 48.832 22.904 48.832 25.3623C48.832 27.8205 50.8249 29.8134 53.2831 29.8134Z" fill="#C53F8B"/>
<path d="M53.2828 28.4387C54.9815 28.4387 56.3586 27.0616 56.3586 25.3629C56.3586 23.6642 54.9815 22.2871 53.2828 22.2871C51.5841 22.2871 50.207 23.6642 50.207 25.3629C50.207 27.0616 51.5841 28.4387 53.2828 28.4387Z" fill="white"/>
<path d="M58.419 40.6209V41.9218C58.419 42.2711 58.1957 42.5815 57.8562 42.6786L57.3029 42.8336C57.0699 42.9019 56.8662 43.0763 56.7884 43.3094C56.7204 43.5037 56.6429 43.6976 56.5458 43.8919C56.4392 44.1151 56.4584 44.3772 56.5749 44.5909L56.8564 45.0857C57.0214 45.3961 56.9728 45.7748 56.7204 46.0174L55.7984 46.9491C55.5558 47.1918 55.1771 47.2501 54.8667 47.0752L54.362 46.8036C54.1485 46.6776 53.8864 46.6676 53.6632 46.7747C53.4786 46.8619 53.2847 46.9397 53.0807 47.0174C52.8478 47.0946 52.6732 47.2889 52.6051 47.5216L52.4499 48.0752C52.3528 48.4145 52.0421 48.6382 51.6928 48.6382H50.4019C50.0526 48.6382 49.742 48.4145 49.645 48.0752L49.4896 47.5216C49.4216 47.2889 49.2469 47.0946 49.014 47.0174C48.8102 46.9397 48.6162 46.8619 48.4318 46.7747C48.2084 46.6676 47.9465 46.6776 47.7328 46.8036L47.228 47.0752C46.9176 47.2501 46.539 47.1918 46.2963 46.9491L45.3743 46.0174C45.1219 45.7748 45.0734 45.3961 45.2385 45.0857L45.52 44.5909C45.6364 44.3772 45.6558 44.1151 45.549 43.8919C45.452 43.6976 45.3743 43.5037 45.3063 43.3094C45.2286 43.0763 45.0248 42.9019 44.7921 42.8336L44.2388 42.6786C43.899 42.5815 43.6758 42.2711 43.6758 41.9218V40.6209C43.6758 40.2716 43.899 39.9607 44.2388 39.864L44.7921 39.7086C45.0248 39.6408 45.2286 39.4659 45.3063 39.2328C45.3743 39.029 45.4617 38.8351 45.549 38.6508C45.6558 38.4276 45.6364 38.1655 45.52 37.9518L45.2385 37.447C45.0734 37.1366 45.1219 36.758 45.3743 36.5153L46.2963 35.5931C46.539 35.3504 46.9176 35.2926 47.228 35.4575L47.7328 35.739C47.9465 35.8556 48.2084 35.8746 48.4318 35.7679C48.6162 35.6807 48.8102 35.5931 49.014 35.5253C49.2469 35.4476 49.4216 35.2537 49.4896 35.0111L49.645 34.4575C49.742 34.1277 50.0526 33.8945 50.4019 33.8945H51.6928C52.0421 33.8945 52.3528 34.1277 52.4499 34.4575L52.6051 35.0111C52.6732 35.2537 52.8478 35.4476 53.0807 35.5253C53.2847 35.5931 53.4786 35.6807 53.6632 35.7679C53.8864 35.8746 54.1485 35.8556 54.362 35.739L54.8667 35.4575C55.1771 35.2926 55.5558 35.3504 55.7984 35.5931L56.7204 36.5153C56.9728 36.758 57.0214 37.1366 56.8564 37.447L56.5749 37.9518C56.4584 38.1655 56.4392 38.4276 56.5458 38.6508C56.633 38.8351 56.7204 39.029 56.7884 39.2328C56.8662 39.4659 57.0699 39.6408 57.3029 39.7086L57.8562 39.864C58.1957 39.9607 58.419 40.2716 58.419 40.6209Z" fill="#C53F8B"/>
<path d="M51.0457 45.4302C53.3447 45.4302 55.2085 43.5664 55.2085 41.2673C55.2085 38.9683 53.3447 37.1045 51.0457 37.1045C48.7466 37.1045 46.8828 38.9683 46.8828 41.2673C46.8828 43.5664 48.7466 45.4302 51.0457 45.4302Z" fill="#A93175"/>
<path d="M51.0448 44.1443C52.6336 44.1443 53.9216 42.8563 53.9216 41.2674C53.9216 39.6786 52.6336 38.3906 51.0448 38.3906C49.456 38.3906 48.168 39.6786 48.168 41.2674C48.168 42.8563 49.456 44.1443 51.0448 44.1443Z" fill="white"/>
<path d="M72.9095 60.5418C72.8795 60.5796 72.8493 60.6245 72.8267 60.6546C72.2545 61.4528 71.75 62.2812 71.3359 63.1547C70.8689 64.1184 70.4924 65.135 70.2441 66.1817C70.1913 66.385 70.1536 66.5883 70.1084 66.799C70.0257 67.2207 69.6417 67.5218 69.2049 67.5218H60.8319C60.3951 67.5218 60.0111 67.2207 59.9282 66.7839C59.5142 64.5776 58.6029 62.4845 57.2251 60.6925C55.96 59.0435 55.207 56.9729 55.207 54.729C55.207 52.9366 55.6815 51.2575 56.5247 49.8196C57.9178 47.4026 60.3198 45.6404 63.1434 45.0984C63.8061 44.9701 64.4988 44.9025 65.199 44.9253C65.3347 44.9253 65.4702 44.9326 65.6132 44.9403C66.3134 44.9778 66.9987 45.0984 67.6613 45.279C71.5691 46.386 74.5285 49.8946 74.7994 54.0812C74.9575 56.4986 74.2272 58.7575 72.9095 60.5418Z" fill="#EFEFEF"/>
<path d="M62.1641 72.5898C62.3254 74.0284 63.5318 75.1512 65.0137 75.1512C66.4956 75.1512 67.702 74.0284 67.8631 72.5898H62.1641Z" fill="#84295D"/>
<path d="M69.3276 67.5264V71.5443C69.3276 72.4471 68.59 73.185 67.6777 73.185H62.3492C61.4369 73.185 60.6992 72.4471 60.6992 71.5443V67.5264H69.3276Z" fill="#C53F8B"/>
<path d="M59.3867 71.2581C60.3243 71.0146 61.2621 70.8869 62.1997 70.8003C63.1373 70.7067 64.0749 70.6719 65.0126 70.6696C65.9502 70.6699 66.8878 70.7052 67.8254 70.7988C68.7632 70.885 69.7008 71.0131 70.6384 71.2581C69.7008 71.5034 68.7632 71.6315 67.8254 71.7178C66.8878 71.8109 65.9502 71.8462 65.0126 71.847C64.0749 71.8447 63.1373 71.8098 62.1997 71.7158C61.2621 71.6292 60.3243 71.5019 59.3867 71.2581Z" fill="#84295D"/>
<path d="M59.3867 69.0662C60.3243 68.8223 61.2621 68.6951 62.1997 68.6084C63.1373 68.5149 64.0749 68.4796 65.0126 68.4773C65.9502 68.4781 66.8878 68.5133 67.8254 68.6065C68.7632 68.6928 69.7008 68.8212 70.6384 69.0662C69.7008 69.3112 68.7632 69.4396 67.8254 69.5259C66.8878 69.619 65.9502 69.6543 65.0126 69.6551C64.0749 69.6528 63.1373 69.6175 62.1997 69.524C61.2621 69.4373 60.3243 69.31 59.3867 69.0662Z" fill="#84295D"/>
<path d="M28.9019 26.3438C28.8339 27.0817 28.2323 27.6637 27.4946 27.7125C23.0784 28.0035 18.8079 28.0229 14.7024 27.722C13.9936 27.6637 13.4017 27.1206 13.3142 26.4116C12.8484 22.8595 12.8484 19.317 13.3142 15.7839C13.4017 15.0849 13.9839 14.5413 14.6924 14.483C18.9534 14.1437 23.2336 14.1437 27.5333 14.483C28.2517 14.5413 28.8437 15.1043 28.9214 15.8228C29.2804 19.2488 29.2417 22.7624 28.9019 26.3438Z" fill="#DA97BD"/>
<path d="M30.2222 26.3438C30.1544 27.0817 29.5526 27.6637 28.8149 27.7125C24.3987 28.0035 20.1282 28.0229 16.0226 27.722C15.3044 27.6637 14.7219 27.1206 14.6347 26.4116C14.1686 22.8595 14.1686 19.317 14.6347 15.7839C14.7219 15.0849 15.3044 14.5413 16.0129 14.483C20.2737 14.1437 24.5541 14.1437 28.8538 14.483C29.572 14.5413 30.1641 15.1043 30.2322 15.8228C30.6009 19.2488 30.562 22.7624 30.2222 26.3438Z" fill="#E3BBD2"/>
<path d="M19.579 23.2033C19.4625 23.2189 19.338 23.2344 19.2215 23.2424V25.6337C19.2215 25.9601 18.9572 26.2167 18.6385 26.2167H17.5193C17.2005 26.2167 16.9439 25.9601 16.9439 25.6337V23.2424C16.8118 23.2344 16.6797 23.2189 16.5477 23.1957C16.1666 23.141 15.9958 22.6981 16.1901 22.3717C16.6564 21.5865 17.1618 20.9412 17.7058 20.4285C17.9155 20.2262 18.2577 20.2418 18.4598 20.4516C19.0194 21.0426 19.5168 21.6798 19.9599 22.3562C20.1853 22.6981 19.9832 23.149 19.579 23.2033Z" fill="#C53F8B"/>
<path d="M23.8876 21.0939C23.7711 21.1095 23.6466 21.125 23.5301 21.133V25.6336C23.5301 25.96 23.2658 26.2165 22.9471 26.2165H21.8279C21.5091 26.2165 21.2525 25.96 21.2525 25.6336V21.133C21.1204 21.125 20.9883 21.1095 20.8563 21.0863C20.4752 21.0317 20.3044 20.5888 20.4987 20.2623C20.965 19.4771 21.4704 18.8319 22.0144 18.3191C22.2241 18.1168 22.5663 18.1324 22.7684 18.3423C23.328 18.9332 23.8254 19.5704 24.2685 20.2468C24.4939 20.5888 24.2918 21.0396 23.8876 21.0939Z" fill="#C53F8B"/>
<path d="M28.1923 18.8703C28.0758 18.8858 27.9513 18.9014 27.8348 18.9094V25.6333C27.8348 25.9597 27.5704 26.2162 27.2518 26.2162H26.1326C25.8138 26.2162 25.5572 25.9597 25.5572 25.6333V18.9094C25.4251 18.9014 25.293 18.8858 25.1609 18.8627C24.7799 18.808 24.6091 18.3651 24.8034 18.0387C25.2697 17.2535 25.775 16.6082 26.3191 16.0955C26.5288 15.8932 26.871 15.9087 27.0731 16.1186C27.6327 16.7096 28.1301 17.3468 28.5732 18.0232C28.7986 18.3651 28.5965 18.816 28.1923 18.8703Z" fill="#C53F8B"/>
<path d="M63.1737 31.7426C63.2293 32.3475 63.6854 32.8316 64.2813 32.9525C64.5417 33.0084 64.793 33.0552 65.0537 33.0925V34.2187C65.0537 34.7118 65.6496 34.9727 66.0032 34.6187L67.1296 33.5206C67.2412 33.4179 67.3901 33.3624 67.5482 33.3715C69.5776 33.4924 71.6253 33.3252 73.6731 32.9152C74.213 32.8129 74.6319 32.3757 74.7157 31.8358C75.1439 29.2483 75.1252 26.7253 74.725 24.2497C74.6319 23.6911 74.1851 23.2443 73.6358 23.1511C70.5829 22.6394 67.4646 22.6298 64.2904 23.1416C63.6854 23.2348 63.22 23.7375 63.1641 24.3424C62.9594 26.7626 62.9594 29.2292 63.1737 31.7426Z" fill="#84295D"/>
<path d="M62.0213 31.8529C62.077 32.4579 62.5331 32.9419 63.1289 33.0628C63.3894 33.1187 63.6407 33.1655 63.9014 33.2028V34.3291C63.9014 34.8222 64.4972 35.0831 64.8508 34.729L65.9773 33.6309C66.0889 33.5282 66.2377 33.4728 66.3959 33.4819C68.4252 33.6028 70.473 33.4355 72.5208 33.0256C73.0607 32.9233 73.4795 32.4861 73.5634 31.9461C73.9915 29.3586 73.9729 26.8357 73.5727 24.36C73.4795 23.8014 73.0327 23.3547 72.4835 23.2615C69.4306 22.7497 66.3123 22.7402 63.138 23.252C62.5331 23.3451 62.0677 23.8478 62.0118 24.4527C61.807 26.873 61.807 29.3395 62.0213 31.8529Z" fill="#C53F8B"/>
<path d="M71.7546 25.4536C71.1067 25.2551 70.4589 25.1514 69.8111 25.081C69.1632 25.0047 68.5154 24.9763 67.8675 24.9744C67.2197 24.9749 66.5718 25.0036 65.924 25.0794C65.2762 25.1496 64.6283 25.254 63.9805 25.4536C64.6283 25.653 65.2762 25.7573 65.924 25.8275C66.5718 25.9035 67.2197 25.9321 67.8675 25.9327C68.5154 25.9308 69.1632 25.9024 69.8111 25.8261C70.4589 25.7556 71.1067 25.6519 71.7546 25.4536Z" fill="white"/>
<path d="M71.7546 27.9193C71.1067 27.7208 70.4589 27.6171 69.8111 27.5467C69.1632 27.4704 68.5154 27.442 67.8675 27.4401C67.2197 27.4406 66.5718 27.4693 65.924 27.5451C65.2762 27.6153 64.6283 27.7197 63.9805 27.9193C64.6283 28.1187 65.2762 28.223 65.924 28.2932C66.5718 28.3692 67.2197 28.3978 67.8675 28.3984C68.5154 28.3965 69.1632 28.3681 69.8111 28.2918C70.4589 28.2213 71.1067 28.1176 71.7546 27.9193Z" fill="white"/>
<path d="M71.7546 30.3852C71.1067 30.1867 70.4589 30.083 69.8111 30.0126C69.1632 29.9363 68.5154 29.9079 67.8675 29.9061C67.2197 29.9065 66.5718 29.9352 65.924 30.0111C65.2762 30.0813 64.6283 30.1857 63.9805 30.3852C64.6283 30.5846 65.2762 30.689 65.924 30.7592C66.5718 30.8352 67.2197 30.8637 67.8675 30.8643C68.5154 30.8625 69.1632 30.8341 69.8111 30.7578C70.4589 30.6873 71.1067 30.5835 71.7546 30.3852Z" fill="white"/>
</svg>
