<svg width="88" height="88" viewBox="0 0 88 88" fill="none" xmlns="http://www.w3.org/2000/svg">
<rect width="88" height="88" rx="12" fill="white"/>
<g clip-path="url(#clip0_389_3393)">
<path d="M63.2715 35.8073C58.1917 31.15 50.3003 31.4939 45.6445 36.5747L64.0388 53.4397C68.6946 48.3585 68.3507 40.464 63.2715 35.8073Z" fill="#C53F8B"/>
<path d="M26.1387 37.4182C18.9587 41.9984 16.8494 51.5334 21.428 58.7159L47.4293 42.1303C42.8512 34.9478 33.3186 32.838 26.1387 37.4182Z" fill="#C53F8B"/>
<path d="M63.2252 45.2984C61.6435 45.2984 60.1249 45.5658 58.7099 46.0568C55.7924 39.0732 48.8989 34.1652 40.8589 34.1652C30.4336 34.1652 27.4627 44.9837 27.0619 55.3143C26.9033 55.3073 21.2178 52.7362 21.0572 52.7362C15.5027 52.7362 11 57.2409 11 62.797C11 68.353 15.5027 72.8572 21.0572 72.8572H63.2252C70.8326 72.8572 77 66.6883 77 59.0778C77 51.4678 70.8326 45.2984 63.2252 45.2984Z" fill="#EFEFEF"/>
<path d="M56.5613 15.125H29.35C26.6379 15.125 24.4062 17.3416 24.4062 20.0536V52.1558C24.4062 54.8679 26.6379 57.0195 29.35 57.0195H56.5613C59.2734 57.0195 61.5312 54.8679 61.5312 52.1558V20.0536C61.5312 17.3416 59.2734 15.125 56.5613 15.125Z" fill="#707384"/>
<path d="M61.4743 25.6242H24.4414V20.0541C24.4414 17.342 26.6399 15.1436 29.3519 15.1436H56.5632C59.2753 15.1436 61.4743 17.342 61.4743 20.0541V25.6242Z" fill="#E3A1C6"/>
<path d="M24.4414 25.624H61.4743V36.1052H24.4414V25.624Z" fill="#C53F8B"/>
<path d="M24.4414 36.1055H61.4743V46.5862H24.4414V36.1055Z" fill="#E3A1C6"/>
<path d="M56.5632 57.0671H29.3519C26.6399 57.0671 24.4414 54.8682 24.4414 52.1561V46.5859H61.4743V52.1561C61.4743 54.8682 59.2753 57.0671 56.5632 57.0671Z" fill="#C53F8B"/>
<path d="M30.4657 20.3835C30.4657 20.9565 30.0009 21.4213 29.4279 21.4213C28.8549 21.4213 28.3906 20.9565 28.3906 20.3835C28.3906 19.8105 28.8549 19.3457 29.4279 19.3457C30.0009 19.3457 30.4657 19.8105 30.4657 20.3835Z" fill="white"/>
<path d="M34.2865 20.3835C34.2865 20.9565 33.8218 21.4213 33.2487 21.4213C32.6757 21.4213 32.2109 20.9565 32.2109 20.3835C32.2109 19.8105 32.6757 19.3457 33.2487 19.3457C33.8218 19.3457 34.2865 19.8105 34.2865 20.3835Z" fill="white"/>
<path d="M38.1107 20.3835C38.1107 20.9565 37.646 21.4213 37.073 21.4213C36.4999 21.4213 36.0352 20.9565 36.0352 20.3835C36.0352 19.8105 36.4999 19.3457 37.073 19.3457C37.646 19.3457 38.1107 19.8105 38.1107 20.3835Z" fill="#C53F8B"/>
<path d="M30.4657 30.8644C30.4657 31.4375 30.0009 31.9022 29.4279 31.9022C28.8549 31.9022 28.3906 31.4375 28.3906 30.8644C28.3906 30.2914 28.8549 29.8271 29.4279 29.8271C30.0009 29.8271 30.4657 30.2914 30.4657 30.8644Z" fill="white"/>
<path d="M34.2865 30.8644C34.2865 31.4375 33.8218 31.9022 33.2487 31.9022C32.6757 31.9022 32.2109 31.4375 32.2109 30.8644C32.2109 30.2914 32.6757 29.8271 33.2487 29.8271C33.8218 29.8271 34.2865 30.2914 34.2865 30.8644Z" fill="white"/>
<path d="M38.1107 30.8644C38.1107 31.4375 37.646 31.9022 37.073 31.9022C36.4999 31.9022 36.0352 31.4375 36.0352 30.8644C36.0352 30.2914 36.4999 29.8271 37.073 29.8271C37.646 29.8271 38.1107 30.2914 38.1107 30.8644Z" fill="#C53F8B"/>
<path d="M30.4657 41.3454C30.4657 41.9184 30.0009 42.3832 29.4279 42.3832C28.8549 42.3832 28.3906 41.9184 28.3906 41.3454C28.3906 40.7724 28.8549 40.3076 29.4279 40.3076C30.0009 40.3076 30.4657 40.7724 30.4657 41.3454Z" fill="white"/>
<path d="M34.2865 41.3454C34.2865 41.9184 33.8218 42.3832 33.2487 42.3832C32.6757 42.3832 32.2109 41.9184 32.2109 41.3454C32.2109 40.7724 32.6757 40.3076 33.2487 40.3076C33.8218 40.3076 34.2865 40.7724 34.2865 41.3454Z" fill="white"/>
<path d="M38.1107 41.3454C38.1107 41.9184 37.646 42.3832 37.073 42.3832C36.4999 42.3832 36.0352 41.9184 36.0352 41.3454C36.0352 40.7724 36.4999 40.3076 37.073 40.3076C37.646 40.3076 38.1107 40.7724 38.1107 41.3454Z" fill="#C53F8B"/>
<path d="M30.4657 51.8259C30.4657 52.3989 30.0009 52.8637 29.4279 52.8637C28.8549 52.8637 28.3906 52.3989 28.3906 51.8259C28.3906 51.2529 28.8549 50.7881 29.4279 50.7881C30.0009 50.7881 30.4657 51.2529 30.4657 51.8259Z" fill="white"/>
<path d="M34.2865 51.8259C34.2865 52.3989 33.8218 52.8637 33.2487 52.8637C32.6757 52.8637 32.2109 52.3989 32.2109 51.8259C32.2109 51.2529 32.6757 50.7881 33.2487 50.7881C33.8218 50.7881 34.2865 51.2529 34.2865 51.8259Z" fill="white"/>
<path d="M38.1107 51.8259C38.1107 52.3989 37.646 52.8637 37.073 52.8637C36.4999 52.8637 36.0352 52.3989 36.0352 51.8259C36.0352 51.2529 36.4999 50.7881 37.073 50.7881C37.646 50.7881 38.1107 51.2529 38.1107 51.8259Z" fill="#C53F8B"/>
<path d="M56.6465 21.3891H51.5285C50.9731 21.3891 50.5234 20.9389 50.5234 20.3835C50.5234 19.8281 50.9731 19.3779 51.5285 19.3779H56.6465C57.2019 19.3779 57.6516 19.8281 57.6516 20.3835C57.6516 20.9389 57.2019 21.3891 56.6465 21.3891Z" fill="#676767"/>
<path d="M56.6465 31.8702H51.5285C50.9731 31.8702 50.5234 31.42 50.5234 30.8646C50.5234 30.3092 50.9731 29.8595 51.5285 29.8595H56.6465C57.2019 29.8595 57.6516 30.3092 57.6516 30.8646C57.6516 31.42 57.2019 31.8702 56.6465 31.8702Z" fill="#676767"/>
<path d="M56.6465 42.3505H51.5285C50.9731 42.3505 50.5234 41.9008 50.5234 41.3454C50.5234 40.79 50.9731 40.3398 51.5285 40.3398H56.6465C57.2019 40.3398 57.6516 40.79 57.6516 41.3454C57.6516 41.9008 57.2019 42.3505 56.6465 42.3505Z" fill="#676767"/>
<path d="M56.6465 52.8319H51.5285C50.9731 52.8319 50.5234 52.3818 50.5234 51.8264C50.5234 51.271 50.9731 50.8213 51.5285 50.8213H56.6465C57.2019 50.8213 57.6516 51.271 57.6516 51.8264C57.6516 52.3818 57.2019 52.8319 56.6465 52.8319Z" fill="#676767"/>
<path d="M51.9961 59.0782H77.0014C77.0014 51.4682 70.834 45.2988 63.2265 45.2988C56.8155 45.2988 51.4276 49.6796 49.8908 55.6118C49.8535 55.7563 49.8183 55.9029 49.7856 56.0494C47.2789 53.4456 43.7602 51.8257 39.8623 51.8257C38.9907 51.8257 38.1397 51.9063 37.3134 52.0609C36.5027 52.2134 35.7182 52.435 34.9644 52.7225C32.6939 53.5861 30.7115 55.0353 29.1978 56.8828L29.1953 56.8858C27.3669 54.3716 24.4046 52.7356 21.0586 52.7356L31.1163 62.7963C31.1163 61.1392 30.713 59.5772 30.0035 58.1985L52.2766 59.6255C52.1874 59.4408 52.0933 59.2585 51.9961 59.0782Z" fill="#EFF0F1"/>
<path d="M63.2298 45.2988C56.8187 45.2988 51.4309 49.6796 49.8941 55.6118C49.8049 55.9557 49.7304 56.3057 49.668 56.6597C49.8105 56.7634 49.9474 56.8752 50.0738 56.9956C51.8171 51.3846 57.0468 47.3095 63.2298 47.3095C70.1545 47.3095 75.8853 52.4214 76.8581 59.0782H77.0047C77.0047 51.4682 70.8373 45.2988 63.2298 45.2988Z" fill="#E8E4E3"/>
<path d="M34.9617 54.7638C35.7155 54.4758 36.5001 54.2547 37.3108 54.1021C38.1371 53.9471 38.9881 53.867 39.8597 53.867C43.4827 53.867 47.3413 55.6248 50.2376 58.6803C50.7598 59.2312 51.4638 59.5751 52.2216 59.6235L52.274 59.627C51.8344 58.7136 51.2961 57.8555 50.6722 57.068C50.4245 56.7538 50.1626 56.4507 49.8887 56.1601C47.3765 53.4919 43.8125 51.8271 39.8597 51.8271C38.9881 51.8271 38.1371 51.9072 37.3113 52.0623C36.5006 52.2144 35.716 52.4359 34.9617 52.724C32.6913 53.587 30.7088 55.0362 29.1952 56.8837C29.1509 56.9381 29.1066 56.993 29.0623 57.0489C28.5104 57.7463 28.7234 57.2946 28.3125 58.0917L29.8428 58.1899C31.2572 56.6918 33.002 55.509 34.9617 54.7638Z" fill="#E8E4E3"/>
<path d="M31.0451 62.7256L31.1166 62.7971C31.1166 57.241 26.6135 52.7363 21.0589 52.7363L19.2109 52.906C19.6148 53.2016 20.0861 53.394 20.5816 53.4634C26.0692 54.2298 27.8386 57.4031 29.0013 59.8307C29.5149 60.9043 30.2037 61.8841 31.0451 62.7256Z" fill="#E8E4E3"/>
</g>
<defs>
<clipPath id="clip0_389_3393">
<rect width="66" height="66" fill="white" transform="translate(11 11)"/>
</clipPath>
</defs>
</svg>
