<svg width="88" height="88" viewBox="0 0 88 88" fill="none" xmlns="http://www.w3.org/2000/svg">
<rect width="88" height="88" rx="12" fill="white"/>
<g clip-path="url(#clip0_389_3312)">
<path d="M55.1613 30.8511C54.0899 30.8006 53.2656 29.8777 53.2656 28.8051V20.2297C53.2656 19.7015 53.4754 19.1947 53.8491 18.8212L59.161 13.5093C59.5346 13.1357 60.0413 12.9258 60.5696 12.9258H72.8634C73.936 12.9258 74.8589 13.7501 74.9094 14.8215C74.9633 15.9654 74.0518 16.9097 72.9197 16.9097H61.5047C61.4344 16.9097 61.3668 16.9377 61.317 16.9875L57.3275 20.977C57.2777 21.0268 57.2497 21.0944 57.2497 21.1648V28.8614C57.2495 29.9935 56.3052 30.905 55.1613 30.8511Z" fill="#CDCDCD"/>
<path d="M55.1613 57.1497C54.0899 57.2002 53.2656 58.1231 53.2656 59.1957V67.7712C53.2656 68.2995 53.4754 68.8062 53.8491 69.1798L59.161 74.4917C59.5346 74.8652 60.0413 75.0752 60.5696 75.0752H72.8634C73.936 75.0752 74.8589 74.2509 74.9094 73.1795C74.9633 72.0356 74.0518 71.0913 72.9197 71.0913H61.5047C61.4344 71.0913 61.3668 71.0633 61.317 71.0135L57.3275 67.024C57.2777 66.9742 57.2497 66.9066 57.2497 66.8362V59.1394C57.2495 58.0073 56.3052 57.0958 55.1613 57.1497Z" fill="#CDCDCD"/>
<path d="M73.7061 30.9195H55.1937C54.4935 30.9195 53.9258 30.0276 53.9258 28.9275C53.9258 27.8274 54.4935 26.9355 55.1937 26.9355H73.7061C74.4064 26.9355 74.9741 27.8274 74.9741 28.9275C74.9741 30.0276 74.4064 30.9195 73.7061 30.9195Z" fill="#CDCDCD"/>
<path d="M73.7061 61.064H55.1937C54.4935 61.064 53.9258 60.1721 53.9258 59.072C53.9258 57.9719 54.4935 57.0801 55.1937 57.0801H73.7061C74.4064 57.0801 74.9741 57.9719 74.9741 59.072C74.9741 60.1721 74.4064 61.064 73.7061 61.064Z" fill="#CDCDCD"/>
<path d="M55.3242 61.0644C54.7194 61.0644 54.1223 60.7901 53.7308 60.2697L42.443 45.2637C41.9115 44.5569 41.9095 43.5845 42.438 42.8756L53.7257 27.7368C54.3835 26.855 55.6316 26.6732 56.5134 27.3305C57.3953 27.9882 57.5772 29.2362 56.9196 30.1182L46.5235 44.0609L56.9144 57.8747C57.5758 58.754 57.3991 60.0027 56.52 60.664C56.1613 60.934 55.7409 61.0642 55.3242 61.0644Z" fill="#CDCDCD"/>
<path d="M72.9846 45.9927H43.9021C42.802 45.9927 41.9102 45.1008 41.9102 44.0007C41.9102 42.9007 42.802 42.0088 43.9021 42.0088H72.9846C74.0847 42.0088 74.9766 42.9007 74.9766 44.0007C74.9766 45.1008 74.0847 45.9927 72.9846 45.9927Z" fill="#CDCDCD"/>
<path d="M76.967 14.9839C76.967 12.7836 75.1834 11 72.9831 11C72.5068 11 72.0499 11.0837 71.6266 11.2369C71.3291 11.3446 71.0437 11.6696 70.7983 11.8413C69.7796 12.5543 69.2344 13.5947 69.2344 14.9839C69.2344 17.1842 70.7828 18.8343 72.9831 18.8343C74.7071 18.8343 76.1751 17.8729 76.7301 16.3406C76.8833 15.9171 76.967 15.4602 76.967 14.9839Z" fill="#C53F8B"/>
<path d="M76.7308 16.3407C76.175 17.8745 74.7089 18.9681 72.9839 18.9681C70.7828 18.9681 69 17.1853 69 14.9842C69 13.2591 70.0936 11.7931 71.6274 11.2373C71.474 11.6596 71.3903 12.1177 71.3903 12.5938C71.3903 14.7949 73.1731 16.5777 75.3742 16.5777C75.8503 16.5777 76.3085 16.4941 76.7308 16.3407Z" fill="#A93175"/>
<path d="M76.967 28.9273C76.967 26.727 75.1834 24.9434 72.9831 24.9434C72.5068 24.9434 72.0499 25.027 71.6266 25.1803C71.3291 25.288 71.0437 25.6129 70.7983 25.7846C69.7796 26.4976 69.2344 27.5381 69.2344 28.9273C69.2344 31.1276 70.7828 32.7777 72.9831 32.7777C74.7071 32.7777 76.1751 31.8163 76.7301 30.2839C76.8833 29.8604 76.967 29.4036 76.967 28.9273Z" fill="#C53F8B"/>
<path d="M76.7308 30.284C76.175 31.8178 74.7089 32.9114 72.9839 32.9114C70.7828 32.9114 69 31.1286 69 28.9275C69 27.2025 70.0936 25.7364 71.6274 25.1807C71.474 25.603 71.3903 26.0611 71.3903 26.5372C71.3903 28.7383 73.1731 30.5211 75.3742 30.5211C75.8503 30.5211 76.3085 30.4374 76.7308 30.284Z" fill="#A93175"/>
<path d="M59.1857 28.9273C59.1857 26.727 57.4022 24.9434 55.2018 24.9434C54.7255 24.9434 54.2687 25.027 53.8453 25.1803C53.5479 25.288 53.2625 25.6129 53.0171 25.7846C51.9984 26.4976 51.4531 27.5381 51.4531 28.9273C51.4531 31.1276 53.0015 32.7777 55.2018 32.7777C56.9258 32.7777 58.3939 31.8163 58.9488 30.2839C59.1022 29.8604 59.1857 29.4036 59.1857 28.9273Z" fill="#C53F8B"/>
<path d="M58.9496 30.284C58.3939 31.8178 56.9278 32.9114 55.2027 32.9114C53.0015 32.9114 51.2188 31.1286 51.2188 28.9275C51.2188 27.2025 52.3123 25.7364 53.8461 25.1807C53.6928 25.603 53.6091 26.0611 53.6091 26.5372C53.6091 28.7383 55.3919 30.5211 57.593 30.5211C58.0692 30.5211 58.5274 30.4374 58.9496 30.284Z" fill="#A93175"/>
<path d="M76.967 44.0005C76.967 41.8002 75.1834 40.0166 72.9831 40.0166C72.5068 40.0166 72.0499 40.1003 71.6266 40.2535C71.3291 40.3612 71.0437 40.6862 70.7983 40.8579C69.7796 41.5709 69.2344 42.6113 69.2344 44.0005C69.2344 46.2008 70.7828 47.8509 72.9831 47.8509C74.7071 47.8509 76.1751 46.8895 76.7301 45.3572C76.8833 44.9335 76.967 44.4767 76.967 44.0005Z" fill="#C53F8B"/>
<path d="M76.7308 45.3573C76.175 46.8911 74.7089 47.9847 72.9839 47.9847C70.7828 47.9847 69 46.2019 69 44.0008C69 42.2757 70.0936 40.8097 71.6274 40.2539C71.474 40.6762 71.3903 41.1344 71.3903 41.6104C71.3903 43.8115 73.1731 45.5943 75.3742 45.5943C75.8503 45.5943 76.3085 45.5107 76.7308 45.3573Z" fill="#A93175"/>
<path d="M76.967 59.0728C76.967 56.8725 75.1834 55.0889 72.9831 55.0889C72.5068 55.0889 72.0499 55.1725 71.6266 55.3258C71.3291 55.4335 71.0437 55.7584 70.7983 55.9301C69.7796 56.6431 69.2344 57.6836 69.2344 59.0728C69.2344 61.2731 70.7828 62.9232 72.9831 62.9232C74.7071 62.9232 76.1751 61.9618 76.7301 60.4294C76.8833 60.0059 76.967 59.5491 76.967 59.0728Z" fill="#C53F8B"/>
<path d="M76.7308 60.4296C76.175 61.9634 74.7089 63.0569 72.9839 63.0569C70.7828 63.0569 69 61.2741 69 59.073C69 57.348 70.0936 55.8819 71.6274 55.3262C71.474 55.7485 71.3903 56.2066 71.3903 56.6827C71.3903 58.8838 73.1731 60.6666 75.3742 60.6666C75.8503 60.6666 76.3085 60.5829 76.7308 60.4296Z" fill="#A93175"/>
<path d="M59.3029 59.0728C59.3029 56.8725 57.5193 55.0889 55.319 55.0889C54.8427 55.0889 54.3859 55.1725 53.9625 55.3258C53.665 55.4335 53.3797 55.7584 53.1343 55.9301C52.1156 56.6431 51.5703 57.6836 51.5703 59.0728C51.5703 61.2731 53.1187 62.9232 55.319 62.9232C57.043 62.9232 58.5111 61.9618 59.066 60.4294C59.2193 60.0059 59.3029 59.5491 59.3029 59.0728Z" fill="#C53F8B"/>
<path d="M59.0667 60.4296C58.5109 61.9634 57.0449 63.0569 55.3198 63.0569C53.1187 63.0569 51.3359 61.2741 51.3359 59.073C51.3359 57.348 52.4295 55.8819 53.9633 55.3262C53.8099 55.7485 53.7263 56.2066 53.7263 56.6827C53.7263 58.8838 55.5091 60.6666 57.7102 60.6666C58.1863 60.6666 58.6444 60.5829 59.0667 60.4296Z" fill="#A93175"/>
<path d="M76.967 72.9761C76.967 70.7758 75.1834 68.9922 72.9831 68.9922C72.5068 68.9922 72.0499 69.0758 71.6266 69.2291C71.3291 69.3368 71.0437 69.6617 70.7983 69.8335C69.7796 70.5464 69.2344 71.5869 69.2344 72.9761C69.2344 75.1764 70.7828 76.8265 72.9831 76.8265C74.7071 76.8265 76.1751 75.8651 76.7301 74.3327C76.8833 73.9092 76.967 73.4524 76.967 72.9761Z" fill="#C53F8B"/>
<path d="M76.7308 74.3329C76.175 75.8667 74.7089 76.9603 72.9839 76.9603C70.7828 76.9603 69 75.1775 69 72.9764C69 71.2513 70.0936 69.7852 71.6274 69.2295C71.474 69.6518 71.3903 70.1099 71.3903 70.586C71.3903 72.7871 73.1731 74.5699 75.3742 74.5699C75.8503 74.5699 76.3085 74.4863 76.7308 74.3329Z" fill="#A93175"/>
<path d="M43.9134 28.6235C43.7266 29.1067 43.2756 29.4379 42.7585 29.4688C35.521 29.9019 29.623 36.521 29.623 43.8673C29.623 51.2127 35.5216 57.882 42.7578 58.3163C43.2762 58.3474 43.728 58.68 43.9139 59.165L46.2401 63.6663L48.4905 69.533L49.961 73.7934C50.0424 74.0056 50.0696 74.2356 50.0363 74.4604C49.8453 75.7472 48.7359 76.7347 47.3961 76.7347H40.674C39.1998 76.7347 38.0047 75.5396 38.0047 74.0655V71.1904C38.0047 70.0404 37.2677 69.0192 36.1761 68.658C34.961 68.2556 33.1205 67.7669 31.9904 67.1985C30.9612 66.6806 29.7169 66.8785 28.9028 67.6925L26.8684 69.727C25.8259 70.7694 24.7994 71.035 23.757 69.9926L18.4399 64.6765C17.3988 63.634 17.3988 61.9435 18.4399 60.901L20.4757 58.8666C21.2897 58.0526 21.4876 56.8083 20.9697 55.7791C20.4013 54.649 19.647 53.2068 19.2447 51.9917C18.8835 50.9001 17.8623 50.1631 16.7122 50.1631H13.8372C12.363 50.1631 11.168 48.9681 11.168 47.4939V40.5061C11.168 39.0319 12.363 37.8369 13.8372 37.8369H16.7122C17.8623 37.8369 18.7507 36.8343 19.1119 35.7427C19.5142 34.5276 20.0029 33.351 20.5713 32.2209C21.0892 31.1918 20.8913 29.9474 20.0773 29.1334L18.0415 27.099C17.0004 26.0565 17.0004 24.366 18.0415 23.3235L23.3587 18.0064C24.4012 16.9652 26.0917 16.9652 27.1341 18.0064L29.1686 20.0421C29.9826 20.8562 31.2269 21.054 32.2561 20.5361C33.3862 19.9678 34.5628 19.4791 35.7779 19.0767C36.8695 18.7155 37.6065 17.6943 37.6065 16.5443V13.6692C37.6065 12.195 38.8015 11 40.2757 11H47.6618C49.0011 11 50.1102 11.9867 50.3019 13.2727C50.3356 13.4987 50.3077 13.7299 50.2252 13.943L46.2004 24.3517L43.9134 28.6235Z" fill="#DA97BD"/>
<path d="M50.3018 74.7252C50.1106 76.012 49.0018 77 47.6618 77H40.2757C38.8016 77 37.6065 75.8048 37.6065 74.3308V71.4557C37.6065 70.3057 36.8694 69.2845 35.7779 68.9233C34.5628 68.5209 33.3862 68.0322 32.2561 67.4639C31.2269 66.9459 29.9826 67.1438 29.1686 67.9579L27.1341 69.9923C26.0917 71.0348 24.4012 71.0348 23.3587 69.9923L18.0415 64.6765C17.0004 63.634 17.0004 61.9435 18.0415 60.901L20.0773 58.8666C20.8913 58.0526 21.0892 56.8082 20.5713 55.7791C20.0029 54.649 19.5142 53.4724 19.1119 52.2573C18.7506 51.1657 17.7294 50.4287 16.5794 50.4287H13.7044C12.2303 50.4287 11.0352 49.2335 11.0352 47.7595V40.2405C11.0352 38.7665 12.2303 37.5713 13.7044 37.5713H16.5794C17.6684 37.5713 18.6418 36.9113 19.0481 35.914C19.0176 36.481 19.003 37.0521 19.003 37.6258C19.003 54.4538 31.9918 68.2487 48.4905 69.5328L50.2261 74.0585C50.3085 74.271 50.335 74.5008 50.3018 74.7252Z" fill="#C53F8B"/>
<path d="M46.2386 63.6665C45.5746 63.7315 44.6264 63.7873 43.9664 63.7873C33.0386 63.7873 24.1797 54.9284 24.1797 44.0006C24.1797 33.0727 33.0386 24.2139 43.9664 24.2139C44.5334 24.2139 45.6184 24.3028 46.1974 24.352L44.2838 29.3026C44.0965 29.786 43.6464 30.118 43.1285 30.1486C35.891 30.5815 30.1555 36.5879 30.1555 43.9342C30.1555 51.2792 35.8897 57.2856 43.1258 57.7198C43.645 57.7504 44.0965 58.0837 44.2825 58.5684L46.2386 63.6665Z" fill="#E3BBD2"/>
<path d="M36.3711 44C36.3711 41.3102 37.3348 38.9317 39.3759 37.489C40.6741 36.5714 42.2589 36.0322 43.9697 36.0322C48.3702 36.0322 51.9375 39.5995 51.9375 44C51.9375 45.5887 51.4726 47.0687 50.6713 48.3115C49.2532 50.5113 46.7816 51.7254 43.9697 51.7254C39.5692 51.7252 36.3711 48.4005 36.3711 44Z" fill="#C53F8B"/>
<path d="M50.6701 48.312C49.2518 50.5111 46.7791 51.9679 43.9678 51.9679C39.5669 51.9679 36 48.401 36 44.0001C36 41.1888 37.4568 38.7161 39.6559 37.2979C38.8551 38.5408 38.3903 40.0202 38.3903 41.6098C38.3903 46.0106 41.9573 49.5776 46.3581 49.5776C47.9477 49.5776 49.4271 49.1128 50.6701 48.312Z" fill="#A93175"/>
</g>
<defs>
<clipPath id="clip0_389_3312">
<rect width="66" height="66" fill="white" transform="translate(11 11)"/>
</clipPath>
</defs>
</svg>
