<svg width="88" height="88" viewBox="0 0 88 88" fill="none" xmlns="http://www.w3.org/2000/svg">
<rect width="88" height="88" rx="12" fill="white"/>
<path d="M55.6774 12.9141H19.2277C15.5948 12.9141 12.6055 15.8832 12.6055 19.516V62.5171C12.6055 66.1499 15.5948 69.032 19.2277 69.032H55.6774C59.3102 69.032 62.3346 66.1499 62.3346 62.5171V19.516C62.3346 15.8832 59.3102 12.9141 55.6774 12.9141Z" fill="#707384"/>
<path d="M62.2581 26.9784H12.6523V19.5171C12.6523 15.8843 15.5972 12.9395 19.23 12.9395H55.6797C59.3126 12.9395 62.2581 15.8843 62.2581 19.5171V26.9784Z" fill="#E3A1C6"/>
<path d="M12.6523 26.9785H62.2581V41.0181H12.6523V26.9785Z" fill="#C53F8B"/>
<path d="M12.6523 41.0166H62.2581V55.0555H12.6523V41.0166Z" fill="#E3A1C6"/>
<path d="M55.6797 69.0963H19.23C15.5972 69.0963 12.6523 66.1507 12.6523 62.5179V55.0566H62.2581V62.5179C62.2581 66.1507 59.3126 69.0963 55.6797 69.0963Z" fill="#C53F8B"/>
<path d="M20.721 19.9565C20.721 20.7241 20.0984 21.3467 19.3309 21.3467C18.5633 21.3467 17.9414 20.7241 17.9414 19.9565C17.9414 19.189 18.5633 18.5664 19.3309 18.5664C20.0984 18.5664 20.721 19.189 20.721 19.9565Z" fill="white"/>
<path d="M25.8428 19.9565C25.8428 20.7241 25.2202 21.3467 24.4526 21.3467C23.6851 21.3467 23.0625 20.7241 23.0625 19.9565C23.0625 19.189 23.6851 18.5664 24.4526 18.5664C25.2202 18.5664 25.8428 19.189 25.8428 19.9565Z" fill="white"/>
<path d="M30.9678 19.9565C30.9678 20.7241 30.3452 21.3467 29.5776 21.3467C28.8101 21.3467 28.1875 20.7241 28.1875 19.9565C28.1875 19.189 28.8101 18.5664 29.5776 18.5664C30.3452 18.5664 30.9678 19.189 30.9678 19.9565Z" fill="#C53F8B"/>
<path d="M20.721 33.9969C20.721 34.7645 20.0984 35.387 19.3309 35.387C18.5633 35.387 17.9414 34.7645 17.9414 33.9969C17.9414 33.2293 18.5633 32.6074 19.3309 32.6074C20.0984 32.6074 20.721 33.2293 20.721 33.9969Z" fill="white"/>
<path d="M25.8428 33.9969C25.8428 34.7645 25.2202 35.387 24.4526 35.387C23.6851 35.387 23.0625 34.7645 23.0625 33.9969C23.0625 33.2293 23.6851 32.6074 24.4526 32.6074C25.2202 32.6074 25.8428 33.2293 25.8428 33.9969Z" fill="white"/>
<path d="M30.9678 33.9969C30.9678 34.7645 30.3452 35.387 29.5776 35.387C28.8101 35.387 28.1875 34.7645 28.1875 33.9969C28.1875 33.2293 28.8101 32.6074 29.5776 32.6074C30.3452 32.6074 30.9678 33.2293 30.9678 33.9969Z" fill="#C53F8B"/>
<path d="M20.721 48.0366C20.721 48.8042 20.0984 49.4268 19.3309 49.4268C18.5633 49.4268 17.9414 48.8042 17.9414 48.0366C17.9414 47.269 18.5633 46.6465 19.3309 46.6465C20.0984 46.6465 20.721 47.269 20.721 48.0366Z" fill="white"/>
<path d="M25.8428 48.0366C25.8428 48.8042 25.2202 49.4268 24.4526 49.4268C23.6851 49.4268 23.0625 48.8042 23.0625 48.0366C23.0625 47.269 23.6851 46.6465 24.4526 46.6465C25.2202 46.6465 25.8428 47.269 25.8428 48.0366Z" fill="white"/>
<path d="M30.9678 48.0366C30.9678 48.8042 30.3452 49.4268 29.5776 49.4268C28.8101 49.4268 28.1875 48.8042 28.1875 48.0366C28.1875 47.269 28.8101 46.6465 29.5776 46.6465C30.3452 46.6465 30.9678 47.269 30.9678 48.0366Z" fill="#C53F8B"/>
<path d="M20.721 62.0757C20.721 62.8433 20.0984 63.4658 19.3309 63.4658C18.5633 63.4658 17.9414 62.8433 17.9414 62.0757C17.9414 61.3081 18.5633 60.6855 19.3309 60.6855C20.0984 60.6855 20.721 61.3081 20.721 62.0757Z" fill="white"/>
<path d="M25.8428 62.0757C25.8428 62.8433 25.2202 63.4658 24.4526 63.4658C23.6851 63.4658 23.0625 62.8433 23.0625 62.0757C23.0625 61.3081 23.6851 60.6855 24.4526 60.6855C25.2202 60.6855 25.8428 61.3081 25.8428 62.0757Z" fill="white"/>
<path d="M30.9678 62.0757C30.9678 62.8433 30.3452 63.4658 29.5776 63.4658C28.8101 63.4658 28.1875 62.8433 28.1875 62.0757C28.1875 61.3081 28.8101 60.6855 29.5776 60.6855C30.3452 60.6855 30.9678 61.3081 30.9678 62.0757Z" fill="#C53F8B"/>
<path d="M55.7917 21.3053H48.9361C48.1922 21.3053 47.5898 20.7023 47.5898 19.9583C47.5898 19.2143 48.1922 18.6113 48.9361 18.6113H55.7917C56.5357 18.6113 57.138 19.2143 57.138 19.9583C57.138 20.7023 56.5357 21.3053 55.7917 21.3053Z" fill="#676767"/>
<path d="M55.7917 35.3446H48.9361C48.1922 35.3446 47.5898 34.7416 47.5898 33.9977C47.5898 33.2537 48.1922 32.6514 48.9361 32.6514H55.7917C56.5357 32.6514 57.138 33.2537 57.138 33.9977C57.138 34.7416 56.5357 35.3446 55.7917 35.3446Z" fill="#676767"/>
<path d="M55.7917 49.3837H48.9361C48.1922 49.3837 47.5898 48.7814 47.5898 48.0374C47.5898 47.2934 48.1922 46.6904 48.9361 46.6904H55.7917C56.5357 46.6904 57.138 47.2934 57.138 48.0374C57.138 48.7814 56.5357 49.3837 55.7917 49.3837Z" fill="#676767"/>
<path d="M55.7917 63.4228H48.9361C48.1922 63.4228 47.5898 62.8198 47.5898 62.0758C47.5898 61.3318 48.1922 60.7295 48.9361 60.7295H55.7917C56.5357 60.7295 57.138 61.3318 57.138 62.0758C57.138 62.8198 56.5357 63.4228 55.7917 63.4228Z" fill="#676767"/>
<g clip-path="url(#clip0_389_3358)">
<path fill-rule="evenodd" clip-rule="evenodd" d="M73.4759 56.1697V44.3958L65.5579 38.8662H62.3328V42.1662V68.9329H47.5596C50.0734 71.3643 53.1789 73.5259 56.721 75.2937L57.2008 75.5329L57.6807 75.2937C62.729 72.7742 66.8907 69.4547 69.716 65.6941C72.1402 62.4663 73.4759 59.0838 73.4759 56.1697Z" fill="#C53F8B"/>
<path d="M40.9258 56.1697C40.9258 59.0838 42.2614 62.4663 44.6857 65.6941C45.5287 66.8161 46.4906 67.8989 47.5596 68.9329H62.3328V42.1662V38.8662H48.8438L40.9258 44.3958V56.1697Z" fill="#EFEFEF"/>
<path d="M64.2056 43.1633H50.1958L45.2227 46.636V56.1697C45.2227 59.4462 48.4462 65.8488 57.2007 70.6923C65.9552 65.8488 69.1787 59.4462 69.1787 56.1697V46.636L64.2056 43.1633Z" fill="#DA97BD"/>
<path d="M64.5436 42.089H49.8578L44.1484 46.0759V56.1697C44.1484 58.2652 45.2098 60.9279 47.0597 63.4747C49.3121 66.5757 52.6387 69.3967 56.6808 71.6326L57.2007 71.9205L57.7206 71.6326C61.7627 69.3967 65.0894 66.5757 67.3417 63.4747C69.1916 60.9279 70.253 58.2652 70.253 56.1697V46.0759L64.5436 42.089ZM68.1045 56.1697C68.1045 59.0279 65.1889 64.864 57.2007 69.459C49.2125 64.864 46.297 59.0279 46.297 56.1697V47.196L50.5338 44.2375H63.8676L68.1045 47.196V56.1697Z" fill="#EFEFEF"/>
<path d="M64.056 51.3449L57.1979 58.3935L57.1836 58.4085L55.4397 60.2004L50.3398 55.4307L51.8073 53.8616L55.3681 57.1925L57.1836 55.3276L57.1979 55.3125L62.5162 49.8467L64.056 51.3449Z" fill="#C53F8B"/>
<path d="M64.0573 51.3449L57.1992 58.3935V55.3125L62.5175 49.8467L64.0573 51.3449Z" fill="#A93175"/>
</g>
<defs>
<clipPath id="clip0_389_3358">
<rect width="36.6667" height="36.6667" fill="white" transform="translate(38.8672 38.8662)"/>
</clipPath>
</defs>
</svg>
