<svg width="481" height="300" viewBox="0 0 481 300" fill="none" xmlns="http://www.w3.org/2000/svg">
<path fill-rule="evenodd" clip-rule="evenodd" d="M71.7337 68.9521H318.231C322.481 68.9521 325.926 72.4033 325.926 76.6612V251.108C325.926 255.365 322.481 258.817 318.232 258.817H226.516H166.339H71.7337C67.4835 258.817 64.0391 255.365 64.0391 251.107V76.6612C64.0391 72.4033 67.4841 68.9521 71.7337 68.9521Z" fill="#676767"/>
<path d="M166.339 258.817C166.339 258.817 172.357 282.142 153.702 291.79H242.163C242.163 291.79 221.101 279.875 226.516 258.817H166.339Z" fill="#404040"/>
<path d="M66.9062 76.6655C66.9062 73.9041 69.1448 71.6655 71.9062 71.6655H318.089C320.851 71.6655 323.089 73.9041 323.089 76.6655V220.56C323.089 223.321 320.851 225.56 318.089 225.56H71.9063C69.1448 225.56 66.9062 223.321 66.9062 220.56V76.6655Z" fill="#EFEFEF"/>
<path d="M94.6497 99.9424H87.5625V136.027H94.6497V99.9424Z" fill="#C53F8B"/>
<path d="M106.825 105.939H99.7383V136.027H106.825V105.939Z" fill="#C53F8B"/>
<path d="M119.005 116.877H111.918V136.026H119.005V116.877Z" fill="#C53F8B"/>
<path d="M131.189 105.413H124.102V136.027H131.189V105.413Z" fill="#C53F8B"/>
<path d="M143.372 110.44H136.285V136.025H143.372V110.44Z" fill="#C53F8B"/>
<path d="M155.552 94.9121H148.465V136.026H155.552V94.9121Z" fill="#C53F8B"/>
<path d="M83.4495 92.4077L83.532 103.312L83.5721 114.217L83.6289 136.026L83.4495 135.847C100.664 135.796 117.879 135.869 135.094 135.882L149.453 135.921L162.188 136.026L149.453 136.132L135.094 136.172C117.879 136.184 100.664 136.258 83.4495 136.207L83.2695 136.206L83.2701 136.026L83.3268 114.217L83.367 103.312L83.4495 92.4077Z" fill="white"/>
<path d="M81.8867 94.9123C82.4077 94.7555 82.9292 94.7188 83.4502 94.7108C83.9712 94.7176 84.4927 94.7544 85.0136 94.9123C84.4927 95.0702 83.9712 95.107 83.4502 95.1139C82.9287 95.1058 82.4077 95.0691 81.8867 94.9123Z" fill="white"/>
<path d="M81.8867 99.2412C82.4077 99.0844 82.9292 99.0477 83.4502 99.0396C83.9712 99.0471 84.4927 99.0833 85.0136 99.2412C84.4927 99.3991 83.9712 99.4353 83.4502 99.4427C82.9287 99.4347 82.4077 99.3979 81.8867 99.2412Z" fill="white"/>
<path d="M81.8867 103.569C82.4077 103.413 82.9292 103.376 83.4502 103.368C83.9712 103.375 84.4927 103.411 85.0136 103.569C84.4927 103.727 83.9712 103.764 83.4502 103.771C82.9287 103.763 82.4077 103.726 81.8867 103.569Z" fill="white"/>
<path d="M81.8867 107.898C82.4077 107.741 82.9292 107.705 83.4502 107.697C83.9712 107.704 84.4927 107.74 85.0136 107.898C84.4927 108.056 83.9712 108.092 83.4502 108.1C82.9287 108.092 82.4077 108.055 81.8867 107.898Z" fill="white"/>
<path d="M81.8867 112.227C82.4077 112.07 82.9292 112.033 83.4502 112.025C83.9712 112.032 84.4927 112.069 85.0136 112.227C84.4927 112.385 83.9712 112.421 83.4502 112.429C82.9287 112.421 82.4077 112.384 81.8867 112.227Z" fill="white"/>
<path d="M81.8867 116.555C82.4077 116.399 82.9292 116.362 83.4502 116.354C83.9712 116.361 84.4927 116.398 85.0136 116.555C84.4927 116.713 83.9712 116.75 83.4502 116.757C82.9287 116.749 82.4077 116.712 81.8867 116.555Z" fill="white"/>
<path d="M81.8867 120.884C82.4077 120.728 82.9292 120.691 83.4502 120.683C83.9712 120.69 84.4927 120.726 85.0136 120.884C84.4927 121.042 83.9712 121.079 83.4502 121.086C82.9287 121.078 82.4077 121.042 81.8867 120.884Z" fill="white"/>
<path d="M81.8867 125.212C82.4077 125.056 82.9292 125.019 83.4502 125.011C83.9712 125.018 84.4927 125.055 85.0136 125.212C84.4927 125.37 83.9712 125.407 83.4502 125.414C82.9287 125.406 82.4077 125.369 81.8867 125.212Z" fill="white"/>
<path d="M81.8867 129.541C82.4077 129.385 82.9292 129.348 83.4502 129.34C83.9712 129.347 84.4927 129.383 85.0136 129.541C84.4927 129.699 83.9712 129.736 83.4502 129.743C82.9287 129.735 82.4077 129.699 81.8867 129.541Z" fill="white"/>
<path d="M203.143 92.7661H173.789V136.224H203.143V92.7661Z" fill="white"/>
<path d="M197.29 106.036C197.29 110.922 193.337 114.882 188.462 114.882C183.586 114.882 179.633 110.922 179.633 106.036C179.633 101.15 183.586 97.1899 188.462 97.1899C191.739 97.1899 194.6 98.9798 196.124 101.638C196.865 102.934 197.29 104.435 197.29 106.036Z" fill="#EFEFEF"/>
<path d="M196.127 101.638L188.465 106.036V97.1899C191.742 97.1905 194.603 98.9798 196.127 101.638Z" fill="#C53F8B"/>
<path d="M184.381 118.851L183.814 119.183C183.797 119.195 183.768 119.206 183.746 119.206C183.694 119.206 183.648 119.177 183.625 119.137C183.585 119.062 183.608 118.982 183.677 118.948L184.45 118.477C184.513 118.443 184.605 118.466 184.639 118.529C184.656 118.563 184.662 118.598 184.656 118.632V122.323C184.656 122.398 184.599 122.461 184.519 122.461C184.444 122.461 184.381 122.398 184.381 122.323V118.851Z" fill="#A6A6A6"/>
<path d="M185.738 122.064C185.681 122.007 185.681 121.915 185.738 121.863C185.796 121.806 185.887 121.806 185.945 121.863C186.157 122.07 186.425 122.174 186.701 122.174C186.975 122.174 187.244 122.07 187.457 121.858C187.669 121.645 187.772 121.375 187.772 121.1C187.772 120.819 187.669 120.543 187.463 120.337C187.256 120.13 186.982 120.027 186.707 120.027C186.426 120.027 186.157 120.13 185.945 120.343C185.888 120.4 185.796 120.4 185.745 120.343C185.727 120.331 185.716 120.314 185.71 120.297V120.291C185.704 120.285 185.704 120.28 185.704 120.274C185.699 120.263 185.699 120.245 185.699 120.228C185.699 120.222 185.704 120.211 185.704 120.199L185.899 118.581C185.899 118.535 185.922 118.501 185.957 118.478C185.98 118.455 186.014 118.443 186.048 118.443H187.916C187.996 118.443 188.059 118.507 188.059 118.587C188.059 118.673 187.996 118.73 187.916 118.73H186.169L186.025 119.924C186.232 119.804 186.467 119.741 186.707 119.741C187.056 119.741 187.4 119.867 187.663 120.136C187.933 120.4 188.059 120.745 188.059 121.1C188.059 121.445 187.933 121.8 187.663 122.064C187.4 122.323 187.045 122.46 186.701 122.46C186.351 122.461 186.001 122.329 185.738 122.064Z" fill="#A6A6A6"/>
<path d="M189.117 119.436V119.424C189.117 118.885 189.473 118.397 190.005 118.397C190.532 118.397 190.881 118.885 190.881 119.413V119.424C190.881 119.963 190.526 120.452 189.993 120.452C189.466 120.452 189.117 119.97 189.117 119.436ZM190.583 119.436V119.424C190.583 118.976 190.314 118.644 189.993 118.644C189.655 118.644 189.415 118.994 189.415 119.413V119.424C189.415 119.878 189.684 120.205 190.004 120.205C190.342 120.205 190.583 119.866 190.583 119.436ZM189.661 122.289L192.451 118.484C192.48 118.443 192.514 118.421 192.559 118.421C192.628 118.421 192.685 118.472 192.685 118.541C192.685 118.57 192.68 118.593 192.662 118.616L189.873 122.421C189.844 122.461 189.81 122.484 189.764 122.484C189.695 122.484 189.638 122.432 189.638 122.363C189.638 122.334 189.644 122.312 189.661 122.289ZM191.442 121.49V121.479C191.442 120.94 191.798 120.452 192.33 120.452C192.857 120.452 193.206 120.94 193.206 121.467V121.479C193.206 122.018 192.851 122.506 192.319 122.506C191.792 122.507 191.442 122.024 191.442 121.49ZM192.909 121.49V121.479C192.909 121.031 192.64 120.699 192.319 120.699C191.981 120.699 191.74 121.049 191.74 121.467V121.479C191.74 121.932 192.01 122.259 192.331 122.259C192.668 122.26 192.909 121.921 192.909 121.49Z" fill="#A6A6A6"/>
<path d="M195.735 125.132H181.203V126.066H195.735V125.132Z" fill="#A6A6A6"/>
<path d="M198.164 127.1H178.766V128.034H198.164V127.1Z" fill="#EBEBEB"/>
<path d="M198.164 128.872H178.766V129.806H198.164V128.872Z" fill="#EBEBEB"/>
<path d="M198.164 130.644H178.766V131.577H198.164V130.644Z" fill="#EBEBEB"/>
<path d="M237.002 92.7661H207.648V136.224H237.002V92.7661Z" fill="white"/>
<path d="M231.158 106.036C231.158 106.476 231.125 106.91 231.06 107.332C230.438 111.603 226.765 114.882 222.329 114.882C217.453 114.882 213.5 110.921 213.5 106.037C213.5 101.152 217.453 97.1914 222.329 97.1914C225.605 97.1914 228.465 98.9801 229.991 101.639C230.734 102.934 231.158 104.436 231.158 106.036Z" fill="#EFEFEF"/>
<path d="M231.161 106.036C231.161 106.476 231.128 106.91 231.063 107.332L222.332 106.036V97.1909C225.608 97.1909 228.468 98.9797 229.994 101.639C230.737 102.934 231.161 104.437 231.161 106.036Z" fill="#C53F8B"/>
<path d="M216.848 122.215L218.722 120.522C218.945 120.316 219.066 120.04 219.066 119.753C219.066 119.506 218.974 119.26 218.796 119.064C218.595 118.84 218.315 118.726 218.034 118.726C217.782 118.726 217.536 118.812 217.335 118.99L217.141 119.168C217.083 119.226 216.992 119.22 216.946 119.162C216.888 119.105 216.894 119.013 216.951 118.968L217.146 118.784C217.398 118.56 217.719 118.445 218.034 118.445C218.384 118.445 218.738 118.583 218.997 118.876C219.231 119.129 219.341 119.444 219.341 119.754C219.341 120.11 219.197 120.465 218.911 120.73L217.307 122.182H219.203C219.278 122.182 219.341 122.245 219.341 122.325C219.341 122.4 219.278 122.463 219.203 122.463H216.97H216.947C216.907 122.463 216.867 122.452 216.844 122.423C216.791 122.359 216.791 122.273 216.848 122.215Z" fill="#A6A6A6"/>
<path d="M220.316 122.065C220.259 122.008 220.259 121.916 220.316 121.864C220.374 121.807 220.465 121.807 220.523 121.864C220.734 122.071 221.004 122.175 221.279 122.175C221.553 122.175 221.823 122.071 222.034 121.859C222.246 121.646 222.349 121.376 222.349 121.101C222.349 120.82 222.246 120.544 222.04 120.338C221.834 120.131 221.559 120.028 221.284 120.028C221.004 120.028 220.734 120.131 220.523 120.344C220.465 120.401 220.374 120.401 220.322 120.344C220.305 120.332 220.293 120.315 220.287 120.298V120.292C220.281 120.286 220.281 120.281 220.281 120.275C220.276 120.263 220.276 120.246 220.276 120.229C220.276 120.223 220.281 120.212 220.281 120.2L220.476 118.582C220.476 118.536 220.499 118.502 220.534 118.479C220.557 118.456 220.591 118.444 220.625 118.444H222.493C222.573 118.444 222.636 118.508 222.636 118.588C222.636 118.674 222.573 118.731 222.493 118.731H220.746L220.602 119.925C220.808 119.805 221.044 119.742 221.284 119.742C221.633 119.742 221.977 119.868 222.241 120.137C222.51 120.401 222.636 120.746 222.636 121.101C222.636 121.446 222.51 121.801 222.241 122.065C221.977 122.324 221.623 122.461 221.279 122.461C220.93 122.462 220.58 122.33 220.316 122.065Z" fill="#A6A6A6"/>
<path fill-rule="evenodd" clip-rule="evenodd" d="M227.032 118.485L224.243 122.29C224.226 122.312 224.22 122.335 224.22 122.364C224.22 122.433 224.277 122.485 224.346 122.485C224.392 122.485 224.426 122.462 224.455 122.422L227.245 118.617C227.261 118.594 227.267 118.571 227.267 118.542C227.267 118.473 227.21 118.421 227.141 118.421C227.095 118.421 227.061 118.444 227.032 118.485ZM226.024 121.48V121.491C226.024 122.025 226.374 122.508 226.901 122.507C227.433 122.507 227.788 122.019 227.788 121.48V121.468C227.788 120.941 227.439 120.453 226.912 120.453C226.379 120.453 226.024 120.941 226.024 121.48ZM227.491 121.48V121.491C227.491 121.922 227.25 122.261 226.912 122.26C226.592 122.26 226.322 121.933 226.322 121.48V121.468C226.322 121.05 226.563 120.699 226.901 120.699C227.222 120.699 227.491 121.032 227.491 121.48Z" fill="#A6A6A6"/>
<path fill-rule="evenodd" clip-rule="evenodd" d="M223.699 119.437V119.425C223.699 118.886 224.054 118.398 224.587 118.398C225.114 118.398 225.463 118.886 225.463 119.414V119.425C225.463 119.964 225.108 120.453 224.576 120.453C224.048 120.453 223.699 119.971 223.699 119.437ZM225.165 119.425V119.437C225.165 119.867 224.925 120.206 224.586 120.206C224.266 120.206 223.997 119.879 223.997 119.425V119.414C223.997 118.995 224.237 118.645 224.576 118.645C224.896 118.645 225.165 118.977 225.165 119.425Z" fill="#A6A6A6"/>
<path d="M229.598 125.132H215.066V126.066H229.598V125.132Z" fill="#A6A6A6"/>
<path d="M232.028 127.101H212.629V128.034H232.028V127.101Z" fill="#EBEBEB"/>
<path d="M232.028 128.872H212.629V129.806H232.028V128.872Z" fill="#EBEBEB"/>
<path d="M232.028 130.644H212.629V131.578H232.028V130.644Z" fill="#EBEBEB"/>
<path d="M270.862 92.7661H241.508V136.224H270.862V92.7661Z" fill="white"/>
<path d="M265.024 106.037C265.024 109.804 262.673 113.024 259.359 114.296C258.375 114.677 257.309 114.884 256.195 114.884C251.32 114.884 247.367 110.922 247.367 106.037C247.367 101.152 251.321 97.1914 256.195 97.1914C259.474 97.1914 262.335 98.9801 263.857 101.639C264.599 102.935 265.024 104.438 265.024 106.037Z" fill="#EFEFEF"/>
<path d="M265.024 106.037C265.024 109.804 262.673 113.024 259.359 114.296L256.195 106.037V97.1914C259.474 97.1914 262.335 98.9801 263.857 101.639C264.599 102.935 265.024 104.438 265.024 106.037Z" fill="#C53F8B"/>
<path d="M252.802 121.636H250.631H250.625H250.614C250.585 121.636 250.551 121.63 250.529 121.607C250.466 121.561 250.46 121.469 250.511 121.412L252.831 118.519L252.837 118.514C252.889 118.45 252.968 118.445 253.032 118.496C253.055 118.514 253.066 118.542 253.078 118.565C253.078 118.577 253.084 118.582 253.084 118.588V118.605V121.36H253.353C253.433 121.36 253.496 121.423 253.496 121.498C253.496 121.572 253.433 121.636 253.353 121.636H253.084V122.325C253.084 122.399 253.021 122.463 252.94 122.463C252.866 122.463 252.803 122.399 252.803 122.325V121.636H252.802ZM252.802 121.36V119.007L250.906 121.36H252.802Z" fill="#A6A6A6"/>
<path d="M254.395 122.066C254.337 122.008 254.337 121.916 254.395 121.865C254.452 121.807 254.544 121.807 254.601 121.865C254.812 122.071 255.082 122.175 255.357 122.175C255.632 122.175 255.901 122.071 256.112 121.859C256.324 121.647 256.427 121.377 256.427 121.102C256.427 120.82 256.324 120.545 256.118 120.338C255.912 120.132 255.637 120.028 255.363 120.028C255.082 120.028 254.812 120.132 254.601 120.344C254.543 120.402 254.451 120.402 254.4 120.344C254.383 120.333 254.371 120.315 254.365 120.298V120.292C254.36 120.287 254.36 120.281 254.36 120.275C254.354 120.264 254.354 120.247 254.354 120.229C254.354 120.224 254.36 120.212 254.36 120.201L254.554 118.582C254.554 118.536 254.577 118.502 254.612 118.479C254.635 118.456 254.669 118.445 254.703 118.445H256.571C256.651 118.445 256.714 118.508 256.714 118.588C256.714 118.674 256.651 118.732 256.571 118.732H254.824L254.681 119.926C254.886 119.805 255.122 119.742 255.363 119.742C255.712 119.742 256.055 119.868 256.319 120.137C256.588 120.402 256.715 120.746 256.715 121.102C256.715 121.446 256.588 121.802 256.319 122.066C256.055 122.324 255.701 122.461 255.357 122.461C255.007 122.462 254.658 122.33 254.395 122.066Z" fill="#A6A6A6"/>
<path d="M257.777 119.437V119.425C257.777 118.886 258.133 118.398 258.665 118.398C259.192 118.398 259.541 118.886 259.541 119.414V119.425C259.541 119.965 259.187 120.453 258.654 120.453C258.126 120.453 257.777 119.971 257.777 119.437ZM259.244 119.437V119.425C259.244 118.978 258.975 118.645 258.654 118.645C258.316 118.645 258.075 118.995 258.075 119.414V119.425C258.075 119.879 258.345 120.206 258.665 120.206C259.003 120.206 259.244 119.868 259.244 119.437ZM258.321 122.29L261.111 118.485C261.14 118.445 261.174 118.422 261.219 118.422C261.288 118.422 261.346 118.473 261.346 118.542C261.346 118.571 261.34 118.594 261.323 118.617L258.533 122.422C258.505 122.462 258.47 122.485 258.425 122.485C258.356 122.485 258.298 122.433 258.298 122.364C258.298 122.336 258.305 122.313 258.321 122.29ZM260.103 121.492V121.48C260.103 120.941 260.458 120.453 260.991 120.453C261.518 120.453 261.867 120.941 261.867 121.469V121.48C261.867 122.019 261.512 122.507 260.979 122.507C260.453 122.508 260.103 122.026 260.103 121.492ZM261.569 121.492V121.48C261.569 121.032 261.3 120.7 260.979 120.7C260.641 120.7 260.4 121.05 260.4 121.469V121.48C260.4 121.933 260.67 122.26 260.991 122.26C261.328 122.261 261.569 121.922 261.569 121.492Z" fill="#A6A6A6"/>
<path d="M263.45 125.132H248.918V126.066H263.45V125.132Z" fill="#A6A6A6"/>
<path d="M265.879 127.1H246.48V128.034H265.879V127.1Z" fill="#EBEBEB"/>
<path d="M265.879 128.872H246.48V129.806H265.879V128.872Z" fill="#EBEBEB"/>
<path d="M265.879 130.642H246.48V131.576H265.879V130.642Z" fill="#EBEBEB"/>
<path d="M304.717 92.7662H275.363V136.224H304.717V92.7662Z" fill="white"/>
<path d="M298.909 106.037C298.909 107.924 298.321 109.673 297.319 111.109C295.72 113.407 293.061 114.911 290.052 114.911C287.86 114.911 285.85 114.112 284.304 112.786C282.401 111.16 281.195 108.741 281.195 106.038C281.195 101.137 285.161 97.1636 290.052 97.1636C293.339 97.1636 296.208 98.9581 297.739 101.626C298.483 102.925 298.909 104.432 298.909 106.037Z" fill="#EFEFEF"/>
<path d="M298.909 106.037C298.909 107.924 298.321 109.673 297.32 111.109C295.721 113.407 293.061 114.911 290.052 114.911C287.86 114.911 285.85 114.112 284.305 112.786L290.052 106.038V97.1636C293.339 97.1636 296.208 98.9581 297.739 101.626C298.484 102.925 298.909 104.432 298.909 106.037Z" fill="#C53F8B"/>
<path d="M284.613 122.066C284.556 122.008 284.556 121.916 284.613 121.865C284.671 121.807 284.762 121.807 284.82 121.865C285.031 122.071 285.3 122.175 285.576 122.175C285.85 122.175 286.119 122.071 286.331 121.859C286.543 121.647 286.646 121.377 286.646 121.102C286.646 120.82 286.543 120.545 286.337 120.338C286.131 120.132 285.856 120.028 285.581 120.028C285.3 120.028 285.031 120.132 284.82 120.344C284.762 120.402 284.67 120.402 284.618 120.344C284.602 120.333 284.59 120.315 284.584 120.298V120.292C284.578 120.287 284.578 120.281 284.578 120.275C284.573 120.264 284.573 120.247 284.573 120.229C284.573 120.224 284.578 120.212 284.578 120.201L284.773 118.582C284.773 118.536 284.796 118.502 284.831 118.479C284.853 118.456 284.888 118.445 284.922 118.445H286.789C286.87 118.445 286.933 118.508 286.933 118.588C286.933 118.674 286.87 118.732 286.789 118.732H285.043L284.899 119.926C285.105 119.805 285.341 119.742 285.581 119.742C285.93 119.742 286.274 119.868 286.538 120.137C286.807 120.402 286.933 120.746 286.933 121.102C286.933 121.446 286.807 121.802 286.538 122.066C286.274 122.324 285.919 122.461 285.576 122.461C285.226 122.462 284.877 122.33 284.613 122.066Z" fill="#A6A6A6"/>
<path d="M288.082 122.066C288.025 122.008 288.025 121.916 288.082 121.865C288.139 121.807 288.231 121.807 288.288 121.865C288.5 122.071 288.769 122.175 289.044 122.175C289.319 122.175 289.588 122.071 289.8 121.859C290.012 121.646 290.115 121.376 290.115 121.101C290.115 120.82 290.012 120.544 289.806 120.338C289.6 120.131 289.325 120.028 289.05 120.028C288.769 120.028 288.5 120.131 288.288 120.344C288.231 120.401 288.139 120.401 288.087 120.344C288.071 120.332 288.059 120.315 288.053 120.298V120.292C288.047 120.287 288.047 120.281 288.047 120.275C288.041 120.264 288.041 120.246 288.041 120.229C288.041 120.223 288.047 120.212 288.047 120.2L288.242 118.582C288.242 118.536 288.265 118.502 288.299 118.479C288.322 118.456 288.357 118.444 288.391 118.444H290.258C290.338 118.444 290.401 118.508 290.401 118.588C290.401 118.674 290.338 118.732 290.258 118.732H288.511L288.368 119.925C288.574 119.805 288.809 119.742 289.049 119.742C289.399 119.742 289.742 119.868 290.006 120.137C290.275 120.401 290.401 120.746 290.401 121.101C290.401 121.446 290.275 121.801 290.006 122.066C289.742 122.324 289.388 122.461 289.044 122.461C288.695 122.462 288.346 122.33 288.082 122.066Z" fill="#A6A6A6"/>
<path d="M291.461 119.437V119.425C291.461 118.886 291.816 118.398 292.349 118.398C292.876 118.398 293.225 118.886 293.225 119.414V119.425C293.225 119.965 292.87 120.453 292.337 120.453C291.811 120.453 291.461 119.971 291.461 119.437ZM292.928 119.437V119.425C292.928 118.977 292.658 118.645 292.338 118.645C292 118.645 291.759 118.995 291.759 119.414V119.425C291.759 119.879 292.028 120.206 292.349 120.206C292.687 120.206 292.928 119.867 292.928 119.437ZM292.005 122.29L294.795 118.485C294.823 118.445 294.857 118.422 294.904 118.422C294.972 118.422 295.03 118.473 295.03 118.542C295.03 118.571 295.024 118.594 295.007 118.617L292.217 122.422C292.189 122.462 292.154 122.485 292.109 122.485C292.04 122.485 291.982 122.433 291.982 122.364C291.982 122.336 291.988 122.313 292.005 122.29ZM293.787 121.491V121.48C293.787 120.941 294.142 120.453 294.675 120.453C295.202 120.453 295.551 120.941 295.551 121.468V121.48C295.551 122.019 295.196 122.507 294.663 122.507C294.136 122.508 293.787 122.025 293.787 121.491ZM295.253 121.491V121.48C295.253 121.032 294.984 120.7 294.664 120.7C294.325 120.7 294.085 121.05 294.085 121.468V121.48C294.085 121.933 294.354 122.26 294.675 122.26C295.012 122.261 295.253 121.922 295.253 121.491Z" fill="#A6A6A6"/>
<path d="M297.305 125.132H282.773V126.066H297.305V125.132Z" fill="#A6A6A6"/>
<path d="M299.735 127.101H280.336V128.034H299.735V127.101Z" fill="#EBEBEB"/>
<path d="M299.735 128.872H280.336V129.806H299.735V128.872Z" fill="#EBEBEB"/>
<path d="M299.735 130.644H280.336V131.578H299.735V130.644Z" fill="#EBEBEB"/>
<path d="M165.062 71.8667L165.168 89.4738L165.205 107.082L165.278 142.296L165.206 177.51L165.168 195.118L165.062 212.725L164.957 195.118L164.919 177.51L164.848 142.296L164.92 107.082L164.958 89.4738L165.062 71.8667Z" fill="#A6A6A6"/>
<path d="M311.442 142.296L282.402 142.4L253.362 142.439L195.282 142.511L137.201 142.439L108.161 142.401L79.1211 142.296L108.161 142.19L137.201 142.153L195.282 142.081L253.362 142.153L282.402 142.191L311.442 142.296Z" fill="#A6A6A6"/>
<path d="M174.402 160.848C196.389 160.739 217.273 160.766 239.26 160.722C261.247 160.766 282.731 160.739 304.718 160.848C282.731 160.958 261.247 160.93 239.26 160.974C217.273 160.93 196.39 160.957 174.402 160.848Z" fill="white"/>
<path d="M174.402 171.235C196.389 171.126 217.273 171.154 239.26 171.108C261.247 171.153 282.731 171.126 304.718 171.235C282.731 171.345 261.247 171.317 239.26 171.362C217.273 171.317 196.39 171.344 174.402 171.235Z" fill="white"/>
<path d="M174.402 181.623C196.389 181.514 217.273 181.542 239.26 181.497C261.247 181.542 282.731 181.514 304.718 181.623C282.731 181.733 261.247 181.706 239.26 181.75C217.273 181.705 196.39 181.733 174.402 181.623Z" fill="white"/>
<path d="M174.402 192.013C196.389 191.904 217.273 191.932 239.26 191.886C261.247 191.931 282.731 191.903 304.718 192.013C282.731 192.123 261.247 192.095 239.26 192.14C217.273 192.094 196.39 192.122 174.402 192.013Z" fill="white"/>
<path d="M174.402 202.401C196.389 202.292 217.273 202.319 239.26 202.274C261.247 202.319 282.731 202.291 304.718 202.401C282.731 202.51 261.247 202.483 239.26 202.528C217.273 202.482 196.39 202.51 174.402 202.401Z" fill="white"/>
<path d="M186.9 154.094C187.009 163.801 186.982 173.507 187.027 183.213C186.982 192.919 187.009 202.626 186.9 212.332C186.791 202.626 186.818 192.919 186.773 183.213C186.819 173.507 186.792 163.8 186.9 154.094Z" fill="white"/>
<path d="M198.166 154.094C198.275 163.801 198.247 173.507 198.292 183.213C198.248 192.919 198.275 202.626 198.166 212.332C198.056 202.626 198.084 192.919 198.039 183.213C198.084 173.507 198.057 163.8 198.166 154.094Z" fill="white"/>
<path d="M209.428 154.094C209.537 163.801 209.509 173.507 209.554 183.213C209.509 192.919 209.537 202.626 209.428 212.332C209.318 202.626 209.346 192.919 209.301 183.213C209.346 173.507 209.319 163.8 209.428 154.094Z" fill="white"/>
<path d="M220.693 154.094C220.802 163.801 220.774 173.507 220.82 183.213C220.775 192.919 220.802 202.626 220.693 212.332C220.584 202.626 220.611 192.919 220.566 183.213C220.612 173.507 220.584 163.8 220.693 154.094Z" fill="white"/>
<path d="M231.959 154.094C232.068 163.801 232.04 173.507 232.086 183.213C232.041 192.919 232.069 202.626 231.959 212.332C231.849 202.626 231.877 192.919 231.832 183.213C231.877 173.507 231.85 163.8 231.959 154.094Z" fill="white"/>
<path d="M243.221 154.094C243.33 163.801 243.302 173.507 243.347 183.213C243.302 192.919 243.33 202.626 243.221 212.332C243.111 202.626 243.139 192.919 243.094 183.213C243.14 173.507 243.112 163.8 243.221 154.094Z" fill="white"/>
<path d="M254.486 154.094C254.595 163.801 254.568 173.507 254.613 183.213C254.568 192.919 254.595 202.626 254.486 212.332C254.377 202.626 254.404 192.919 254.359 183.213C254.405 173.507 254.377 163.8 254.486 154.094Z" fill="white"/>
<path d="M265.752 154.094C265.861 163.801 265.833 173.507 265.878 183.213C265.833 192.919 265.861 202.626 265.752 212.332C265.642 202.626 265.67 192.919 265.625 183.213C265.671 173.507 265.643 163.8 265.752 154.094Z" fill="white"/>
<path d="M277.018 154.094C277.127 163.801 277.099 173.507 277.144 183.213C277.1 192.919 277.127 202.626 277.018 212.332C276.908 202.626 276.935 192.919 276.891 183.213C276.936 173.507 276.908 163.8 277.018 154.094Z" fill="white"/>
<path d="M288.279 154.094C288.388 163.801 288.361 173.507 288.406 183.213C288.361 192.919 288.389 202.626 288.279 212.332C288.17 202.626 288.197 192.919 288.152 183.213C288.198 173.507 288.171 163.8 288.279 154.094Z" fill="white"/>
<path d="M299.541 154.094C299.65 163.801 299.623 173.507 299.668 183.213C299.623 192.919 299.651 202.626 299.541 212.332C299.431 202.626 299.459 192.919 299.414 183.213C299.459 173.507 299.432 163.8 299.541 154.094Z" fill="white"/>
<path d="M174.211 154.725C174.357 164.326 174.484 173.927 174.496 183.529L174.633 212.332L174.212 212.095L238.512 212.155L270.662 212.202L305.222 212.332L270.662 212.463L238.512 212.51L174.212 212.57L173.789 212.57L173.79 212.333L173.927 183.529C173.939 173.928 174.065 164.326 174.211 154.725Z" fill="white"/>
<path d="M174.402 212.333C174.402 212.333 180.453 187.066 186.6 187.066C191.76 187.066 193.938 194.513 198.131 194.513C203.658 194.513 204.421 175.226 209.757 175.226C215.094 175.226 216.236 182.769 220.81 182.769C225.384 182.769 227.41 173.889 232.15 173.889C236.889 173.889 238.052 186.97 243.105 186.97C248.159 186.97 248.254 166.347 254.448 166.347C260.642 166.347 262.259 175.226 265.882 175.226C269.504 175.226 271.6 168.734 276.936 168.734C287.037 168.734 299.544 212.333 299.544 212.333H174.402Z" fill="#8BC53F"/>
<path opacity="0.2" d="M174.402 212.333C174.402 212.333 180.453 187.066 186.6 187.066C191.76 187.066 193.938 194.513 198.131 194.513C203.658 194.513 204.421 175.226 209.757 175.226C215.094 175.226 216.236 182.769 220.81 182.769C225.384 182.769 227.41 173.889 232.15 173.889C236.889 173.889 238.052 186.97 243.105 186.97C248.159 186.97 248.254 166.347 254.448 166.347C260.642 166.347 262.259 175.226 265.882 175.226C269.504 175.226 271.6 168.734 276.936 168.734C287.037 168.734 299.544 212.333 299.544 212.333H174.402Z" fill="black"/>
<path d="M174.398 212.332C174.398 212.332 180.912 184.312 186.692 184.312C192.471 184.312 193.08 192.011 197.947 192.011C202.814 192.011 202.885 178.487 209.425 178.487C213.93 178.487 215.517 183.975 220.491 183.975C227.335 183.975 226.308 171.235 231.898 171.235C239.045 171.235 236.156 188.787 243.609 188.787C248.324 188.787 249.575 180.915 255.203 180.915C258.929 180.915 260.553 186.576 265.424 186.576C270.371 186.576 271.36 175.28 277.444 175.28C287.411 175.28 299.737 212.332 299.737 212.332H174.398Z" fill="#8BC53F"/>
<g opacity="0.1">
<path d="M174.398 212.332C174.398 212.332 180.912 184.312 186.692 184.312C192.471 184.312 193.08 192.011 197.947 192.011C202.814 192.011 202.885 178.487 209.425 178.487C213.93 178.487 215.517 183.975 220.491 183.975C227.335 183.975 226.308 171.235 231.898 171.235C239.045 171.235 236.156 188.787 243.609 188.787C248.324 188.787 249.575 180.915 255.203 180.915C258.929 180.915 260.553 186.576 265.424 186.576C270.371 186.576 271.36 175.28 277.444 175.28C287.411 175.28 299.737 212.332 299.737 212.332H174.398Z" fill="black"/>
</g>
<path d="M174.41 212.333C174.41 212.333 180.284 199.478 186.908 199.478C191.88 199.478 192.77 202.851 198.233 202.851C201.664 202.851 202.978 189.34 209.563 189.34C216.149 189.34 216.275 197.313 220.786 197.313C225.297 197.313 226.564 189.802 232.093 189.802C237.621 189.802 238.289 193.94 243.231 193.94C248.866 193.94 248.689 177.199 254.495 177.199C260.301 177.199 262.196 189.611 265.886 189.611C270.657 189.611 271.132 185.158 276.897 185.158C284.95 185.158 299.749 212.333 299.749 212.333H174.41Z" fill="#8BC53F"/>
<path d="M83.2266 153.868V200.923H155.545V153.868H83.2266Z" fill="#DBDBDB"/>
<path d="M86.6523 156.368V198.425H90.369V156.368H86.6523Z" fill="white"/>
<path d="M86.6523 176.922V198.424H90.369V176.922H86.6523Z" fill="#8BC53F"/>
<path d="M93.5117 156.367V198.424H97.2284V156.367H93.5117Z" fill="white"/>
<path d="M93.5117 165.218V198.424H97.2284V165.218H93.5117Z" fill="#8BC53F"/>
<path d="M100.371 156.368V198.425H104.088V156.368H100.371Z" fill="white"/>
<path d="M100.371 171.69V198.424H104.088V171.69H100.371Z" fill="#8BC53F"/>
<path d="M107.234 156.367V198.424H110.951V156.367H107.234Z" fill="white"/>
<path d="M107.234 185.057V198.424H110.951V185.057H107.234Z" fill="#8BC53F"/>
<path d="M114.094 156.368V198.425H117.81V156.368H114.094Z" fill="white"/>
<path d="M114.094 162.222V198.425H117.81V162.222H114.094Z" fill="#8BC53F"/>
<path d="M120.957 156.367V198.424H124.674V156.367H120.957Z" fill="white"/>
<path d="M120.957 165.218V198.424H124.674V165.218H120.957Z" fill="#8BC53F"/>
<path d="M127.82 156.368V198.425H131.537V156.368H127.82Z" fill="white"/>
<path d="M127.82 171.69V198.424H131.537V171.69H127.82Z" fill="#8BC53F"/>
<path d="M134.68 156.367V198.424H138.396V156.367H134.68Z" fill="white"/>
<path d="M134.68 165.218V198.424H138.396V165.218H134.68Z" fill="#8BC53F"/>
<path d="M141.543 156.368V198.425H145.26V156.368H141.543Z" fill="white"/>
<path d="M141.543 185.057V198.424H145.26V185.057H141.543Z" fill="#8BC53F"/>
<path d="M148.402 156.367V198.424H152.119V156.367H148.402Z" fill="white"/>
<path d="M148.402 171.689V198.424H152.119V171.689H148.402Z" fill="#8BC53F"/>
<path d="M87.4585 204.444H83.2656V208.645H87.4585V204.444Z" fill="#C53F8B"/>
<path d="M136.283 204.444H90.375V205.685H136.283V204.444Z" fill="#DBDBDB"/>
<path d="M120.039 207.404H90.375V208.645H120.039V207.404Z" fill="#DBDBDB"/>
<path d="M198.274 240.467C201.628 245.269 196.379 250.527 191.586 247.168C191.428 247.057 191.284 246.913 191.174 246.754C187.83 241.954 193.071 236.702 197.862 240.054C198.02 240.165 198.164 240.309 198.274 240.467Z" fill="#CDCDCD"/>
<path d="M308.799 258.868C308.799 258.951 258.154 259.017 195.694 259.017C133.213 259.017 82.5781 258.95 82.5781 258.868C82.5781 258.785 133.212 258.719 195.694 258.719C258.154 258.718 308.799 258.785 308.799 258.868Z" fill="#455A64"/>
<path d="M67.5559 217.43L59.8672 208.988L33.7766 232.844L41.4653 241.286L67.5559 217.43Z" fill="#CDCDCD"/>
<path d="M133.959 148.972C116.01 129.264 85.5034 127.866 65.8284 145.856C46.159 163.84 44.7641 194.406 62.7137 214.114C80.6681 233.828 111.17 235.22 130.84 217.235C150.514 199.245 151.914 168.685 133.959 148.972ZM70.2131 207.256C56.0443 191.7 57.1454 167.568 72.6724 153.371C88.2043 139.169 112.289 140.273 126.459 155.83C140.633 171.392 139.527 195.519 123.994 209.72C108.467 223.917 84.3876 222.819 70.2131 207.256Z" fill="#8BC53F"/>
<path d="M13.3567 264.005L8.6259 258.811C6.72165 256.719 6.86938 253.478 8.95647 251.57L35.7367 227.084C37.8238 225.176 41.0593 225.324 42.9636 227.415L47.6944 232.609C49.5986 234.7 49.4509 237.942 47.3638 239.85L20.5836 264.336C18.4965 266.244 15.261 266.096 13.3567 264.005Z" fill="#7BAF37"/>
<g opacity="0.4">
<path d="M123.997 209.719C108.47 223.916 84.3903 222.818 70.2158 207.255C56.047 191.699 57.1481 167.567 72.6751 153.371C88.207 139.169 112.292 140.273 126.462 155.829C140.635 171.391 139.529 195.517 123.997 209.719Z" fill="white"/>
<path d="M115.094 215.802C100.292 223.085 81.8883 220.084 70.2114 207.255C67.7978 204.604 65.8258 201.707 64.293 198.643L115.094 215.802Z" fill="#EBEBEB"/>
<path d="M136.346 183.725L66.7695 160.225C68.4207 157.761 70.3993 155.461 72.679 153.371C75.2982 150.965 78.1722 149.008 81.2028 147.485L132.574 164.831C135.466 170.779 136.717 177.295 136.346 183.725Z" fill="#EBEBEB"/>
<path d="M126.67 207.015L60.3949 184.63C60.195 182.136 60.2439 179.63 60.5263 177.145L131.098 200.981C129.851 203.106 128.373 205.125 126.67 207.015Z" fill="#EBEBEB"/>
<path d="M135.681 188.905L64.1484 164.75C64.3517 164.332 64.5582 163.921 64.7753 163.514L135.921 187.544C135.854 187.996 135.781 188.453 135.681 188.905Z" fill="#EBEBEB"/>
<path d="M125.135 154.448L93.3867 143.724C94.5164 143.574 95.6566 143.478 96.7961 143.434L122.617 152.155C123.484 152.872 124.323 153.635 125.135 154.448Z" fill="#EBEBEB"/>
</g>
<path d="M79.3624 161.159C79.4024 161.124 79.444 161.09 79.4848 161.056C80.0595 160.581 78.898 161.499 79.2979 161.201C79.7754 160.844 80.2529 160.489 80.7459 160.154C82.469 158.982 84.2965 157.962 86.1901 157.093C86.457 156.97 86.7288 156.858 86.9949 156.735C87.0831 156.694 86.3501 156.999 86.9361 156.762C87.1027 156.695 87.2692 156.628 87.4365 156.561C88.0821 156.307 88.7351 156.071 89.3946 155.854C90.8475 155.375 92.3306 154.988 93.8332 154.704C94.1932 154.636 94.554 154.58 94.9147 154.518C95.4012 154.434 94.3589 154.584 95.0168 154.505C95.2347 154.478 95.4526 154.451 95.6714 154.427C96.5031 154.337 97.3389 154.279 98.1755 154.253C99.0807 154.226 99.9867 154.24 100.89 154.291C101.305 154.315 101.718 154.349 102.131 154.387C102.846 154.452 101.835 154.337 102.346 154.41C102.593 154.446 102.84 154.477 103.088 154.515C105.308 154.855 107.46 155.451 109.569 156.215C109.612 156.231 109.989 156.378 109.675 156.255C109.357 156.13 109.843 156.324 109.896 156.347C110.203 156.475 110.508 156.604 110.811 156.739C111.393 156.998 111.97 157.273 112.539 157.562C113.743 158.175 114.909 158.855 116.046 159.583C117.353 160.42 119.232 159.739 119.943 158.443C120.731 157.005 120.115 155.378 118.805 154.539C111.587 149.918 103.007 147.632 94.4682 148.817C88.7506 149.612 83.2125 151.678 78.3715 154.839C77.29 155.546 76.2216 156.309 75.2438 157.155C74.1043 158.14 74.2161 160.253 75.305 161.22C76.5546 162.331 78.1422 162.215 79.3624 161.159Z" fill="white"/>
<path d="M73.5221 167.397C72.4374 168.518 70.6507 168.545 69.5324 167.458C68.4142 166.371 68.3873 164.581 69.472 163.46C70.5568 162.34 72.3435 162.313 73.4617 163.4C74.5799 164.487 74.6077 166.277 73.5221 167.397Z" fill="white"/>
<path d="M428.534 38.2L429.581 239.081L281.175 238.802L270.75 229.454L280.12 36.0029L419.328 24.4702L428.534 38.2Z" fill="#E0E0E0"/>
<path d="M419.324 24.4705L419.174 229.322L270.746 229.454L272.602 24.7021L419.324 24.4705Z" fill="#FAFAFA"/>
<path d="M419.324 24.4705C418.008 24.4743 361.632 24.6247 272.601 24.8631L272.761 24.7044C272.253 81.9548 271.623 152.838 270.942 229.457L270.746 229.257C271.023 229.257 271.325 229.256 271.627 229.256C324.52 229.216 374.681 229.177 419.174 229.143L418.996 229.322C419.189 108.175 419.322 26.06 419.324 24.4705C419.324 26.0585 419.335 108.175 419.353 229.322V229.501H419.174C374.681 229.546 324.52 229.597 271.627 229.65C271.325 229.65 271.023 229.651 270.746 229.651H270.547L270.549 229.451C271.257 152.833 271.912 81.9503 272.442 24.6999L272.443 24.5411H272.601C361.632 24.4986 418.009 24.4713 419.324 24.4705Z" fill="#404040"/>
<path d="M294.429 74.1077L344.31 73.7614C345.934 73.75 347.242 72.4187 347.231 70.7882C347.219 69.1577 345.893 67.8446 344.269 67.856L294.389 68.2023C292.765 68.2137 291.457 69.545 291.469 71.1755C291.479 72.806 292.805 74.119 294.429 74.1077Z" fill="#E0E0E0"/>
<path d="M294.34 85.5329L344.221 85.1866C345.845 85.1752 347.153 83.8439 347.142 82.2134C347.13 80.5829 345.805 79.2699 344.18 79.2813L294.299 79.6276C292.675 79.639 291.368 80.9702 291.379 82.6007C291.39 84.2312 292.716 85.5443 294.34 85.5329Z" fill="#E0E0E0"/>
<path d="M294.246 96.9578L344.127 96.6115C345.751 96.6001 347.058 95.2688 347.047 93.6383C347.036 92.0078 345.71 90.6947 344.086 90.7061L294.206 91.0524C292.582 91.0638 291.274 92.3951 291.285 94.0256C291.296 95.6561 292.622 96.9691 294.246 96.9578Z" fill="#E0E0E0"/>
<path d="M294.161 108.384L344.041 108.037C345.665 108.026 346.973 106.695 346.962 105.064C346.951 103.434 345.625 102.121 344.001 102.132L294.12 102.478C292.496 102.49 291.188 103.82 291.199 105.451C291.211 107.082 292.537 108.394 294.161 108.384Z" fill="#E0E0E0"/>
<path d="M294.075 119.808L343.955 119.462C345.579 119.451 346.887 118.119 346.876 116.489C346.865 114.858 345.539 113.545 343.915 113.557L294.034 113.903C292.41 113.914 291.102 115.246 291.113 116.876C291.125 118.507 292.451 119.82 294.075 119.808Z" fill="#E0E0E0"/>
<path d="M293.993 131.234L343.873 130.888C345.497 130.876 346.805 129.545 346.794 127.915C346.783 126.284 345.457 124.971 343.833 124.982L293.952 125.329C292.328 125.34 291.02 126.671 291.031 128.302C291.043 129.933 292.369 131.246 293.993 131.234Z" fill="#E0E0E0"/>
<path d="M293.906 142.659L343.787 142.313C345.411 142.302 346.719 140.97 346.707 139.34C346.696 137.709 345.37 136.396 343.746 136.408L293.866 136.754C292.242 136.765 290.934 138.097 290.945 139.727C290.956 141.358 292.282 142.671 293.906 142.659Z" fill="#E0E0E0"/>
<path d="M355.872 130.388L405.753 130.697C407.377 130.707 408.702 129.393 408.712 127.762C408.722 126.132 407.413 124.801 405.789 124.792L355.908 124.482C354.284 124.473 352.959 125.786 352.949 127.417C352.939 129.047 354.247 130.378 355.872 130.388Z" fill="#E0E0E0"/>
<path d="M355.638 141.81L405.518 142.119C407.142 142.129 408.468 140.815 408.477 139.184C408.487 137.554 407.179 136.223 405.555 136.213L355.674 135.904C354.05 135.894 352.725 137.208 352.715 138.839C352.705 140.47 354.014 141.8 355.638 141.81Z" fill="#E0E0E0"/>
<path d="M355.321 153.858L405.202 154.167C406.826 154.177 408.151 152.863 408.161 151.232C408.171 149.602 406.862 148.271 405.238 148.261L355.358 147.952C353.734 147.942 352.408 149.256 352.398 150.887C352.389 152.518 353.697 153.848 355.321 153.858Z" fill="#E0E0E0"/>
<path d="M354.993 165.905L404.874 166.214C406.498 166.224 407.823 164.91 407.833 163.28C407.843 161.649 406.534 160.319 404.91 160.309L355.029 160C353.405 159.99 352.08 161.303 352.07 162.934C352.061 164.564 353.369 165.895 354.993 165.905Z" fill="#E0E0E0"/>
<path d="M354.665 177.953L404.546 178.262C406.17 178.272 407.495 176.958 407.505 175.328C407.515 173.697 406.206 172.367 404.582 172.357L354.701 172.048C353.077 172.038 351.752 173.352 351.742 174.982C351.732 176.613 353.041 177.943 354.665 177.953Z" fill="#E0E0E0"/>
<path d="M354.341 190L404.222 190.309C405.846 190.319 407.171 189.005 407.181 187.375C407.19 185.744 405.882 184.414 404.258 184.404L354.377 184.095C352.753 184.085 351.428 185.399 351.418 187.029C351.408 188.66 352.717 189.989 354.341 190Z" fill="#E0E0E0"/>
<path d="M354.013 202.047L403.893 202.356C405.517 202.366 406.843 201.052 406.852 199.421C406.862 197.791 405.554 196.46 403.93 196.45L354.049 196.141C352.425 196.131 351.1 197.445 351.09 199.076C351.08 200.707 352.389 202.037 354.013 202.047Z" fill="#E0E0E0"/>
<path d="M290.368 212.917L403.77 213.618C405.394 213.628 406.72 212.314 406.729 210.684C406.739 209.053 405.431 207.723 403.807 207.713L290.404 207.011C289.316 207.004 288.429 207.885 288.422 208.977L288.41 210.927C288.403 212.019 289.28 212.91 290.368 212.917Z" fill="#E0E0E0"/>
<path d="M294.786 59.2217L327.791 58.9923C329.415 58.9809 330.723 57.6497 330.712 56.0192C330.7 54.3887 329.374 53.0756 327.75 53.087L294.745 53.3163C293.121 53.3277 291.813 54.659 291.824 56.2895C291.836 57.92 293.162 59.2331 294.786 59.2217Z" fill="#E0E0E0"/>
<path d="M331.547 21.813L333.629 19.7891L358.734 19.6646L359.975 21.8844L331.547 21.813Z" fill="#404040"/>
<path d="M359.957 33.5079L359.977 21.8765L331.548 21.8279L331.528 33.4594L359.957 33.5079Z" fill="#404040"/>
<path d="M360.907 33.9035L360.907 33.4835C360.908 32.9587 360.485 32.5319 359.963 32.5312L331.454 32.4598C330.931 32.4583 330.505 32.8835 330.505 33.4091L330.504 33.829C330.503 34.3538 330.926 34.7806 331.449 34.7821L359.957 34.8535C360.48 34.8543 360.906 34.429 360.907 33.9035Z" fill="#404040"/>
<path d="M351.998 30.662C351.993 30.662 351.988 30.662 351.984 30.662L339.481 30.6301C339.121 30.6294 338.785 30.4585 338.579 30.173C338.373 29.8874 338.323 29.5221 338.444 29.1941L342.018 19.5296C340.379 18.3676 339.379 16.5313 339.328 14.5568C339.238 11.0938 342.058 8.17683 345.613 8.0538C347.393 7.98545 349.104 8.62413 350.393 9.83542C351.681 11.0475 352.389 12.6734 352.386 14.4155C352.383 16.4804 351.359 18.3881 349.633 19.5774L353.029 29.2434C353.143 29.5715 353.088 29.9345 352.882 30.2147C352.677 30.4919 352.347 30.6582 351.998 30.662ZM345.794 8.81779C345.743 8.81855 345.692 8.81931 345.641 8.82158C342.569 8.92715 340.039 11.5457 340.116 14.5386C340.164 16.3627 341.132 18.054 342.708 19.0633L342.968 19.2296L339.186 29.4553C339.151 29.5502 339.164 29.6512 339.223 29.734C339.283 29.8168 339.377 29.8639 339.481 29.8639L351.985 29.895C352.096 29.895 352.181 29.8487 352.24 29.7674C352.3 29.6862 352.315 29.5852 352.283 29.491L348.689 19.263L348.949 19.1012C350.604 18.0707 351.594 16.3187 351.597 14.4148C351.6 12.883 350.978 11.4538 349.845 10.3883C348.748 9.35699 347.315 8.80336 345.794 8.81779Z" fill="#676767"/>
<path d="M359.735 32.5295C359.733 32.5219 359.633 32.5173 359.448 32.5166C359.237 32.5135 358.966 32.509 358.632 32.5044C357.893 32.4968 356.873 32.4862 355.626 32.4733C353.062 32.4573 349.568 32.4361 345.708 32.4125C341.846 32.408 338.353 32.4034 335.788 32.4004C334.541 32.4087 333.522 32.4156 332.783 32.4209C332.447 32.4277 332.177 32.4338 331.965 32.4376C331.778 32.4437 331.68 32.4513 331.68 32.4589C331.68 32.4665 331.778 32.4748 331.965 32.4832C332.176 32.49 332.447 32.4984 332.782 32.509C333.521 32.5219 334.54 32.5394 335.788 32.5606C338.326 32.594 341.833 32.6237 345.707 32.6388C349.58 32.654 353.087 32.6518 355.625 32.6335C356.894 32.6244 357.921 32.6108 358.632 32.5925C358.987 32.5819 359.261 32.5758 359.45 32.5621C359.639 32.5485 359.736 32.5371 359.735 32.5295Z" fill="#676767"/>
<path d="M360.024 21.6442C360.022 21.6366 359.922 21.6321 359.737 21.6313C359.526 21.6283 359.255 21.6245 358.921 21.6192C358.182 21.6116 357.162 21.601 355.915 21.588C353.351 21.5721 349.857 21.5508 345.997 21.5273C342.136 21.5227 338.642 21.5189 336.078 21.5151C334.83 21.5235 333.811 21.5303 333.072 21.5356C332.737 21.5425 332.466 21.5485 332.254 21.5523C332.067 21.5584 331.969 21.566 331.969 21.5736C331.969 21.5812 332.067 21.5896 332.254 21.5979C332.465 21.6047 332.736 21.6131 333.071 21.6237C333.81 21.6366 334.829 21.6541 336.077 21.6754C338.615 21.7088 342.122 21.7384 345.996 21.7536C349.869 21.7688 353.376 21.7665 355.915 21.7483C357.184 21.7392 358.211 21.7255 358.922 21.7073C359.277 21.6966 359.551 21.6906 359.74 21.6769C359.929 21.6625 360.025 21.6518 360.024 21.6442Z" fill="#676767"/>
<path d="M429.574 239.08C429.5 239.16 427.11 237.039 424.238 234.345C421.364 231.65 419.096 229.4 419.17 229.321C419.244 229.241 421.633 231.36 424.506 234.056C427.38 236.751 429.649 239 429.574 239.08Z" fill="#404040"/>
<path d="M288.406 234.855C288.406 234.855 288.639 234.842 289.095 234.836C289.561 234.832 290.237 234.826 291.122 234.818C292.914 234.811 295.544 234.798 298.937 234.783C305.744 234.769 315.605 234.748 327.862 234.722C352.394 234.706 386.511 234.684 424.884 234.659L424.688 234.855C424.688 229.933 424.687 224.71 424.687 219.424C424.71 177.318 424.73 139.204 424.744 111.607C424.771 97.8169 424.792 86.657 424.807 78.9336C424.823 75.0826 424.836 72.0904 424.844 70.0506C424.853 69.0413 424.859 68.2697 424.864 67.7404C424.871 67.2202 424.884 66.9536 424.884 66.9536C424.884 66.9536 424.898 67.2202 424.905 67.7404C424.909 68.2697 424.915 69.0413 424.924 70.0506C424.933 72.0904 424.946 75.0826 424.961 78.9336C424.977 86.657 424.998 97.8169 425.024 111.607C425.039 139.204 425.06 177.318 425.082 219.424C425.082 224.71 425.081 229.933 425.081 234.855V235.052H424.885C386.511 235.027 352.395 235.004 327.863 234.988C315.606 234.962 305.745 234.942 298.938 234.927C295.545 234.912 292.915 234.9 291.123 234.893C290.238 234.884 289.562 234.878 289.097 234.874C288.64 234.867 288.406 234.855 288.406 234.855Z" fill="#404040"/>
<path d="M338.757 175.494C338.962 188.346 328.762 198.969 316.021 199.176C303.279 199.383 292.746 189.095 292.542 176.243C292.337 163.391 302.537 152.767 315.279 152.561C328.02 152.355 338.552 162.642 338.757 175.494ZM304.601 176.048C304.698 182.192 309.735 187.112 315.826 187.013C321.918 186.914 326.796 181.834 326.697 175.69C326.6 169.545 321.564 164.626 315.472 164.724C309.38 164.823 304.503 169.902 304.601 176.048Z" fill="#E0E0E0"/>
<path d="M338.76 175.494C338.965 188.346 328.765 198.969 316.023 199.176L315.83 187.013C321.922 186.914 326.799 181.834 326.701 175.69C326.603 169.545 321.567 164.626 315.475 164.725L315.281 152.562C328.023 152.355 338.555 162.642 338.76 175.494Z" fill="#676767"/>
<path d="M318.1 201.047C303.194 201.288 291.302 189.673 291.062 174.638L305.17 174.409C305.284 181.598 310.733 186.124 317.86 186.009L318.1 201.047Z" fill="#8BC53F"/>
<path d="M299.165 174.882C299.254 174.944 297.921 177.043 296.186 179.571C294.451 182.099 292.972 184.097 292.883 184.035C292.794 183.973 294.127 181.874 295.862 179.346C297.596 176.818 299.076 174.82 299.165 174.882Z" fill="#404040"/>
<path d="M305.295 176.067C305.384 176.129 303.412 179.159 300.89 182.835C298.366 186.511 296.249 189.441 296.159 189.379C296.07 189.317 298.042 186.287 300.565 182.61C303.088 178.935 305.206 176.005 305.295 176.067Z" fill="#404040"/>
<path d="M308.287 182.364C308.377 182.427 306.601 185.17 304.322 188.492C302.041 191.814 300.121 194.457 300.031 194.395C299.941 194.332 301.717 191.589 303.997 188.267C306.277 184.946 308.198 182.303 308.287 182.364Z" fill="#404040"/>
<path d="M313.479 185.849C313.568 185.911 311.793 188.655 309.513 191.976C307.232 195.299 305.312 197.942 305.222 197.879C305.133 197.817 306.908 195.074 309.189 191.751C311.468 188.431 313.389 185.788 313.479 185.849Z" fill="#404040"/>
<path d="M317.926 190.271C318.016 190.333 316.565 192.603 314.686 195.341C312.806 198.079 311.21 200.249 311.121 200.187C311.032 200.125 312.482 197.855 314.362 195.116C316.24 192.378 317.837 190.209 317.926 190.271Z" fill="#404040"/>
<path d="M401.956 113.699C401.953 113.699 401.95 113.699 401.947 113.699L358.302 113.176C358.101 113.173 357.91 113.091 357.77 112.947C357.63 112.803 357.552 112.609 357.555 112.408L357.963 78.0626C357.968 77.6426 358.294 77.3009 358.729 77.3123C359.147 77.3176 359.481 77.6616 359.476 78.0808L359.077 111.667L401.965 112.181C402.384 112.186 402.718 112.529 402.713 112.949C402.707 113.365 402.37 113.699 401.956 113.699Z" fill="#404040"/>
<path opacity="0.7" d="M370.218 99.2643L364.359 99.1943L364.231 110L370.09 110.07L370.218 99.2643Z" fill="#C53F8B"/>
<path opacity="0.7" d="M390.562 99.2634L384.703 99.1934L384.575 109.999L390.434 110.069L390.562 99.2634Z" fill="#C53F8B"/>
<path d="M380.53 90.61L374.672 90.54L374.439 110.182L380.298 110.252L380.53 90.61Z" fill="#C53F8B"/>
<path d="M400.812 90.61L394.953 90.54L394.72 110.182L400.579 110.252L400.812 90.61Z" fill="#C53F8B"/>
<path d="M363.674 94.4917C363.469 94.4917 363.266 94.409 363.117 94.2449C362.835 93.9358 362.855 93.4551 363.164 93.1726L376.621 80.8007C376.893 80.5501 377.306 80.5342 377.597 80.762L386.081 87.4093L404.216 74.4321C404.557 74.1884 405.028 74.2696 405.271 74.6098C405.513 74.9516 405.434 75.4255 405.094 75.6693L386.5 88.9752C386.228 89.1704 385.859 89.1628 385.596 88.9555L377.172 82.3545L364.187 94.2928C364.04 94.4257 363.857 94.4917 363.674 94.4917Z" fill="#676767"/>
<path d="M406.162 58.3382H395.897C393.92 58.3382 392.316 56.729 392.316 54.7431C392.316 52.7579 393.919 51.1479 395.897 51.1479H406.162C408.14 51.1479 409.742 52.7572 409.742 54.7431C409.743 56.729 408.14 58.3382 406.162 58.3382Z" fill="#E0E0E0"/>
<path d="M414.171 113.315L421.859 104.874L447.95 128.729L440.261 137.171L414.171 113.315Z" fill="#CDCDCD"/>
<path d="M347.767 44.8568C365.717 25.1491 396.223 23.7515 415.898 41.7409C435.568 59.7254 436.962 90.2911 419.013 110C401.058 129.713 370.557 131.105 350.887 113.12C331.213 95.1301 329.813 64.5701 347.767 44.8568ZM411.513 103.141C425.682 87.585 424.581 63.453 409.054 49.2566C393.522 35.0545 369.437 36.1585 355.268 51.7149C341.094 67.2771 342.2 91.4042 357.733 105.605C373.26 119.802 397.339 118.704 411.513 103.141Z" fill="#C53F8B"/>
<path d="M468.37 159.89L473.101 154.696C475.005 152.605 474.857 149.363 472.77 147.455L445.99 122.969C443.903 121.061 440.667 121.209 438.763 123.3L434.032 128.494C432.128 130.585 432.276 133.827 434.363 135.735L461.143 160.221C463.23 162.129 466.466 161.981 468.37 159.89Z" fill="#A93175"/>
<g opacity="0.4">
<path d="M357.734 105.605C373.261 119.801 397.34 118.704 411.515 103.141C425.683 87.5843 424.582 63.4523 409.055 49.2559C393.523 35.0538 369.438 36.1578 355.269 51.7142C341.095 67.2764 342.202 91.4026 357.734 105.605Z" fill="white"/>
<path d="M366.637 111.687C381.438 118.97 399.842 115.97 411.519 103.141C413.933 100.489 415.905 97.5918 417.438 94.5283L366.637 111.687Z" fill="#EBEBEB"/>
<path d="M345.384 79.6106L414.961 56.11C413.31 53.6467 411.331 51.3462 409.051 49.2559C406.432 46.8507 403.558 44.8929 400.528 43.3701L349.156 60.7159C346.264 66.6647 345.013 73.1802 345.384 79.6106Z" fill="#EBEBEB"/>
<path d="M355.061 102.9L421.336 80.5148C421.536 78.0213 421.487 75.5155 421.204 73.0302L350.633 96.8662C351.879 98.9916 353.357 101.01 355.061 102.9Z" fill="#EBEBEB"/>
<path d="M346.05 84.79L417.582 60.6351C417.379 60.2172 417.172 59.8067 416.955 59.3994L345.81 83.4292C345.876 83.8814 345.95 84.3378 346.05 84.79Z" fill="#EBEBEB"/>
<path d="M356.596 50.3328L388.344 39.6097C387.214 39.4592 386.074 39.3635 384.934 39.3193L359.113 48.0405C358.246 48.7569 357.407 49.5207 356.596 50.3328Z" fill="#EBEBEB"/>
</g>
<path d="M402.364 57.0448C402.324 57.0096 402.283 56.9761 402.242 56.9417C401.667 56.4666 402.829 57.385 402.429 57.0865C401.951 56.7299 401.474 56.375 400.981 56.0397C399.258 54.8678 397.43 53.848 395.536 52.9786C395.27 52.856 394.998 52.7439 394.732 52.6204C394.643 52.5795 395.376 52.8846 394.79 52.6482C394.624 52.5812 394.457 52.5133 394.29 52.447C393.644 52.1927 392.991 51.9564 392.332 51.7396C390.879 51.2604 389.396 50.8736 387.893 50.5898C387.533 50.5219 387.173 50.4655 386.812 50.4033C386.325 50.3199 387.368 50.4696 386.71 50.3903C386.492 50.3641 386.274 50.3363 386.055 50.3126C385.223 50.2226 384.388 50.1645 383.551 50.1392C382.646 50.1122 381.74 50.1253 380.836 50.1768C380.422 50.2005 380.009 50.2349 379.596 50.2725C378.881 50.3379 379.892 50.2226 379.381 50.2962C379.134 50.3314 378.886 50.3624 378.639 50.4009C376.419 50.7403 374.267 51.3365 372.157 52.1011C372.115 52.1167 371.738 52.2639 372.051 52.1404C372.37 52.0152 371.884 52.2099 371.83 52.2328C371.524 52.3612 371.219 52.4896 370.916 52.6245C370.333 52.8838 369.757 53.1585 369.188 53.448C367.984 54.0606 366.818 54.741 365.681 55.4689C364.374 56.3055 362.494 55.6243 361.784 54.3288C360.996 52.8903 361.612 51.2637 362.922 50.4246C370.14 45.804 378.72 43.5174 387.258 44.7032C392.976 45.4973 398.514 47.5639 403.355 50.7247C404.437 51.4313 405.505 52.1952 406.483 53.0408C407.622 54.0262 407.51 56.1387 406.422 57.1061C405.172 58.2167 403.584 58.1006 402.364 57.0448Z" fill="white"/>
<path d="M408.204 63.2829C409.289 64.4033 411.076 64.4303 412.194 63.3434C413.312 62.2566 413.339 60.4664 412.255 59.346C411.17 58.2256 409.383 58.1986 408.265 59.2855C407.147 60.3732 407.119 62.1625 408.204 63.2829Z" fill="white"/>
</svg>
