<svg width="482" height="300" viewBox="0 0 482 300" fill="none" xmlns="http://www.w3.org/2000/svg">
<path opacity="0.5" d="M353.97 107.935C355.94 106.743 358.036 105.838 360.198 105.223L361.481 99.0463L371.897 98.8634L373.395 104.991C375.578 105.53 377.706 106.36 379.715 107.482L384.979 104.025L392.473 111.275L389.21 116.667C390.401 118.64 391.303 120.742 391.917 122.909L398.081 124.194L398.264 134.63L392.149 136.132C391.61 138.319 390.782 140.449 389.662 142.463L393.113 147.737L385.878 155.246L380.497 151.977C378.527 153.17 376.43 154.073 374.268 154.689L372.984 160.866L362.568 161.048L361.07 154.921C358.887 154.382 356.76 153.552 354.75 152.43L349.486 155.887L341.991 148.638L345.254 143.246C344.063 141.273 343.161 139.172 342.546 137.005L336.382 135.72L336.199 125.284L342.315 123.782C342.853 121.595 343.681 119.465 344.801 117.451L341.351 112.176L348.586 104.667L353.97 107.935ZM359.522 121.837C355.235 126.285 355.359 133.374 359.8 137.668C364.24 141.964 371.315 141.838 375.601 137.39C379.887 132.941 379.764 125.853 375.323 121.558C370.883 117.264 363.809 117.388 359.522 121.837Z" fill="#C53F8B"/>
<path d="M359.515 121.837C359.515 121.837 360.1 121.011 361.596 120.007C363.065 119.028 365.632 117.936 368.887 118.281C370.489 118.461 372.243 118.984 373.842 120.044C375.423 121.104 376.916 122.611 377.849 124.568C378.34 125.529 378.681 126.597 378.866 127.711C379.066 128.823 379.096 129.994 378.929 131.158C378.645 133.497 377.542 135.802 375.827 137.613C374.08 139.395 371.819 140.582 369.496 140.948C368.341 141.157 367.172 141.169 366.055 141.007C364.937 140.861 363.86 140.558 362.885 140.1C360.899 139.235 359.343 137.793 358.231 136.246C357.118 134.682 356.534 132.944 356.298 131.346C355.841 128.099 356.839 125.49 357.765 123.986C358.713 122.451 359.515 121.837 359.515 121.837C359.575 121.888 358.84 122.572 357.979 124.109C357.137 125.619 356.247 128.167 356.744 131.276C357 132.807 357.583 134.459 358.663 135.936C359.742 137.397 361.235 138.755 363.124 139.558C364.052 139.986 365.074 140.266 366.133 140.398C367.191 140.546 368.298 140.529 369.389 140.327C371.586 139.974 373.713 138.849 375.365 137.166C376.984 135.453 378.03 133.285 378.305 131.073C378.468 129.972 378.446 128.865 378.26 127.811C378.092 126.755 377.777 125.741 377.317 124.827C376.449 122.965 375.043 121.518 373.548 120.488C372.037 119.458 370.369 118.933 368.833 118.731C365.714 118.343 363.204 119.323 361.727 120.22C360.225 121.136 359.569 121.895 359.515 121.837Z" fill="#E0E0E0"/>
<path d="M353.966 107.935C353.966 107.944 353.85 107.883 353.619 107.751C353.366 107.605 353.027 107.408 352.587 107.154C351.646 106.597 350.29 105.794 348.53 104.753L348.657 104.737C346.816 106.671 344.394 109.213 341.465 112.287L341.484 112.086C342.535 113.68 343.705 115.45 344.955 117.346L345.018 117.441L344.963 117.542C343.94 119.398 343.08 121.511 342.517 123.831L342.487 123.955L342.362 123.986C340.457 124.459 338.396 124.972 336.251 125.505L336.425 125.28C336.49 128.565 336.559 132.052 336.632 135.713L336.431 135.471C338.34 135.865 340.443 136.299 342.597 136.744L342.754 136.777L342.798 136.931C343.37 138.946 344.265 141.088 345.486 143.102L345.573 143.245L345.486 143.389C344.478 145.061 343.364 146.906 342.232 148.785L342.186 148.43C344.542 150.705 347.084 153.157 349.689 155.671L349.318 155.637C350.956 154.559 352.756 153.374 354.579 152.175L354.733 152.074L354.894 152.163C356.731 153.19 358.878 154.065 361.139 154.62L361.321 154.664L361.366 154.847C361.837 156.766 362.351 158.859 362.869 160.973L362.558 160.733C365.856 160.674 369.39 160.61 372.974 160.546L372.668 160.8C373.073 158.849 373.509 156.743 373.95 154.623L373.99 154.433L374.176 154.38C376.227 153.799 378.352 152.9 380.32 151.705L380.326 151.702L380.494 151.602L380.657 151.702C382.464 152.8 384.26 153.891 386.038 154.972L385.642 155.023C388.088 152.486 390.501 149.983 392.88 147.516L392.843 147.911C391.682 146.135 390.533 144.377 389.395 142.635L389.291 142.476L389.384 142.309C390.49 140.324 391.312 138.211 391.843 136.057L391.889 135.874L392.071 135.83C394.14 135.324 396.177 134.825 398.188 134.333L397.955 134.634C397.896 131.072 397.839 127.592 397.782 124.2L398.016 124.483C395.925 124.045 393.871 123.614 391.854 123.191L391.684 123.154L391.637 122.987C391.012 120.775 390.102 118.696 388.969 116.811L388.882 116.666L388.969 116.523C390.09 114.677 391.179 112.886 392.24 111.138L392.283 111.468C389.652 108.912 387.169 106.5 384.804 104.203L385.109 104.231C383.254 105.442 381.515 106.579 379.837 107.675L379.72 107.752L379.598 107.684C377.5 106.509 375.397 105.713 373.34 105.197L373.215 105.166L373.186 105.042C372.648 102.813 372.164 100.806 371.707 98.9106L371.894 99.0546C367.859 99.1081 364.421 99.1529 361.478 99.1918L361.616 99.077C361.087 101.54 360.654 103.562 360.293 105.246L360.28 105.307L360.22 105.323C358.016 105.94 356.466 106.66 355.457 107.159C354.976 107.411 354.606 107.604 354.337 107.745C354.087 107.884 353.966 107.944 353.966 107.935C353.967 107.927 354.085 107.845 354.313 107.698C354.551 107.551 354.912 107.331 355.411 107.064C356.407 106.533 357.953 105.776 360.166 105.123L360.094 105.201C360.433 103.513 360.84 101.487 361.337 99.0158L361.359 98.9037L361.475 98.9011C364.418 98.8364 367.855 98.7614 371.89 98.6725L372.041 98.6691L372.078 98.8174C372.548 100.711 373.044 102.714 373.597 104.939L373.443 104.784C375.538 105.297 377.682 106.093 379.825 107.279L379.587 107.287C381.26 106.182 382.994 105.038 384.843 103.817L385.006 103.71L385.148 103.847C387.522 106.133 390.016 108.536 392.657 111.081L392.81 111.228L392.7 111.411C391.643 113.163 390.562 114.957 389.447 116.808L389.447 116.521C390.611 118.444 391.549 120.566 392.193 122.827L391.975 122.624C393.994 123.042 396.048 123.468 398.14 123.902L398.371 123.95L398.375 124.186C398.438 127.579 398.503 131.058 398.569 134.621L398.573 134.865L398.337 134.923C396.326 135.419 394.29 135.92 392.223 136.43L392.45 136.202C391.909 138.411 391.069 140.576 389.937 142.613L389.925 142.288C391.065 144.027 392.215 145.785 393.377 147.56L393.516 147.772L393.34 147.955C390.963 150.424 388.551 152.928 386.107 155.466L385.93 155.651L385.711 155.518C383.932 154.437 382.136 153.347 380.329 152.25H380.661L380.655 152.253C378.635 153.479 376.456 154.4 374.353 154.995L374.579 154.753C374.138 156.873 373.7 158.978 373.294 160.928L373.242 161.178L372.988 161.182C369.405 161.243 365.87 161.304 362.572 161.36L362.322 161.365L362.262 161.121C361.746 159.006 361.235 156.912 360.767 154.992L360.993 155.22C358.677 154.65 356.48 153.749 354.6 152.694L354.916 152.683C353.09 153.879 351.289 155.06 349.648 156.134L349.448 156.266L349.277 156.1C346.678 153.58 344.143 151.121 341.792 148.841L341.627 148.681L341.746 148.486C342.885 146.611 344.002 144.77 345.016 143.1V143.386C343.774 141.325 342.868 139.133 342.292 137.074L342.492 137.262C340.338 136.809 338.238 136.366 336.33 135.964L336.133 135.923L336.13 135.721C336.074 132.06 336.021 128.572 335.971 125.286L335.969 125.103L336.145 125.06C338.293 124.539 340.357 124.037 342.265 123.574L342.111 123.729C342.698 121.374 343.585 119.233 344.637 117.356L344.644 117.551C343.408 115.646 342.254 113.866 341.215 112.263L341.144 112.153L341.235 112.061C344.199 109.02 346.649 106.506 348.513 104.594L348.571 104.534L348.64 104.577C350.36 105.649 351.685 106.476 352.604 107.049C353.039 107.325 353.374 107.539 353.623 107.698C353.85 107.846 353.966 107.926 353.966 107.935Z" fill="#CE629F"/>
<path d="M86.1467 169.983C88.1155 168.791 90.2125 167.886 92.375 167.271L93.6577 161.094L104.073 160.911L105.572 167.039C107.754 167.578 109.882 168.408 111.892 169.53L117.156 166.073L124.65 173.323L121.387 178.715C122.578 180.688 123.48 182.79 124.094 184.957L130.258 186.242L130.441 196.678L124.325 198.18C123.787 200.367 122.959 202.497 121.839 204.511L125.288 209.785L118.054 217.294L112.672 214.025C110.703 215.218 108.606 216.122 106.443 216.737L105.16 222.914L94.7441 223.097L93.2445 216.969C91.0622 216.43 88.935 215.6 86.9249 214.478L81.6607 217.935L74.166 210.686L77.4287 205.294C76.2381 203.321 75.3359 201.22 74.7222 199.053L68.5575 197.768L68.375 187.332L74.4906 185.83C75.0286 183.643 75.8568 181.512 76.9768 179.499L73.5264 174.224L80.762 166.715L86.1467 169.983ZM91.6993 183.884C87.4122 188.333 87.537 195.421 91.9773 199.716C96.4177 204.012 103.492 203.887 107.778 199.438C112.065 194.989 111.941 187.901 107.5 183.606C103.06 179.311 95.9855 179.436 91.6993 183.884Z" fill="#F5F5F5"/>
<path d="M91.6996 183.885C91.6996 183.885 92.2841 183.059 93.7803 182.055C95.249 181.075 97.8161 179.984 101.071 180.329C102.674 180.509 104.427 181.032 106.026 182.092C107.608 183.152 109.1 184.659 110.033 186.616C110.524 187.577 110.865 188.645 111.05 189.759C111.251 190.871 111.28 192.042 111.113 193.206C110.83 195.545 109.726 197.85 108.01 199.661C106.265 201.443 104.003 202.63 101.68 202.996C100.524 203.205 99.3553 203.217 98.2387 203.055C97.1205 202.909 96.0435 202.606 95.0673 202.148C93.0822 201.283 91.5257 199.84 90.4143 198.294C89.3012 196.73 88.7176 194.992 88.4817 193.394C88.0246 190.147 89.0223 187.538 89.9486 186.034C90.8964 184.499 91.6996 183.885 91.6996 183.885C91.7599 183.936 91.0247 184.62 90.1638 186.157C89.3219 187.667 88.4318 190.215 88.9285 193.324C89.1842 194.855 89.767 196.507 90.8474 197.984C91.926 199.445 93.4196 200.803 95.3084 201.606C96.2364 202.034 97.2582 202.314 98.3188 202.446C99.3768 202.594 100.483 202.577 101.575 202.375C103.772 202.022 105.899 200.897 107.55 199.214C109.169 197.501 110.215 195.332 110.491 193.121C110.653 192.02 110.631 190.913 110.446 189.859C110.277 188.803 109.962 187.788 109.502 186.875C108.635 185.013 107.228 183.566 105.733 182.536C104.223 181.506 102.554 180.981 101.018 180.779C97.8996 180.391 95.3893 181.371 93.912 182.267C92.4081 183.183 91.753 183.944 91.6996 183.885Z" fill="#F5F5F5"/>
<path d="M86.147 169.983C86.147 169.991 86.0308 169.93 85.8001 169.799C85.547 169.653 85.2078 169.456 84.7679 169.201C83.827 168.645 82.4711 167.842 80.7115 166.801L80.838 166.785C78.9966 168.718 76.575 171.26 73.6464 174.335L73.6653 174.133C74.7173 175.727 75.8863 177.498 77.1363 179.394L77.1992 179.489L77.1441 179.59C76.1214 181.446 75.2614 183.56 74.6984 185.879L74.6682 186.002L74.5443 186.033C72.6392 186.507 70.5774 187.019 68.433 187.553L68.6069 187.327C68.6723 190.613 68.7412 194.1 68.8135 197.761L68.6129 197.519C70.5214 197.913 72.6245 198.347 74.7793 198.792L74.936 198.825L74.9799 198.979C75.5523 200.993 76.4468 203.136 77.6683 205.149L77.7553 205.293L77.6683 205.437C76.6594 207.109 75.5463 208.954 74.4134 210.833L74.3678 210.479C76.724 212.753 79.2661 215.206 81.8711 217.72L81.5 217.685C83.1383 216.607 84.9383 215.423 86.7608 214.223L86.9149 214.122L87.0759 214.212C88.9129 215.238 91.0599 216.114 93.3206 216.668L93.5031 216.713L93.5478 216.896C94.0187 218.815 94.5327 220.909 95.0509 223.023L94.7401 222.783C98.0381 222.723 101.573 222.66 105.156 222.596L104.85 222.849C105.255 220.898 105.691 218.793 106.132 216.673L106.172 216.482L106.358 216.43C108.408 215.848 110.534 214.949 112.502 213.755L112.508 213.752L112.675 213.652L112.839 213.752C114.646 214.85 116.442 215.941 118.22 217.022L117.824 217.073C120.27 214.536 122.683 212.033 125.061 209.566L125.024 209.962C123.864 208.186 122.715 206.427 121.577 204.685L121.473 204.526L121.566 204.359C122.672 202.374 123.494 200.262 124.025 198.107L124.071 197.924L124.253 197.88C126.322 197.374 128.359 196.875 130.37 196.383L130.137 196.685C130.079 193.123 130.021 189.642 129.964 186.25L130.198 186.534C128.107 186.096 126.054 185.664 124.036 185.241L123.866 185.205L123.819 185.037C123.195 182.825 122.284 180.746 121.151 178.862L121.065 178.717L121.151 178.574C122.273 176.727 123.361 174.936 124.423 173.188L124.466 173.518C121.835 170.963 119.351 168.55 116.987 166.253L117.291 166.282C115.437 167.493 113.697 168.63 112.019 169.726L111.902 169.803L111.782 169.734C109.684 168.559 107.581 167.764 105.523 167.247L105.399 167.216L105.369 167.093C104.832 164.864 104.347 162.857 103.89 160.961L104.078 161.105C100.043 161.158 96.6048 161.203 93.6615 161.242L93.7992 161.127C93.2706 163.591 92.8376 165.612 92.4769 167.296L92.4632 167.358L92.4038 167.375C90.1991 167.991 88.6495 168.711 87.6406 169.21C87.1594 169.462 86.7901 169.655 86.5206 169.797C86.2667 169.932 86.147 169.992 86.147 169.983C86.1478 169.975 86.2658 169.892 86.4939 169.746C86.7324 169.599 87.0931 169.378 87.5915 169.112C88.5884 168.58 90.1337 167.824 92.3469 167.171L92.2746 167.249C92.6138 165.561 93.021 163.535 93.5177 161.064L93.5401 160.951L93.6563 160.949C96.5987 160.884 100.036 160.808 104.071 160.72L104.222 160.717L104.259 160.865C104.729 162.758 105.225 164.762 105.778 166.986L105.624 166.832C107.719 167.344 109.863 168.14 112.005 169.326L111.767 169.335C113.44 168.23 115.174 167.086 117.023 165.865L117.186 165.757L117.328 165.894C119.702 168.181 122.196 170.584 124.837 173.128L124.99 173.276L124.88 173.459C123.824 175.211 122.742 177.005 121.627 178.856L121.628 178.568C122.791 180.492 123.729 182.614 124.373 184.874L124.156 184.672C126.175 185.09 128.229 185.516 130.321 185.949L130.552 185.996L130.556 186.233C130.619 189.626 130.684 193.105 130.75 196.667L130.754 196.912L130.518 196.97C128.507 197.466 126.471 197.967 124.404 198.477L124.631 198.249C124.09 200.458 123.25 202.623 122.118 204.66L122.106 204.334C123.246 206.074 124.396 207.831 125.558 209.606L125.697 209.818L125.521 210.001C123.143 212.469 120.732 214.974 118.288 217.512L118.111 217.697L117.892 217.564C116.113 216.483 114.317 215.393 112.511 214.296H112.842L112.836 214.299C110.817 215.525 108.638 216.446 106.535 217.041L106.76 216.798C106.32 218.918 105.881 221.023 105.477 222.973L105.425 223.223L105.171 223.227C101.588 223.288 98.0536 223.349 94.7556 223.406L94.5051 223.41L94.4457 223.166C93.9292 221.051 93.4187 218.958 92.9504 217.038L93.1768 217.265C90.8611 216.695 88.6633 215.794 86.784 214.74L87.0991 214.729C85.2741 215.925 83.4723 217.106 81.8315 218.18L81.6318 218.312L81.4604 218.146C78.8615 215.626 76.3263 213.167 73.9752 210.887L73.8108 210.728L73.9296 210.533C75.0685 208.658 76.1859 206.817 77.2 205.147V205.433C75.9578 203.372 75.0522 201.18 74.4754 199.121L74.676 199.308C72.5221 198.855 70.4216 198.412 68.5139 198.01L68.3168 197.969L68.3133 197.767C68.2574 194.106 68.2049 190.618 68.1549 187.332L68.1523 187.149L68.3288 187.106C70.4767 186.585 72.541 186.084 74.4487 185.62L74.2946 185.775C74.8817 183.42 75.7684 181.278 76.8204 179.402L76.8273 179.597C75.5919 177.692 74.4375 175.912 73.3984 174.309L73.327 174.2L73.4174 174.107C76.3813 171.067 78.8322 168.553 80.696 166.641L80.7537 166.581L80.8225 166.624C82.5426 167.696 83.8674 168.523 84.7868 169.096C85.2216 169.372 85.5564 169.586 85.8061 169.745C86.0308 169.895 86.147 169.974 86.147 169.983Z" fill="#F5F5F5"/>
<path d="M373.341 50.9092C374.768 50.045 376.288 49.3903 377.854 48.9444L378.784 44.4688L386.331 44.3359L387.418 48.7753C388.999 49.166 390.541 49.7672 391.997 50.5806L395.812 48.075L401.242 53.3286L398.878 57.2349C399.741 58.665 400.395 60.1882 400.839 61.758L405.306 62.6895L405.439 70.2512L401.007 71.3397C400.617 72.9242 400.017 74.4681 399.205 75.9274L401.705 79.7493L396.463 85.1909L392.563 82.8216C391.136 83.6858 389.616 84.3405 388.05 84.7864L387.12 89.262L379.573 89.3948L378.486 84.9546C376.905 84.5639 375.364 83.9627 373.907 83.1493L370.093 85.6549L364.662 80.4013L367.026 76.4941C366.164 75.0641 365.51 73.5417 365.064 71.9719L360.597 71.0404L360.465 63.4787L364.897 62.3902C365.287 60.8057 365.887 59.2618 366.698 57.8025L364.198 53.9806L369.441 48.5399L373.341 50.9092ZM377.364 60.9826C374.258 64.2067 374.348 69.343 377.566 72.4549C380.783 75.5669 385.91 75.4772 389.016 72.2531C392.122 69.029 392.033 63.8927 388.815 60.7807C385.598 57.6688 380.471 57.7593 377.364 60.9826Z" fill="#F5F5F5"/>
<path d="M377.375 60.9836C377.375 60.9836 377.799 60.3858 378.883 59.6579C379.947 58.9472 381.807 58.1571 384.166 58.4064C385.327 58.5375 386.598 58.9161 387.756 59.6846C388.902 60.4523 389.984 61.5442 390.66 62.9622C391.016 63.6582 391.263 64.4319 391.397 65.2392C391.542 66.0448 391.563 66.8927 391.443 67.7371C391.238 69.4319 390.438 71.1026 389.195 72.4145C387.929 73.7057 386.291 74.5665 384.607 74.8313C383.77 74.9823 382.923 74.9909 382.114 74.8736C381.304 74.7675 380.523 74.5476 379.817 74.2155C378.378 73.5884 377.25 72.5431 376.445 71.4226C375.638 70.2893 375.215 69.03 375.044 67.8716C374.713 65.5187 375.436 63.6281 376.107 62.5378C376.793 61.4286 377.375 60.9836 377.375 60.9836C377.419 61.0207 376.886 61.5166 376.262 62.6301C375.653 63.7247 375.007 65.5713 375.367 67.8242C375.552 68.9334 375.975 70.1306 376.757 71.201C377.54 72.2593 378.622 73.2434 379.99 73.8256C380.662 74.1361 381.403 74.3388 382.171 74.4346C382.938 74.5415 383.739 74.5294 384.531 74.3837C386.122 74.1275 387.664 73.3124 388.861 72.0928C390.034 70.8517 390.793 69.2801 390.992 67.6776C391.11 66.8806 391.094 66.0776 390.961 65.3134C390.838 64.5484 390.61 63.8135 390.277 63.1511C389.649 61.8021 388.628 60.7524 387.545 60.0063C386.45 59.2603 385.242 58.8799 384.129 58.7333C381.869 58.4521 380.05 59.1628 378.979 59.8123C377.889 60.4755 377.414 61.0267 377.375 60.9836Z" fill="#F5F5F5"/>
<path d="M373.348 50.9107C373.348 50.9176 373.263 50.8728 373.096 50.7779C372.913 50.6718 372.667 50.5295 372.348 50.3449C371.666 49.9413 370.684 49.3599 369.409 48.6052L369.5 48.5932C368.166 49.9939 366.412 51.8362 364.289 54.065L364.303 53.9184C365.064 55.0733 365.912 56.3567 366.818 57.7298L366.864 57.7988L366.823 57.8713C366.082 59.2168 365.46 60.7478 365.051 62.4288L365.029 62.5185L364.939 62.541C363.559 62.8842 362.064 63.2551 360.51 63.6424L360.636 63.4785C360.683 65.8591 360.733 68.3863 360.786 71.0394L360.64 70.8634C362.024 71.1489 363.548 71.4637 365.109 71.7863L365.223 71.8105L365.255 71.9226C365.67 73.382 366.318 74.9345 367.203 76.3939L367.266 76.4974L367.203 76.6018C366.472 77.8136 365.665 79.1505 364.844 80.5124L364.811 80.2554C366.518 81.9037 368.361 83.6805 370.249 85.5021L369.98 85.4771C371.167 84.6956 372.471 83.8374 373.792 82.968L373.904 82.8947L374.021 82.9594C375.353 83.7029 376.907 84.3377 378.546 84.7396L378.678 84.7715L378.711 84.9044C379.052 86.2947 379.424 87.8119 379.8 89.3438L379.575 89.1704C381.965 89.1273 384.526 89.0815 387.122 89.0341L386.901 89.2178C387.195 87.8042 387.511 86.2784 387.83 84.7422L387.858 84.6042L387.994 84.5663C389.48 84.1453 391.019 83.4941 392.447 82.6282L392.45 82.6256L392.572 82.5531L392.69 82.6256C394 83.4208 395.301 84.2118 396.59 84.9949L396.303 85.032C398.076 83.194 399.824 81.3801 401.548 79.5921L401.521 79.8785C400.68 78.5916 399.848 77.3168 399.023 76.0558L398.947 75.9402L399.014 75.8194C399.816 74.3808 400.412 72.8498 400.796 71.2886L400.829 71.1558L400.961 71.1239C402.46 70.7565 403.936 70.3951 405.392 70.0388L405.224 70.2579C405.182 67.6764 405.139 65.1544 405.099 62.6962L405.269 62.9015C403.753 62.5841 402.265 62.271 400.803 61.9648L400.679 61.9389L400.645 61.8173C400.193 60.2139 399.533 58.7079 398.712 57.3417L398.649 57.2373L398.712 57.1338C399.525 55.7952 400.313 54.498 401.083 53.2309L401.114 53.4698C399.207 51.618 397.408 49.8697 395.694 48.2059L395.915 48.2266C394.571 49.1038 393.311 49.9275 392.095 50.7219L392.009 50.7771L391.922 50.7279C390.401 49.8757 388.878 49.2996 387.387 48.9252L387.296 48.9028L387.275 48.8131C386.886 47.1985 386.534 45.7442 386.203 44.3694L386.339 44.4738C383.415 44.5126 380.924 44.5445 378.791 44.5729L378.891 44.4902C378.508 46.2756 378.194 47.7401 377.933 48.9597L377.923 49.0046L377.88 49.0166C376.282 49.4634 375.16 49.9861 374.429 50.3467C374.08 50.5295 373.813 50.6692 373.617 50.7719C373.435 50.8737 373.348 50.9168 373.348 50.9107C373.348 50.9047 373.434 50.8452 373.599 50.7391C373.772 50.633 374.033 50.4726 374.394 50.2794C375.117 49.8947 376.237 49.3461 377.84 48.8735L377.788 48.9304C378.033 47.7073 378.329 46.2385 378.688 44.4487L378.705 44.3677L378.789 44.3659C380.922 44.3194 383.412 44.2642 386.336 44.2003L386.446 44.1978L386.472 44.3047C386.812 45.6761 387.173 47.1286 387.573 48.7406L387.462 48.6285C388.98 48.9994 390.534 49.5764 392.086 50.4364L391.914 50.4424C393.126 49.642 394.383 48.8122 395.722 47.9282L395.84 47.8505L395.943 47.9497C397.663 49.6066 399.47 51.348 401.384 53.1921L401.495 53.2991L401.415 53.4319C400.65 54.7015 399.866 56.0013 399.057 57.3426V57.1347C399.9 58.5285 400.58 60.0664 401.047 61.7043L400.889 61.5568C402.352 61.8604 403.841 62.1684 405.357 62.4832L405.524 62.5177L405.528 62.6893C405.573 65.1484 405.62 67.6695 405.668 70.251L405.671 70.4278L405.5 70.4701C404.043 70.8298 402.568 71.1929 401.069 71.562L401.234 71.3973C400.841 72.9981 400.233 74.5671 399.413 76.0428L399.404 75.8065C400.23 77.0675 401.064 78.3415 401.906 79.6275L402.007 79.781L401.879 79.9138C400.157 81.7027 398.409 83.5174 396.637 85.3563L396.509 85.49L396.351 85.3934C395.061 84.6102 393.76 83.8202 392.451 83.0249H392.691L392.687 83.0267C391.223 83.9151 389.645 84.5826 388.121 85.0139L388.285 84.838C387.965 86.3741 387.648 87.8999 387.354 89.3136L387.316 89.4947L387.132 89.4981C384.535 89.543 381.974 89.587 379.584 89.6275L379.402 89.631L379.359 89.4542C378.985 87.9215 378.615 86.4043 378.275 85.013L378.44 85.1778C376.762 84.7646 375.168 84.1117 373.807 83.3475L374.035 83.3389C372.713 84.2057 371.407 85.0613 370.218 85.8402L370.074 85.9351L369.95 85.8152C368.066 83.9892 366.229 82.2073 364.526 80.5555L364.406 80.4408L364.492 80.2994C365.318 78.94 366.128 77.6057 366.862 76.3965V76.6043C365.961 75.1105 365.305 73.5226 364.887 72.0304L365.033 72.1658C363.472 71.8372 361.95 71.5163 360.567 71.2257L360.424 71.1955L360.422 71.0497C360.381 68.3966 360.343 65.8686 360.306 63.488L360.305 63.3552L360.433 63.3241C361.989 62.9463 363.486 62.5832 364.867 62.2477L364.756 62.3598C365.182 60.6529 365.825 59.1021 366.586 57.7419L366.592 57.8834C365.696 56.5025 364.86 55.2121 364.107 54.0512L364.055 53.9718L364.121 53.9045C366.269 51.7008 368.045 49.8792 369.395 48.494L369.438 48.4508L369.488 48.4819C370.734 49.259 371.694 49.8576 372.36 50.2733C372.675 50.4734 372.918 50.6278 373.099 50.7434C373.263 50.8461 373.348 50.9038 373.348 50.9107Z" fill="#F5F5F5"/>
<path opacity="0.5" d="M137.277 29.6055C138.705 28.7412 140.223 28.0866 141.791 27.6407L142.721 23.1651L150.269 23.0322L151.355 27.4716C152.937 27.8623 154.478 28.4635 155.935 29.2769L159.749 26.7712L165.18 32.0249L162.816 35.9312C163.678 37.3613 164.333 38.8845 164.777 40.4543L169.244 41.3858L169.376 48.9475L164.945 50.036C164.555 51.6204 163.955 53.1643 163.143 54.6237L165.643 58.4464L160.4 63.8881L156.501 61.5187C155.073 62.383 153.554 63.0376 151.987 63.4835L151.057 67.9592L143.51 68.092L142.424 63.6517C140.842 63.261 139.301 62.6598 137.845 61.8465L134.03 64.3521L128.599 59.0985L130.964 55.1913C130.101 53.7612 129.447 52.2389 129.002 50.6691L124.535 49.7376L124.402 42.1758L128.834 41.0874C129.224 39.5029 129.824 37.959 130.636 36.4996L128.136 32.6778L133.379 27.237L137.277 29.6055ZM141.301 39.6797C138.194 42.9038 138.285 48.0401 141.503 51.1521C144.72 54.2641 149.847 54.1735 152.953 50.9503C156.059 47.7262 155.969 42.5899 152.751 39.4779C149.534 36.3659 144.407 36.4556 141.301 39.6797Z" fill="#C53F8B"/>
<path d="M141.301 39.6803C141.301 39.6803 141.725 39.0826 142.808 38.3547C143.872 37.6439 145.733 36.8539 148.091 37.1031C149.253 37.2342 150.523 37.6129 151.682 38.3814C152.828 39.149 153.91 40.241 154.586 41.659C154.941 42.355 155.188 43.1287 155.323 43.936C155.468 44.7416 155.489 45.5903 155.368 46.4339C155.164 48.1287 154.364 49.7986 153.121 51.1113C151.855 52.4025 150.217 53.2624 148.533 53.5281C147.696 53.679 146.849 53.6877 146.04 53.5704C145.229 53.4643 144.449 53.2443 143.742 52.9123C142.304 52.2852 141.176 51.2398 140.37 50.1194C139.564 48.9861 139.141 47.7268 138.97 46.5693C138.638 44.2163 139.361 42.3257 140.033 41.2355C140.719 40.1254 141.301 39.6803 141.301 39.6803C141.345 39.7174 140.812 40.2125 140.188 41.3269C139.578 42.4214 138.933 44.2681 139.293 46.521C139.478 47.6302 139.9 48.8274 140.683 49.8977C141.465 50.9561 142.548 51.9402 143.915 52.5224C144.588 52.832 145.329 53.0356 146.097 53.1313C146.864 53.2383 147.665 53.2262 148.456 53.0805C150.047 52.8243 151.589 52.0092 152.786 50.7896C153.959 49.5484 154.718 47.9769 154.917 46.3744C155.035 45.5774 155.019 44.7744 154.885 44.0102C154.763 43.2451 154.535 42.5103 154.202 41.8479C153.573 40.4989 152.553 39.4492 151.47 38.7031C150.375 37.957 149.167 37.5767 148.054 37.43C145.794 37.1488 143.975 37.8596 142.904 38.509C141.814 39.1723 141.339 39.7226 141.301 39.6803Z" fill="#E0E0E0"/>
<path d="M137.29 29.605C137.29 29.6119 137.206 29.567 137.039 29.4721C136.855 29.366 136.609 29.2237 136.29 29.0392C135.609 28.6355 134.626 28.0542 133.351 27.2995L133.443 27.2874C132.108 28.6881 130.354 30.5305 128.231 32.7592L128.245 32.6126C129.007 33.7675 129.854 35.0509 130.76 36.424L130.806 36.493L130.765 36.5655C130.024 37.911 129.402 39.442 128.993 41.1231L128.971 41.2128L128.881 41.2352C127.501 41.5785 126.007 41.9502 124.453 42.3366L124.578 42.1727C124.626 44.5533 124.676 47.0805 124.728 49.7336L124.583 49.5576C125.966 49.8431 127.49 50.1579 129.051 50.4805L129.164 50.5038L129.196 50.6159C129.611 52.0753 130.259 53.6279 131.144 55.0872L131.207 55.1907L131.144 55.2951C130.413 56.507 129.607 57.8439 128.785 59.2058L128.753 58.9487C130.46 60.597 132.302 62.3738 134.19 64.1954L133.921 64.1704C135.108 63.389 136.413 62.5308 137.733 61.6614L137.845 61.5881L137.962 61.6527C139.294 62.3962 140.849 63.0311 142.488 63.433L142.62 63.4649L142.652 63.5977C142.993 64.9881 143.366 66.5053 143.741 68.0371L143.517 67.8637C145.906 67.8206 148.467 67.7749 151.064 67.7275L150.842 67.9112C151.136 66.4975 151.452 64.9717 151.771 63.4356L151.8 63.2976L151.935 63.2596C153.422 62.8387 154.961 62.1875 156.388 61.3215L156.392 61.3189L156.514 61.2465L156.633 61.3189C157.942 62.1142 159.244 62.9051 160.532 63.6883L160.246 63.7254C162.018 61.8873 163.767 60.0735 165.49 58.2855L165.463 58.5718C164.622 57.2849 163.79 56.0101 162.965 54.7491L162.889 54.6336L162.957 54.5128C163.758 53.0741 164.354 51.5432 164.739 49.982L164.771 49.8492L164.904 49.8172C166.403 49.4498 167.878 49.0893 169.336 48.7322L169.167 48.9513C169.125 46.3698 169.082 43.8486 169.042 41.3896L169.212 41.5949C167.697 41.2774 166.209 40.9643 164.747 40.6582L164.623 40.6323L164.59 40.5115C164.138 38.9081 163.477 37.4021 162.657 36.0359L162.594 35.9315L162.657 35.828C163.47 34.4894 164.258 33.1922 165.028 31.9251L165.059 32.1649C163.152 30.3131 161.353 28.5648 159.639 26.9001L159.86 26.9208C158.516 27.798 157.256 28.6217 156.04 29.4161L155.954 29.4713L155.867 29.4221C154.346 28.5699 152.822 27.9938 151.331 27.6194L151.241 27.597L151.22 27.5073C150.83 25.8927 150.479 24.4385 150.148 23.0636L150.284 23.1688C147.359 23.2068 144.869 23.2396 142.736 23.268L142.836 23.1852C142.453 24.9706 142.139 26.4352 141.877 27.6548L141.868 27.6997L141.825 27.7117C140.228 28.1585 139.105 28.6812 138.374 29.0417C138.025 29.2246 137.757 29.3643 137.562 29.467C137.377 29.5679 137.29 29.611 137.29 29.605C137.29 29.5989 137.376 29.5394 137.541 29.4333C137.713 29.3272 137.975 29.1677 138.337 28.9736C139.059 28.5889 140.179 28.0404 141.783 27.5677L141.73 27.6238C141.976 26.4007 142.271 24.9318 142.631 23.1421L142.647 23.061L142.731 23.0593C144.864 23.0127 147.354 22.9575 150.278 22.8937L150.387 22.8911L150.414 22.9981C150.754 24.3695 151.115 25.822 151.515 27.434L151.403 27.3219C152.921 27.6928 154.474 28.2698 156.027 29.1297L155.854 29.1358C157.067 28.3353 158.323 27.5056 159.663 26.6215L159.781 26.5439L159.883 26.6431C161.603 28.3 163.41 30.0414 165.325 31.8855L165.436 31.9924L165.356 32.1252C164.59 33.3949 163.807 34.6947 162.998 36.0359V35.828C163.841 37.2219 164.521 38.7597 164.987 40.3977L164.83 40.2502C166.292 40.5538 167.782 40.8617 169.298 41.1757L169.465 41.2102L169.468 41.3818C169.514 43.8409 169.56 46.362 169.608 48.9435L169.612 49.1203L169.441 49.1626C167.984 49.5223 166.509 49.8854 165.01 50.2545L165.174 50.0898C164.782 51.6898 164.174 53.2596 163.353 54.7345L163.345 54.4981C164.17 55.7591 165.005 57.0331 165.847 58.3191L165.947 58.4726L165.82 58.6055C164.097 60.3935 162.35 62.2091 160.578 64.048L160.45 64.1816L160.291 64.085C159.002 63.3019 157.701 62.5118 156.392 61.7166H156.632L156.628 61.7183C155.164 62.6067 153.585 63.2734 152.061 63.7055L152.225 63.5296C151.906 65.0657 151.588 66.5915 151.294 68.0052L151.257 68.1863L151.072 68.1898C148.476 68.2346 145.914 68.2786 143.524 68.3192L143.343 68.3226L143.3 68.1458C142.926 66.6131 142.556 65.0959 142.216 63.7047L142.38 63.8694C140.702 63.4563 139.109 62.8033 137.748 62.0391L137.976 62.0305C136.653 62.8974 135.348 63.753 134.159 64.5318L134.014 64.6267L133.89 64.5068C132.007 62.6809 130.17 60.8989 128.466 59.2472L128.347 59.1316L128.433 58.9901C129.259 57.6308 130.069 56.2965 130.803 55.0872V55.2951C129.903 53.8012 129.247 52.2133 128.828 50.7212L128.974 50.8566C127.413 50.528 125.891 50.2071 124.509 49.9164L124.366 49.8863L124.363 49.7405C124.323 47.0874 124.284 44.5593 124.248 42.1788L124.246 42.0459L124.374 42.0149C125.931 41.6371 127.427 41.274 128.809 40.9385L128.698 41.0506C129.123 39.3437 129.766 37.7929 130.528 36.4327L130.533 36.5741C129.638 35.1932 128.801 33.9029 128.049 32.742L127.997 32.6626L128.062 32.5953C130.21 30.3916 131.986 28.5699 133.337 27.1847L133.379 27.1416L133.429 27.1727C134.675 27.9498 135.635 28.5484 136.302 28.9641C136.617 29.1642 136.859 29.3186 137.04 29.4342C137.206 29.5403 137.29 29.5989 137.29 29.605Z" fill="#CE629F"/>
<path d="M336.97 53.1644L336.966 53.1472L336.149 49.8049C334.945 49.5065 333.787 49.0502 332.707 48.4482L329.821 50.3431L329.809 50.3311L325.694 46.3497L325.702 46.335L327.482 43.3947C326.843 42.3329 326.348 41.1901 326.008 39.9964L322.629 39.2917L322.628 39.2744L322.527 33.5438L322.545 33.5395L325.88 32.7201C326.179 31.5135 326.635 30.3534 327.234 29.2718L325.343 26.3806L325.356 26.3677L329.329 22.244L329.344 22.2526L332.279 24.0363C333.338 23.3963 334.48 22.8995 335.67 22.5597L336.373 19.1743H336.391L342.11 19.0742L342.115 19.0915L342.932 22.4337C344.134 22.7313 345.292 23.1876 346.373 23.7896L349.259 21.8947L349.272 21.9067L353.387 25.8881L353.378 25.9028L351.599 28.8431C352.237 29.9023 352.733 31.0451 353.073 32.2414L356.451 32.9461L356.452 32.9634L356.553 38.6948L356.536 38.6991L353.2 39.5177C352.903 40.7217 352.448 41.8818 351.847 42.966L353.738 45.8572L353.725 45.8701L349.752 49.9938L349.738 49.9852L346.802 48.2024C345.743 48.8415 344.603 49.3383 343.41 49.679L342.707 53.0644H342.69L336.97 53.1644ZM332.705 48.3982L332.717 48.4042C333.801 49.0097 334.963 49.4677 336.172 49.7661L336.185 49.7696L336.188 49.7825L337.005 53.1205L342.672 53.0213L343.374 49.6428L343.387 49.6393C344.585 49.2978 345.731 48.7992 346.793 48.1567L346.804 48.1498L346.815 48.1567L349.747 49.9378L353.684 45.8511L351.798 42.9669L351.804 42.9557C352.409 41.868 352.866 40.7036 353.163 39.4944L353.166 39.4814L353.179 39.478L356.511 38.6603L356.411 32.9815L353.041 32.2785L353.036 32.2656C352.695 31.0641 352.198 29.9161 351.557 28.8535L351.55 28.8423L351.557 28.831L353.335 25.8942L349.256 21.949L346.378 23.8396L346.366 23.8336C345.281 23.2281 344.12 22.7701 342.911 22.4717L342.898 22.4682L342.895 22.4553L342.078 19.1173L336.411 19.2165L335.709 22.595L335.696 22.5985C334.499 22.9392 333.354 23.4377 332.291 24.0811L332.28 24.088L332.269 24.0811L329.337 22.3L325.4 26.3867L327.285 29.2709L327.278 29.2821C326.676 30.3672 326.219 31.5316 325.92 32.7434L325.917 32.7564L325.904 32.7598L322.572 33.5783L322.672 39.2572L326.042 39.9601L326.047 39.9731C326.387 41.172 326.884 42.32 327.526 43.3852L327.533 43.3964L327.526 43.4076L325.749 46.3445L329.827 50.2897L332.705 48.3982ZM339.721 42.0811C338.185 42.0811 336.646 41.5084 335.457 40.3577C334.277 39.2166 333.611 37.6831 333.582 36.04C333.553 34.3969 334.165 32.8409 335.304 31.6584C337.654 29.2183 341.552 29.1502 343.986 31.5057C346.421 33.8613 346.49 37.7633 344.138 40.2042C342.936 41.4532 341.329 42.0811 339.721 42.0811ZM339.722 29.8264C338.125 29.8264 336.529 30.45 335.334 31.6894C334.204 32.8633 333.596 34.4081 333.626 36.0391C333.654 37.671 334.315 39.1933 335.487 40.3267C337.906 42.6667 341.774 42.5986 344.108 40.1749C346.443 37.7512 346.375 33.8759 343.956 31.5376C342.775 30.3957 341.247 29.8264 339.722 29.8264Z" fill="#E0E0E0"/>
<path d="M335.316 31.6752C335.316 31.6752 335.637 31.2233 336.455 30.6738C337.259 30.1374 338.664 29.5396 340.447 29.7285C341.324 29.8268 342.285 30.1141 343.16 30.6937C344.026 31.2733 344.843 32.0987 345.353 33.17C345.622 33.6961 345.808 34.2809 345.91 34.8907C346.02 35.4996 346.036 36.1405 345.945 36.7779C345.79 38.0587 345.185 39.3206 344.246 40.3125C343.29 41.288 342.053 41.9383 340.78 42.1385C340.147 42.2523 339.508 42.2592 338.897 42.1704C338.285 42.0902 337.695 41.9245 337.16 41.6736C336.074 41.2 335.222 40.41 334.613 39.5638C334.003 38.7082 333.684 37.756 333.555 36.8814C333.304 35.1037 333.851 33.6754 334.358 32.8517C334.877 32.0116 335.316 31.6752 335.316 31.6752C335.349 31.7037 334.947 32.0772 334.475 32.919C334.015 33.7461 333.527 35.1408 333.799 36.8434C333.939 37.6818 334.257 38.5857 334.849 39.3948C335.439 40.1943 336.257 40.9378 337.291 41.3777C337.799 41.6123 338.359 41.7658 338.939 41.8374C339.518 41.9185 340.123 41.909 340.722 41.7986C341.924 41.6054 343.089 40.9896 343.993 40.0675C344.88 39.13 345.452 37.9423 345.604 36.7313C345.693 36.1293 345.681 35.5229 345.58 34.9459C345.487 34.368 345.314 33.8126 345.063 33.3123C344.588 32.2928 343.817 31.5001 343 30.9369C342.172 30.3737 341.259 30.0856 340.418 29.9752C338.711 29.7622 337.336 30.2995 336.527 30.7903C335.705 31.2914 335.346 31.7071 335.316 31.6752Z" fill="#EBEBEB"/>
<path d="M332.277 24.0612C332.277 24.0664 332.214 24.0319 332.087 23.9603C331.949 23.8801 331.763 23.7723 331.522 23.6326C331.007 23.3281 330.265 22.8882 329.301 22.3181L329.37 22.3095C328.362 23.3678 327.037 24.7599 325.433 26.4435L325.443 26.3331C326.019 27.206 326.659 28.1755 327.344 29.2131L327.378 29.2648L327.348 29.32C326.788 30.3361 326.318 31.4936 326.009 32.7641L325.992 32.8313L325.924 32.8486C324.882 33.1082 323.752 33.3885 322.578 33.6809L322.673 33.5576C322.709 35.3568 322.746 37.2656 322.786 39.2709L322.677 39.1381C323.722 39.3537 324.873 39.5918 326.053 39.835L326.139 39.8531L326.164 39.9376C326.477 41.0408 326.967 42.2138 327.636 43.3161L327.683 43.3946L327.636 43.4731C327.083 44.3891 326.474 45.3991 325.854 46.4272L325.829 46.2332C327.119 47.4787 328.51 48.8207 329.937 50.1973L329.734 50.1783C330.631 49.5875 331.616 48.9398 332.614 48.2825L332.698 48.2273L332.786 48.2765C333.793 48.838 334.968 49.3175 336.206 49.6212L336.305 49.6453L336.33 49.7454C336.588 50.7959 336.869 51.9422 337.153 53.0997L336.983 52.9686C338.789 52.9358 340.723 52.9013 342.685 52.866L342.518 53.0048C342.74 51.937 342.979 50.7838 343.22 49.6229L343.241 49.5185L343.343 49.4892C344.466 49.1709 345.629 48.6793 346.707 48.0246L346.71 48.0229L346.802 47.9686L346.891 48.0229C347.881 48.6241 348.864 49.2209 349.838 49.8135L349.621 49.842C350.961 48.4533 352.281 47.0828 353.584 45.7321L353.563 45.9485C352.928 44.9765 352.299 44.0131 351.675 43.06L351.618 42.9729L351.669 42.8814C352.275 41.7946 352.725 40.638 353.016 39.4581L353.041 39.358L353.141 39.3339C354.273 39.0562 355.388 38.7836 356.489 38.5136L356.362 38.6792C356.329 36.7291 356.298 34.8238 356.267 32.9659L356.395 33.1212C355.25 32.8814 354.126 32.645 353.022 32.413L352.928 32.3932L352.902 32.3018C352.56 31.0908 352.062 29.9523 351.441 28.9207L351.394 28.8413L351.441 28.7628C352.056 27.752 352.651 26.7713 353.233 25.8139L353.256 25.995C351.816 24.596 350.455 23.2746 349.161 22.0179L349.328 22.0335C348.313 22.6967 347.36 23.3186 346.441 23.9189L346.377 23.9612L346.31 23.9241C345.162 23.2807 344.01 22.8451 342.884 22.5622L342.816 22.5449L342.8 22.4777C342.505 21.2572 342.24 20.1583 341.991 19.1207L342.093 19.2001C339.884 19.2294 338.001 19.2536 336.39 19.2751L336.466 19.2122C336.176 20.5611 335.94 21.6678 335.742 22.5898L335.734 22.6234L335.701 22.6329C334.494 22.9702 333.645 23.3652 333.094 23.6378C332.83 23.7758 332.628 23.881 332.481 23.9586C332.343 24.0336 332.277 24.0664 332.277 24.0612C332.277 24.0569 332.343 24.0121 332.468 23.9319C332.599 23.8517 332.796 23.7309 333.069 23.5851C333.614 23.2945 334.461 22.8805 335.672 22.5225L335.632 22.5648C335.818 21.641 336.041 20.531 336.312 19.1785L336.324 19.1173L336.388 19.1156C338 19.0802 339.881 19.0388 342.09 18.9905L342.173 18.9888L342.193 19.0698C342.45 20.1066 342.722 21.2037 343.024 22.4216L342.94 22.3371C344.087 22.6174 345.261 23.0538 346.434 23.7024L346.304 23.7076C347.219 23.103 348.169 22.4759 349.181 21.8075L349.27 21.7488L349.348 21.8239C350.647 23.0762 352.013 24.3916 353.458 25.7846L353.542 25.8656L353.481 25.9657C352.903 26.9248 352.311 27.9072 351.7 28.9207V28.7637C352.337 29.8168 352.85 30.9787 353.203 32.2164L353.085 32.1051C354.19 32.3345 355.315 32.5674 356.461 32.8046L356.587 32.8305L356.59 32.9599C356.624 34.8177 356.66 36.7222 356.696 38.6732L356.698 38.8069L356.568 38.8388C355.467 39.1105 354.353 39.3848 353.221 39.6642L353.345 39.54C353.048 40.7493 352.589 41.9344 351.969 43.0496L351.962 42.8711C352.586 43.8242 353.216 44.7859 353.852 45.7579L353.928 45.8744L353.832 45.9744C352.53 47.326 351.21 48.6965 349.872 50.0869L349.775 50.1878L349.655 50.1145C348.68 49.5228 347.697 48.926 346.708 48.3248H346.89L346.886 48.3265C345.78 48.9976 344.588 49.5021 343.436 49.8282L343.559 49.6953C343.318 50.8563 343.078 52.0086 342.856 53.0764L342.827 53.2136L342.688 53.2161C340.726 53.2498 338.791 53.2826 336.986 53.3136L336.849 53.3162L336.816 53.1825C336.534 52.025 336.254 50.8778 335.997 49.8273L336.121 49.9515C334.853 49.6393 333.65 49.1459 332.621 48.5689L332.793 48.5628C331.794 49.2175 330.807 49.8644 329.909 50.4526L329.8 50.5242L329.706 50.4337C328.283 49.0536 326.895 47.7081 325.607 46.4592L325.517 46.372L325.582 46.2651C326.205 45.2387 326.817 44.2304 327.372 43.3161V43.4731C326.692 42.3441 326.196 41.1443 325.88 40.0179L325.991 40.1196C324.811 39.8712 323.661 39.6289 322.617 39.4089L322.508 39.3856L322.507 39.2752C322.477 37.2707 322.447 35.3611 322.42 33.5619L322.418 33.4618L322.514 33.4377C323.69 33.1522 324.821 32.8779 325.865 32.6252L325.781 32.7097C326.102 31.4203 326.588 30.2481 327.163 29.2208L327.167 29.3278C326.49 28.285 325.858 27.3095 325.289 26.4323L325.25 26.3719L325.299 26.321C326.922 24.6564 328.264 23.2798 329.284 22.2327L329.316 22.1999L329.354 22.2232C330.296 22.8106 331.021 23.2626 331.524 23.5765C331.762 23.7275 331.945 23.8448 332.082 23.9319C332.214 24.0129 332.277 24.0561 332.277 24.0612Z" fill="#EBEBEB"/>
<path d="M71.4154 156.251L71.4111 156.235L70.5932 152.892C69.3898 152.594 68.2319 152.138 67.1515 151.536L64.2659 153.431L64.253 153.419L60.1381 149.437L60.1467 149.423L61.9261 146.482C61.2882 145.422 60.7923 144.278 60.4523 143.084L57.0734 142.379V142.362L56.9727 136.631L56.9899 136.627L60.3257 135.808C60.6236 134.602 61.079 133.443 61.679 132.359L59.7885 129.468L59.8006 129.455L63.7735 125.332L63.7881 125.34L66.7237 127.124C67.7817 126.485 68.9223 125.988 70.1155 125.647L70.8188 122.262L70.836 122.261L76.5556 122.161L76.5599 122.178L77.3777 125.52C78.5812 125.817 79.7391 126.273 80.8195 126.875L83.7051 124.98L83.718 124.993L87.8338 128.974L87.8252 128.989L86.0458 131.929C86.6837 132.99 87.1795 134.133 87.5196 135.327L90.8985 136.032V136.049L90.9992 141.781L90.982 141.785L87.6461 142.603C87.3491 143.809 86.8937 144.968 86.2928 146.052L88.1842 148.943L88.1721 148.956L84.1984 153.08L84.1837 153.071L81.2482 151.288C80.1902 151.927 79.0487 152.424 77.8564 152.765L77.153 156.15H77.1358L71.4154 156.251ZM67.1507 151.485L67.1618 151.491C68.2457 152.096 69.4078 152.554 70.6165 152.853L70.6294 152.856L70.6329 152.869L71.4498 156.207L77.1177 156.108L77.8193 152.73L77.8323 152.727C79.0297 152.386 80.1755 151.888 81.2378 151.244L81.249 151.237L81.2602 151.244L84.1923 153.025L88.1299 148.939L86.2429 146.054L86.2489 146.043C86.8533 144.956 87.3104 143.792 87.6082 142.582L87.6117 142.569L87.6246 142.566L90.9561 141.748L90.8563 136.068L87.4851 135.365L87.4817 135.352C87.1416 134.152 86.6441 133.004 86.0019 131.94L85.995 131.929L86.0019 131.918L87.7795 128.981L83.7008 125.036L80.822 126.926L80.8108 126.92C79.727 126.315 78.564 125.857 77.3562 125.558L77.3433 125.555L77.3398 125.542L76.5229 122.204L70.855 122.303L70.1533 125.682L70.1404 125.685C68.9421 126.027 67.7963 126.525 66.7349 127.168L66.7237 127.175L66.7125 127.168L63.7804 125.386L59.8436 129.472L61.7298 132.357L61.7238 132.368C61.1194 133.455 60.6623 134.619 60.3645 135.829L60.361 135.842L60.3481 135.846L57.0166 136.664L57.1156 142.343L60.4876 143.046L60.491 143.059C60.8319 144.259 61.3295 145.408 61.9708 146.471L61.9777 146.482L61.9708 146.493L60.1932 149.43L64.2711 153.375L67.1507 151.485ZM74.165 145.168C72.6292 145.168 71.0917 144.595 69.9011 143.444C68.7209 142.303 68.0554 140.77 68.027 139.127C67.9977 137.484 68.6098 135.928 69.7487 134.745C72.1006 132.305 75.9952 132.236 78.4306 134.592C79.6108 135.733 80.2763 137.266 80.3047 138.91C80.3331 140.553 79.7219 142.108 78.5829 143.292C77.3803 144.54 75.7731 145.168 74.165 145.168ZM74.1693 132.91C74.1323 132.91 74.0961 132.911 74.0591 132.911C72.4312 132.94 70.9109 133.602 69.7797 134.776C68.6486 135.95 68.0408 137.495 68.0701 139.126C68.0993 140.757 68.7596 142.28 69.9321 143.413C72.3503 145.753 76.2181 145.684 78.5528 143.262C79.684 142.088 80.2909 140.543 80.2625 138.912C80.2341 137.28 79.5729 135.758 78.4013 134.624C77.2563 133.517 75.7567 132.91 74.1693 132.91Z" fill="#E0E0E0"/>
<path d="M69.7607 134.759C69.7607 134.759 70.081 134.307 70.8997 133.758C71.7037 133.221 73.1095 132.624 74.8915 132.813C75.7687 132.912 76.7294 133.198 77.6041 133.779C78.4701 134.358 79.2871 135.184 79.7984 136.255C80.067 136.781 80.2538 137.366 80.3554 137.976C80.4656 138.585 80.4811 139.225 80.3898 139.863C80.2349 141.144 79.6306 142.406 78.6913 143.397C77.7349 144.373 76.4979 145.023 75.2255 145.223C74.5928 145.337 73.9532 145.344 73.3419 145.255C72.7299 145.175 72.1402 145.01 71.6056 144.759C70.5192 144.285 69.6669 143.495 69.0583 142.649C68.4488 141.793 68.1294 140.841 68.0003 139.966C67.7498 138.189 68.2964 136.76 68.8035 135.937C69.3217 135.096 69.7607 134.759 69.7607 134.759C69.7943 134.788 69.3914 135.161 68.9197 136.003C68.4591 136.83 67.971 138.225 68.243 139.928C68.3825 140.766 68.7019 141.67 69.2933 142.479C69.8838 143.278 70.7017 144.022 71.7356 144.462C72.2435 144.696 72.803 144.849 73.3833 144.922C73.9626 145.003 74.5678 144.993 75.1661 144.883C76.3687 144.689 77.5335 144.074 78.4374 143.152C79.3241 142.214 79.8966 141.026 80.0472 139.815C80.1367 139.213 80.1247 138.607 80.0231 138.03C79.931 137.452 79.758 136.897 79.5066 136.396C79.0314 135.377 78.2609 134.584 77.4431 134.021C76.6158 133.458 75.7024 133.17 74.8614 133.059C73.1543 132.846 71.7795 133.384 70.9703 133.874C70.149 134.376 69.79 134.791 69.7607 134.759Z" fill="#EBEBEB"/>
<path d="M66.7219 127.149C66.7219 127.154 66.6582 127.12 66.5316 127.048C66.393 126.967 66.2071 126.86 65.9669 126.721C65.4521 126.416 64.7092 125.976 63.7459 125.406L63.8156 125.398C62.8075 126.456 61.4818 127.848 59.878 129.532L59.8884 129.421C60.4643 130.294 61.1039 131.264 61.7891 132.301L61.8236 132.353L61.7935 132.408C61.233 133.424 60.763 134.582 60.4539 135.852L60.4376 135.919L60.3696 135.937C59.3271 136.196 58.1976 136.477 57.0234 136.769L57.119 136.646C57.1551 138.445 57.1921 140.354 57.2326 142.359L57.1224 142.226C58.1675 142.442 59.3185 142.68 60.4987 142.923L60.5848 142.941L60.6089 143.026C60.9223 144.129 61.4121 145.301 62.081 146.404L62.1283 146.483L62.081 146.562C61.5283 147.478 60.9197 148.488 60.299 149.516L60.274 149.322C61.5645 150.568 62.9556 151.91 64.3821 153.286L64.1789 153.267C65.0759 152.677 66.0616 152.029 67.0594 151.372L67.1437 151.316L67.2315 151.365C68.237 151.927 69.413 152.407 70.6509 152.71L70.7507 152.734L70.7748 152.834C71.0322 153.885 71.3138 155.031 71.5978 156.189L71.4282 156.058C73.2335 156.025 75.1687 155.99 77.1306 155.955L76.9636 156.094C77.1848 155.026 77.4242 153.873 77.6652 152.712L77.6867 152.608L77.7883 152.579C78.9109 152.261 80.0748 151.769 81.1526 151.114L81.156 151.113L81.2481 151.058L81.3377 151.113C82.3268 151.714 83.3099 152.311 84.2844 152.902L84.0675 152.931C85.4061 151.542 86.7275 150.172 88.03 148.821L88.0094 149.038C87.374 148.065 86.7447 147.102 86.1215 146.149L86.0647 146.062L86.1154 145.971C86.7215 144.885 87.1717 143.728 87.4618 142.548L87.4868 142.448L87.5867 142.424C88.7187 142.146 89.8344 141.873 90.9354 141.603L90.808 141.769C90.7762 139.819 90.7443 137.914 90.7133 136.056L90.8416 136.211C89.6966 135.971 88.5724 135.735 87.4679 135.503L87.3749 135.483L87.3491 135.392C87.0073 134.18 86.5089 133.042 85.8882 132.011L85.8408 131.931L85.8882 131.853C86.502 130.842 87.0977 129.861 87.6796 128.904L87.7029 129.085C86.2627 127.686 84.9025 126.364 83.6077 125.108L83.7748 125.123C82.7598 125.787 81.8068 126.408 80.8883 127.009L80.8237 127.051L80.7574 127.014C79.609 126.37 78.4572 125.935 77.3312 125.652L77.2632 125.635L77.2468 125.568C76.9524 124.347 76.6873 123.248 76.4368 122.211L76.5392 122.29C74.3302 122.319 72.4475 122.343 70.836 122.365L70.9117 122.302C70.6225 123.651 70.3857 124.758 70.1877 125.679L70.18 125.712L70.1473 125.722C68.9403 126.059 68.0915 126.454 67.5397 126.727C67.2763 126.865 67.074 126.97 66.9259 127.048C66.7873 127.121 66.7219 127.154 66.7219 127.149C66.7219 127.144 66.7873 127.099 66.9122 127.019C67.043 126.939 67.2401 126.818 67.513 126.672C68.0588 126.382 68.9051 125.968 70.1163 125.61L70.0767 125.653C70.2626 124.729 70.4856 123.619 70.7568 122.267L70.7688 122.205L70.8325 122.204C72.4441 122.168 74.3259 122.127 76.5349 122.079L76.6175 122.077L76.6382 122.158C76.8956 123.195 77.1676 124.292 77.4698 125.51L77.3854 125.425C78.5321 125.706 79.7063 126.142 80.8788 126.791L80.7488 126.795C81.6648 126.19 82.6143 125.563 83.6258 124.895L83.7154 124.836L83.7928 124.911C85.0927 126.164 86.4581 127.479 87.9043 128.872L87.9878 128.953L87.9276 129.053C87.3491 130.012 86.7568 130.995 86.1464 132.008V131.851C86.7835 132.904 87.2966 134.066 87.6495 135.304L87.5307 135.192C88.6361 135.422 89.7612 135.655 90.9062 135.892L91.0327 135.918L91.0353 136.047C91.0697 137.905 91.105 139.809 91.1412 141.76L91.1438 141.894L91.0138 141.926C89.9127 142.198 88.7979 142.472 87.6659 142.751L87.7898 142.627C87.4937 143.837 87.034 145.023 86.4142 146.137L86.4081 145.958C87.0323 146.911 87.6624 147.873 88.2986 148.845L88.3744 148.962L88.2779 149.062C86.9763 150.413 85.6558 151.785 84.318 153.174L84.2207 153.275L84.101 153.202C83.1265 152.61 82.1434 152.013 81.1543 151.412H81.3359L81.3325 151.414C80.2263 152.085 79.034 152.589 77.8821 152.915L78.0052 152.783C77.7642 153.944 77.524 155.096 77.3019 156.165L77.2735 156.301L77.1341 156.303C75.1721 156.337 73.2369 156.37 71.4317 156.401L71.294 156.403L71.2612 156.27C70.9789 155.112 70.6991 153.965 70.4426 152.915L70.5665 153.039C69.2985 152.727 68.095 152.233 67.0662 151.656L67.2384 151.65C66.239 152.305 65.2524 152.952 64.3545 153.54L64.2452 153.611L64.1514 153.521C62.7283 152.141 61.3406 150.795 60.0528 149.546L59.9624 149.459L60.027 149.352C60.6502 148.325 61.2623 147.318 61.8176 146.403V146.56C61.1375 145.431 60.6416 144.232 60.3257 143.105L60.4359 143.207C59.2565 142.959 58.1064 142.717 57.0621 142.496L56.9537 142.474L56.952 142.363C56.921 140.359 56.8925 138.449 56.865 136.65L56.8633 136.55L56.9597 136.527C58.1356 136.241 59.266 135.967 60.3102 135.713L60.2258 135.798C60.5469 134.508 61.0333 133.336 61.6092 132.309L61.6127 132.416C60.9369 131.373 60.3042 130.398 59.7351 129.52L59.6964 129.46L59.7463 129.409C61.369 127.745 62.7111 126.368 63.7313 125.321L63.7631 125.288L63.801 125.311C64.7428 125.899 65.4685 126.351 65.9712 126.665C66.2088 126.816 66.3922 126.933 66.5291 127.02C66.6582 127.1 66.7219 127.144 66.7219 127.149Z" fill="#EBEBEB"/>
<path d="M191.533 110.2C195.712 106.382 200.334 103.198 205.254 100.677L205.399 85.1709L230.423 79.7388L236.962 93.7927C242.481 94.0462 248.006 95.0269 253.388 96.7701L264.429 85.9127L285.959 99.801L280.666 114.363C284.479 118.551 287.657 123.185 290.171 128.114L305.646 128.259L311.068 153.331L297.041 159.883C296.788 165.412 295.809 170.947 294.07 176.339L304.905 187.403L291.046 208.973L276.511 203.669C272.331 207.488 267.707 210.672 262.787 213.191L262.641 228.698L237.618 234.13L231.078 220.075C225.559 219.821 220.035 218.84 214.654 217.098L203.613 227.955L182.083 214.067L187.376 199.504C183.564 195.316 180.385 190.685 177.87 185.754L162.394 185.609L156.973 160.537L171 153.984C171.254 148.456 172.234 142.921 173.972 137.528L163.136 126.466L176.996 104.895L191.533 110.2ZM205.51 138.544C195.372 154.322 199.919 175.345 215.666 185.501C231.412 195.658 252.394 191.101 262.531 175.325C272.668 159.549 268.122 138.525 252.375 128.368C236.628 118.213 215.647 122.768 205.51 138.544Z" fill="#CE629F"/>
<path d="M205.509 138.544C205.509 138.544 205.605 138.384 205.81 138.083C206.027 137.771 206.335 137.33 206.734 136.756C206.94 136.464 207.168 136.138 207.42 135.78C207.689 135.433 208.018 135.082 208.354 134.686C208.696 134.293 209.064 133.87 209.457 133.419C209.834 132.951 210.343 132.556 210.822 132.081C212.733 130.17 215.441 128.193 218.856 126.444C222.277 124.715 226.517 123.331 231.347 122.944C231.951 122.9 232.562 122.856 233.179 122.811C233.798 122.803 234.425 122.834 235.057 122.845C235.689 122.878 236.334 122.838 236.975 122.931C237.618 123.009 238.268 123.089 238.924 123.169C239.252 123.21 239.58 123.252 239.912 123.295C240.237 123.367 240.565 123.44 240.894 123.514C241.552 123.661 242.216 123.81 242.887 123.96C243.552 124.13 244.202 124.381 244.869 124.59C245.526 124.827 246.22 124.989 246.858 125.31C248.154 125.902 249.51 126.428 250.758 127.218C251.391 127.594 252.053 127.934 252.676 128.347C253.284 128.783 253.897 129.223 254.513 129.665C254.817 129.892 255.141 130.097 255.432 130.343L256.296 131.105C256.867 131.621 257.469 132.114 258.026 132.66C259.073 133.819 260.22 134.921 261.136 136.245C262.159 137.487 262.963 138.903 263.825 140.302C264.22 141.021 264.557 141.778 264.928 142.522C265.101 142.9 265.311 143.262 265.455 143.654L265.894 144.833C266.546 146.386 266.924 148.046 267.373 149.702C267.653 151.394 267.994 153.096 268.048 154.847L268.14 156.157L268.112 157.475L268.078 158.8C268.077 159.244 268.053 159.686 267.983 160.126C267.874 161.008 267.765 161.893 267.656 162.783C267.46 163.657 267.264 164.534 267.068 165.415C266.151 168.906 264.685 172.298 262.721 175.443C260.676 178.537 258.202 181.281 255.409 183.563C254.69 184.107 253.974 184.65 253.26 185.19C252.498 185.658 251.738 186.124 250.982 186.589L250.413 186.933L249.816 187.224L248.626 187.803L247.44 188.376L246.212 188.835C244.598 189.511 242.91 189.904 241.256 190.349C239.567 190.626 237.902 190.967 236.22 191.016L234.967 191.103C234.551 191.134 234.135 191.093 233.72 191.091C232.891 191.06 232.063 191.067 231.245 191.004C229.617 190.798 227.997 190.651 226.446 190.231C224.864 189.946 223.388 189.355 221.901 188.88C221.174 188.597 220.477 188.253 219.771 187.945L218.721 187.473C218.376 187.309 218.055 187.099 217.724 186.915C217.066 186.535 216.414 186.159 215.766 185.784C215.134 185.387 214.55 184.924 213.946 184.503C212.712 183.691 211.673 182.671 210.599 181.735C210.042 181.286 209.609 180.719 209.12 180.218C208.654 179.696 208.157 179.208 207.728 178.671C207.313 178.122 206.904 177.577 206.497 177.038L205.891 176.234L205.368 175.384C205.024 174.819 204.683 174.259 204.345 173.705C203.997 173.159 203.765 172.554 203.474 171.992C203.203 171.418 202.914 170.86 202.666 170.293C202.45 169.71 202.238 169.135 202.028 168.567C200.381 164 199.884 159.561 200.038 155.725C200.214 151.886 200.889 148.6 201.835 146.066C202.068 145.431 202.216 144.805 202.485 144.267C202.733 143.722 202.964 143.211 203.18 142.737C203.4 142.266 203.583 141.821 203.787 141.432C204.008 141.054 204.209 140.711 204.389 140.403C204.746 139.801 205.019 139.338 205.213 139.011C205.403 138.698 205.509 138.544 205.509 138.544C205.509 138.544 205.429 138.714 205.254 139.034C205.07 139.366 204.809 139.835 204.47 140.446C204.296 140.756 204.102 141.102 203.888 141.483C203.692 141.873 203.515 142.319 203.303 142.792C203.094 143.267 202.87 143.778 202.63 144.324C202.369 144.862 202.228 145.488 202.002 146.121C201.086 148.651 200.441 151.923 200.291 155.734C200.161 159.542 200.676 163.942 202.327 168.458C202.537 169.02 202.751 169.59 202.966 170.165C203.215 170.726 203.502 171.278 203.774 171.845C204.064 172.401 204.294 172.999 204.642 173.539C204.978 174.086 205.318 174.639 205.661 175.197L206.181 176.036L206.783 176.83C207.187 177.363 207.594 177.9 208.005 178.442C208.431 178.972 208.924 179.453 209.387 179.968C209.872 180.462 210.301 181.022 210.853 181.465C211.919 182.388 212.948 183.394 214.172 184.193C214.769 184.609 215.347 185.065 215.974 185.456C216.615 185.825 217.262 186.196 217.912 186.569C218.241 186.75 218.557 186.957 218.899 187.119L219.938 187.583C220.636 187.884 221.326 188.224 222.045 188.502C223.515 188.968 224.974 189.55 226.537 189.829C228.071 190.241 229.671 190.383 231.279 190.585C232.087 190.645 232.904 190.637 233.722 190.667C234.132 190.668 234.543 190.709 234.954 190.677L236.19 190.589C237.851 190.54 239.495 190.199 241.164 189.925C242.796 189.484 244.461 189.095 246.054 188.425L247.267 187.972L248.438 187.406L249.611 186.833L250.2 186.546L250.761 186.205C251.508 185.746 252.257 185.286 253.01 184.823C253.714 184.289 254.42 183.754 255.129 183.216C257.883 180.963 260.325 178.255 262.344 175.202C264.282 172.097 265.728 168.75 266.636 165.306C266.83 164.437 267.025 163.571 267.218 162.708C267.326 161.831 267.434 160.957 267.542 160.086C267.611 159.652 267.636 159.215 267.636 158.778L267.67 157.47L267.701 156.169L267.61 154.875C267.559 153.146 267.223 151.466 266.948 149.795C266.506 148.16 266.136 146.52 265.493 144.985L265.061 143.822C264.92 143.434 264.712 143.076 264.542 142.702C264.176 141.968 263.846 141.22 263.456 140.508C262.607 139.125 261.817 137.725 260.807 136.497C259.906 135.187 258.774 134.097 257.742 132.949C257.193 132.408 256.598 131.92 256.035 131.408L255.184 130.653C254.896 130.408 254.577 130.205 254.276 129.98C253.668 129.541 253.062 129.105 252.462 128.672C251.848 128.262 251.193 127.925 250.568 127.552C249.337 126.766 247.996 126.244 246.717 125.655C246.087 125.334 245.401 125.174 244.751 124.937C244.091 124.727 243.45 124.477 242.792 124.307C242.129 124.157 241.473 124.008 240.822 123.86C240.496 123.786 240.173 123.713 239.851 123.64C239.524 123.597 239.197 123.554 238.873 123.512C238.224 123.43 237.581 123.35 236.945 123.27C236.311 123.176 235.672 123.213 235.046 123.178C234.42 123.165 233.799 123.132 233.186 123.137C232.574 123.178 231.969 123.22 231.37 123.261C226.583 123.625 222.373 124.975 218.966 126.67C215.565 128.384 212.859 130.327 210.94 132.21C210.458 132.678 209.948 133.065 209.567 133.527C209.17 133.972 208.799 134.388 208.453 134.775C208.112 135.165 207.779 135.511 207.506 135.851C207.249 136.203 207.016 136.524 206.806 136.811C206.391 137.374 206.072 137.806 205.847 138.111C205.63 138.401 205.509 138.544 205.509 138.544Z" fill="#263238"/>
<path d="M191.535 110.201C191.535 110.201 191.222 110.098 190.603 109.878C189.976 109.654 189.05 109.323 187.831 108.886C185.373 107.998 181.731 106.683 176.973 104.965L177.058 104.936C173.537 110.436 168.878 117.713 163.234 126.529L163.219 126.388C166.504 129.733 170.157 133.454 174.068 137.438L174.124 137.495L174.1 137.571C172.499 142.56 171.416 148.096 171.15 153.993L171.146 154.082L171.065 154.12C166.696 156.165 161.965 158.38 157.043 160.683L157.132 160.505C158.844 168.397 160.662 176.774 162.57 185.573L162.4 185.434C167.19 185.476 172.466 185.523 177.876 185.57L177.987 185.571L178.038 185.671C180.391 190.291 183.589 195.068 187.522 199.375L187.601 199.461L187.56 199.572C185.921 204.086 184.114 209.065 182.274 214.136L182.194 213.899C188.957 218.258 196.252 222.96 203.728 227.78L203.469 227.806C206.906 224.424 210.682 220.71 214.507 216.945L214.599 216.855L214.722 216.895C219.683 218.505 225.325 219.601 231.092 219.858L231.222 219.864L231.278 219.983C233.327 224.385 235.563 229.186 237.82 234.037L237.575 233.916C245.497 232.195 253.989 230.35 262.597 228.48L262.422 228.696C262.467 223.798 262.517 218.513 262.566 213.189L262.567 213.053L262.688 212.992C267.398 210.586 272.134 207.374 276.351 203.513L276.363 203.503L276.464 203.412L276.591 203.457C281.467 205.237 286.313 207.005 291.127 208.761L290.861 208.851C295.541 201.568 300.165 194.373 304.722 187.282L304.751 187.558C301.103 183.833 297.492 180.144 293.917 176.492L293.824 176.398L293.865 176.271C295.598 170.905 296.578 165.37 296.829 159.873L296.835 159.741L296.955 159.685C301.699 157.47 306.371 155.29 310.983 153.136L310.864 153.375C309.015 144.816 307.209 136.453 305.449 128.302L305.648 128.465C300.397 128.414 295.241 128.364 290.174 128.315L290.052 128.314L289.997 128.205C287.411 123.131 284.193 118.523 280.528 114.494L280.449 114.407L280.49 114.296C282.307 109.304 284.069 104.463 285.789 99.7368L285.863 99.9576C278.291 95.0663 271.144 90.4501 264.342 86.0564L264.555 86.0348C260.669 89.8515 257.023 93.4318 253.507 96.8845L253.437 96.9526L253.344 96.9224C247.686 95.0904 242.199 94.1882 236.961 93.939L236.871 93.9347L236.834 93.8536C234.461 88.7414 232.325 84.139 230.308 79.7937L230.456 79.867C220.747 81.9612 212.484 83.7449 205.425 85.2672L205.504 85.1697C205.435 91.3799 205.378 96.4627 205.331 100.676L205.33 100.72L205.291 100.74C200.27 103.315 196.887 105.825 194.71 107.537C193.62 108.397 192.841 109.077 192.317 109.525C191.792 109.986 191.535 110.201 191.535 110.201C191.535 110.201 192.499 109.236 194.661 107.481C196.826 105.749 200.2 103.215 205.223 100.614L205.184 100.678C205.216 96.4644 205.254 91.3816 205.3 85.1715L205.301 85.0913L205.379 85.074C212.434 83.5335 220.693 81.73 230.397 79.6108L230.5 79.5884L230.545 79.685C232.57 84.0269 234.715 88.625 237.097 93.732L236.97 93.6466C242.234 93.8881 247.748 94.7851 253.44 96.618L253.278 96.6559C256.789 93.1981 260.431 89.6126 264.311 85.7908L264.41 85.6942L264.525 85.7683C271.332 90.1542 278.485 94.7618 286.062 99.6445L286.188 99.7256L286.137 99.8662C284.421 104.595 282.664 109.436 280.851 114.43L280.813 114.232C284.504 118.284 287.747 122.919 290.353 128.023L290.175 127.914C295.241 127.959 300.399 128.006 305.65 128.053L305.815 128.055L305.85 128.216C307.616 136.367 309.426 144.728 311.279 153.286L311.316 153.454L311.161 153.526C306.549 155.682 301.879 157.865 297.135 160.081L297.26 159.894C297.009 165.43 296.024 171.003 294.281 176.407L294.228 176.185C297.804 179.836 301.416 183.524 305.065 187.248L305.189 187.375L305.092 187.524C300.537 194.617 295.913 201.813 291.235 209.096L291.139 209.247L290.971 209.185C286.158 207.429 281.312 205.661 276.435 203.883L276.662 203.838L276.65 203.849C272.404 207.737 267.633 210.973 262.889 213.394L263.012 213.197C262.962 218.52 262.912 223.806 262.865 228.703L262.863 228.882L262.69 228.92C254.081 230.787 245.589 232.63 237.666 234.349L237.495 234.386L237.421 234.226C235.164 229.375 232.931 224.573 230.884 220.17L231.071 220.295C225.264 220.035 219.584 218.928 214.591 217.304L214.805 217.253C210.977 221.015 207.2 224.727 203.761 228.108L203.642 228.225L203.502 228.135C196.029 223.311 188.738 218.604 181.978 214.24L181.843 214.153L181.898 214.003C183.743 208.933 185.555 203.955 187.198 199.442L187.237 199.639C183.283 195.301 180.071 190.493 177.709 185.843L177.872 185.944C172.463 185.89 167.186 185.838 162.396 185.79L162.255 185.789L162.225 185.651C160.328 176.85 158.522 168.47 156.82 160.576L156.793 160.45L156.908 160.396C161.834 158.1 166.569 155.893 170.94 153.855L170.856 153.982C171.133 148.057 172.232 142.498 173.849 137.492L173.88 137.625C169.979 133.632 166.334 129.903 163.057 126.549L162.994 126.484L163.043 126.407C168.716 117.61 173.399 110.347 176.938 104.859L176.969 104.811L177.022 104.831C181.757 106.576 185.381 107.911 187.827 108.813C189.046 109.266 189.971 109.609 190.597 109.842C191.218 110.074 191.535 110.201 191.535 110.201Z" fill="#263238"/>
<path d="M306.436 240.722L256.59 272.636H419.996V240.722H306.436Z" fill="#676767"/>
<path d="M398.605 221.013V224.225V292.343L445.003 256.678L398.605 221.013Z" fill="#676767"/>
<path d="M105.27 161.076C110.388 226.046 164.793 277.343 230.931 277.343V245.43C178.987 245.43 136.728 203.09 136.728 151.046C136.728 151.046 138.148 134.578 139.138 129.617L107.78 123.709C106.638 129.344 104.819 155.343 105.27 161.076Z" fill="#8BC53F"/>
<path d="M158.693 121.712L96.0781 104.506L116.337 153.47L158.693 121.712Z" fill="#676767"/>
<path d="M142.738 120.501C155.971 84.3908 190.633 58.5592 231.206 58.5592V26.646C176.707 26.646 130.175 61.478 112.621 110.09L142.738 120.501Z" fill="#676767"/>
<path d="M249.159 81.9617L207.68 36.5009L260.608 6.46191L249.159 81.9617Z" fill="#E0E0E0"/>
<path d="M306.384 88.9544C288.476 68.4316 262.615 56.6608 235.434 56.6608V24.7476C271.806 24.7476 306.407 40.4937 330.365 67.9486L306.384 88.9544Z" fill="#E0E0E0"/>
<path d="M347.221 209.232L318.38 195.688C324.254 183.131 329.643 165.036 329.643 151.045C329.643 136.055 326.244 121.73 319.54 108.468C318.376 106.168 314.161 98.5093 313.004 96.5928L340.252 80.0669C341.927 82.8399 346.536 91.2426 347.953 94.0458C356.939 111.82 361.495 130.997 361.495 151.044C361.495 169.753 355.093 192.406 347.221 209.232Z" fill="#8BC53F"/>
<path d="M301.781 111.145L356.022 75.3903L305.943 58.3047L301.781 111.145Z" fill="#8BC53F"/>
<path d="M235.433 277.343H133.789V245.429H235.433C265.024 245.429 292.321 231.901 310.321 208.313L335.625 227.699C311.548 259.247 275.029 277.343 235.433 277.343Z" fill="#8BC53F"/>
<path d="M294.219 200.333L348.265 236.382L344.389 183.52L294.219 200.333Z" fill="#8BC53F"/>
<g opacity="0.3">
<path d="M348.267 236.382L344.391 183.52L294.22 200.333L308.898 210.124C290.899 232.59 264.257 245.429 235.433 245.429H133.789V277.343H235.433C274.959 277.343 311.416 259.309 335.495 227.863L348.267 236.382Z" fill="black"/>
</g>
<path d="M125.32 225.722V297.051L171.123 261.387L125.32 225.722Z" fill="#E0E0E0"/>
<path d="M133.788 245.43H38.6992V277.344H133.788V245.43Z" fill="#E0E0E0"/>
<path d="M205.547 129.659L196.063 127.532C193.387 130.572 189.866 132.932 185.713 134.201C173.768 137.849 161.134 131.105 157.493 119.138C153.851 107.171 160.582 94.5126 172.527 90.8641C184.471 87.2157 197.105 93.9597 200.747 105.927C202.267 110.924 201.973 116.039 200.253 120.572L200.26 120.562L205.547 129.659Z" fill="white"/>
<path d="M205.546 129.659C205.244 129.131 203.629 126.298 200.333 120.517C200.31 120.476 200.258 120.461 200.217 120.485C200.207 120.491 200.196 120.5 200.189 120.51L200.182 120.52L200.331 120.6C201.502 117.564 202.296 113.465 201.55 108.854C201.355 107.709 201.096 106.53 200.679 105.365C200.467 104.784 200.269 104.186 200.034 103.595C199.759 103.02 199.482 102.436 199.199 101.846C197.968 99.5358 196.273 97.3079 194.11 95.4069C191.952 93.5059 189.328 91.937 186.386 90.9347C183.45 89.9342 180.192 89.49 176.901 89.8212C173.616 90.1576 170.309 91.2228 167.341 93.0203C164.387 94.8204 161.723 97.3105 159.847 100.394C157.924 103.521 156.692 107.038 156.432 110.579C156.142 114.113 156.69 117.621 157.901 120.764C159.111 123.909 160.968 126.703 163.254 128.889C165.531 131.087 168.174 132.719 170.892 133.771C173.612 134.828 176.403 135.305 179.041 135.323C181.69 135.331 184.152 134.799 186.372 134.111C190.809 132.615 194.026 129.989 196.123 127.587L196.044 127.613C202.071 128.911 204.978 129.537 205.546 129.659C204.98 129.527 202.084 128.852 196.08 127.452C196.05 127.445 196.019 127.456 196 127.478C193.898 129.845 190.695 132.426 186.297 133.886C184.096 134.556 181.66 135.072 179.043 135.054C176.436 135.028 173.682 134.548 170.999 133.497C168.319 132.451 165.715 130.835 163.474 128.663C161.224 126.503 159.399 123.746 158.21 120.645C157.021 117.545 156.484 114.089 156.772 110.608C157.028 107.121 158.244 103.659 160.139 100.577C161.987 97.5391 164.61 95.086 167.518 93.3118C170.44 91.5394 173.698 90.4862 176.935 90.1507C180.178 89.8204 183.389 90.2534 186.286 91.234C189.189 92.2164 191.781 93.7586 193.916 95.6294C196.057 97.4994 197.738 99.6945 198.962 101.972C199.242 102.555 199.519 103.131 199.792 103.698C200.026 104.282 200.223 104.872 200.436 105.446C200.854 106.596 201.115 107.762 201.312 108.893C202.071 113.453 201.31 117.518 200.171 120.54C200.154 120.584 200.177 120.634 200.22 120.65C200.257 120.665 200.299 120.651 200.321 120.62L200.328 120.61L200.185 120.603C203.575 126.33 205.237 129.136 205.546 129.659Z" fill="#263238"/>
<path d="M166.621 112.996L169.87 109.741L176.135 115.321L188.434 103.464L191.45 106.718L175.671 121.598L166.621 112.996Z" fill="#8BC53F"/>
<path fill-rule="evenodd" clip-rule="evenodd" d="M234 191C252.778 191 268 175.778 268 157C268 138.222 252.778 123 234 123C215.222 123 200 138.222 200 157C200 175.778 215.222 191 234 191ZM234 206C261.062 206 283 184.062 283 157C283 129.938 261.062 108 234 108C206.938 108 185 129.938 185 157C185 184.062 206.938 206 234 206Z" fill="#D999BB"/>
</svg>
