<svg width="674" height="458" viewBox="0 0 674 458" fill="none" xmlns="http://www.w3.org/2000/svg">
<path fill-rule="evenodd" clip-rule="evenodd" d="M100.153 87.3721H451.195C457.247 87.3721 462.153 92.2957 462.153 98.3703V347.248C462.153 353.322 457.247 358.246 451.196 358.246H320.581H234.883H100.153C94.1006 358.246 89.1953 353.322 89.1953 347.247V98.3703C89.1953 92.2957 94.1014 87.3721 100.153 87.3721Z" fill="#676767"/>
<path d="M234.883 358.246C234.883 358.246 243.453 391.523 216.886 405.287H342.865C342.865 405.287 312.869 388.288 320.581 358.246H234.883Z" fill="#404040"/>
<path d="M93.2812 98.3765C93.2812 94.4369 96.4692 91.2432 100.402 91.2432H450.995C454.928 91.2432 458.116 94.4369 458.116 98.3765V303.666C458.116 307.605 454.928 310.799 450.995 310.799H100.402C96.4693 310.799 93.2812 307.605 93.2812 303.666V98.3765Z" fill="#EFEFEF"/>
<path d="M132.788 131.585H122.695V183.065H132.788V131.585Z" fill="#C53F8B"/>
<path d="M150.124 140.142H140.031V183.066H150.124V140.142Z" fill="#C53F8B"/>
<path d="M167.468 155.745H157.375V183.065H167.468V155.745Z" fill="#C53F8B"/>
<path d="M184.82 139.391H174.727V183.066H184.82V139.391Z" fill="#C53F8B"/>
<path d="M202.171 146.562H192.078V183.064H202.171V146.562Z" fill="#C53F8B"/>
<path d="M219.515 124.409H209.422V183.065H219.515V124.409Z" fill="#C53F8B"/>
<path d="M116.834 120.836L116.952 136.393L117.009 151.951L117.09 183.065L116.834 182.809C141.35 182.736 165.866 182.841 190.382 182.859L210.831 182.915L228.967 183.065L210.831 183.216L190.382 183.273C165.866 183.291 141.35 183.395 116.834 183.323L116.578 183.322L116.579 183.065L116.66 151.951L116.717 136.393L116.834 120.836Z" fill="white"/>
<path d="M114.609 124.41C115.351 124.186 116.094 124.134 116.836 124.122C117.578 124.132 118.321 124.184 119.062 124.41C118.321 124.635 117.578 124.687 116.836 124.697C116.093 124.686 115.351 124.633 114.609 124.41Z" fill="white"/>
<path d="M114.609 130.585C115.351 130.362 116.094 130.309 116.836 130.298C117.578 130.309 118.321 130.36 119.062 130.585C118.321 130.811 117.578 130.862 116.836 130.873C116.093 130.861 115.351 130.809 114.609 130.585Z" fill="white"/>
<path d="M114.609 136.76C115.351 136.537 116.094 136.484 116.836 136.473C117.578 136.482 118.321 136.535 119.062 136.76C118.321 136.985 117.578 137.038 116.836 137.048C116.093 137.036 115.351 136.984 114.609 136.76Z" fill="white"/>
<path d="M114.609 142.936C115.351 142.712 116.094 142.66 116.836 142.648C117.578 142.659 118.321 142.711 119.062 142.936C118.321 143.161 117.578 143.213 116.836 143.224C116.093 143.212 115.351 143.16 114.609 142.936Z" fill="white"/>
<path d="M114.609 149.112C115.351 148.888 116.094 148.836 116.836 148.824C117.578 148.834 118.321 148.886 119.062 149.112C118.321 149.337 117.578 149.389 116.836 149.399C116.093 149.388 115.351 149.335 114.609 149.112Z" fill="white"/>
<path d="M114.609 155.287C115.351 155.063 116.094 155.011 116.836 154.999C117.578 155.01 118.321 155.061 119.062 155.287C118.321 155.512 117.578 155.564 116.836 155.574C116.093 155.563 115.351 155.51 114.609 155.287Z" fill="white"/>
<path d="M114.609 161.462C115.351 161.239 116.094 161.186 116.836 161.175C117.578 161.185 118.321 161.237 119.062 161.462C118.321 161.688 117.578 161.74 116.836 161.75C116.093 161.738 115.351 161.687 114.609 161.462Z" fill="white"/>
<path d="M114.609 167.637C115.351 167.414 116.094 167.361 116.836 167.35C117.578 167.359 118.321 167.412 119.062 167.637C118.321 167.862 117.578 167.915 116.836 167.925C116.093 167.913 115.351 167.861 114.609 167.637Z" fill="white"/>
<path d="M114.609 173.813C115.351 173.589 116.094 173.537 116.836 173.525C117.578 173.535 118.321 173.588 119.062 173.813C118.321 174.038 117.578 174.091 116.836 174.101C116.093 174.089 115.351 174.037 114.609 173.813Z" fill="white"/>
<path d="M287.296 121.347H245.492V183.347H287.296V121.347Z" fill="white"/>
<path d="M278.958 140.279C278.958 147.249 273.329 152.899 266.386 152.899C259.442 152.899 253.812 147.249 253.812 140.279C253.812 133.308 259.442 127.658 266.386 127.658C271.054 127.658 275.127 130.212 277.297 134.004C278.354 135.853 278.958 137.995 278.958 140.279Z" fill="#EFEFEF"/>
<path d="M277.302 134.004L266.391 140.279V127.658C271.058 127.659 275.132 130.212 277.302 134.004Z" fill="#C53F8B"/>
<path d="M260.573 158.56L259.766 159.035C259.742 159.051 259.701 159.067 259.668 159.067C259.595 159.067 259.53 159.026 259.497 158.969C259.44 158.863 259.472 158.748 259.57 158.699L260.671 158.028C260.761 157.979 260.892 158.011 260.941 158.101C260.965 158.151 260.973 158.2 260.965 158.249V163.514C260.965 163.621 260.884 163.711 260.769 163.711C260.663 163.711 260.573 163.621 260.573 163.514V158.56Z" fill="#A6A6A6"/>
<path d="M262.507 163.146C262.425 163.064 262.425 162.933 262.507 162.859C262.588 162.777 262.719 162.777 262.8 162.859C263.102 163.154 263.485 163.301 263.877 163.301C264.268 163.301 264.651 163.154 264.953 162.851C265.255 162.548 265.402 162.163 265.402 161.77C265.402 161.369 265.255 160.975 264.962 160.681C264.669 160.386 264.278 160.239 263.886 160.239C263.486 160.239 263.103 160.386 262.801 160.69C262.72 160.771 262.589 160.771 262.516 160.69C262.491 160.673 262.475 160.649 262.467 160.624V160.616C262.458 160.608 262.458 160.599 262.458 160.591C262.45 160.575 262.45 160.55 262.45 160.526C262.45 160.517 262.458 160.501 262.458 160.485L262.736 158.176C262.736 158.111 262.769 158.061 262.818 158.029C262.85 157.996 262.899 157.979 262.948 157.979H265.607C265.721 157.979 265.811 158.07 265.811 158.184C265.811 158.307 265.721 158.389 265.607 158.389H263.119L262.915 160.092C263.209 159.92 263.544 159.83 263.886 159.83C264.384 159.83 264.873 160.01 265.248 160.395C265.632 160.771 265.811 161.263 265.811 161.77C265.811 162.262 265.632 162.769 265.248 163.146C264.873 163.514 264.367 163.71 263.878 163.71C263.379 163.711 262.881 163.522 262.507 163.146Z" fill="#A6A6A6"/>
<path d="M267.32 159.395V159.379C267.32 158.609 267.826 157.913 268.585 157.913C269.335 157.913 269.833 158.609 269.833 159.362V159.379C269.833 160.148 269.326 160.844 268.568 160.844C267.817 160.844 267.32 160.157 267.32 159.395ZM269.408 159.395V159.379C269.408 158.74 269.024 158.265 268.567 158.265C268.087 158.265 267.744 158.765 267.744 159.362V159.379C267.744 160.026 268.127 160.492 268.584 160.492C269.065 160.493 269.408 160.01 269.408 159.395ZM268.095 163.465L272.068 158.037C272.109 157.979 272.158 157.947 272.222 157.947C272.32 157.947 272.402 158.02 272.402 158.119C272.402 158.16 272.394 158.192 272.369 158.225L268.397 163.653C268.356 163.711 268.307 163.744 268.242 163.744C268.144 163.744 268.062 163.67 268.062 163.572C268.062 163.531 268.07 163.498 268.095 163.465ZM270.632 162.326V162.31C270.632 161.541 271.138 160.844 271.896 160.844C272.646 160.844 273.144 161.541 273.144 162.294V162.31C273.144 163.079 272.638 163.776 271.88 163.776C271.129 163.776 270.632 163.088 270.632 162.326ZM272.72 162.326V162.31C272.72 161.671 272.337 161.197 271.88 161.197C271.399 161.197 271.056 161.696 271.056 162.294V162.31C271.056 162.956 271.44 163.423 271.897 163.423C272.377 163.424 272.72 162.941 272.72 162.326Z" fill="#A6A6A6"/>
<path d="M276.742 167.522H256.047V168.855H276.742V167.522Z" fill="#A6A6A6"/>
<path d="M280.204 170.33H252.578V171.662H280.204V170.33Z" fill="#EBEBEB"/>
<path d="M280.204 172.858H252.578V174.19H280.204V172.858Z" fill="#EBEBEB"/>
<path d="M280.204 175.386H252.578V176.718H280.204V175.386Z" fill="#EBEBEB"/>
<path d="M335.514 121.347H293.711V183.347H335.514V121.347Z" fill="white"/>
<path d="M327.194 140.279C327.194 140.906 327.147 141.525 327.055 142.128C326.169 148.221 320.938 152.899 314.62 152.899C307.677 152.899 302.047 147.248 302.047 140.28C302.047 133.31 307.677 127.66 314.62 127.66C319.286 127.66 323.358 130.212 325.532 134.006C326.59 135.853 327.194 137.996 327.194 140.279Z" fill="#EFEFEF"/>
<path d="M327.198 140.279C327.198 140.906 327.152 141.525 327.06 142.128L314.625 140.279V127.659C319.29 127.659 323.363 130.211 325.537 134.005C326.594 135.853 327.198 137.996 327.198 140.279Z" fill="#C53F8B"/>
<path d="M306.812 163.361L309.48 160.946C309.798 160.651 309.97 160.258 309.97 159.849C309.97 159.496 309.839 159.144 309.586 158.866C309.3 158.546 308.901 158.383 308.501 158.383C308.142 158.383 307.791 158.506 307.506 158.76L307.228 159.014C307.147 159.096 307.016 159.088 306.951 159.006C306.869 158.924 306.877 158.793 306.959 158.728L307.236 158.466C307.595 158.146 308.053 157.983 308.501 157.983C308.999 157.983 309.504 158.179 309.872 158.597C310.206 158.957 310.362 159.407 310.362 159.85C310.362 160.358 310.158 160.865 309.75 161.241L307.466 163.313H310.166C310.272 163.313 310.362 163.403 310.362 163.518C310.362 163.625 310.272 163.715 310.166 163.715H306.985H306.952C306.895 163.715 306.838 163.698 306.806 163.657C306.73 163.566 306.73 163.443 306.812 163.361Z" fill="#A6A6A6"/>
<path d="M311.749 163.148C311.667 163.066 311.667 162.935 311.749 162.861C311.831 162.779 311.961 162.779 312.043 162.861C312.344 163.156 312.727 163.303 313.119 163.303C313.51 163.303 313.894 163.156 314.195 162.853C314.497 162.55 314.644 162.164 314.644 161.772C314.644 161.371 314.497 160.977 314.204 160.683C313.91 160.388 313.518 160.241 313.127 160.241C312.727 160.241 312.344 160.388 312.043 160.691C311.96 160.773 311.83 160.773 311.756 160.691C311.732 160.675 311.715 160.651 311.707 160.626V160.618C311.699 160.61 311.699 160.601 311.699 160.593C311.691 160.577 311.691 160.552 311.691 160.528C311.691 160.519 311.699 160.503 311.699 160.487L311.976 158.178C311.976 158.113 312.009 158.063 312.058 158.031C312.091 157.998 312.14 157.981 312.189 157.981H314.848C314.963 157.981 315.052 158.072 315.052 158.186C315.052 158.309 314.963 158.391 314.848 158.391H312.36L312.156 160.094C312.449 159.922 312.784 159.832 313.127 159.832C313.624 159.832 314.114 160.012 314.489 160.397C314.873 160.773 315.053 161.265 315.053 161.772C315.053 162.264 314.873 162.771 314.489 163.148C314.114 163.516 313.609 163.712 313.119 163.712C312.622 163.713 312.124 163.524 311.749 163.148Z" fill="#A6A6A6"/>
<path fill-rule="evenodd" clip-rule="evenodd" d="M321.317 158.039L317.345 163.467C317.32 163.5 317.312 163.533 317.312 163.574C317.312 163.672 317.394 163.746 317.492 163.746C317.557 163.746 317.605 163.713 317.647 163.655L321.619 158.227C321.643 158.194 321.652 158.162 321.652 158.121C321.652 158.022 321.569 157.949 321.472 157.949C321.407 157.949 321.358 157.981 321.317 158.039ZM319.882 162.312V162.328C319.882 163.09 320.379 163.778 321.13 163.778C321.888 163.778 322.394 163.081 322.394 162.312V162.296C322.394 161.543 321.897 160.846 321.146 160.846C320.387 160.846 319.882 161.543 319.882 162.312ZM321.97 162.312V162.328C321.97 162.943 321.627 163.426 321.146 163.425C320.69 163.425 320.306 162.958 320.306 162.312V162.296C320.306 161.698 320.649 161.199 321.13 161.199C321.587 161.199 321.97 161.673 321.97 162.312Z" fill="#A6A6A6"/>
<path fill-rule="evenodd" clip-rule="evenodd" d="M316.57 159.397V159.381C316.57 158.611 317.076 157.915 317.835 157.915C318.585 157.915 319.083 158.611 319.083 159.364V159.381C319.083 160.15 318.576 160.846 317.818 160.846C317.067 160.846 316.57 160.159 316.57 159.397ZM318.658 159.381V159.397C318.658 160.011 318.315 160.495 317.834 160.494C317.378 160.494 316.994 160.028 316.994 159.381V159.364C316.994 158.767 317.337 158.267 317.818 158.267C318.274 158.267 318.658 158.742 318.658 159.381Z" fill="#A6A6A6"/>
<path d="M324.969 167.522H304.273V168.855H324.969V167.522Z" fill="#A6A6A6"/>
<path d="M328.431 170.33H300.805V171.662H328.431V170.33Z" fill="#EBEBEB"/>
<path d="M328.431 172.858H300.805V174.19H328.431V172.858Z" fill="#EBEBEB"/>
<path d="M328.431 175.386H300.805V176.718H328.431V175.386Z" fill="#EBEBEB"/>
<path d="M383.733 121.347H341.93V183.347H383.733V121.347Z" fill="white"/>
<path d="M375.418 140.281C375.418 145.654 372.07 150.248 367.351 152.063C365.95 152.606 364.432 152.901 362.846 152.901C355.903 152.901 350.273 147.25 350.273 140.281C350.273 133.311 355.903 127.66 362.846 127.66C367.515 127.66 371.589 130.212 373.758 134.006C374.814 135.855 375.418 137.998 375.418 140.281Z" fill="#EFEFEF"/>
<path d="M375.416 140.281C375.416 145.654 372.068 150.248 367.349 152.063L362.844 140.281V127.66C367.513 127.66 371.587 130.212 373.755 134.006C374.811 135.855 375.416 137.998 375.416 140.281Z" fill="#C53F8B"/>
<path d="M358.015 162.534H354.923H354.915H354.899C354.858 162.534 354.81 162.525 354.777 162.493C354.687 162.427 354.679 162.296 354.753 162.214L358.057 158.088L358.065 158.079C358.138 157.989 358.252 157.981 358.342 158.055C358.375 158.079 358.391 158.12 358.408 158.153C358.408 158.169 358.416 158.178 358.416 158.186V158.21V162.14H358.799C358.914 162.14 359.003 162.23 359.003 162.337C359.003 162.443 358.914 162.534 358.799 162.534H358.416V163.517C358.416 163.623 358.327 163.713 358.212 163.713C358.106 163.713 358.017 163.623 358.017 163.517V162.534H358.015ZM358.015 162.14V158.783L355.314 162.14H358.015Z" fill="#A6A6A6"/>
<path d="M360.28 163.148C360.198 163.066 360.198 162.935 360.28 162.861C360.362 162.779 360.492 162.779 360.574 162.861C360.875 163.156 361.259 163.303 361.65 163.303C362.042 163.303 362.425 163.156 362.726 162.853C363.028 162.55 363.175 162.165 363.175 161.772C363.175 161.371 363.028 160.978 362.735 160.683C362.441 160.388 362.049 160.241 361.658 160.241C361.259 160.241 360.875 160.388 360.574 160.692C360.491 160.774 360.361 160.774 360.287 160.692C360.264 160.675 360.246 160.651 360.238 160.626V160.618C360.23 160.61 360.23 160.601 360.23 160.593C360.222 160.577 360.222 160.552 360.222 160.528C360.222 160.52 360.23 160.503 360.23 160.487L360.508 158.178C360.508 158.113 360.54 158.063 360.589 158.031C360.622 157.998 360.671 157.982 360.72 157.982H363.379C363.493 157.982 363.583 158.072 363.583 158.186C363.583 158.309 363.493 158.391 363.379 158.391H360.891L360.687 160.094C360.98 159.922 361.316 159.832 361.658 159.832C362.156 159.832 362.645 160.012 363.021 160.397C363.404 160.774 363.584 161.265 363.584 161.772C363.584 162.264 363.404 162.771 363.021 163.148C362.645 163.516 362.14 163.712 361.65 163.712C361.152 163.713 360.655 163.525 360.28 163.148Z" fill="#A6A6A6"/>
<path d="M365.102 159.397V159.381C365.102 158.612 365.608 157.915 366.366 157.915C367.117 157.915 367.614 158.612 367.614 159.364V159.381C367.614 160.15 367.109 160.846 366.35 160.846C365.599 160.846 365.102 160.159 365.102 159.397ZM367.19 159.397V159.381C367.19 158.742 366.807 158.267 366.35 158.267C365.869 158.267 365.526 158.767 365.526 159.364V159.381C365.526 160.028 365.91 160.494 366.366 160.494C366.847 160.495 367.19 160.012 367.19 159.397ZM365.876 163.467L369.849 158.039C369.89 157.982 369.938 157.949 370.004 157.949C370.101 157.949 370.183 158.022 370.183 158.121C370.183 158.162 370.175 158.195 370.15 158.227L366.178 163.656C366.137 163.713 366.088 163.746 366.024 163.746C365.926 163.746 365.843 163.672 365.843 163.574C365.843 163.533 365.852 163.5 365.876 163.467ZM368.414 162.328V162.312C368.414 161.543 368.92 160.846 369.679 160.846C370.429 160.846 370.926 161.543 370.926 162.296V162.312C370.926 163.081 370.421 163.778 369.662 163.778C368.912 163.778 368.414 163.09 368.414 162.328ZM370.501 162.328V162.312C370.501 161.673 370.118 161.199 369.662 161.199C369.18 161.199 368.837 161.698 368.837 162.296V162.312C368.837 162.958 369.221 163.425 369.678 163.425C370.159 163.426 370.501 162.943 370.501 162.328Z" fill="#A6A6A6"/>
<path d="M373.172 167.523H352.477V168.855H373.172V167.523Z" fill="#A6A6A6"/>
<path d="M376.634 170.33H349.008V171.662H376.634V170.33Z" fill="#EBEBEB"/>
<path d="M376.634 172.859H349.008V174.191H376.634V172.859Z" fill="#EBEBEB"/>
<path d="M376.634 175.384H349.008V176.716H376.634V175.384Z" fill="#EBEBEB"/>
<path d="M431.944 121.347H390.141V183.347H431.944V121.347Z" fill="white"/>
<path d="M423.672 140.28C423.672 142.971 422.835 145.467 421.408 147.516C419.131 150.794 415.344 152.94 411.059 152.94C407.936 152.94 405.074 151.799 402.873 149.908C400.163 147.588 398.445 144.137 398.445 140.281C398.445 133.289 404.093 127.62 411.059 127.62C415.739 127.62 419.825 130.18 422.005 133.986C423.066 135.84 423.672 137.99 423.672 140.28Z" fill="#EFEFEF"/>
<path d="M423.674 140.28C423.674 142.971 422.836 145.467 421.41 147.516C419.133 150.794 415.345 152.94 411.061 152.94C407.938 152.94 405.076 151.799 402.875 149.908L411.061 140.281V127.62C415.741 127.62 419.827 130.18 422.007 133.986C423.067 135.84 423.674 137.99 423.674 140.28Z" fill="#C53F8B"/>
<path d="M403.311 163.148C403.23 163.066 403.23 162.935 403.311 162.861C403.393 162.779 403.523 162.779 403.605 162.861C403.906 163.156 404.29 163.303 404.682 163.303C405.073 163.303 405.456 163.156 405.757 162.853C406.059 162.55 406.206 162.165 406.206 161.772C406.206 161.371 406.059 160.977 405.766 160.683C405.472 160.388 405.081 160.241 404.69 160.241C404.29 160.241 403.906 160.388 403.605 160.692C403.523 160.773 403.392 160.773 403.319 160.692C403.295 160.675 403.278 160.651 403.27 160.626V160.618C403.261 160.61 403.261 160.601 403.261 160.593C403.253 160.577 403.253 160.552 403.253 160.528C403.253 160.52 403.261 160.503 403.261 160.487L403.539 158.178C403.539 158.113 403.572 158.063 403.621 158.031C403.653 157.998 403.702 157.982 403.751 157.982H406.41C406.525 157.982 406.614 158.072 406.614 158.186C406.614 158.309 406.525 158.391 406.41 158.391H403.923L403.719 160.094C404.012 159.922 404.347 159.832 404.69 159.832C405.187 159.832 405.677 160.012 406.052 160.397C406.436 160.773 406.615 161.265 406.615 161.772C406.615 162.264 406.436 162.771 406.052 163.148C405.677 163.516 405.171 163.712 404.682 163.712C404.184 163.713 403.687 163.524 403.311 163.148Z" fill="#A6A6A6"/>
<path d="M408.249 163.148C408.167 163.066 408.167 162.935 408.249 162.861C408.33 162.779 408.461 162.779 408.543 162.861C408.844 163.156 409.227 163.303 409.619 163.303C410.01 163.303 410.394 163.156 410.695 162.853C410.997 162.55 411.144 162.164 411.144 161.772C411.144 161.371 410.997 160.977 410.704 160.683C410.41 160.388 410.018 160.241 409.627 160.241C409.227 160.241 408.844 160.388 408.543 160.691C408.46 160.773 408.33 160.773 408.256 160.691C408.232 160.675 408.215 160.651 408.207 160.626V160.618C408.199 160.61 408.199 160.601 408.199 160.593C408.191 160.577 408.191 160.552 408.191 160.528C408.191 160.519 408.199 160.503 408.199 160.487L408.476 158.178C408.476 158.113 408.509 158.063 408.558 158.031C408.591 157.998 408.64 157.981 408.689 157.981H411.348C411.462 157.981 411.552 158.072 411.552 158.186C411.552 158.309 411.462 158.391 411.348 158.391H408.86L408.656 160.094C408.949 159.922 409.284 159.832 409.626 159.832C410.124 159.832 410.613 160.012 410.989 160.397C411.372 160.773 411.551 161.265 411.551 161.772C411.551 162.264 411.371 162.771 410.989 163.148C410.613 163.516 410.108 163.712 409.618 163.712C409.121 163.713 408.624 163.524 408.249 163.148Z" fill="#A6A6A6"/>
<path d="M413.062 159.397V159.381C413.062 158.611 413.569 157.915 414.327 157.915C415.078 157.915 415.575 158.611 415.575 159.364V159.381C415.575 160.15 415.069 160.846 414.31 160.846C413.56 160.846 413.062 160.159 413.062 159.397ZM415.151 159.397V159.381C415.151 158.742 414.768 158.267 414.311 158.267C413.83 158.267 413.487 158.767 413.487 159.364V159.381C413.487 160.028 413.871 160.494 414.327 160.494C414.808 160.495 415.151 160.011 415.151 159.397ZM413.837 163.467L417.81 158.039C417.851 157.981 417.899 157.949 417.965 157.949C418.063 157.949 418.145 158.022 418.145 158.121C418.145 158.162 418.137 158.194 418.112 158.227L414.14 163.655C414.099 163.713 414.05 163.746 413.985 163.746C413.887 163.746 413.804 163.672 413.804 163.574C413.804 163.533 413.813 163.5 413.837 163.467ZM416.375 162.328V162.312C416.375 161.543 416.881 160.846 417.64 160.846C418.39 160.846 418.887 161.543 418.887 162.296V162.312C418.887 163.081 418.382 163.778 417.623 163.778C416.872 163.778 416.375 163.09 416.375 162.328ZM418.463 162.328V162.312C418.463 161.673 418.08 161.199 417.623 161.199C417.142 161.199 416.799 161.698 416.799 162.296V162.312C416.799 162.958 417.183 163.425 417.64 163.425C418.12 163.426 418.463 162.943 418.463 162.328Z" fill="#A6A6A6"/>
<path d="M421.383 167.522H400.688V168.855H421.383V167.522Z" fill="#A6A6A6"/>
<path d="M424.845 170.33H397.219V171.662H424.845V170.33Z" fill="#EBEBEB"/>
<path d="M424.845 172.858H397.219V174.19H424.845V172.858Z" fill="#EBEBEB"/>
<path d="M424.845 175.386H397.219V176.718H424.845V175.386Z" fill="#EBEBEB"/>
<path d="M233.064 91.5303L233.213 116.65L233.267 141.77L233.37 192.009L233.268 242.248L233.214 267.368L233.064 292.488L232.914 267.368L232.86 242.248L232.758 192.009L232.861 141.77L232.915 116.65L233.064 91.5303Z" fill="#A6A6A6"/>
<path d="M441.524 192.01L400.167 192.159L358.811 192.213L276.098 192.316L193.385 192.213L152.029 192.16L110.672 192.01L152.029 191.859L193.385 191.806L276.098 191.703L358.811 191.806L400.167 191.86L441.524 192.01Z" fill="#A6A6A6"/>
<path d="M246.367 218.477C277.679 218.321 307.419 218.361 338.732 218.297C370.044 218.361 400.639 218.321 431.951 218.477C400.639 218.634 370.044 218.593 338.732 218.657C307.42 218.593 277.68 218.633 246.367 218.477Z" fill="white"/>
<path d="M246.367 233.296C277.679 233.141 307.419 233.181 338.732 233.115C370.044 233.179 400.639 233.14 431.951 233.296C400.639 233.453 370.044 233.413 338.732 233.477C307.42 233.413 277.68 233.452 246.367 233.296Z" fill="white"/>
<path d="M246.367 248.117C277.679 247.961 307.419 248.001 338.732 247.937C370.044 248 400.639 247.961 431.951 248.117C400.639 248.273 370.044 248.234 338.732 248.298C307.42 248.233 277.68 248.272 246.367 248.117Z" fill="white"/>
<path d="M246.367 262.939C277.679 262.783 307.419 262.823 338.732 262.758C370.044 262.822 400.639 262.782 431.951 262.939C400.639 263.095 370.044 263.056 338.732 263.12C307.42 263.054 277.68 263.094 246.367 262.939Z" fill="white"/>
<path d="M246.367 277.759C277.679 277.604 307.419 277.643 338.732 277.578C370.044 277.642 400.639 277.603 431.951 277.759C400.639 277.915 370.044 277.876 338.732 277.94C307.42 277.875 277.68 277.915 246.367 277.759Z" fill="white"/>
<path d="M264.165 208.841C264.32 222.689 264.281 236.537 264.345 250.384C264.281 264.232 264.32 278.08 264.165 291.928C264.009 278.08 264.048 264.232 263.984 250.384C264.05 236.537 264.011 222.688 264.165 208.841Z" fill="white"/>
<path d="M280.204 208.841C280.36 222.689 280.319 236.537 280.384 250.384C280.32 264.232 280.36 278.08 280.204 291.928C280.048 278.08 280.087 264.232 280.023 250.384C280.088 236.537 280.049 222.688 280.204 208.841Z" fill="white"/>
<path d="M296.243 208.841C296.399 222.689 296.359 236.537 296.423 250.384C296.359 264.232 296.399 278.08 296.243 291.928C296.087 278.08 296.126 264.232 296.062 250.384C296.127 236.537 296.088 222.688 296.243 208.841Z" fill="white"/>
<path d="M312.29 208.841C312.445 222.689 312.405 236.537 312.47 250.384C312.406 264.232 312.445 278.08 312.29 291.928C312.134 278.08 312.173 264.232 312.109 250.384C312.174 236.537 312.135 222.688 312.29 208.841Z" fill="white"/>
<path d="M328.329 208.841C328.485 222.689 328.445 236.537 328.51 250.384C328.446 264.232 328.485 278.08 328.329 291.928C328.173 278.08 328.212 264.232 328.148 250.384C328.213 236.537 328.174 222.688 328.329 208.841Z" fill="white"/>
<path d="M344.368 208.841C344.524 222.689 344.484 236.537 344.548 250.384C344.484 264.232 344.524 278.08 344.368 291.928C344.212 278.08 344.251 264.232 344.188 250.384C344.253 236.537 344.213 222.688 344.368 208.841Z" fill="white"/>
<path d="M360.415 208.841C360.57 222.689 360.531 236.537 360.595 250.384C360.531 264.232 360.57 278.08 360.415 291.928C360.259 278.08 360.298 264.232 360.234 250.384C360.299 236.537 360.26 222.688 360.415 208.841Z" fill="white"/>
<path d="M376.454 208.841C376.61 222.689 376.569 236.537 376.634 250.384C376.57 264.232 376.61 278.08 376.454 291.928C376.298 278.08 376.337 264.232 376.273 250.384C376.339 236.537 376.3 222.688 376.454 208.841Z" fill="white"/>
<path d="M392.501 208.841C392.656 222.689 392.616 236.537 392.682 250.384C392.618 264.232 392.657 278.08 392.501 291.928C392.345 278.08 392.384 264.232 392.32 250.384C392.385 236.537 392.346 222.688 392.501 208.841Z" fill="white"/>
<path d="M408.54 208.841C408.695 222.689 408.656 236.537 408.721 250.384C408.657 264.232 408.696 278.08 408.54 291.928C408.384 278.08 408.423 264.232 408.359 250.384C408.425 236.537 408.386 222.688 408.54 208.841Z" fill="white"/>
<path d="M424.579 208.841C424.735 222.689 424.695 236.537 424.76 250.384C424.696 264.232 424.735 278.08 424.579 291.928C424.423 278.08 424.462 264.232 424.398 250.384C424.463 236.537 424.424 222.688 424.579 208.841Z" fill="white"/>
<path d="M246.094 209.741C246.301 223.439 246.481 237.137 246.499 250.834L246.694 291.927L246.095 291.589L337.665 291.675L383.45 291.742L432.668 291.927L383.45 292.113L337.665 292.18L246.095 292.266L245.492 292.267L245.494 291.928L245.689 250.835C245.706 237.137 245.886 223.439 246.094 209.741Z" fill="white"/>
<path d="M246.367 291.928C246.367 291.928 254.984 255.88 263.738 255.88C271.086 255.88 274.188 266.505 280.159 266.505C288.03 266.505 289.117 238.989 296.717 238.989C304.316 238.989 305.943 249.75 312.457 249.75C318.971 249.75 321.857 237.082 328.606 237.082C335.355 237.082 337.012 255.743 344.208 255.743C351.405 255.743 351.54 226.321 360.361 226.321C369.183 226.321 371.486 238.989 376.645 238.989C381.803 238.989 384.787 229.727 392.387 229.727C406.772 229.727 424.584 291.928 424.584 291.928H246.367Z" fill="#8BC53F"/>
<path opacity="0.2" d="M246.367 291.928C246.367 291.928 254.984 255.88 263.738 255.88C271.086 255.88 274.188 266.505 280.159 266.505C288.03 266.505 289.117 238.989 296.717 238.989C304.316 238.989 305.943 249.75 312.457 249.75C318.971 249.75 321.857 237.082 328.606 237.082C335.355 237.082 337.012 255.743 344.208 255.743C351.405 255.743 351.54 226.321 360.361 226.321C369.183 226.321 371.486 238.989 376.645 238.989C381.803 238.989 384.787 229.727 392.387 229.727C406.772 229.727 424.584 291.928 424.584 291.928H246.367Z" fill="black"/>
<path d="M246.359 291.927C246.359 291.927 255.635 251.953 263.867 251.953C272.097 251.953 272.964 262.937 279.895 262.937C286.826 262.937 286.928 243.643 296.241 243.643C302.657 243.643 304.917 251.472 312 251.472C321.747 251.472 320.285 233.296 328.245 233.296C338.424 233.296 334.31 258.337 344.923 258.337C351.637 258.337 353.42 247.107 361.434 247.107C366.741 247.107 369.054 255.182 375.991 255.182C383.036 255.182 384.444 239.067 393.108 239.067C407.303 239.067 424.856 291.927 424.856 291.927H246.359Z" fill="#8BC53F"/>
<g opacity="0.1">
<path d="M246.359 291.927C246.359 291.927 255.635 251.953 263.867 251.953C272.097 251.953 272.964 262.937 279.895 262.937C286.826 262.937 286.928 243.643 296.241 243.643C302.657 243.643 304.917 251.472 312 251.472C321.747 251.472 320.285 233.296 328.245 233.296C338.424 233.296 334.31 258.337 344.923 258.337C351.637 258.337 353.42 247.107 361.434 247.107C366.741 247.107 369.054 255.182 375.991 255.182C383.036 255.182 384.444 239.067 393.108 239.067C407.303 239.067 424.856 291.927 424.856 291.927H246.359Z" fill="black"/>
</g>
<path d="M246.375 291.928C246.375 291.928 254.74 273.589 264.174 273.589C271.255 273.589 272.521 278.402 280.302 278.402C285.188 278.402 287.059 259.125 296.437 259.125C305.815 259.125 305.996 270.501 312.42 270.501C318.843 270.501 320.648 259.785 328.522 259.785C336.395 259.785 337.345 265.688 344.383 265.688C352.409 265.688 352.157 241.805 360.425 241.805C368.694 241.805 371.392 259.513 376.647 259.513C383.441 259.513 384.118 253.159 392.328 253.159C403.797 253.159 424.872 291.928 424.872 291.928H246.375Z" fill="#8BC53F"/>
<path d="M116.516 208.519V275.65H219.506V208.519H116.516Z" fill="#DBDBDB"/>
<path d="M121.391 212.085V272.086H126.684V212.085H121.391Z" fill="white"/>
<path d="M121.391 241.41V272.085H126.684V241.41H121.391Z" fill="#8BC53F"/>
<path d="M131.156 212.084V272.085H136.449V212.084H131.156Z" fill="white"/>
<path d="M131.156 224.711V272.085H136.449V224.711H131.156Z" fill="#8BC53F"/>
<path d="M140.93 212.085V272.086H146.223V212.085H140.93Z" fill="white"/>
<path d="M140.93 233.944V272.085H146.223V233.944H140.93Z" fill="#8BC53F"/>
<path d="M150.703 212.084V272.085H155.996V212.084H150.703Z" fill="white"/>
<path d="M150.703 253.015V272.085H155.996V253.015H150.703Z" fill="#8BC53F"/>
<path d="M160.469 212.085V272.086H165.762V212.085H160.469Z" fill="white"/>
<path d="M160.469 220.436V272.086H165.762V220.436H160.469Z" fill="#8BC53F"/>
<path d="M170.242 212.084V272.085H175.535V212.084H170.242Z" fill="white"/>
<path d="M170.242 224.711V272.085H175.535V224.711H170.242Z" fill="#8BC53F"/>
<path d="M180.016 212.085V272.086H185.309V212.085H180.016Z" fill="white"/>
<path d="M180.016 233.944V272.085H185.309V233.944H180.016Z" fill="#8BC53F"/>
<path d="M189.789 212.084V272.085H195.082V212.084H189.789Z" fill="white"/>
<path d="M189.789 224.711V272.085H195.082V224.711H189.789Z" fill="#8BC53F"/>
<path d="M199.562 212.085V272.086H204.855V212.085H199.562Z" fill="white"/>
<path d="M199.562 253.015V272.085H204.855V253.015H199.562Z" fill="#8BC53F"/>
<path d="M209.328 212.084V272.085H214.621V212.084H209.328Z" fill="white"/>
<path d="M209.328 233.944V272.085H214.621V233.944H209.328Z" fill="#8BC53F"/>
<path d="M122.542 280.674H116.57V286.667H122.542V280.674Z" fill="#C53F8B"/>
<path d="M192.073 280.674H126.695V282.444H192.073V280.674Z" fill="#DBDBDB"/>
<path d="M168.94 284.896H126.695V286.667H168.94V284.896Z" fill="#DBDBDB"/>
<path d="M280.359 332.067C285.134 338.918 277.66 346.419 270.834 341.627C270.609 341.468 270.405 341.263 270.247 341.036C265.485 334.187 272.949 326.695 279.771 331.477C279.996 331.635 280.201 331.841 280.359 332.067Z" fill="#CDCDCD"/>
<path d="M437.759 358.318C437.759 358.436 365.634 358.531 276.684 358.531C187.704 358.531 115.594 358.436 115.594 358.318C115.594 358.201 187.703 358.105 276.684 358.105C365.634 358.105 437.759 358.201 437.759 358.318Z" fill="#455A64"/>

<g class="el1">
<path d="M94.2074 299.201L83.2578 287.157L46.1018 321.191L57.0514 333.235L94.2074 299.201Z" fill="#CDCDCD"/>
<path d="M188.774 201.533C163.211 173.417 119.767 171.423 91.7473 197.088C63.7359 222.746 61.7493 266.353 87.3116 294.47C112.881 322.595 156.318 324.58 184.331 298.922C212.349 273.256 214.343 229.657 188.774 201.533ZM97.9917 284.686C77.8137 262.492 79.3817 228.064 101.494 207.81C123.613 187.548 157.913 189.124 178.092 211.317C198.277 233.519 196.702 267.941 174.582 288.201C152.47 308.455 118.178 306.889 97.9917 284.686Z" fill="#8BC53F"/>
<path d="M17.0239 365.647L10.2866 358.237C7.57475 355.254 7.78514 350.629 10.7574 347.907L48.8956 312.973C51.8678 310.251 56.4756 310.463 59.1875 313.446L65.9247 320.856C68.6366 323.839 68.4262 328.464 65.4539 331.186L27.3157 366.12C24.3435 368.842 19.7357 368.631 17.0239 365.647Z" fill="#7BAF37"/>
<g opacity="0.4">
<path d="M174.591 288.2C152.479 308.454 118.187 306.888 98.0006 284.685C77.8226 262.491 79.3906 228.063 101.503 207.809C123.622 187.547 157.922 189.123 178.101 211.316C198.286 233.518 196.71 267.939 174.591 288.2Z" fill="white"/>
<path d="M161.917 296.877C140.838 307.268 114.628 302.987 97.9988 284.684C94.5616 280.902 91.7533 276.768 89.5703 272.397L161.917 296.877Z" fill="#EBEBEB"/>
<path d="M192.179 251.115L93.0938 217.588C95.4453 214.073 98.2629 210.791 101.51 207.809C105.24 204.378 109.332 201.585 113.648 199.412L186.807 224.159C190.926 232.646 192.708 241.941 192.179 251.115Z" fill="#EBEBEB"/>
<path d="M178.4 284.341L84.0168 252.405C83.732 248.847 83.8017 245.273 84.2039 241.727L184.706 275.733C182.931 278.765 180.826 281.645 178.4 284.341Z" fill="#EBEBEB"/>
<path d="M191.229 258.504L89.3594 224.043C89.6488 223.447 89.9429 222.861 90.2521 222.28L191.571 256.563C191.477 257.208 191.372 257.859 191.229 258.504Z" fill="#EBEBEB"/>
<path d="M176.213 209.345L131 194.047C132.609 193.832 134.233 193.696 135.855 193.633L172.628 206.075C173.862 207.097 175.057 208.187 176.213 209.345Z" fill="#EBEBEB"/>
</g>
</g>
<path d="M111.021 218.92C111.078 218.87 111.138 218.822 111.196 218.773C112.014 218.095 110.36 219.406 110.93 218.98C111.61 218.471 112.29 217.965 112.992 217.486C115.446 215.814 118.048 214.359 120.745 213.119C121.125 212.944 121.512 212.784 121.891 212.608C122.017 212.55 120.973 212.985 121.807 212.648C122.044 212.552 122.282 212.455 122.52 212.361C123.439 211.998 124.369 211.661 125.308 211.352C127.378 210.668 129.49 210.116 131.63 209.711C132.142 209.614 132.656 209.534 133.17 209.445C133.863 209.326 132.378 209.54 133.315 209.426C133.625 209.389 133.936 209.349 134.247 209.316C135.432 209.187 136.622 209.104 137.814 209.068C139.103 209.03 140.393 209.048 141.68 209.122C142.27 209.156 142.858 209.205 143.446 209.258C144.465 209.352 143.025 209.187 143.752 209.292C144.104 209.342 144.457 209.387 144.809 209.442C147.971 209.926 151.036 210.776 154.039 211.867C154.1 211.889 154.637 212.099 154.191 211.923C153.737 211.745 154.429 212.022 154.506 212.055C154.941 212.238 155.376 212.421 155.807 212.614C156.637 212.984 157.458 213.376 158.268 213.789C159.983 214.663 161.644 215.633 163.263 216.672C165.124 217.865 167.801 216.894 168.812 215.045C169.935 212.993 169.058 210.672 167.192 209.475C156.913 202.883 144.694 199.621 132.534 201.313C124.391 202.446 116.504 205.394 109.61 209.904C108.07 210.912 106.549 212.001 105.156 213.208C103.533 214.614 103.693 217.627 105.243 219.008C107.023 220.592 109.284 220.426 111.021 218.92Z" fill="white"/>
<path d="M102.706 227.82C101.162 229.418 98.6171 229.457 97.0247 227.906C95.4322 226.356 95.3938 223.802 96.9386 222.203C98.4835 220.605 101.028 220.566 102.62 222.117C104.213 223.669 104.252 226.221 102.706 227.82Z" fill="white"/>
<path d="M608.281 43.499L609.772 330.089L398.425 329.691L383.578 316.355L396.921 40.3646L595.171 23.9113L608.281 43.499Z" fill="#E0E0E0"/>
<path d="M595.163 23.9121L594.949 316.166L383.57 316.356L386.213 24.2426L595.163 23.9121Z" fill="#FAFAFA"/>
<path d="M595.165 23.9121C593.291 23.9175 513.005 24.132 386.215 24.4723L386.442 24.2458C385.718 105.923 384.822 207.049 383.852 316.359L383.572 316.074C383.968 316.074 384.397 316.073 384.827 316.073C460.153 316.016 531.589 315.96 594.952 315.912L594.698 316.167C594.973 143.33 595.162 26.1798 595.165 23.9121C595.165 26.1776 595.181 143.33 595.206 316.166V316.422H594.952C531.589 316.487 460.153 316.56 384.827 316.635C384.397 316.635 383.968 316.636 383.572 316.636H383.289L383.292 316.352C384.301 207.043 385.233 105.917 385.987 24.2393L385.99 24.0129H386.215C513.005 23.9522 593.292 23.9132 595.165 23.9121Z" fill="#404040"/>
<path d="M417.302 94.7277L488.338 94.2336C490.651 94.2174 492.514 92.3181 492.497 89.9919C492.481 87.6657 490.593 85.7924 488.28 85.8087L417.245 86.3027C414.932 86.319 413.07 88.2183 413.086 90.5445C413.101 92.8707 414.989 94.7439 417.302 94.7277Z" fill="#E0E0E0"/>
<path d="M417.17 111.027L488.207 110.533C490.519 110.517 492.382 108.618 492.366 106.292C492.349 103.966 490.462 102.092 488.148 102.109L417.112 102.603C414.8 102.619 412.937 104.518 412.953 106.844C412.969 109.17 414.857 111.044 417.17 111.027Z" fill="#E0E0E0"/>
<path d="M417.037 127.326L488.073 126.832C490.385 126.816 492.248 124.917 492.232 122.591C492.216 120.264 490.327 118.391 488.015 118.407L416.979 118.901C414.667 118.918 412.804 120.817 412.82 123.143C412.835 125.469 414.724 127.343 417.037 127.326Z" fill="#E0E0E0"/>
<path d="M416.92 143.628L487.957 143.134C490.269 143.118 492.132 141.22 492.116 138.892C492.099 136.566 490.212 134.693 487.898 134.709L416.862 135.203C414.55 135.219 412.687 137.118 412.703 139.445C412.719 141.771 414.608 143.643 416.92 143.628Z" fill="#E0E0E0"/>
<path d="M416.795 159.927L487.832 159.433C490.144 159.417 492.007 157.517 491.991 155.191C491.974 152.865 490.086 150.992 487.773 151.008L416.737 151.502C414.425 151.518 412.562 153.418 412.578 155.744C412.594 158.07 414.483 159.943 416.795 159.927Z" fill="#E0E0E0"/>
<path d="M416.679 176.228L487.714 175.734C490.027 175.717 491.89 173.818 491.873 171.492C491.857 169.166 489.969 167.292 487.656 167.309L416.62 167.803C414.307 167.819 412.445 169.718 412.461 172.044C412.478 174.372 414.367 176.244 416.679 176.228Z" fill="#E0E0E0"/>
<path d="M416.552 192.527L487.588 192.033C489.901 192.017 491.764 190.118 491.747 187.792C491.731 185.466 489.843 183.592 487.53 183.609L416.495 184.103C414.182 184.119 412.32 186.018 412.336 188.344C412.351 190.67 414.239 192.544 416.552 192.527Z" fill="#E0E0E0"/>
<path d="M504.803 175.021L575.839 175.462C578.152 175.476 580.039 173.601 580.053 171.275C580.067 168.949 578.204 167.051 575.891 167.037L504.855 166.596C502.542 166.582 500.655 168.456 500.641 170.782C500.626 173.108 502.489 175.007 504.803 175.021Z" fill="#E0E0E0"/>
<path d="M504.467 191.316L575.503 191.757C577.816 191.771 579.703 189.896 579.717 187.57C579.731 185.244 577.868 183.346 575.555 183.332L504.519 182.891C502.206 182.877 500.319 184.751 500.305 187.077C500.291 189.404 502.154 191.302 504.467 191.316Z" fill="#E0E0E0"/>
<path d="M504.014 208.504L575.05 208.945C577.363 208.959 579.25 207.085 579.264 204.759C579.278 202.432 577.415 200.534 575.102 200.52L504.066 200.079C501.753 200.065 499.866 201.939 499.852 204.266C499.838 206.593 501.701 208.49 504.014 208.504Z" fill="#E0E0E0"/>
<path d="M503.553 225.692L574.589 226.133C576.902 226.147 578.789 224.272 578.803 221.946C578.817 219.62 576.954 217.722 574.641 217.708L503.605 217.267C501.292 217.253 499.405 219.127 499.391 221.453C499.377 223.779 501.24 225.678 503.553 225.692Z" fill="#E0E0E0"/>
<path d="M503.084 242.88L574.12 243.321C576.433 243.335 578.32 241.461 578.334 239.135C578.348 236.808 576.485 234.91 574.172 234.896L503.136 234.455C500.823 234.441 498.936 236.315 498.922 238.642C498.908 240.968 500.772 242.866 503.084 242.88Z" fill="#E0E0E0"/>
<path d="M502.623 260.068L573.659 260.509C575.972 260.523 577.859 258.648 577.873 256.322C577.887 253.996 576.024 252.098 573.711 252.084L502.675 251.643C500.362 251.629 498.475 253.503 498.461 255.829C498.447 258.155 500.311 260.052 502.623 260.068Z" fill="#E0E0E0"/>
<path d="M502.155 277.253L573.191 277.694C575.503 277.708 577.391 275.834 577.405 273.508C577.419 271.181 575.555 269.283 573.242 269.269L502.206 268.828C499.894 268.814 498.006 270.688 497.992 273.015C497.978 275.342 499.842 277.239 502.155 277.253Z" fill="#E0E0E0"/>
<path d="M411.514 292.761L573.013 293.762C575.326 293.776 577.213 291.902 577.227 289.576C577.241 287.249 575.377 285.351 573.065 285.337L411.566 284.336C410.017 284.326 408.754 285.582 408.744 287.14L408.727 289.922C408.717 291.48 409.965 292.751 411.514 292.761Z" fill="#E0E0E0"/>
<path d="M417.811 73.4896L464.815 73.1623C467.128 73.1461 468.99 71.2468 468.974 68.9206C468.958 66.5945 467.069 64.7212 464.757 64.7374L417.753 65.0646C415.44 65.0809 413.578 66.9802 413.594 69.3063C413.61 71.6325 415.498 73.5058 417.811 73.4896Z" fill="#E0E0E0"/>
<path d="M470.156 20.1198L473.122 17.2324L508.874 17.0547L510.642 20.2216L470.156 20.1198Z" fill="#404040"/>
<path d="M510.62 36.8051L510.648 20.2109L470.163 20.1417L470.135 36.7359L510.62 36.8051Z" fill="#404040"/>
<path d="M511.969 37.3693L511.97 36.7702C511.971 36.0215 511.369 35.4126 510.625 35.4115L470.025 35.3097C469.279 35.3075 468.674 35.9143 468.673 36.664L468.672 37.2632C468.671 38.0118 469.273 38.6207 470.017 38.6229L510.616 38.7247C511.361 38.7258 511.968 38.1191 511.969 37.3693Z" fill="#404040"/>
<path d="M499.285 32.7449C499.279 32.7449 499.272 32.7449 499.266 32.7449L481.46 32.6994C480.948 32.6983 480.469 32.4545 480.176 32.0472C479.883 31.6398 479.81 31.1187 479.983 30.6506L485.074 16.8626C482.739 15.2049 481.315 12.5851 481.242 9.76811C481.114 4.82756 485.13 0.66601 490.193 0.49049C492.727 0.392979 495.165 1.30416 496.999 3.03227C498.835 4.76147 499.843 7.08114 499.839 9.56658C499.835 12.5125 498.376 15.2341 495.918 16.9308L500.753 30.721C500.916 31.1891 500.839 31.707 500.544 32.1068C500.253 32.5022 499.783 32.7395 499.285 32.7449ZM490.45 1.58045C490.378 1.58153 490.306 1.58261 490.232 1.58586C485.858 1.73646 482.255 5.47221 482.364 9.74211C482.432 12.3446 483.811 14.7574 486.056 16.1973L486.426 16.4346L481.04 31.0233C480.99 31.1587 481.009 31.3028 481.093 31.4209C481.178 31.539 481.312 31.6062 481.46 31.6062L499.267 31.6506C499.425 31.6506 499.546 31.5845 499.631 31.4686C499.716 31.3527 499.738 31.2086 499.691 31.0742L494.574 16.4823L494.944 16.2515C497.301 14.7813 498.711 12.2817 498.715 9.5655C498.72 7.38017 497.833 5.34112 496.219 3.82103C494.658 2.3497 492.616 1.55986 490.45 1.58045Z" fill="#676767"/>
<path d="M510.297 35.4088C510.295 35.398 510.153 35.3915 509.889 35.3904C509.588 35.386 509.203 35.3795 508.727 35.373C507.674 35.3622 506.222 35.347 504.446 35.3286C500.794 35.3059 495.819 35.2755 490.322 35.2419C484.822 35.2354 479.847 35.2289 476.195 35.2246C474.419 35.2365 472.967 35.2463 471.914 35.2539C471.437 35.2636 471.051 35.2723 470.75 35.2777C470.484 35.2864 470.344 35.2972 470.344 35.308C470.344 35.3189 470.484 35.3308 470.75 35.3427C471.05 35.3524 471.437 35.3644 471.913 35.3795C472.966 35.398 474.418 35.4229 476.194 35.4532C479.809 35.5009 484.803 35.5431 490.32 35.5648C495.836 35.5865 500.83 35.5832 504.445 35.5572C506.252 35.5442 507.715 35.5247 508.727 35.4987C509.233 35.4836 509.623 35.4749 509.892 35.4554C510.161 35.4359 510.299 35.4196 510.297 35.4088Z" fill="#676767"/>
<path d="M510.711 19.8795C510.709 19.8687 510.567 19.8622 510.303 19.8611C510.002 19.8567 509.617 19.8513 509.141 19.8437C508.088 19.8329 506.636 19.8177 504.86 19.7993C501.208 19.7766 496.233 19.7462 490.736 19.7126C485.237 19.7061 480.261 19.7007 476.609 19.6953C474.833 19.7072 473.381 19.717 472.328 19.7246C471.851 19.7343 471.466 19.743 471.164 19.7484C470.898 19.7571 470.758 19.7679 470.758 19.7787C470.758 19.7896 470.898 19.8015 471.164 19.8134C471.464 19.8232 471.85 19.8351 472.327 19.8502C473.38 19.8687 474.832 19.8936 476.608 19.9239C480.223 19.9716 485.217 20.0138 490.735 20.0355C496.25 20.0572 501.245 20.0539 504.86 20.0279C506.667 20.0149 508.13 19.9954 509.142 19.9694C509.648 19.9543 510.038 19.9456 510.307 19.9261C510.577 19.9055 510.713 19.8903 510.711 19.8795Z" fill="#676767"/>
<path d="M609.765 330.088C609.659 330.201 606.256 327.176 602.165 323.332C598.073 319.487 594.842 316.278 594.948 316.164C595.053 316.05 598.455 319.074 602.547 322.921C606.64 326.765 609.871 329.974 609.765 330.088Z" fill="#404040"/>
<path d="M408.727 324.06C408.727 324.06 409.058 324.042 409.708 324.033C410.37 324.027 411.333 324.018 412.594 324.007C415.146 323.996 418.891 323.979 423.723 323.957C433.417 323.937 447.461 323.908 464.916 323.871C499.852 323.848 548.439 323.815 603.086 323.78L602.807 324.06C602.807 317.038 602.806 309.586 602.806 302.046C602.838 241.973 602.867 187.598 602.888 148.225C602.926 128.552 602.956 112.631 602.977 101.612C603 96.1178 603.018 91.849 603.03 88.9388C603.042 87.4989 603.052 86.3981 603.058 85.643C603.068 84.9008 603.087 84.5205 603.087 84.5205C603.087 84.5205 603.107 84.9008 603.116 85.643C603.123 86.3981 603.131 87.4989 603.144 88.9388C603.156 91.849 603.174 96.1178 603.197 101.612C603.219 112.631 603.249 128.552 603.287 148.225C603.308 187.597 603.337 241.973 603.368 302.046C603.368 309.586 603.367 317.037 603.367 324.06V324.341H603.088C548.44 324.305 499.855 324.273 464.918 324.25C447.463 324.213 433.419 324.184 423.726 324.163C418.893 324.142 415.148 324.124 412.596 324.113C411.336 324.101 410.373 324.093 409.71 324.087C409.059 324.078 408.727 324.06 408.727 324.06Z" fill="#404040"/>
<path d="M480.43 239.372C480.722 257.707 466.196 272.864 448.05 273.158C429.905 273.453 414.905 258.775 414.614 240.44C414.322 222.105 428.848 206.948 446.993 206.654C465.139 206.36 480.138 221.037 480.43 239.372ZM431.786 240.162C431.925 248.928 439.098 255.947 447.773 255.806C456.449 255.665 463.395 248.418 463.255 239.651C463.116 230.885 455.944 223.867 447.268 224.007C438.593 224.148 431.648 231.394 431.786 240.162Z" fill="#E0E0E0"/>
<path d="M480.436 239.372C480.728 257.707 466.202 272.863 448.057 273.158L447.781 255.806C456.457 255.665 463.403 248.418 463.263 239.651C463.124 230.885 455.952 223.868 447.276 224.008L447 206.656C465.145 206.36 480.144 221.036 480.436 239.372Z" fill="#676767"/>
<path d="M451.012 275.827C429.784 276.172 412.849 259.6 412.508 238.15L432.599 237.824C432.761 248.08 440.52 254.537 450.671 254.373L451.012 275.827Z" fill="#8BC53F"/>
<path d="M424.046 238.498C424.173 238.587 422.274 241.582 419.804 245.187C417.333 248.794 415.227 251.646 415.1 251.557C414.973 251.468 416.872 248.473 419.342 244.868C421.812 241.261 423.919 238.409 424.046 238.498Z" fill="#404040"/>
<path d="M432.78 240.189C432.907 240.278 430.099 244.601 426.507 249.845C422.913 255.09 419.898 259.27 419.77 259.181C419.643 259.093 422.451 254.77 426.044 249.524C429.637 244.281 432.653 240.101 432.78 240.189Z" fill="#404040"/>
<path d="M437.037 249.173C437.164 249.262 434.636 253.176 431.389 257.915C428.141 262.655 425.406 266.425 425.278 266.336C425.151 266.248 427.679 262.334 430.927 257.594C434.174 252.856 436.91 249.086 437.037 249.173Z" fill="#404040"/>
<path d="M444.427 254.145C444.554 254.234 442.026 258.147 438.78 262.886C435.532 267.626 432.797 271.397 432.669 271.308C432.542 271.219 435.07 267.306 438.318 262.566C441.564 257.828 444.299 254.057 444.427 254.145Z" fill="#404040"/>
<path d="M450.767 260.454C450.895 260.543 448.828 263.781 446.153 267.687C443.476 271.594 441.203 274.69 441.076 274.601C440.949 274.513 443.014 271.274 445.691 267.366C448.366 263.461 450.64 260.365 450.767 260.454Z" fill="#404040"/>
<path d="M570.428 151.211C570.424 151.211 570.42 151.211 570.415 151.211L508.26 150.464C507.973 150.461 507.702 150.343 507.501 150.138C507.302 149.932 507.192 149.656 507.195 149.369L507.777 100.37C507.785 99.7705 508.249 99.283 508.867 99.2992C509.463 99.3068 509.939 99.7976 509.931 100.396L509.363 148.311L570.441 149.045C571.037 149.053 571.513 149.542 571.505 150.141C571.498 150.734 571.017 151.211 570.428 151.211Z" fill="#404040"/>
<path opacity="0.7" d="M525.226 130.617L516.883 130.518L516.7 145.934L525.044 146.033L525.226 130.617Z" fill="#C53F8B"/>
<path opacity="0.7" d="M554.203 130.616L545.859 130.517L545.677 145.933L554.02 146.032L554.203 130.616Z" fill="#C53F8B"/>
<path d="M539.913 118.271L531.57 118.171L531.239 146.194L539.582 146.294L539.913 118.271Z" fill="#C53F8B"/>
<path d="M568.796 118.271L560.453 118.171L560.122 146.194L568.465 146.294L568.796 118.271Z" fill="#C53F8B"/>
<path d="M515.913 123.809C515.621 123.809 515.331 123.69 515.119 123.456C514.717 123.015 514.746 122.33 515.186 121.927L534.35 104.276C534.738 103.918 535.326 103.896 535.741 104.221L547.823 113.704L573.649 95.1902C574.135 94.8424 574.806 94.9583 575.152 95.4437C575.496 95.9312 575.384 96.6073 574.899 96.9551L548.42 115.938C548.032 116.217 547.507 116.206 547.132 115.91L535.136 106.493L516.643 123.525C516.433 123.714 516.173 123.809 515.913 123.809Z" fill="#676767"/>
<path d="M576.421 72.2296H561.803C558.987 72.2296 556.703 69.9338 556.703 67.1006C556.703 64.2684 558.986 61.9715 561.803 61.9715H576.421C579.237 61.9715 581.52 64.2673 581.52 67.1006C581.521 69.9338 579.237 72.2296 576.421 72.2296Z" fill="#E0E0E0"/>

<g class="el1">
<path d="M587.832 150.664L598.781 138.62L635.937 172.654L624.988 184.697L587.832 150.664Z" fill="#CDCDCD"/>
<path d="M493.265 52.996C518.828 24.8798 562.272 22.8858 590.292 48.5507C618.303 74.2086 620.29 117.816 594.727 145.933C569.158 174.057 525.721 176.043 497.708 150.385C469.69 124.719 467.696 81.1204 493.265 52.996ZM584.047 136.149C604.225 113.955 602.657 79.5266 580.545 59.2731C558.426 39.0114 524.126 40.5865 503.947 62.7803C483.762 84.9823 485.337 119.404 507.457 139.664C529.569 159.918 563.861 158.352 584.047 136.149Z" fill="#C53F8B"/>
<path d="M665.015 217.11L671.752 209.7C674.464 206.717 674.254 202.092 671.282 199.37L633.143 164.436C630.171 161.714 625.563 161.925 622.852 164.909L616.114 172.319C613.402 175.302 613.613 179.927 616.585 182.649L654.723 217.583C657.696 220.305 662.303 220.093 665.015 217.11Z" fill="#A93175"/>

<g opacity="0.4">
<path d="M507.456 139.663C529.568 159.917 563.86 158.351 584.046 136.148C604.224 113.954 602.656 79.5256 580.544 59.272C558.425 39.0104 524.125 40.5855 503.946 62.7793C483.761 84.9813 485.337 119.401 507.456 139.663Z" fill="white"/>
<path d="M520.13 148.34C541.209 158.731 567.419 154.45 584.048 136.147C587.485 132.365 590.294 128.231 592.477 123.86L520.13 148.34Z" fill="#EBEBEB"/>
<path d="M489.868 102.578L588.953 69.0506C586.602 65.5363 583.784 62.2543 580.537 59.2721C576.807 55.8407 572.714 53.0475 568.398 50.875L495.24 75.6217C491.121 84.1086 489.339 93.404 489.868 102.578Z" fill="#EBEBEB"/>
<path d="M503.647 135.804L598.03 103.868C598.315 100.31 598.245 96.7354 597.843 93.1897L497.341 127.196C499.116 130.228 501.221 133.108 503.647 135.804Z" fill="#EBEBEB"/>
<path d="M490.817 109.967L592.688 75.5061C592.398 74.9099 592.104 74.3242 591.795 73.7432L490.476 108.026C490.57 108.671 490.674 109.322 490.817 109.967Z" fill="#EBEBEB"/>
<path d="M505.834 60.8083L551.047 45.5099C549.438 45.2952 547.814 45.1587 546.192 45.0957L509.419 57.5379C508.185 58.5599 506.99 59.6497 505.834 60.8083Z" fill="#EBEBEB"/>
</g>
</g>
<path d="M571.018 70.3842C570.961 70.3341 570.901 70.2862 570.843 70.2372C570.025 69.5593 571.679 70.8696 571.109 70.4437C570.429 69.935 569.749 69.4287 569.047 68.9503C566.594 67.2784 563.991 65.8234 561.294 64.5832C560.914 64.4082 560.527 64.2483 560.148 64.0722C560.022 64.0138 561.066 64.449 560.232 64.1118C559.995 64.0161 559.757 63.9193 559.519 63.8248C558.6 63.4619 557.67 63.1248 556.731 62.8156C554.662 62.1319 552.549 61.58 550.409 61.1751C549.897 61.0783 549.383 60.9978 548.869 60.9091C548.177 60.7901 549.661 61.0036 548.724 60.8904C548.414 60.8531 548.103 60.8134 547.792 60.7796C546.607 60.6512 545.417 60.5684 544.226 60.5322C542.936 60.4937 541.646 60.5124 540.359 60.5859C539.769 60.6197 539.181 60.6688 538.593 60.7224C537.574 60.8158 539.015 60.6513 538.287 60.7563C537.935 60.8064 537.582 60.8508 537.23 60.9056C534.069 61.3898 531.003 62.2404 528 63.3313C527.939 63.3534 527.402 63.5634 527.849 63.3873C528.302 63.2088 527.61 63.4864 527.534 63.5191C527.098 63.7023 526.663 63.8855 526.232 64.078C525.402 64.4478 524.581 64.8399 523.771 65.2529C522.056 66.1268 520.395 67.0975 518.776 68.1359C516.915 69.3295 514.238 68.3576 513.227 66.5095C512.104 64.4572 512.981 62.1365 514.847 60.9394C525.126 54.3473 537.345 51.0851 549.505 52.7769C557.648 53.9098 565.535 56.8582 572.429 61.3676C573.969 62.3757 575.49 63.4654 576.883 64.6718C578.506 66.0778 578.347 69.0915 576.796 70.4717C575.016 72.0562 572.755 71.8905 571.018 70.3842Z" fill="white"/>
<path d="M579.333 79.284C580.877 80.8824 583.422 80.9209 585.014 79.3703C586.607 77.8197 586.645 75.2657 585.1 73.6673C583.556 72.0688 581.011 72.0303 579.419 73.5809C577.826 75.1327 577.787 77.6855 579.333 79.284Z" fill="white"/>




<style>
    .el1 {
    animation: move1 3s infinite;
    animation-timing-function: ease-in-out;
    }

    @keyframes move1 {
    0% {
    transform: translateY(0px);
    }
    50% {
    transform: translateY(10px);
    }
    100% {
    transform: translateY(0px);
    }
    }



    
</style>




</svg>
